<svg xmlns="http://www.w3.org/2000/svg" width="48.151" height="48.151" viewBox="0 0 48.151 48.151"><defs><style>.a{fill:#fff;stroke:#fff;stroke-width:0.3px;}</style></defs><g transform="translate(0.15 0.15)"><g transform="translate(0)"><path class="a" d="M47.851,10.368a.293.293,0,0,0-.08-.239v-.08c-.08-.08-.08-.16-.16-.239L38.041.239c-.08-.08-.16-.08-.239-.16h-.08c-.08,0-.16-.08-.239-.08H.8A.753.753,0,0,0,0,.8V47.851H1.6V1.6H36.686v8.773a.753.753,0,0,0,.8.8h8.773V47.851h1.6V10.368Zm-9.57-.8V2.712L45.139,9.57Z" transform="translate(0)"/><path class="a" d="M43.483,36H6.8a.753.753,0,0,0-.8.8V55.14H7.6V43.975h6.38V55.14h1.6V43.975H42.686V55.14h1.6V36.8A.753.753,0,0,0,43.483,36ZM7.6,42.38V37.6H42.686V42.38Z" transform="translate(-1.215 -7.289)"/><rect class="a" width="7.975" height="1.595" transform="translate(4.785 4.785)"/><rect class="a" width="11.165" height="1.595" transform="translate(4.785 7.975)"/><rect class="a" width="33.496" height="1.595" transform="translate(9.57 15.95)"/><rect class="a" width="38.281" height="1.595" transform="translate(4.785 19.938)"/><rect class="a" width="3.19" height="1.595" transform="translate(7.975 38.281)"/><rect class="a" width="3.19" height="1.595" transform="translate(7.975 41.471)"/><rect class="a" width="3.19" height="1.595" transform="translate(7.975 44.661)"/><rect class="a" width="9.57" height="1.595" transform="translate(7.975 31.901)"/><rect class="a" width="4.785" height="1.595" transform="translate(19.14 31.901)"/><rect class="a" width="4.785" height="1.595" transform="translate(25.52 31.901)"/><rect class="a" width="15.95" height="1.595" transform="translate(16.748 38.281)"/><rect class="a" width="22.33" height="1.595" transform="translate(16.748 41.471)"/><rect class="a" width="22.33" height="1.595" transform="translate(16.748 44.661)"/><rect class="a" width="1.595" height="1.595" transform="translate(35.091 23.925)"/><rect class="a" width="1.595" height="1.595" transform="translate(38.281 23.925)"/><rect class="a" width="1.595" height="1.595" transform="translate(41.471 23.925)"/></g></g></svg>