<svg xmlns="http://www.w3.org/2000/svg" xmlns:xlink="http://www.w3.org/1999/xlink" width="319.765" height="436.08" viewBox="0 0 319.765 436.08"><defs><style>.a{fill:#fff;}.b{fill:#272727;}.c{fill:#00235e;}.d,.e{fill:#2268dd;}.e{stroke:#2268dd;}.f{fill:none;stroke:#272727;stroke-linecap:round;stroke-width:10px;opacity:0.28;}.g{filter:url(#a);}</style><filter id="a" x="0" y="0" width="319.765" height="436.08" filterUnits="userSpaceOnUse"><feOffset dx="3" dy="3" input="SourceAlpha"/><feGaussianBlur stdDeviation="5" result="b"/><feFlood flood-color="#272727" flood-opacity="0.231"/><feComposite operator="in" in2="b"/><feComposite in="SourceGraphic"/></filter></defs><g transform="translate(-416.021 -681)"><g transform="translate(1204.687 738.871)"><g class="g" transform="matrix(1, 0, 0, 1, -788.67, -57.87)"><rect class="a" width="289.765" height="406.08" transform="translate(12 12)"/></g><g transform="translate(-776.687 304.507)"><path class="b" d="M-486.881,751.589V708.336s-45.714-28.007-131.011,0q-9.638,3.171-18.4,5.93v0c-71.811,22.639-102.323,25.053-140.391.9v36.417Z" transform="translate(776.687 -695.888)"/><path class="c" d="M-313.247,726.371v-16.79s-41.109-25.186-117.813,0q-8.667,2.851-16.549,5.332v0c104.206-11.724,134.362,11.453,134.362,11.453Z" transform="translate(603.053 -697.207)"/><path class="d" d="M-486.881,708.357a46.26,46.26,0,0,0-4.17-2.119c-1.42-.656-2.864-1.246-4.312-1.822-2.911-1.135-5.876-2.11-8.875-2.978a132.4,132.4,0,0,0-18.305-3.89,162.051,162.051,0,0,0-18.649-1.553,180.392,180.392,0,0,0-18.713.447c-1.558.08-3.11.258-4.665.4s-3.11.278-4.655.495l-4.644.587-4.628.719-2.312.363-2.3.432-4.6.866-4.571,1-2.289.5c-.76.168-1.514.373-2.275.557l-4.54,1.136c-1.518.366-3.009.83-4.513,1.239-1.5.428-3.008.835-4.5,1.28l-4.469,1.4c-2.985.915-5.947,1.9-8.915,2.868l-8.912,2.869c-11.9,3.776-23.838,7.431-35.907,10.637q-9.042,2.429-18.208,4.37c-6.109,1.283-12.261,2.374-18.46,3.12a130.484,130.484,0,0,1-18.682.986,96.394,96.394,0,0,1-18.564-2.2,94.623,94.623,0,0,1-17.723-5.949,128.068,128.068,0,0,1-16.444-8.925c1.229.978,2.461,1.956,3.719,2.9,1.279.915,2.548,1.86,3.85,2.759,2.625,1.752,5.318,3.438,8.108,4.98l2.1,1.153c.7.387,1.434.707,2.154,1.06s1.437.7,2.174,1.026l2.215.95,1.111.475c.374.153.754.287,1.127.432l2.268.855c.754.3,1.528.518,2.3.783.768.248,1.538.509,2.312.749a98.612,98.612,0,0,0,19.191,3.393c3.244.288,6.5.339,9.736.316,1.623,0,3.235-.09,4.853-.133s3.221-.2,4.833-.31c1.609-.123,3.2-.309,4.81-.462s3.184-.389,4.779-.58,3.164-.473,4.749-.71,3.15-.524,4.719-.809c6.28-1.112,12.486-2.493,18.629-4s12.234-3.18,18.288-4.9c6.051-1.744,12.042-3.614,18.033-5.477l8.939-2.917c2.968-.981,5.981-1.991,8.851-2.894l4.345-1.423c1.457-.455,2.921-.869,4.378-1.307,1.464-.419,2.915-.894,4.389-1.269s2.942-.786,4.409-1.19c.734-.2,1.468-.412,2.208-.592l2.214-.537,4.436-1.073c1.487-.317,2.975-.618,4.46-.952l2.231-.491,2.238-.422,4.483-.84,4.5-.718c1.495-.273,3-.452,4.507-.661s3.016-.434,4.527-.572l4.537-.485,4.544-.38c1.521-.131,3.039-.174,4.557-.268s3.039-.133,4.561-.181l2.289-.07,2.285,0,2.285,0,2.285.044,2.292.044c.764.018,1.524.069,2.285.1l2.292.112,2.285.164,2.292.154,2.285.217c1.531.127,3.046.338,4.574.521.764.084,1.518.215,2.279.325s1.518.222,2.275.357c1.508.284,3.036.51,4.547.817,3.029.578,6.045,1.277,9.026,2.125a72.767,72.767,0,0,1,8.858,2.981Z" transform="translate(776.687 -695.909)"/></g><rect class="d" width="289.765" height="11.809" transform="translate(-776.667 -45.871)"/></g><g transform="translate(719.523 2058.173)"><path class="e" d="M6.447,14.636A3.3,3.3,0,0,1,6.3,13.487a2.075,2.075,0,0,1,.371-1.445q.074-.371,1.223-.371a2.935,2.935,0,0,1,1.371.371q.593.371,2.038,1.445a28.37,28.37,0,0,0,2.742,1.741,10.786,10.786,0,0,0,5.076,1.89,5.3,5.3,0,0,0,2.594-.593,2.478,2.478,0,0,0,1.2-1.056,2.926,2.926,0,0,0,.463-1.538,2.633,2.633,0,0,0-.148-.871,2.291,2.291,0,0,0-.7-.908,9.934,9.934,0,0,0-1.389-.982q-.834-.5-1.019-.648a34.34,34.34,0,0,0-4.631-2.408,52.5,52.5,0,0,1-5.78-3.038A3.844,3.844,0,0,1,7.744,1.964a1.986,1.986,0,0,1,.056-.63A4.206,4.206,0,0,1,8.337.741a2.783,2.783,0,0,1,2-.741A6.977,6.977,0,0,1,13.19,1.26q2,1.223,2.964,1.741,1.149.63,5.41,2.594a19.342,19.342,0,0,1,5.891,3.631,6.26,6.26,0,0,1,1.667,4.631,5.6,5.6,0,0,1-1.408,3.965,8.156,8.156,0,0,1-3.3,2.26q5.261,2.89,5.261,7.6a5.538,5.538,0,0,1-1.593,3.631,8.8,8.8,0,0,1-3.557,2.668,11.925,11.925,0,0,1,4.594,3.779,10.456,10.456,0,0,1,1.7,6,11.042,11.042,0,0,1-3.89,8.818q-3.779,3.261-10.486,3.261a23.414,23.414,0,0,1-8.114-1.371A13.394,13.394,0,0,1,2.26,50.428,10.16,10.16,0,0,1,0,43.684a9.977,9.977,0,0,1,.852-4.15,6.588,6.588,0,0,1,2.112-2.89A4.153,4.153,0,0,1,5.632,35.57a2.14,2.14,0,0,1,1.741.667,2.231,2.231,0,0,1,.593,1.445.964.964,0,0,1-.037.3q-.037.111-.13.333t-.259.556a4.443,4.443,0,0,0-.241.556,4.414,4.414,0,0,0-1.075,2.742,6.436,6.436,0,0,0,3.335,5.928,12.432,12.432,0,0,0,6.521,1.667,12.671,12.671,0,0,0,3.149-.408,5.272,5.272,0,0,0,2.334-1.112A7.207,7.207,0,0,0,22.917,46.2a5.405,5.405,0,0,0,.611-2.223,6.889,6.889,0,0,0-.556-2.668,4.536,4.536,0,0,0-1.408-1.964,43.073,43.073,0,0,0-5.854-3.483,47.391,47.391,0,0,1-5.373-3.316,24.858,24.858,0,0,1-3.372-2.686,12.94,12.94,0,0,1-1.241-1.5,2.149,2.149,0,0,1-.352-1.2,2.621,2.621,0,0,1,.556-1.519,2.108,2.108,0,0,1,1.741-.852,1.973,1.973,0,0,1,.889.222q.408.333,1.649,1.241a27.259,27.259,0,0,0,2.39,1.575,20.963,20.963,0,0,0,5.447,2.52,7.521,7.521,0,0,0,2.075.3,2.446,2.446,0,0,0,2.019-.76,5.426,5.426,0,0,0,.945-2.13,4.667,4.667,0,0,0-1.519-3.038,3.4,3.4,0,0,0-.889-.611q-.556-.278-1.2-.537t-1.427-.593q-1.741-.889-3.928-2.038A24.523,24.523,0,0,1,8.485,16.97q-.445-.482-.834-.852t-.63-.648A6.186,6.186,0,0,1,6.447,14.636Z" transform="translate(-228.902 -1258.311) rotate(180)"/></g><line class="f" x2="120" transform="translate(459.5 858.5)"/><line class="f" x2="170" transform="translate(459.5 883.5)"/><line class="f" x2="143" transform="translate(459.5 906.5)"/><line class="f" x2="81" transform="translate(459.5 929.5)"/><line class="f" x2="193" transform="translate(459.5 952.5)"/><line class="f" x2="113" transform="translate(459.5 977.5)"/></g></svg>