<svg xmlns="http://www.w3.org/2000/svg" width="206.443" height="47.71" viewBox="0 0 206.443 47.71"><defs><style>.a,.b{fill:#fff;}.a{stroke:#fff;stroke-width:2px;}.b{stroke:rgba(0,0,0,0);}</style></defs><g transform="translate(260.729 1315.148)"><path class="a" d="M6.855-28.345a2.349,2.349,0,0,1-.105-.817,1.477,1.477,0,0,1,.264-1.028q.053-.264.87-.264a2.088,2.088,0,0,1,.976.264q.422.264,1.45,1.028a20.189,20.189,0,0,0,1.951,1.239,7.676,7.676,0,0,0,3.612,1.345A3.769,3.769,0,0,0,17.719-27a1.763,1.763,0,0,0,.857-.751,2.082,2.082,0,0,0,.33-1.094,1.873,1.873,0,0,0-.105-.62,1.63,1.63,0,0,0-.5-.646,7.07,7.07,0,0,0-.989-.7q-.593-.356-.725-.461a24.437,24.437,0,0,0-3.3-1.714,37.362,37.362,0,0,1-4.113-2.162,2.735,2.735,0,0,1-1.4-2.215,1.413,1.413,0,0,1,.04-.448,2.993,2.993,0,0,1,.382-.422,1.98,1.98,0,0,1,1.424-.527,4.965,4.965,0,0,1,2.03.9q1.424.87,2.109,1.239.817.448,3.85,1.846a13.764,13.764,0,0,1,4.192,2.584,4.455,4.455,0,0,1,1.187,3.3,3.985,3.985,0,0,1-1,2.821,5.8,5.8,0,0,1-2.347,1.608q3.744,2.057,3.744,5.405a3.941,3.941,0,0,1-1.134,2.584,6.262,6.262,0,0,1-2.531,1.9,8.486,8.486,0,0,1,3.27,2.689A7.441,7.441,0,0,1,24.205-7.62a7.858,7.858,0,0,1-2.769,6.275Q18.747.976,13.975.976A16.662,16.662,0,0,1,8.2,0,9.531,9.531,0,0,1,3.876-2.874a7.23,7.23,0,0,1-1.608-4.8,7.1,7.1,0,0,1,.606-2.953,4.688,4.688,0,0,1,1.5-2.057,2.955,2.955,0,0,1,1.9-.765,1.523,1.523,0,0,1,1.239.475,1.588,1.588,0,0,1,.422,1.028.686.686,0,0,1-.026.211q-.026.079-.092.237t-.185.4a3.162,3.162,0,0,0-.171.4A3.141,3.141,0,0,0,6.7-8.754,4.58,4.58,0,0,0,9.07-4.535a8.847,8.847,0,0,0,4.641,1.187,9.017,9.017,0,0,0,2.241-.29,3.752,3.752,0,0,0,1.661-.791,5.129,5.129,0,0,0,.962-1.45,3.847,3.847,0,0,0,.435-1.582,4.9,4.9,0,0,0-.4-1.9,3.228,3.228,0,0,0-1-1.4,30.652,30.652,0,0,0-4.166-2.479A33.725,33.725,0,0,1,9.624-15.6a17.689,17.689,0,0,1-2.4-1.912,9.209,9.209,0,0,1-.883-1.068,1.53,1.53,0,0,1-.25-.857,1.865,1.865,0,0,1,.4-1.081,1.5,1.5,0,0,1,1.239-.606,1.4,1.4,0,0,1,.633.158q.29.237,1.173.883a19.4,19.4,0,0,0,1.7,1.121,14.918,14.918,0,0,0,3.876,1.793,5.352,5.352,0,0,0,1.477.211,1.74,1.74,0,0,0,1.437-.541,3.861,3.861,0,0,0,.672-1.516,3.321,3.321,0,0,0-1.081-2.162,2.416,2.416,0,0,0-.633-.435q-.4-.2-.857-.382t-1.015-.422q-1.239-.633-2.795-1.45a17.451,17.451,0,0,1-4.008-2.821q-.316-.343-.593-.606t-.448-.461A4.4,4.4,0,0,1,6.855-28.345Z" transform="translate(-235.524 -1313.173) rotate(180)"/><path class="b" d="M2.31-20.174a.708.708,0,0,1,.175-.427.533.533,0,0,1,.427-.189H7.07a.711.711,0,0,1,.434.175.539.539,0,0,1,.224.442v6.649h6.958v-6.649a.607.607,0,0,1,.175-.435.6.6,0,0,1,.454-.182h4.091a.859.859,0,0,1,.489.14.5.5,0,0,1,.209.448V-.616a.572.572,0,0,1-.182.462A.709.709,0,0,1,19.448,0H15.314a.661.661,0,0,1-.454-.154.584.584,0,0,1-.175-.462V-8.568H7.728V-.616a.565.565,0,0,1-.189.455A.762.762,0,0,1,7.028,0H2.912q-.588,0-.6-.546Zm40.1,19.138a1.249,1.249,0,0,1-.084.455.7.7,0,0,1-.28.343.7.7,0,0,1-.364.2A1.893,1.893,0,0,1,41.314,0H38.556a1.237,1.237,0,0,1-.476-.077.735.735,0,0,1-.294-.217A1.261,1.261,0,0,1,37.6-.637q-.077-.2-.161-.441l-.182-.63a8.163,8.163,0,0,1-.861.742,6.671,6.671,0,0,1-1.064.651,6.594,6.594,0,0,1-1.246.462A5.4,5.4,0,0,1,32.7.322,9.158,9.158,0,0,1,30.261,0a9.049,9.049,0,0,1-2.184-.917,8.969,8.969,0,0,1-1.841-1.428A9.189,9.189,0,0,1,24.815-4.2a9.123,9.123,0,0,1-.917-2.2,9.367,9.367,0,0,1-.322-2.471A9.123,9.123,0,0,1,24.29-12.5a9.212,9.212,0,0,1,1.946-2.912,9,9,0,0,1,2.9-1.946,9.043,9.043,0,0,1,3.57-.707,6.371,6.371,0,0,1,1.617.2,6.168,6.168,0,0,1,1.372.532,5.428,5.428,0,0,1,1.127.805,6.226,6.226,0,0,1,.882,1.015l.406-1.274q.14-.35.231-.567a1.007,1.007,0,0,1,.2-.322.521.521,0,0,1,.259-.14,2.07,2.07,0,0,1,.434-.035h2.086a1.893,1.893,0,0,1,.364.042.7.7,0,0,1,.364.2.9.9,0,0,1,.28.35,1.128,1.128,0,0,1,.084.448Zm-13.79-7.84A5.111,5.111,0,0,0,28.9-7.147a4.1,4.1,0,0,0,.819,1.393A3.889,3.889,0,0,0,31-4.823a3.938,3.938,0,0,0,1.659.343,4.4,4.4,0,0,0,1.743-.343,4.452,4.452,0,0,0,1.4-.931,4.22,4.22,0,0,0,.931-1.393,4.443,4.443,0,0,0,.336-1.729,4.423,4.423,0,0,0-.336-1.708,4.525,4.525,0,0,0-.931-1.428,4.412,4.412,0,0,0-1.4-.973,4.251,4.251,0,0,0-1.743-.357A3.806,3.806,0,0,0,31-12.985a3.876,3.876,0,0,0-1.281.973,4.408,4.408,0,0,0-.819,1.428A5.087,5.087,0,0,0,28.616-8.876Zm17.15-13.118a1.251,1.251,0,0,1,.224-.756.889.889,0,0,1,.77-.308h3.43a.658.658,0,0,1,.294.077,1.036,1.036,0,0,1,.287.217,1.242,1.242,0,0,1,.224.336,1.018,1.018,0,0,1,.091.434V-1.078a1.032,1.032,0,0,1-.3.805A1.112,1.112,0,0,1,50.008,0H46.76a.946.946,0,0,1-.77-.273,1.245,1.245,0,0,1-.224-.805Zm8.666,5.306a1.212,1.212,0,0,1,.252-.77.934.934,0,0,1,.784-.322h3.206a1,1,0,0,1,.364.077,1.239,1.239,0,0,1,.364.224,1.458,1.458,0,0,1,.287.343.846.846,0,0,1,.119.448v15.61a1.045,1.045,0,0,1-.294.805,1.19,1.19,0,0,1-.84.273H55.468q-1.036,0-1.036-1.078Zm0-7.084a1.133,1.133,0,0,1,.252-.833,1.089,1.089,0,0,1,.784-.245h3.248a1.214,1.214,0,0,1,.791.245,1.018,1.018,0,0,1,.3.833v2.73a1,1,0,0,1-.077.364,1.549,1.549,0,0,1-.217.378,1.182,1.182,0,0,1-.343.3.883.883,0,0,1-.455.119H55.468q-1.036,0-1.036-1.162Zm9.814,3.22a.764.764,0,0,1,.287-.651,3.233,3.233,0,0,1,.819-.413l3.178-1.106a.679.679,0,0,1,.133-.014h.119a.733.733,0,0,1,.693.3,1.564,1.564,0,0,1,.175.791l-.014,3.85h1.918a1.014,1.014,0,0,1,.728.266,1.051,1.051,0,0,1,.28.8v2.7a1.158,1.158,0,0,1-.28.861,1,1,0,0,1-.728.273H69.636L69.65-1.078a1.019,1.019,0,0,1-.308.805A1.243,1.243,0,0,1,68.488,0H65.324a.953.953,0,0,1-1.078-1.078l-.014-11.816H62.79q-1.078,0-1.078-1.134v-2.7a.947.947,0,0,1,1.078-1.064h1.442Zm10.948,3.808a1.022,1.022,0,0,1,.1-.462.93.93,0,0,1,.259-.322,1.127,1.127,0,0,1,.364-.189,1.342,1.342,0,0,1,.4-.063h2.114a.757.757,0,0,1,.56.21,1.8,1.8,0,0,1,.357.532,5.082,5.082,0,0,1,.259.714,6.571,6.571,0,0,0,.266.756q.42-.462.833-.91a6.218,6.218,0,0,1,.889-.8,4.416,4.416,0,0,1,1.043-.567,3.6,3.6,0,0,1,1.295-.217,7.348,7.348,0,0,1,1.351.112,5.833,5.833,0,0,1,1.127.329,6.557,6.557,0,0,1,1.057.553q.525.336,1.141.784a.989.989,0,0,1,.6.826,1.461,1.461,0,0,1-.238.714L87.7-12.572a1.113,1.113,0,0,1-.938.546,1.588,1.588,0,0,1-.63-.154,4.427,4.427,0,0,0-1.225-.875,3.36,3.36,0,0,0-1.421-.287,2.738,2.738,0,0,0-.959.154,2.556,2.556,0,0,0-.749.434,3.966,3.966,0,0,0-.63.672q-.294.392-.588.868V-1.078a1.128,1.128,0,0,1-.259.805A1.148,1.148,0,0,1,79.436,0h-3.15a.959.959,0,0,1-1.092-1.078Zm30.59,14.616a9.327,9.327,0,0,1-2.772,1.771A8.449,8.449,0,0,1,99.75.28a9.468,9.468,0,0,1-3.626-.7,9.439,9.439,0,0,1-3-1.939,9.3,9.3,0,0,1-2.044-2.919,8.8,8.8,0,0,1-.756-3.654,9.427,9.427,0,0,1,.3-2.387,9.412,9.412,0,0,1,.854-2.163,9.171,9.171,0,0,1,1.344-1.855A8.5,8.5,0,0,1,94.6-16.786a8.729,8.729,0,0,1,2.128-.938,8.58,8.58,0,0,1,2.422-.336,8.263,8.263,0,0,1,2.254.308,8.77,8.77,0,0,1,2.051.868,8.908,8.908,0,0,1,1.757,1.344,9.075,9.075,0,0,1,1.372,1.715,8.273,8.273,0,0,1,.889,1.988,7.582,7.582,0,0,1,.315,2.177q0,.728-.021,1.19a1.345,1.345,0,0,1-.217.735,1.055,1.055,0,0,1-.651.378,6.372,6.372,0,0,1-1.337.105H95.48a3.48,3.48,0,0,0,.567,1.5,3.559,3.559,0,0,0,.987.959,3.943,3.943,0,0,0,1.19.511,5.019,5.019,0,0,0,1.19.154,5.345,5.345,0,0,0,1.036-.105,7.42,7.42,0,0,0,1.029-.28,5.822,5.822,0,0,0,.91-.406,3.025,3.025,0,0,0,.665-.483,2.916,2.916,0,0,1,.385-.273.686.686,0,0,1,.343-.091.668.668,0,0,1,.371.126,2.924,2.924,0,0,1,.427.364l1.484,1.68a.934.934,0,0,1,.2.329,1.09,1.09,0,0,1,.042.3.776.776,0,0,1-.154.483A1.761,1.761,0,0,1,105.784-2.128ZM99.05-13.79a2.678,2.678,0,0,0-1.057.217,3.989,3.989,0,0,0-.959.581,5,5,0,0,0-.8.826,5.066,5.066,0,0,0-.581.938H102.8a8.246,8.246,0,0,0-.637-1.008,4.314,4.314,0,0,0-.784-.812,3.386,3.386,0,0,0-1.008-.546A4.05,4.05,0,0,0,99.05-13.79Zm12.026-3.822a.868.868,0,0,1,.378-.2,1.8,1.8,0,0,1,.378-.042h2.114a1.018,1.018,0,0,1,.441.084.777.777,0,0,1,.287.231,1.46,1.46,0,0,1,.189.336q.077.189.147.413l.588,1.694q.392-.5.791-1.029a5.21,5.21,0,0,1,.945-.952,4.806,4.806,0,0,1,1.3-.707,5.348,5.348,0,0,1,1.848-.28,8.728,8.728,0,0,1,3.535.707,8.422,8.422,0,0,1,2.786,1.946,8.987,8.987,0,0,1,1.827,2.912,9.8,9.8,0,0,1,.658,3.619,9.816,9.816,0,0,1-.658,3.612,8.969,8.969,0,0,1-1.827,2.919,8.51,8.51,0,0,1-2.786,1.953,8.654,8.654,0,0,1-3.535.714,5.029,5.029,0,0,1-1.568-.217,4.611,4.611,0,0,1-1.169-.567,5.412,5.412,0,0,1-.9-.77q-.392-.42-.77-.84V4.452a1.06,1.06,0,0,1-.252.714.977.977,0,0,1-.784.294h-3.206a1.087,1.087,0,0,1-.364-.07,1.373,1.373,0,0,1-.364-.2,1.071,1.071,0,0,1-.28-.315.822.822,0,0,1-.112-.427V-16.814a.915.915,0,0,1,.105-.462A1.617,1.617,0,0,1,111.076-17.612Zm13.076,8.736a4.92,4.92,0,0,0-.294-1.7,4.358,4.358,0,0,0-.826-1.407,3.9,3.9,0,0,0-1.274-.952,3.791,3.791,0,0,0-1.638-.35,4.313,4.313,0,0,0-1.673.329,4.484,4.484,0,0,0-1.386.9,4.565,4.565,0,0,0-.966,1.337,4.2,4.2,0,0,0-.413,1.638v.21a4.339,4.339,0,0,0,.35,1.736,4.409,4.409,0,0,0,.952,1.407,4.553,4.553,0,0,0,1.414.945,4.3,4.3,0,0,0,1.722.35,3.791,3.791,0,0,0,1.638-.35,3.948,3.948,0,0,0,1.274-.945,4.262,4.262,0,0,0,.826-1.407A5.061,5.061,0,0,0,124.152-8.876Zm13.314-7.034a3.754,3.754,0,0,1,.735-.775,5.605,5.605,0,0,1,1.078-.684,6.881,6.881,0,0,1,1.351-.489,6.349,6.349,0,0,1,1.568-.188,5.867,5.867,0,0,1,2.765.614,5.493,5.493,0,0,1,1.932,1.675,7.415,7.415,0,0,1,1.134,2.48,11.933,11.933,0,0,1,.371,3.029v9.17a1.218,1.218,0,0,1-.231.805.911.911,0,0,1-.735.273H144.2a1.253,1.253,0,0,1-.826-.2,1.06,1.06,0,0,1-.224-.791v-9.254a2.718,2.718,0,0,0-.231-1.12,2.918,2.918,0,0,0-.623-.9,2.845,2.845,0,0,0-.917-.6,2.885,2.885,0,0,0-1.113-.217,2.525,2.525,0,0,0-.987.2,2.812,2.812,0,0,0-.868.574,3.222,3.222,0,0,0-.644.889,2.983,2.983,0,0,0-.3,1.148v9.24a1.325,1.325,0,0,1-.091.476A.756.756,0,0,1,137.1-.2a1.281,1.281,0,0,1-.343.154,1.476,1.476,0,0,1-.371.042h-3.164a1.121,1.121,0,0,1-.868-.294,1.124,1.124,0,0,1-.266-.784V-22a1.1,1.1,0,0,1,.266-.77,1.121,1.121,0,0,1,.868-.294h3.164a1.465,1.465,0,0,1,.714.224.756.756,0,0,1,.273.364,1.257,1.257,0,0,1,.091.448Zm29.19,13.782a9.327,9.327,0,0,1-2.772,1.771,8.449,8.449,0,0,1-3.262.637A9.468,9.468,0,0,1,157-.42a9.439,9.439,0,0,1-3-1.939,9.3,9.3,0,0,1-2.044-2.919,8.8,8.8,0,0,1-.756-3.654,9.426,9.426,0,0,1,.3-2.387,9.412,9.412,0,0,1,.854-2.163,9.172,9.172,0,0,1,1.344-1.855,8.5,8.5,0,0,1,1.771-1.449,8.728,8.728,0,0,1,2.128-.938,8.58,8.58,0,0,1,2.422-.336,8.263,8.263,0,0,1,2.254.308,8.77,8.77,0,0,1,2.051.868,8.908,8.908,0,0,1,1.757,1.344,9.075,9.075,0,0,1,1.372,1.715,8.274,8.274,0,0,1,.889,1.988,7.582,7.582,0,0,1,.315,2.177q0,.728-.021,1.19a1.345,1.345,0,0,1-.217.735,1.055,1.055,0,0,1-.651.378,6.372,6.372,0,0,1-1.337.105h-10.08a3.48,3.48,0,0,0,.567,1.5,3.559,3.559,0,0,0,.987.959,3.943,3.943,0,0,0,1.19.511,5.019,5.019,0,0,0,1.19.154,5.345,5.345,0,0,0,1.036-.105,7.42,7.42,0,0,0,1.029-.28,5.822,5.822,0,0,0,.91-.406,3.025,3.025,0,0,0,.665-.483,2.916,2.916,0,0,1,.385-.273.686.686,0,0,1,.343-.091.668.668,0,0,1,.371.126,2.923,2.923,0,0,1,.427.364l1.484,1.68a.934.934,0,0,1,.2.329,1.091,1.091,0,0,1,.042.3.776.776,0,0,1-.154.483A1.761,1.761,0,0,1,166.656-2.128ZM159.922-13.79a2.678,2.678,0,0,0-1.057.217,3.989,3.989,0,0,0-.959.581,5,5,0,0,0-.805.826,5.066,5.066,0,0,0-.581.938h7.154a8.246,8.246,0,0,0-.637-1.008,4.314,4.314,0,0,0-.784-.812,3.386,3.386,0,0,0-1.008-.546A4.05,4.05,0,0,0,159.922-13.79Zm14.322,8.26a4.075,4.075,0,0,0,.819.637,6.186,6.186,0,0,0,.847.42,4.966,4.966,0,0,0,.714.231,2.324,2.324,0,0,0,.42.07q.266,0,.679-.021a3.637,3.637,0,0,0,.791-.126,1.645,1.645,0,0,0,.651-.343.844.844,0,0,0,.273-.672,1.109,1.109,0,0,0-.154-.623,1.238,1.238,0,0,0-.448-.392,3.677,3.677,0,0,0-.721-.287q-.427-.126-.959-.294a11.529,11.529,0,0,1-2.772-1.078,6.222,6.222,0,0,1-1.729-1.407,4.582,4.582,0,0,1-.889-1.673,6.95,6.95,0,0,1-.252-1.89,4.778,4.778,0,0,1,.462-2.114,4.668,4.668,0,0,1,1.316-1.631,6.222,6.222,0,0,1,2.044-1.05,8.865,8.865,0,0,1,2.646-.371,8.808,8.808,0,0,1,1.652.147,6.572,6.572,0,0,1,1.47.462,7.256,7.256,0,0,1,1.365.812,10.827,10.827,0,0,1,1.323,1.183.877.877,0,0,1,.245.525.726.726,0,0,1-.315.525q-.546.448-1.043.882t-1.029.966a.779.779,0,0,1-.336.175.681.681,0,0,1-.322-.007.944.944,0,0,1-.294-.14,1.213,1.213,0,0,1-.252-.238,2.436,2.436,0,0,0-1.12-.735,4.106,4.106,0,0,0-1.176-.189,2.154,2.154,0,0,0-1.092.238.734.734,0,0,0-.378.728.778.778,0,0,0,.273.567,1.952,1.952,0,0,0,.6.329,5.268,5.268,0,0,0,.756.2q.4.077.735.175a21.781,21.781,0,0,1,2.31.882,7.043,7.043,0,0,1,1.82,1.169,4.833,4.833,0,0,1,1.2,1.659,5.8,5.8,0,0,1,.427,2.352A5.408,5.408,0,0,1,184.247-3a5.306,5.306,0,0,1-1.519,1.834,6.963,6.963,0,0,1-2.289,1.134,9.986,9.986,0,0,1-2.849.392A10.4,10.4,0,0,1,175.826.21a8.3,8.3,0,0,1-1.736-.5,7.862,7.862,0,0,1-1.6-.882,6.26,6.26,0,0,1-1.344-1.309,1.454,1.454,0,0,1-.231-.413,1.155,1.155,0,0,1-.07-.427,1.032,1.032,0,0,1,.084-.385.754.754,0,0,1,.245-.3l1.806-1.806a.638.638,0,0,1,.6-.2A1.982,1.982,0,0,1,174.244-5.53Z" transform="translate(-239.586 -1273.398)"/></g></svg>