<svg xmlns="http://www.w3.org/2000/svg" width="40.874" height="48.351" viewBox="0 0 40.874 48.351"><defs><style>.a,.b{fill:#fff;}.a{stroke:#fff;stroke-width:0.5px;}</style></defs><g transform="translate(0.25 0.25)"><g transform="translate(0)"><path class="a" d="M80.374,9.72a.745.745,0,0,0-.219-.529L71.183.219A.748.748,0,0,0,70.655,0H42.243A2.243,2.243,0,0,0,40,2.243V45.608a2.243,2.243,0,0,0,2.243,2.243H78.131a2.243,2.243,0,0,0,2.243-2.243V9.72ZM71.4,2.553l6.419,6.419H72.15a.748.748,0,0,1-.748-.748Zm7.477,43.055a.748.748,0,0,1-.748.748H42.243a.748.748,0,0,1-.748-.748V2.243a.748.748,0,0,1,.748-.748H69.907V8.224a2.243,2.243,0,0,0,2.243,2.243h6.729Z" transform="translate(-40)"/></g><path class="b" d="M11.918,1.5,4.5,4.8V9.742a10.258,10.258,0,0,0,7.418,9.891,10.258,10.258,0,0,0,7.418-9.891V4.8Zm0,9.058h5.77a8.824,8.824,0,0,1-5.77,7.369V10.567H6.148v-4.7l5.77-2.563Z" transform="translate(8.089 17.187)"/></g></svg>