<svg xmlns="http://www.w3.org/2000/svg" width="82.938" height="68.443" viewBox="0 0 82.938 68.443"><defs><style>.a{opacity:0.66;}.b{fill:#707070;}</style></defs><g class="a" transform="translate(1017.953 51.169)"><path class="b" d="M-1017.953,115.255c3.46-3.845,7.934-4.115,12.612-3.5a9.879,9.879,0,0,1,6.172,3.153,10.073,10.073,0,0,1,2.567,6.21c.028.36-.11.435-.436.432q-2.57-.018-5.14,0c-.274,0-.453-.036-.49-.36-.284-2.5-1.967-3.8-4.251-4.176a8.473,8.473,0,0,0-4.831.434,3.3,3.3,0,0,0-2.1,3.918,2.674,2.674,0,0,0,1.914,2.1c1.586.543,3.227.887,4.848,1.3,1.8.463,3.608.89,5.384,1.441a10.92,10.92,0,0,1,3.074,1.478,6.92,6.92,0,0,1,2.967,5.6c.2,3.807-.943,6.978-4.336,9.055a12.185,12.185,0,0,1-4.439,1.609,18.517,18.517,0,0,1-9.472-.761,9.866,9.866,0,0,1-4.038-2.713v-6.636a.423.423,0,0,1,.242-.123c1.067-.051,2.135-.036,3.2-.009a.427.427,0,0,1,.444.406q.04.273.088.546a4.323,4.323,0,0,0,3.28,3.648,10.731,10.731,0,0,0,6.578-.2,3.353,3.353,0,0,0,2.266-3.837,2.8,2.8,0,0,0-1.573-1.946,9.318,9.318,0,0,0-2.284-.815c-1.613-.456-3.25-.818-4.878-1.215a19.424,19.424,0,0,1-5.756-2.035,3.821,3.821,0,0,1-1.61-1.385Z" transform="translate(0 -144.657)"/><path class="b" d="M-914.039-51.158q16.777,0,33.553-.011c.511,0,.683.091.68.65-.027,4.036-.022,8.073,0,12.11,0,.443-.089.6-.566.591q-1.933-.051-3.869,0c-.485.013-.572-.161-.568-.6.02-2.4,0-4.792.019-7.188,0-.444-.1-.594-.573-.594q-28.689.019-57.378,0c-.428,0-.562.1-.558.546.022,2.433,0,4.866.019,7.3,0,.4-.085.543-.515.534-1.344-.029-2.69-.019-4.035,0-.329,0-.449-.084-.448-.432q.015-6.248,0-12.5c0-.316.1-.442.413-.408a3.6,3.6,0,0,0,.387,0Z" transform="translate(-61.956)"/><path class="b" d="M-885.521,459.431c-.15.164-.347.089-.521.089q-31.231.006-62.461.012c-.423,0-.564-.09-.562-.542q.027-6.11,0-12.22c0-.44.089-.612.571-.6,1.289.034,2.58.03,3.869,0,.428-.009.558.1.553.541-.023,2.414,0,4.829-.021,7.243,0,.45.1.583.571.583q28.964-.019,57.929-.012a.674.674,0,0,1,.162.511c.014,1.321.01,2.643,0,3.965A1.368,1.368,0,0,1-885.521,459.431Z" transform="translate(-61.259 -442.263)"/><path class="b" d="M-451.308,129.285c-.79,2.667-1.536,5.189-2.284,7.711-1.2,4.057-2.417,8.112-3.6,12.174a.546.546,0,0,1-.647.474q-2.6-.026-5.2,0c-.418,0-.546-.055-.4-.518q4.779-14.987,9.517-29.988a.744.744,0,0,1,.879-.637c1.251.042,2.505.029,3.758,0a.563.563,0,0,1,.661.464q3.243,10.264,6.51,20.52a2.619,2.619,0,0,1,.146.809c-.008,2.949-.016,5.9.007,8.846,0,.443-.148.516-.534.5-.7-.028-1.4-.036-2.1,0-.43.024-.6-.128-.724-.534q-1.967-6.613-3.968-13.216-.892-2.96-1.791-5.919C-451.129,129.787-451.2,129.6-451.308,129.285Z" transform="translate(-493.058 -150.879)"/><path class="b" d="M-375.822,418.6c-.1-1.321-.016-2.645-.043-3.967-.006-.312-.018-.624-.027-.936.012-.22.034-.44.034-.66,0-4.033.016-8.066-.014-12.1,0-.588.175-.7.711-.683,1.269.038,2.54.022,3.81.006.324,0,.447.066.446.423q-.018,6.326-.007,12.651a.632.632,0,0,1-.149.508Q-373.445,416.215-375.822,418.6Z" transform="translate(-570.958 -401.43)"/><path class="b" d="M-719.615,138.974a6.893,6.893,0,0,0-4.3-5.776c-.1-.042-.218-.06-.269-.2.445-.276.888-.509,1.285-.8a6.244,6.244,0,0,0,2.368-4.738,7.614,7.614,0,0,0-4.626-7.865,12.4,12.4,0,0,0-4.967-.893c-4.828-.011-9.656,0-14.484-.015-.488,0-.613.122-.612.611q.022,14.959,0,29.918c0,.522.175.591.63.59,4.109-.016,8.219-.008,12.328-.01a34.648,34.648,0,0,0,3.754-.154,11.1,11.1,0,0,0,4.249-1.092A9.284,9.284,0,0,0-719.615,138.974Zm-18.883-14.9c2.466.014,4.933,0,7.4.017a7.384,7.384,0,0,1,2.284.335A2.7,2.7,0,0,1-726.8,126.8a3.144,3.144,0,0,1-1.147,3.151,4.713,4.713,0,0,1-2.411.865c-1.377.136-2.759.04-3.884.07-1.58,0-2.9-.012-4.23.008-.39.006-.5-.126-.5-.507q.023-2.927,0-5.855C-738.975,124.154-738.848,124.067-738.5,124.069Zm12.443,16.658c-.34,2.282-1.684,3.507-4.145,3.646-1.395.079-2.8.014-4.2.014v.035c-1.344,0-2.689-.013-4.033.008-.4.006-.547-.086-.544-.517q.029-3.647,0-7.294c0-.434.152-.515.545-.513,2.578.015,5.156.008,7.734.009a7,7,0,0,1,1.694.21A3.633,3.633,0,0,1-726.055,140.727Z" transform="translate(-242.532 -151.043)"/></g></svg>