<svg xmlns="http://www.w3.org/2000/svg" width="31.827" height="56.837" viewBox="0 0 31.827 56.837"><defs><style>.a{fill:#2268dd;stroke:#2268dd;}</style></defs><g transform="translate(260.229 1314.649)"><path class="a" d="M6.447,14.636A3.3,3.3,0,0,1,6.3,13.487a2.075,2.075,0,0,1,.371-1.445q.074-.371,1.223-.371a2.935,2.935,0,0,1,1.371.371q.593.371,2.038,1.445a28.37,28.37,0,0,0,2.742,1.741,10.786,10.786,0,0,0,5.076,1.89,5.3,5.3,0,0,0,2.594-.593,2.478,2.478,0,0,0,1.2-1.056,2.926,2.926,0,0,0,.463-1.538,2.633,2.633,0,0,0-.148-.871,2.291,2.291,0,0,0-.7-.908,9.934,9.934,0,0,0-1.389-.982q-.834-.5-1.019-.648a34.34,34.34,0,0,0-4.631-2.408,52.5,52.5,0,0,1-5.78-3.038A3.844,3.844,0,0,1,7.744,1.964a1.986,1.986,0,0,1,.056-.63A4.206,4.206,0,0,1,8.337.741a2.783,2.783,0,0,1,2-.741A6.977,6.977,0,0,1,13.19,1.26q2,1.223,2.964,1.741,1.149.63,5.41,2.594a19.342,19.342,0,0,1,5.891,3.631,6.26,6.26,0,0,1,1.667,4.631,5.6,5.6,0,0,1-1.408,3.965,8.156,8.156,0,0,1-3.3,2.26q5.261,2.89,5.261,7.6a5.538,5.538,0,0,1-1.593,3.631,8.8,8.8,0,0,1-3.557,2.668,11.925,11.925,0,0,1,4.594,3.779,10.456,10.456,0,0,1,1.7,6,11.042,11.042,0,0,1-3.89,8.818q-3.779,3.261-10.486,3.261a23.414,23.414,0,0,1-8.114-1.371A13.394,13.394,0,0,1,2.26,50.428,10.16,10.16,0,0,1,0,43.684a9.977,9.977,0,0,1,.852-4.15,6.588,6.588,0,0,1,2.112-2.89A4.153,4.153,0,0,1,5.632,35.57a2.14,2.14,0,0,1,1.741.667,2.231,2.231,0,0,1,.593,1.445.964.964,0,0,1-.037.3q-.037.111-.13.333t-.259.556a4.443,4.443,0,0,0-.241.556,4.414,4.414,0,0,0-1.075,2.742,6.436,6.436,0,0,0,3.335,5.928,12.432,12.432,0,0,0,6.521,1.667,12.671,12.671,0,0,0,3.149-.408,5.272,5.272,0,0,0,2.334-1.112A7.207,7.207,0,0,0,22.917,46.2a5.405,5.405,0,0,0,.611-2.223,6.889,6.889,0,0,0-.556-2.668,4.536,4.536,0,0,0-1.408-1.964,43.073,43.073,0,0,0-5.854-3.483,47.391,47.391,0,0,1-5.373-3.316,24.858,24.858,0,0,1-3.372-2.686,12.94,12.94,0,0,1-1.241-1.5,2.149,2.149,0,0,1-.352-1.2,2.621,2.621,0,0,1,.556-1.519,2.108,2.108,0,0,1,1.741-.852,1.973,1.973,0,0,1,.889.222q.408.333,1.649,1.241a27.259,27.259,0,0,0,2.39,1.575,20.963,20.963,0,0,0,5.447,2.52,7.521,7.521,0,0,0,2.075.3,2.446,2.446,0,0,0,2.019-.76,5.426,5.426,0,0,0,.945-2.13,4.667,4.667,0,0,0-1.519-3.038,3.4,3.4,0,0,0-.889-.611q-.556-.278-1.2-.537t-1.427-.593q-1.741-.889-3.928-2.038A24.523,24.523,0,0,1,8.485,16.97q-.445-.482-.834-.852t-.63-.648A6.186,6.186,0,0,1,6.447,14.636Z" transform="translate(-228.902 -1258.311) rotate(180)"/></g></svg>
