<svg id="_001-camera" data-name="001-camera" xmlns="http://www.w3.org/2000/svg" width="47.851" height="47.851" viewBox="0 0 47.851 47.851">
  <g id="Group_29" data-name="Group 29" transform="translate(0 0)">
    <g id="Group_28" data-name="Group 28">
      <rect id="Rectangle_45" data-name="Rectangle 45" width="1.994" height="1.994" transform="translate(20.935 8.972)" fill="#fff"/>
      <rect id="Rectangle_46" data-name="Rectangle 46" width="1.994" height="1.994" transform="translate(24.922 8.972)" fill="#fff"/>
      <path id="Path_269" data-name="Path 269" d="M37.981,3.988H35.988a1,1,0,0,0-1,1V7.975a3.987,3.987,0,0,0,7.426,2.019c.924.076,3,.372,3.45,1.5a4.986,4.986,0,0,0,4.23,4.4,3,3,0,0,0,1.841,1.876v1.168a4.991,4.991,0,0,1-4.985,4.984H43.792a2.99,2.99,0,1,0-1.531,3.7L50.236,35.6a2.991,2.991,0,1,0,5.519,2.286h9.314a2.991,2.991,0,1,0,3.817-3.817V27.742a2.991,2.991,0,1,0-1.994,0v6.323a3,3,0,0,0-1.823,1.823H55.755a2.992,2.992,0,0,0-4.109-1.7l-7.974-7.974a2.98,2.98,0,0,0,.121-.292h3.162a6.986,6.986,0,0,0,6.978-6.978V17.773A3,3,0,0,0,55.773,15.9q.126-.019.25-.043a4.987,4.987,0,0,0,3.982-4.371c.459-1.131,2.524-1.418,3.447-1.49a3.987,3.987,0,0,0,7.427-2.018V4.984a1,1,0,0,0-1-1H67.888v-1H73.87V1H59.913V2.991h5.981v1H57.819a4.985,4.985,0,0,0-9.769,0H39.975v-1h5.981V1H32V2.991h5.981Zm1.994,20.935a1,1,0,1,1,1,1A1,1,0,0,1,39.975,24.922Zm27.913-1a1,1,0,1,1-1,1A1,1,0,0,1,67.888,23.926Zm0,11.963a1,1,0,1,1-1,1A1,1,0,0,1,67.888,35.888Zm-13.956,1a1,1,0,1,1-1-1A1,1,0,0,1,53.932,36.885ZM64.9,5.981h3.988V7.975a1.994,1.994,0,1,1-3.988,0V5.981ZM42.964,8.027c0-.017,0-.035,0-.052V5.981h3.8a3.011,3.011,0,0,0-.114.411l-.516,2.583A8.027,8.027,0,0,0,42.964,8.027Zm12.085,5.929H50.82a2.99,2.99,0,0,1-2.874-2.164,3.4,3.4,0,0,0-.115-.75,3.005,3.005,0,0,1,.058-.668l.719-3.6a1,1,0,0,1,.978-.8h6.7a1,1,0,0,1,.978.8l.72,3.6a2.992,2.992,0,0,1,.058.586c0,.027,0,.053,0,.08a3.4,3.4,0,0,0-.115.747A2.991,2.991,0,0,1,55.049,13.957Zm4.682-4.981-.516-2.583a3.011,3.011,0,0,0-.114-.411h3.8V7.975c0,.017,0,.035,0,.052A8.028,8.028,0,0,0,59.731,8.975Zm-6.8-6.981a2.991,2.991,0,0,1,2.82,1.994h-5.64A2.991,2.991,0,0,1,52.935,1.994ZM40.972,7.975a1.994,1.994,0,1,1-3.988,0V5.981h3.988Z" transform="translate(-29.009)" fill="#fff"/>
      <path id="Path_270" data-name="Path 270" d="M46.854,177.246h-1V152.324a2.991,2.991,0,0,0-2.991-2.991H31.9v1.994H42.866a1,1,0,0,1,1,1v24.922H3.988V152.324a1,1,0,0,1,1-1H15.95v-1.994H4.984a2.991,2.991,0,0,0-2.991,2.991v24.922H1a1,1,0,0,0-1,1,4.99,4.99,0,0,0,4.984,4.984H42.866a4.99,4.99,0,0,0,4.984-4.984A1,1,0,0,0,46.854,177.246Zm-3.988,3.988H4.984a3,3,0,0,1-2.82-1.994H19.938v1h7.975v-1H45.687A3,3,0,0,1,42.867,181.234Z" transform="translate(0 -135.377)" fill="#fff"/>
      <rect id="Rectangle_47" data-name="Rectangle 47" width="1.994" height="1.994" transform="translate(5.981 37.882)" fill="#fff"/>
      <rect id="Rectangle_48" data-name="Rectangle 48" width="1.994" height="1.994" transform="translate(5.981 33.895)" fill="#fff"/>
      <rect id="Rectangle_49" data-name="Rectangle 49" width="1.994" height="1.994" transform="translate(9.969 37.882)" fill="#fff"/>
    </g>
  </g>
</svg>
