<svg xmlns="http://www.w3.org/2000/svg" width="31.902" height="40.127" viewBox="0 0 31.902 40.127">
  <g id="_003-interface" data-name="003-interface" transform="translate(0.25 0.25)">
    <g id="Group_31" data-name="Group 31" transform="translate(0 11.215)">
      <g id="Group_30" data-name="Group 30">
        <path id="Path_270" data-name="Path 270" d="M118.654,160H88.748a.748.748,0,0,0-.748.748v26.916a.748.748,0,0,0,.748.748h29.907a.748.748,0,0,0,.748-.748V160.748A.748.748,0,0,0,118.654,160Zm-.748,23.178h-6.729v1.5h6.729v2.243H89.5v-2.243h6.729v-1.5H89.5V161.5h28.411Z" transform="translate(-88 -160)" fill="#fff" stroke="#fff" stroke-width="0.5"/>
      </g>
    </g>
    <g id="Group_33" data-name="Group 33" transform="translate(0 0)">
      <g id="Group_32" data-name="Group 32">
        <path id="Path_271" data-name="Path 271" d="M93.234,40H88.748a.748.748,0,0,0-.748.748v4.486a.748.748,0,0,0,.748.748h4.486a.748.748,0,0,0,.748-.748V40.748A.748.748,0,0,0,93.234,40Zm-.748,4.486H89.5V41.5h2.991Z" transform="translate(-88 -40)" fill="#fff" stroke="#fff" stroke-width="0.5"/>
      </g>
    </g>
    <g id="Group_35" data-name="Group 35" transform="translate(7.477 0.748)">
      <g id="Group_34" data-name="Group 34">
        <path id="Path_272" data-name="Path 272" d="M179.215,48H168.748a.748.748,0,0,0-.748.748v1.5h1.5V49.5h8.972v.748h1.5v-1.5A.748.748,0,0,0,179.215,48Z" transform="translate(-168 -48)" fill="#fff" stroke="#fff" stroke-width="0.5"/>
      </g>
    </g>
    <g id="Group_37" data-name="Group 37" transform="translate(7.477 4.486)">
      <g id="Group_36" data-name="Group 36">
        <rect id="Rectangle_45" data-name="Rectangle 45" width="8.972" height="1.495" fill="#fff" stroke="#fff" stroke-width="0.5"/>
      </g>
    </g>
    <g id="Group_39" data-name="Group 39" transform="translate(17.944 4.486)">
      <g id="Group_38" data-name="Group 38">
        <rect id="Rectangle_46" data-name="Rectangle 46" width="1.495" height="1.495" fill="#fff" stroke="#fff" stroke-width="0.5"/>
      </g>
    </g>
  </g>
</svg>
