<svg xmlns="http://www.w3.org/2000/svg" width="251.147" height="235.602" viewBox="0 0 251.147 235.602"><defs><style>.a{fill:#fff;}.b{fill:#150035;}.c{fill:#2268dd;}.d{fill:#39a1ff;}</style></defs><g transform="translate(-142.467 -714)"><g transform="translate(-59.768 469)"><path class="a" d="M415.165,244.886l.446-.787-2.319-1.36-.446.788Zm-4.639-2.719.447-.787-2.319-1.36-.446.788Zm-4.639-2.719.446-.788-2.319-1.359-.446.787Zm-4.639-2.719.446-.788-2.319-1.359-.446.787Zm-4.639-2.719.446-.788-2.319-1.36-.446.788Zm-4.638-2.72.445-.787-2.32-1.36-.445.788Zm-4.639-2.719.446-.788-2.319-1.359-.446.787Zm-4.639-2.72.446-.788-2.319-1.359-.446.787Zm-4.639-2.719.446-.788-2.319-1.359-.446.787Zm-4.638-2.719.444-.788-2.319-1.36-.445.788Zm-4.639-2.72.446-.787-2.319-1.36-.446.788Zm-4.639-2.719.446-.787-2.319-1.36-.446.787Zm-4.638-2.719.446-.788-2.319-1.359-.446.787Zm-4.64-2.719.446-.788-2.319-1.359-.446.787Z" transform="translate(3.068 202.97)"/><g transform="translate(421.832 267.61)"><g transform="translate(0)"><rect class="b" width="1.092" height="71.292"/></g></g><g transform="translate(421.832 342.867)"><g transform="translate(0)"><rect class="b" width="1.092" height="10.112"/></g></g><g transform="translate(250.952 328.602)"><g transform="translate(0)"><path class="b" d="M514.2,173.07h-1.091V140.318c-.007-.056-.76-10.348,8.783-14.686l.445,1.014c-8.822,4.011-8.171,13.234-8.138,13.625Z" transform="translate(-513.096 -125.632)"/></g></g><g transform="translate(250.948 380.063)"><g transform="translate(0)"><rect class="b" width="1.092" height="11.037"/></g></g><g transform="translate(284.355 387.758)"><g transform="translate(0.003 4.814)"><g transform="translate(0.547 0.556)"><path class="b" d="M485.983,204.194l-5.957.125a.55.55,0,0,1-.3-.078l-22.806-13.4a5.17,5.17,0,0,0-4.726-.2l-51.727,30.4a.658.658,0,0,1-.1.048l-17.172,5.873a.583.583,0,0,0-.391.554l0,4.393c-.147.618.234,1.31,1.122,1.831l28.5,16.753a5.17,5.17,0,0,0,4.726.2l68.608-40.325a1.41,1.41,0,0,0,.8-1.219v-4.371A.579.579,0,0,0,485.983,204.194Z" transform="translate(-382.774 -190.158)"/></g><path class="b" d="M417.422,251.173,486.03,210.85a1.952,1.952,0,0,0,1.077-1.7v-4.371a1.14,1.14,0,0,0-.336-.814.953.953,0,0,0-.807-.325l-5.971.122-22.806-13.4a5.683,5.683,0,0,0-5.272-.2l-51.732,30.4-17.172,5.873a1.139,1.139,0,0,0-.763,1.082l0,4.333a2.338,2.338,0,0,0,1.395,2.371l28.5,16.753a5.925,5.925,0,0,0,2.941.756A4.657,4.657,0,0,0,417.422,251.173Zm39.22-59.854,22.8,13.4a.859.859,0,0,0,.584.154l5.958-.126-.012-.555.04,4.961a.914.914,0,0,1-.531.733l-68.608,40.323a4.653,4.653,0,0,1-4.18-.2l-28.5-16.752c-.625-.368-.956-.835-.864-1.221l.031-4.551,17.174-5.874a1.217,1.217,0,0,0,.2-.092l51.727-30.4a3.573,3.573,0,0,1,1.773-.406A4.909,4.909,0,0,1,456.642,191.319Z" transform="translate(-382.219 -189.602)"/></g><g transform="translate(0.545 0.556)"><path class="a" d="M485.756,205.555l-68.608,40.324a5.167,5.167,0,0,1-4.726-.2l-28.5-16.752c-1.4-.822-1.551-2.066-.339-2.778l68.608-40.324a5.17,5.17,0,0,1,4.726.2l28.5,16.753C486.816,203.6,486.967,204.843,485.756,205.555Z" transform="translate(-382.76 -185.344)"/></g><path class="b" d="M417.409,246.359l68.608-40.323a1.97,1.97,0,0,0,1.091-1.688,2.514,2.514,0,0,0-1.431-2.052l-28.5-16.754a5.691,5.691,0,0,0-5.272-.2l-68.608,40.324a1.969,1.969,0,0,0-1.09,1.687,2.515,2.515,0,0,0,1.429,2.052l28.5,16.753a5.928,5.928,0,0,0,2.941.756A4.668,4.668,0,0,0,417.409,246.359Zm39.22-59.854,28.5,16.753c.554.325.884.733.884,1.09a.938.938,0,0,1-.545.726L416.863,245.4a4.659,4.659,0,0,1-4.18-.2l-28.5-16.753c-.554-.326-.885-.734-.885-1.091a.939.939,0,0,1,.545-.725L452.449,186.3a3.583,3.583,0,0,1,1.773-.4A4.906,4.906,0,0,1,456.63,186.505Z" transform="translate(-382.204 -184.788)"/><g transform="translate(32.445 61.904)"><g transform="translate(0)"><rect class="c" width="0.84" height="4.139"/></g></g><g transform="translate(3.249 45.407)"><g transform="translate(0)"><rect class="d" width="0.839" height="4.139"/></g></g><g transform="translate(100.857 22.234)"><g transform="translate(0)"><rect class="c" width="0.839" height="4.14"/></g></g></g><g transform="translate(254.869 245)"><g transform="translate(0.546 0.557)"><path class="a" d="M515.453,45.853a.157.157,0,0,0-.048-.227l-5.088-2.875a.907.907,0,0,0-1.07.019L355.458,133.157a3.685,3.685,0,0,0-1.5,2.924v119.8a1.453,1.453,0,0,0,.441,1.184l5.363,3.026,5.342-6.55L363,252.6l146.247-85.955a3.684,3.684,0,0,0,1.5-2.924V52.345Z" transform="translate(-353.954 -42.587)"/></g><path class="b" d="M365.973,253.324l-1.776-.791,145.312-85.406a4.24,4.24,0,0,0,1.777-3.4V52.528l4.594-6.343a.72.72,0,0,0,.123-.573.713.713,0,0,0-.344-.472l-5.018-2.828a1.431,1.431,0,0,0-1.678-.023L355.175,132.676a4.242,4.242,0,0,0-1.777,3.406V255.876a1.98,1.98,0,0,0,.722,1.67l5.759,3.251ZM510.042,43.236l4.7,2.654-4.544,6.273V163.722a3.124,3.124,0,0,1-1.23,2.443L361.781,252.67l2.425,1.08-4.589,5.629-4.9-2.762a.96.96,0,0,1-.224-.741V136.082a3.121,3.121,0,0,1,1.231-2.443L509.509,43.251a.606.606,0,0,1,.3-.1A.39.39,0,0,1,510.042,43.236Z" transform="translate(-353.398 -42.03)"/></g><g transform="translate(260.276 248.036)"><g transform="translate(0)"><g transform="translate(0.546 0.557)"><path class="b" d="M508.591,169.683,354.8,260.071c-.83.488-1.5-.03-1.5-1.157V139.119a3.684,3.684,0,0,1,1.5-2.924L508.591,45.807c.83-.488,1.5.03,1.5,1.157v119.8A3.685,3.685,0,0,1,508.591,169.683Z" transform="translate(-353.3 -45.623)"/></g><path class="b" d="M355.067,260.551l153.788-90.387a4.242,4.242,0,0,0,1.776-3.4V46.964a1.9,1.9,0,0,0-.793-1.719,1.465,1.465,0,0,0-1.528.081L354.522,135.713a4.242,4.242,0,0,0-1.777,3.406V258.914a1.9,1.9,0,0,0,.793,1.718,1.281,1.281,0,0,0,.658.179A1.713,1.713,0,0,0,355.067,260.551ZM509.293,46.207c.114.067.247.305.247.757v119.8a3.13,3.13,0,0,1-1.229,2.444L354.522,259.59c-.087.051-.306.163-.438.08-.114-.067-.247-.305-.247-.756V139.119a3.124,3.124,0,0,1,1.23-2.443L508.856,46.288a.724.724,0,0,1,.323-.109A.219.219,0,0,1,509.293,46.207Z" transform="translate(-352.745 -45.066)"/></g><g transform="translate(1.286 1.874)"><g transform="translate(0.546 0.556)"><path class="c" d="M508.39,167.447,355.05,257.572c-.244.143-.441-.009-.441-.34v-118.7a1.082,1.082,0,0,1,.441-.859L508.39,47.551c.245-.144.442.008.442.339v118.7A1.08,1.08,0,0,1,508.39,167.447Z" transform="translate(-354.609 -47.497)"/></g><path class="b" d="M355.314,258.053l153.341-90.125h0a1.626,1.626,0,0,0,.713-1.34V47.89a.939.939,0,0,0-.425-.845.806.806,0,0,0-.834.025l-153.34,90.124a1.621,1.621,0,0,0-.715,1.34v118.7a.938.938,0,0,0,.424.845.762.762,0,0,0,.387.106A.886.886,0,0,0,355.314,258.053Zm152.963-91.465a.57.57,0,0,1-.168.378l-152.964,89.9V138.534a.565.565,0,0,1,.169-.378l152.963-89.9Z" transform="translate(-354.054 -46.94)"/></g><g transform="translate(0 114.02)"><g transform="translate(0.546 0.962)"><path class="b" d="M510.1,166.9v-6.853L353.3,252.2v6.852c0,1.049.723,1.474,1.615.95l153.564-90.256A3.649,3.649,0,0,0,510.1,166.9Z" transform="translate(-353.3 -160.048)"/></g><path class="b" d="M355.179,260.485,508.743,170.23a4.21,4.21,0,0,0,1.889-3.329v-7.815L353.017,251.722l-.273.16v7.174a1.71,1.71,0,0,0,.747,1.545,1.35,1.35,0,0,0,.691.182A1.978,1.978,0,0,0,355.179,260.485Zm154.36-99.474v5.89a3.087,3.087,0,0,1-1.343,2.368L354.633,259.524a.656.656,0,0,1-.6.115.682.682,0,0,1-.2-.583v-6.533Z" transform="translate(-352.744 -159.086)"/></g><g transform="translate(68.808 159.202)"><path class="c" d="M-.179.009l.85.007L.85,23.046,0,23.039Z" transform="translate(0.323 12.291) rotate(-120.021)"/></g></g><g transform="translate(254.716 336.813)"><g transform="translate(0)"><path class="b" d="M-.009.064,6.166.112l.009,1.106L0,1.169Z" transform="translate(5.228 4.23) rotate(-149.021)"/></g></g><g transform="translate(254.716 450.319)"><g transform="translate(0)"><path class="b" d="M-.009.064,6.166.112l.009,1.106L0,1.17Z" transform="matrix(-0.857, -0.515, 0.515, -0.857, 5.228, 4.23)"/></g></g><g transform="translate(297.187 440.648)"><g transform="translate(0)"><path class="c" d="M472.433,240.39l-.421-.74,3.331-1.973.421.739Z" transform="translate(-472.012 -237.678)"/></g></g><g transform="translate(309.398 411.088)"><path class="b" d="M401.711,243.8a3.068,3.068,0,0,1-1.633-.471l-5.969-3.746.573-.946,5.969,3.745a1.986,1.986,0,0,0,2.065.035l59.079-34.3.541.964-59.079,34.3A3.064,3.064,0,0,1,401.711,243.8Z" transform="translate(-394.11 -208.118)"/></g><g transform="translate(377.256 402.345)"><g transform="translate(0)"><path class="b" d="M389.4,208.085l-.531-.97,4.378-2.485a.383.383,0,0,0,.007-.66l-6.1-3.637.551-.958,6.1,3.636a1.505,1.505,0,0,1-.027,2.59Z" transform="translate(-387.161 -199.375)"/></g></g><g transform="translate(254.425 446.194)"><g transform="translate(0)"><path class="b" d="M-.009.064,6.165.112l.009,1.107L0,1.17Z" transform="translate(5.228 4.23) rotate(-149.02)"/></g></g><g transform="translate(254.442 342.516)"><g transform="translate(0)"><path class="b" d="M-.009.064,6.165.112l.009,1.106L0,1.169Z" transform="translate(5.228 4.229) rotate(-149.021)"/></g></g><g transform="translate(342.121 334.011)"><path class="c" d="M-.007.066,6.38.116l.007.9L0,.97Z" transform="matrix(-0.859, -0.512, 0.512, -0.859, 5.422, 4.151)"/></g><g transform="translate(327.325 360.668)"><path class="c" d="M-.007.066,6.38.116l.007.9L0,.97Z" transform="translate(5.422 4.152) rotate(-149.222)"/></g><g transform="translate(372.668 338.888)"><path class="c" d="M-.007.066,6.38.116l.007.9L0,.97Z" transform="matrix(-0.859, -0.512, 0.512, -0.859, 5.422, 4.151)"/></g><g transform="translate(290.451 369.578)"><path class="c" d="M-.007.066,6.38.116l.007.9L0,.97Z" transform="translate(5.423 4.151) rotate(-149.231)"/></g><g transform="translate(376.953 351.596)"><path class="b" d="M384.594,162.866a39.961,39.961,0,0,0,10.192-13.789l-1.072-.451a39.535,39.535,0,0,1-9.869,13.339Z" transform="translate(-383.844 -148.626)"/></g><g transform="translate(387.892 344.885)"><path class="b" d="M381.524,147.38a27.25,27.25,0,0,0,2.291-5.185l-1.128-.28a26.613,26.613,0,0,1-2.169,4.877Z" transform="translate(-380.518 -141.915)"/></g><g transform="translate(297.677 345.63)"><path class="b" d="M473.351,145.867c.618-.877,1.918-2.423,1.93-2.439l-.88-.768c-.054.065-1.347,1.6-1.993,2.519Z" transform="translate(-472.408 -142.66)"/></g><path class="a" d="M379.436,93.341a2.446,2.446,0,0,0,1.574-.7,4.712,4.712,0,0,0,1.566-3.3V75.808a1.669,1.669,0,0,0-1-1.73c-.81-.28-1.849.214-2.645,1.264l-9.28,12.221a3.959,3.959,0,0,0-.819,3.544,1.382,1.382,0,0,0,1.111.906l9.28,1.313A1.52,1.52,0,0,0,379.436,93.341ZM381.1,74.908a.578.578,0,0,1,.188.03c.345.12.4.6.4.87V89.342a3.807,3.807,0,0,1-1.259,2.615,1.5,1.5,0,0,1-1.081.47l-9.28-1.313a.489.489,0,0,1-.407-.35,3.1,3.1,0,0,1,.7-2.646l9.28-12.221A2.11,2.11,0,0,1,381.1,74.908Z" transform="translate(20.276 202.97)"/><path class="a" d="M369.932,103.32a1.752,1.752,0,0,0,.883-.264,3.774,3.774,0,0,0,1.694-2.987,1.509,1.509,0,0,0-.653-1.362,1.453,1.453,0,0,0-1.487.1,3.776,3.776,0,0,0-1.694,2.987,1.509,1.509,0,0,0,.654,1.363A1.178,1.178,0,0,0,369.932,103.32Zm1.317-3.865a.318.318,0,0,1,.161.038.666.666,0,0,1,.207.576,2.864,2.864,0,0,1-1.249,2.2.632.632,0,0,1-.593.105.661.661,0,0,1-.208-.576,2.867,2.867,0,0,1,1.248-2.2A.905.905,0,0,1,371.25,99.455Z" transform="translate(30.359 202.97)"/><path class="a" d="M369.932,109.129a1.752,1.752,0,0,0,.883-.264,3.774,3.774,0,0,0,1.694-2.987,1.51,1.51,0,0,0-.653-1.362,1.455,1.455,0,0,0-1.487.105,3.773,3.773,0,0,0-1.694,2.987,1.508,1.508,0,0,0,.654,1.362A1.178,1.178,0,0,0,369.932,109.129Zm1.317-3.865a.318.318,0,0,1,.161.038.666.666,0,0,1,.207.576,2.868,2.868,0,0,1-1.249,2.2.638.638,0,0,1-.593.1.664.664,0,0,1-.208-.576,2.869,2.869,0,0,1,1.248-2.2A.905.905,0,0,1,371.25,105.264Z" transform="translate(30.359 202.97)"/><path class="a" d="M369.932,114.938a1.752,1.752,0,0,0,.883-.264,3.774,3.774,0,0,0,1.694-2.987,1.51,1.51,0,0,0-.653-1.362,1.453,1.453,0,0,0-1.487.105,3.773,3.773,0,0,0-1.694,2.987,1.508,1.508,0,0,0,.654,1.362A1.178,1.178,0,0,0,369.932,114.938Zm1.317-3.865a.329.329,0,0,1,.161.038.666.666,0,0,1,.207.576,2.868,2.868,0,0,1-1.249,2.2.635.635,0,0,1-.593.1.663.663,0,0,1-.208-.576,2.868,2.868,0,0,1,1.248-2.2A.905.905,0,0,1,371.25,111.073Z" transform="translate(30.359 202.97)"/><path class="a" d="M369.932,120.747a1.76,1.76,0,0,0,.883-.263,3.777,3.777,0,0,0,1.694-2.988,1.51,1.51,0,0,0-.653-1.362,1.453,1.453,0,0,0-1.487.1,3.773,3.773,0,0,0-1.694,2.986,1.511,1.511,0,0,0,.654,1.364A1.177,1.177,0,0,0,369.932,120.747Zm1.317-3.865a.329.329,0,0,1,.161.038.666.666,0,0,1,.207.576,2.864,2.864,0,0,1-1.249,2.2.635.635,0,0,1-.593.105.663.663,0,0,1-.208-.577,2.864,2.864,0,0,1,1.248-2.2A.9.9,0,0,1,371.25,116.882Z" transform="translate(30.359 202.97)"/><path class="a" d="M369.932,126.557a1.761,1.761,0,0,0,.883-.264,3.777,3.777,0,0,0,1.694-2.987,1.51,1.51,0,0,0-.653-1.363,1.455,1.455,0,0,0-1.487.1,3.773,3.773,0,0,0-1.694,2.987,1.51,1.51,0,0,0,.654,1.363A1.178,1.178,0,0,0,369.932,126.557Zm1.317-3.866a.318.318,0,0,1,.161.039.664.664,0,0,1,.207.576,2.864,2.864,0,0,1-1.249,2.2.635.635,0,0,1-.593.105.663.663,0,0,1-.208-.576,2.866,2.866,0,0,1,1.248-2.2A.9.9,0,0,1,371.25,122.691Z" transform="translate(30.359 202.97)"/><path class="a" d="M369.932,132.433a1.762,1.762,0,0,0,.883-.264,3.774,3.774,0,0,0,1.694-2.987,1.51,1.51,0,0,0-.654-1.363,1.454,1.454,0,0,0-1.486.105,3.776,3.776,0,0,0-1.694,2.987,1.509,1.509,0,0,0,.654,1.363A1.178,1.178,0,0,0,369.932,132.433Zm1.317-3.865a.312.312,0,0,1,.16.038.663.663,0,0,1,.208.576,2.868,2.868,0,0,1-1.249,2.2.637.637,0,0,1-.593.1.663.663,0,0,1-.208-.576,2.867,2.867,0,0,1,1.248-2.2A.9.9,0,0,1,371.25,128.568Z" transform="translate(30.359 202.97)"/><path class="a" d="M369.932,149.86a1.751,1.751,0,0,0,.883-.264,3.772,3.772,0,0,0,1.694-2.986,1.509,1.509,0,0,0-.654-1.363,1.454,1.454,0,0,0-1.486.1,3.776,3.776,0,0,0-1.694,2.987,1.509,1.509,0,0,0,.654,1.363A1.178,1.178,0,0,0,369.932,149.86Zm1.317-3.865a.312.312,0,0,1,.16.038.665.665,0,0,1,.208.577,2.862,2.862,0,0,1-1.249,2.2.632.632,0,0,1-.593.1.661.661,0,0,1-.208-.576,2.867,2.867,0,0,1,1.248-2.2A.905.905,0,0,1,371.25,145.995Z" transform="translate(30.359 202.97)"/><path class="a" d="M491.18,229.038l3.772-2.217v-1.964a14.593,14.593,0,0,0,2.865-3.612l1.456.133,1.775-4.659-1.509-.139a9.83,9.83,0,0,0,.191-1.832,6.858,6.858,0,0,0-.238-1.8l1.483-1.879L499,208.206l-1.541,1.952a3.9,3.9,0,0,0-2.509-.275v-2.116l-3.772,2.218v1.964a14.613,14.613,0,0,0-2.866,3.611l-1.454-.132-1.775,4.659,1.509.138a9.885,9.885,0,0,0-.192,1.833,6.846,6.846,0,0,0,.239,1.8l-1.484,1.879,1.974,2.858,1.54-1.952a3.893,3.893,0,0,0,2.509.275Zm2.88-2.742-1.988,1.169V225.73l-.575.178a3.128,3.128,0,0,1-2.7-.226l-.338-.221-1.285,1.629-.907-1.312,1.356-1.718-.068-.228a6.1,6.1,0,0,1-.265-1.774,9.9,9.9,0,0,1,.274-2.14l.111-.506-1.335-.121,1.105-2.9,1.359.124.141-.258a13.7,13.7,0,0,1,2.967-3.757l.156-.136V210.51l1.988-1.169v1.734l.576-.177a3.141,3.141,0,0,1,2.7.226l.338.221,1.286-1.629.906,1.312-1.356,1.717.068.229a6.071,6.071,0,0,1,.265,1.774,9.973,9.973,0,0,1-.273,2.14l-.111.506,1.335.121-1.105,2.9-1.361-.125-.14.259a13.7,13.7,0,0,1-2.966,3.756l-.157.137Zm-2.15-4.054a2.228,2.228,0,0,0,.645-.1h0a5.79,5.79,0,0,0,3.435-6.058,1.942,1.942,0,0,0-.881-1.285,1.89,1.89,0,0,0-1.532-.135,5.79,5.79,0,0,0-3.436,6.059,1.937,1.937,0,0,0,.88,1.282A1.724,1.724,0,0,0,491.91,222.242Zm.39-.971a1.023,1.023,0,0,1-.832-.051,1.06,1.06,0,0,1-.459-.706,5,5,0,0,1,2.824-4.979,1.016,1.016,0,0,1,.831.051,1.063,1.063,0,0,1,.459.707,4.993,4.993,0,0,1-2.823,4.978Z" transform="translate(-213.045 202.97)"/><path class="a" d="M498.543,160.623a1.751,1.751,0,0,0,.882-.264,3.771,3.771,0,0,0,1.694-2.987,1.51,1.51,0,0,0-.653-1.362,1.453,1.453,0,0,0-1.487.105,3.772,3.772,0,0,0-1.694,2.986,1.511,1.511,0,0,0,.654,1.364A1.19,1.19,0,0,0,498.543,160.623Zm1.317-3.865a.322.322,0,0,1,.16.038.666.666,0,0,1,.207.576,2.866,2.866,0,0,1-1.249,2.2.638.638,0,0,1-.593.1.663.663,0,0,1-.208-.577,2.867,2.867,0,0,1,1.248-2.2A.905.905,0,0,1,499.861,156.758Z" transform="translate(-225.112 202.97)"/><path class="a" d="M498.543,178.05a1.761,1.761,0,0,0,.882-.264,3.769,3.769,0,0,0,1.694-2.986,1.505,1.505,0,0,0-.653-1.362,1.459,1.459,0,0,0-1.487.1,3.781,3.781,0,0,0-1.694,2.988,1.506,1.506,0,0,0,.654,1.362A1.172,1.172,0,0,0,498.543,178.05Zm1.316-3.865a.323.323,0,0,1,.161.038.667.667,0,0,1,.207.577,2.86,2.86,0,0,1-1.249,2.2.636.636,0,0,1-.593.106.663.663,0,0,1-.208-.576,2.871,2.871,0,0,1,1.248-2.2A.905.905,0,0,1,499.86,174.185Z" transform="translate(-225.112 202.97)"/><path class="a" d="M498.543,183.859a1.751,1.751,0,0,0,.882-.264,3.768,3.768,0,0,0,1.694-2.986,1.505,1.505,0,0,0-.653-1.362,1.457,1.457,0,0,0-1.487.1,3.781,3.781,0,0,0-1.694,2.988,1.509,1.509,0,0,0,.654,1.363A1.181,1.181,0,0,0,498.543,183.859Zm1.316-3.865a.323.323,0,0,1,.161.038.669.669,0,0,1,.207.577,2.86,2.86,0,0,1-1.249,2.2.636.636,0,0,1-.593.106.663.663,0,0,1-.208-.576,2.871,2.871,0,0,1,1.248-2.2A.905.905,0,0,1,499.86,179.994Z" transform="translate(-225.112 202.97)"/><path class="a" d="M498.543,189.736a1.761,1.761,0,0,0,.882-.264,3.77,3.77,0,0,0,1.694-2.987,1.508,1.508,0,0,0-.653-1.362,1.455,1.455,0,0,0-1.487.1,3.774,3.774,0,0,0-1.694,2.987,1.508,1.508,0,0,0,.654,1.363A1.172,1.172,0,0,0,498.543,189.736Zm1.317-3.865a.312.312,0,0,1,.16.038.666.666,0,0,1,.207.576,2.861,2.861,0,0,1-1.249,2.2.636.636,0,0,1-.593.106.665.665,0,0,1-.208-.577,2.864,2.864,0,0,1,1.248-2.2A.905.905,0,0,1,499.861,185.871Z" transform="translate(-225.112 202.97)"/><path class="a" d="M498.543,195.545a1.761,1.761,0,0,0,.882-.264,3.769,3.769,0,0,0,1.694-2.986,1.508,1.508,0,0,0-.653-1.363,1.457,1.457,0,0,0-1.487.1,3.776,3.776,0,0,0-1.694,2.987,1.508,1.508,0,0,0,.654,1.363A1.172,1.172,0,0,0,498.543,195.545Zm1.317-3.865a.312.312,0,0,1,.16.038.667.667,0,0,1,.207.577,2.861,2.861,0,0,1-1.249,2.2.636.636,0,0,1-.593.106.665.665,0,0,1-.208-.577,2.866,2.866,0,0,1,1.248-2.2A.905.905,0,0,1,499.861,191.68Z" transform="translate(-225.112 202.97)"/><path class="a" d="M498.543,201.354a1.761,1.761,0,0,0,.882-.264,3.769,3.769,0,0,0,1.694-2.986,1.508,1.508,0,0,0-.653-1.363,1.46,1.46,0,0,0-1.487.1,3.776,3.776,0,0,0-1.694,2.987,1.507,1.507,0,0,0,.654,1.363A1.172,1.172,0,0,0,498.543,201.354Zm1.317-3.865a.322.322,0,0,1,.16.038.667.667,0,0,1,.207.577,2.86,2.86,0,0,1-1.249,2.2.639.639,0,0,1-.593.106.665.665,0,0,1-.208-.577,2.866,2.866,0,0,1,1.248-2.2A.905.905,0,0,1,499.861,197.489Z" transform="translate(-225.112 202.97)"/><path class="a" d="M498.543,207.163a1.751,1.751,0,0,0,.882-.264,3.769,3.769,0,0,0,1.694-2.986,1.505,1.505,0,0,0-.653-1.362,1.457,1.457,0,0,0-1.487.1,3.776,3.776,0,0,0-1.694,2.987,1.51,1.51,0,0,0,.654,1.364A1.181,1.181,0,0,0,498.543,207.163Zm1.317-3.865a.322.322,0,0,1,.16.038.669.669,0,0,1,.207.577,2.861,2.861,0,0,1-1.249,2.2.633.633,0,0,1-.593.106.663.663,0,0,1-.208-.577,2.866,2.866,0,0,1,1.248-2.2A.905.905,0,0,1,499.861,203.3Z" transform="translate(-225.112 202.97)"/><path class="a" d="M483.491,271.3l2.317-1.362-.446-.786-2.317,1.362Zm-2.764-.974.446-.785-2.317-1.363-.446.786Zm7.4-1.749,2.317-1.363-.446-.786-2.317,1.363Zm-12.035-.975.446-.786-2.318-1.362-.446.786ZM491,265.848l.446-.786-2.317-1.362-.446.786Zm-15.778-.2,2.318-1.363-.446-.786-2.318,1.364Zm11.142-2.525.446-.785-2.317-1.363-.446.786Zm-6.507-.2,2.317-1.362-.446-.786-2.317,1.362Z" transform="translate(-192.284 202.97)"/></g><path class="a" d="M525.362,231.375a5.075,5.075,0,0,0,1.739-.471l-.268-.608a4.5,4.5,0,0,1-1.529.411Zm-1.777-.1.124-.659a3.906,3.906,0,0,1-1.226-.467c-.076-.045-.146-.094-.212-.142l-.367.547a3.089,3.089,0,0,0,.261.177A4.474,4.474,0,0,0,523.585,231.279Zm4.9-1.739a1.712,1.712,0,0,0,.111-.6,1.923,1.923,0,0,0-.636-1.382l-.43.495a1.253,1.253,0,0,1,.43.885,1.019,1.019,0,0,1-.065.352Zm-6.853-.707a1.605,1.605,0,0,1,.856-1.106,3.328,3.328,0,0,1,.533-.262l-.22-.63a4.089,4.089,0,0,0-.63.311A2.248,2.248,0,0,0,521,228.752Zm4.534-1.5.162-.649a5.767,5.767,0,0,0-1.534-.2l-.236,0,.021.672.215-.005A5.183,5.183,0,0,1,526.161,227.331Z" transform="translate(-337.425 656.237)"/><path class="a" d="M525.631,227.4l.316-.582-1.471-.89-.316.582Zm-2.941-1.779.316-.583-1.47-.89-.316.582Zm-2.94-1.781.316-.582-1.324-.8-.061.112-.108-.2-.629.381Zm.607-1.779,1.47-.891-.316-.582-1.47.89Zm2.941-1.78,1.47-.89-.316-.583-1.47.89Zm2.94-1.78,1.47-.89-.316-.582-1.47.89Zm2.941-1.78,1.47-.89-.316-.582-1.47.889Zm2.94-1.78,1.47-.89-.316-.583-1.47.891Zm2.941-1.78,1.47-.89-.316-.582-1.47.89Z" transform="translate(-375.477 653.237)"/><path class="a" d="M319.032,193.456l.035-.406a2.726,2.726,0,0,1-.931-.25l-.162.372A3.132,3.132,0,0,0,319.032,193.456Zm1.082-.058a2.741,2.741,0,0,0,.863-.331c.056-.035.109-.07.159-.107l-.222-.335c-.04.03-.084.06-.131.089a2.36,2.36,0,0,1-.745.284Zm-2.981-1.057.359-.152a.594.594,0,0,1-.04-.213.76.76,0,0,1,.262-.538l-.262-.3a1.165,1.165,0,0,0-.386.838A1.022,1.022,0,0,0,317.133,192.341Zm4.171-.433.384-.049a1.366,1.366,0,0,0-.711-.977,2.51,2.51,0,0,0-.385-.189l-.135.383a2.121,2.121,0,0,1,.327.16A.975.975,0,0,1,321.3,191.909ZM318.544,191a3.115,3.115,0,0,1,.83-.111h.006l.13,0,.013-.408-.142,0a3.223,3.223,0,0,0-.936.125Z" transform="translate(-13.675 650.157)"/><path class="a" d="M322.365,182.664l.5-.3-.192-.354-.5.3Zm1.391-.842.894-.542-.192-.354-.895.542Zm1.79-1.084.895-.541-.192-.355-.9.542Zm1.789-1.083.391-.236-1.1-.656-.19.355.8.48.032-.06Zm-1.794-1.073.19-.356-.9-.537-.19.355Zm-1.794-1.074.19-.355-.9-.537-.191.355Zm-1.795-1.074.19-.355-.9-.537-.191.355Zm-1.794-1.074.191-.355-.9-.537-.19.355Zm-1.795-1.073.191-.356-.9-.537-.191.355Zm-1.794-1.074.19-.355-.9-.537-.191.355Zm-1.795-1.074.191-.355-.9-.537-.19.356Zm-1.794-1.074.191-.355-.9-.537-.19.355Zm-1.794-1.074.19-.355-.9-.537-.191.355Zm-1.795-1.073.19-.355-.9-.537-.19.355Z" transform="translate(-14.779 658.945)"/><path class="c" d="M365.021,230.464l3.691-.016,3.035-3.265-.015-1.823,0,0,4.424-.744,6.557,3.795,4.725-1.088a.1.1,0,0,1,.118.1l.017,5.238v.068l2.215-.358,0,0,.02,5.308a1.158,1.158,0,0,1-.054.312l-.646,1.487a1.946,1.946,0,0,1-2.044.73l-1.279-.2a7.759,7.759,0,0,1-1.362,1.055,10.3,10.3,0,0,1-1.319.668l0,1.144v.068c.056.477-.447.861-1.232.993l-2.43.408a1.946,1.946,0,0,1-2.05-.713l-.347-.781a15.06,15.06,0,0,1-4.219-.665l-.927.571a2.493,2.493,0,0,1-2.363.01l-1.785-1.079c-.323-.2-.48-.37-.484-.629l-.008-.09h0l-.011-3.91-.986-.157c-.8-.128-1.307-.592-1.23-1.08l-.029-5.349Z" transform="translate(-38.107 674.237)"/><path class="b" d="M378.972,244.961a3.284,3.284,0,0,0,.538-.045l2.43-.409c1.124-.187,1.788-.831,1.692-1.639v-.753a9.569,9.569,0,0,0,1.045-.552,8.508,8.508,0,0,0,1.258-.941l1.024.162a2.41,2.41,0,0,0,2.626-1.063l.646-1.486a1.618,1.618,0,0,0,.1-.531l-.021-5.63-.459-.352-.224.078-1.538.248-.014-4.63a.7.7,0,0,0-.245-.534l-.207-.175-.341.043-4.517,1.04-6.542-3.786-4.889.821-.087.186-.1.108.016,1.826-2.715,2.92-4.01.014,0,.587.029,5.309a1.274,1.274,0,0,0,.226.873,2.171,2.171,0,0,0,1.472.823l.518.082.02,3.55a1.326,1.326,0,0,0,.76,1.084l1.783,1.08a3.027,3.027,0,0,0,2.914-.013l.723-.445a15.454,15.454,0,0,0,3.791.607l.2.457A2.24,2.24,0,0,0,378.972,244.961Zm6.611-5.573-.194.189a7.317,7.317,0,0,1-1.267.98,9.43,9.43,0,0,1-1.25.632l-.345.148.012,1.674c-.019.058-.238.258-.772.347l-2.43.409a1.542,1.542,0,0,1-1.465-.385l-.492-1.111-.343-.006a14.632,14.632,0,0,1-4.071-.641l-.228-.073-1.134.7a1.971,1.971,0,0,1-1.813.008l-1.783-1.08a.712.712,0,0,1-.218-.165v-.1l-.011-4.362-1.452-.231a1.146,1.146,0,0,1-.744-.354l.008-.051-.024-.1-.027-4.77,3.373-.013,3.356-3.611-.013-1.567,3.773-.634,6.573,3.8,4.379-1.007.016,5.321.631-.034,1.589-.256.018,4.638a.876.876,0,0,1-.014.1l-.636,1.458a1.541,1.541,0,0,1-1.46.4Z" transform="translate(-38.076 674.237)"/><path class="a" d="M367.782,228.05l1.278.2a7.779,7.779,0,0,1,1.361-1.053,10.681,10.681,0,0,1,1.715-.841l-.345-.779c-.24-.543.287-1.1,1.178-1.254l2.43-.408a1.943,1.943,0,0,1,2.05.713l.347.782a15.076,15.076,0,0,1,4.217.664l.929-.572a2.485,2.485,0,0,1,2.363-.009l1.785,1.079a.776.776,0,0,1,.006,1.442l-.929.572a4.351,4.351,0,0,1,1.127,2.568l1.285.205c.892.142,1.424.7,1.186,1.244l-.646,1.487a1.944,1.944,0,0,1-2.044.73l-1.279-.2a7.805,7.805,0,0,1-1.362,1.054,10.63,10.63,0,0,1-1.714.84l.346.779c.24.543-.287,1.1-1.178,1.254l-2.431.408a1.945,1.945,0,0,1-2.049-.713l-.347-.781a15.049,15.049,0,0,1-4.219-.665l-.927.571a2.486,2.486,0,0,1-2.364.01l-1.784-1.079a.776.776,0,0,1-.006-1.443l.927-.571a4.345,4.345,0,0,1-1.127-2.569l-1.284-.2c-.892-.142-1.424-.7-1.186-1.244l.646-1.488A1.946,1.946,0,0,1,367.782,228.05Z" transform="translate(-38.129 674.237)"/><path class="b" d="M378.974,239.576a3.179,3.179,0,0,0,.538-.046l2.43-.407a2.052,2.052,0,0,0,1.563-.992,1.249,1.249,0,0,0,.027-1.084l-.1-.218a10.729,10.729,0,0,0,1.244-.651,8.628,8.628,0,0,0,1.256-.941l1.025.162a2.42,2.42,0,0,0,2.626-1.061l.646-1.488a1.249,1.249,0,0,0-.034-1.084,2.055,2.055,0,0,0-1.569-.979l-.876-.14a4.921,4.921,0,0,0-.786-1.9l.372-.23a1.363,1.363,0,0,0-.009-2.45l-1.784-1.08a3.031,3.031,0,0,0-2.915.013l-.724.446a15.439,15.439,0,0,0-3.79-.608l-.2-.458a2.425,2.425,0,0,0-2.633-1.04l-2.432.409a2.056,2.056,0,0,0-1.563.991,1.249,1.249,0,0,0-.026,1.084l.1.218a10.506,10.506,0,0,0-1.244.652,8.423,8.423,0,0,0-1.258.94l-1.023-.163a2.423,2.423,0,0,0-2.627,1.062l-.647,1.487a1.249,1.249,0,0,0,.035,1.084,2.055,2.055,0,0,0,1.571.979l.872.14a4.893,4.893,0,0,0,.787,1.9l-.372.229a1.365,1.365,0,0,0,.009,2.452l1.784,1.079a3.032,3.032,0,0,0,2.914-.012l.724-.446a15.635,15.635,0,0,0,3.79.607l.2.457A2.24,2.24,0,0,0,378.974,239.576Zm6.61-5.573-.194.189a7.288,7.288,0,0,1-1.266.98,10.113,10.113,0,0,1-1.627.8l-.564.219.6,1.353c-.053.143-.275.351-.765.433l-2.43.407a1.54,1.54,0,0,1-1.465-.384l-.492-1.111-.343-.006a14.63,14.63,0,0,1-4.071-.64l-.229-.072-1.133.7a1.974,1.974,0,0,1-1.813.007l-1.783-1.079c-.177-.107-.217-.2-.217-.217s.039-.11.214-.218l1.519-.936-.464-.532a3.741,3.741,0,0,1-.984-2.216l-.031-.465-1.719-.273a1.054,1.054,0,0,1-.765-.383l.643-1.531a1.535,1.535,0,0,1,1.461-.4l1.539.246.195-.189a7.265,7.265,0,0,1,1.265-.98,10.219,10.219,0,0,1,1.629-.8l.563-.219-.6-1.353c.051-.143.275-.35.764-.432l2.431-.409a1.536,1.536,0,0,1,1.464.385l.494,1.111.342.007a14.576,14.576,0,0,1,4.069.641l.229.072,1.134-.7A1.976,1.976,0,0,1,385,226l1.784,1.08c.177.106.215.2.215.215s-.037.11-.214.218l-1.519.937.464.532a3.745,3.745,0,0,1,.983,2.216l.031.464,1.722.274a1.059,1.059,0,0,1,.764.382l-.643,1.531a1.534,1.534,0,0,1-1.461.4Z" transform="translate(-38.098 674.237)"/><rect class="b" width="5.385" height="1.1" transform="translate(347.23 914.139) rotate(-90.261)"/><rect class="b" width="5.384" height="1.101" transform="translate(344.443 917.472) rotate(-90.256)"/><rect class="b" width="5.384" height="1.1" transform="translate(338.461 917.522) rotate(-90.261)"/><rect class="b" width="5.385" height="1.101" transform="matrix(-0.005, -1, 1, -0.005, 334.337, 916.606)"/><path class="c" d="M373.9,229.051c-2.16,1.318-2.16,3.455,0,4.773a8.229,8.229,0,0,0,7.821,0c2.16-1.318,2.16-3.455,0-4.773A8.223,8.223,0,0,0,373.9,229.051Z" transform="translate(-38.499 674.237)"/><path class="b" d="M377.778,235.4a8.162,8.162,0,0,0,4.186-1.075,3.152,3.152,0,0,0,0-5.781,8.687,8.687,0,0,0-8.372,0h0a3.152,3.152,0,0,0,0,5.781A8.165,8.165,0,0,0,377.778,235.4Zm0-6.766a7.119,7.119,0,0,1,3.635.917,1.991,1.991,0,0,1,0,3.766,7.659,7.659,0,0,1-7.27,0,1.991,1.991,0,0,1,0-3.766A7.117,7.117,0,0,1,377.778,228.637Z" transform="translate(-38.468 674.237)"/><path class="c" d="M381.8,233.491c.087.053.085.054.166.11-.08.056-.078.17-.166.223a8.229,8.229,0,0,1-7.821,0c-.088-.053-.086-.167-.166-.223a1.991,1.991,0,0,1,.166-.11A8.229,8.229,0,0,1,381.8,233.491Z" transform="translate(-38.583 674.237)"/><path class="b" d="M377.782,235.4a8.163,8.163,0,0,0,4.187-1.075.756.756,0,0,0,.273-.3l.624-.431-.706-.487c-.092-.064-.11-.077-.193-.127a8.683,8.683,0,0,0-8.371,0c-.081.05-.1.063-.148.1l-.7.488.567.447a.769.769,0,0,0,.28.31A8.168,8.168,0,0,0,377.782,235.4Zm2.983-1.746a7.962,7.962,0,0,1-5.965,0A7.962,7.962,0,0,1,380.766,233.657Z" transform="translate(-38.473 674.237)"/><rect class="b" width="1.102" height="4.205" transform="translate(340.787 902.534)"/><path class="c" d="M499.819,203.026l3.691-.015,3.035-3.265-.015-1.823,0-.005,4.424-.743,6.557,3.794,4.725-1.087a.1.1,0,0,1,.118.1l.016,5.237c0,.015,0,.03,0,.045v.024l2.215-.358,0,0,.02,5.308a1.163,1.163,0,0,1-.054.312l-.646,1.487a1.946,1.946,0,0,1-2.044.73l-1.279-.2a7.807,7.807,0,0,1-1.362,1.054,10.185,10.185,0,0,1-1.32.669l0,1.144v.067c.056.477-.446.862-1.232.994l-2.43.407a1.944,1.944,0,0,1-2.05-.712l-.347-.782a15.023,15.023,0,0,1-4.219-.664l-.927.571a2.5,2.5,0,0,1-2.364.01l-1.784-1.08c-.323-.2-.481-.37-.484-.628l-.008-.09h0l-.012-3.911-.985-.156c-.8-.128-1.307-.592-1.23-1.081l-.029-5.348Z" transform="translate(-346.412 653.236)"/><path class="b" d="M513.773,217.523a3.27,3.27,0,0,0,.536-.045l2.431-.408c1.123-.189,1.788-.832,1.691-1.639v-.754a9.742,9.742,0,0,0,1.045-.552,8.583,8.583,0,0,0,1.258-.94l1.024.162a2.422,2.422,0,0,0,2.627-1.062l.646-1.488a1.584,1.584,0,0,0,.1-.53l-.021-5.915-.553,0-1.668.265-.014-4.909-.241-.254a.62.62,0,0,0-.545-.137l-4.524,1.042-6.541-3.786-4.786.8-.289.306,0,.248.014,1.582-2.715,2.92-4.01.014,0,.587.03,5.31a1.3,1.3,0,0,0,.226.873,2.174,2.174,0,0,0,1.472.821l.518.082.02,3.551a1.327,1.327,0,0,0,.759,1.084l1.785,1.079a3.019,3.019,0,0,0,2.914-.012l.723-.445a15.42,15.42,0,0,0,3.791.607l.2.456A2.241,2.241,0,0,0,513.773,217.523Zm6.61-5.572-.193.189a7.441,7.441,0,0,1-1.267.979,9.69,9.69,0,0,1-1.25.633l-.344.147.011,1.675c-.019.057-.239.257-.773.347l-2.429.408a1.541,1.541,0,0,1-1.466-.386l-.492-1.11-.342-.006a14.6,14.6,0,0,1-4.071-.64l-.228-.073-1.134.7a1.972,1.972,0,0,1-1.812.007l-1.785-1.079a.775.775,0,0,1-.218-.165v-.1l-.01-4.362-1.453-.231a1.137,1.137,0,0,1-.743-.354l.008-.049-.025-.1-.027-4.77,3.373-.015,3.356-3.609-.013-1.567,3.774-.634,6.572,3.8,4.378-1.008.017,5.322.632-.034,1.588-.257.017,4.639a.846.846,0,0,1-.013.094l-.636,1.459a1.541,1.541,0,0,1-1.461.4Z" transform="translate(-346.383 653.236)"/><path class="a" d="M502.581,200.613l1.278.2a7.834,7.834,0,0,1,1.361-1.054,10.766,10.766,0,0,1,1.715-.841l-.345-.778c-.241-.544.287-1.1,1.178-1.255l2.43-.408a1.946,1.946,0,0,1,2.05.713l.347.783a15,15,0,0,1,4.217.664l.929-.572a2.487,2.487,0,0,1,2.363-.01l1.785,1.079a.777.777,0,0,1,.006,1.443l-.929.572a4.349,4.349,0,0,1,1.127,2.568l1.286.2c.892.142,1.423.7,1.186,1.245l-.646,1.487a1.946,1.946,0,0,1-2.044.73l-1.279-.2a7.845,7.845,0,0,1-1.362,1.055,10.717,10.717,0,0,1-1.714.84l.345.778c.241.543-.286,1.1-1.177,1.255l-2.431.408a1.944,1.944,0,0,1-2.049-.713l-.347-.782a15.012,15.012,0,0,1-4.219-.664l-.927.571a2.489,2.489,0,0,1-2.364.01l-1.784-1.079a.776.776,0,0,1-.006-1.443l.927-.571a4.345,4.345,0,0,1-1.127-2.569l-1.284-.2c-.892-.142-1.424-.7-1.187-1.245l.647-1.487A1.945,1.945,0,0,1,502.581,200.613Z" transform="translate(-346.435 653.237)"/><path class="b" d="M513.774,212.138a3.256,3.256,0,0,0,.535-.044l2.431-.409a2.052,2.052,0,0,0,1.563-.992,1.25,1.25,0,0,0,.027-1.083l-.1-.219a10.737,10.737,0,0,0,1.244-.65,8.681,8.681,0,0,0,1.258-.941l1.023.162a2.424,2.424,0,0,0,2.627-1.063l.646-1.486a1.248,1.248,0,0,0-.036-1.085,2.05,2.05,0,0,0-1.569-.978l-.875-.14a4.908,4.908,0,0,0-.786-1.9l.374-.23a1.364,1.364,0,0,0-.01-2.451l-1.783-1.079a3.027,3.027,0,0,0-2.914.012l-.725.446a15.475,15.475,0,0,0-3.789-.608l-.2-.456a2.428,2.428,0,0,0-2.635-1.041l-2.43.408a2.054,2.054,0,0,0-1.564.992,1.245,1.245,0,0,0-.026,1.084l.1.218a10.5,10.5,0,0,0-1.244.651,8.4,8.4,0,0,0-1.257.94l-1.024-.163A2.424,2.424,0,0,0,500,201.1l-.646,1.486a1.247,1.247,0,0,0,.034,1.083,2.051,2.051,0,0,0,1.57.98l.874.139a4.893,4.893,0,0,0,.785,1.9l-.371.229a1.364,1.364,0,0,0,.009,2.451l1.784,1.079a3.024,3.024,0,0,0,2.914-.012l.723-.446a15.414,15.414,0,0,0,3.792.608l.2.457A2.241,2.241,0,0,0,513.774,212.138Zm6.609-5.572-.194.189a7.369,7.369,0,0,1-1.267.98,10.2,10.2,0,0,1-1.627.8l-.562.22.6,1.351c-.051.144-.274.351-.764.433l-2.43.408a1.536,1.536,0,0,1-1.465-.385l-.493-1.11-.342-.006a14.627,14.627,0,0,1-4.071-.641l-.228-.073-1.134.7a1.972,1.972,0,0,1-1.812.007l-1.785-1.079c-.177-.107-.216-.2-.216-.216s.038-.109.214-.218l1.518-.935-.463-.532a3.741,3.741,0,0,1-.983-2.217l-.032-.465-1.72-.274a1.06,1.06,0,0,1-.765-.381l.644-1.532a1.533,1.533,0,0,1,1.461-.4l1.54.246.194-.189a7.307,7.307,0,0,1,1.265-.979,10.186,10.186,0,0,1,1.628-.8l.563-.219-.6-1.352c.051-.144.273-.35.764-.433l2.43-.408a1.542,1.542,0,0,1,1.466.386l.491,1.11.343.006a14.646,14.646,0,0,1,4.069.641l.229.072,1.135-.7a1.969,1.969,0,0,1,1.812-.007l1.784,1.079c.177.107.217.2.217.216s-.039.11-.214.218l-1.52.937.463.533a3.734,3.734,0,0,1,.983,2.215l.031.464,1.722.274a1.051,1.051,0,0,1,.764.381l-.642,1.532a1.536,1.536,0,0,1-1.461.4Z" transform="translate(-346.403 653.237)"/><rect class="b" width="5.384" height="1.101" transform="translate(173.722 865.701) rotate(-90.256)"/><rect class="b" width="5.385" height="1.101" transform="matrix(-0.005, -1, 1, -0.005, 170.936, 869.035)"/><rect class="b" width="5.385" height="1.101" transform="translate(164.953 869.085) rotate(-90.256)"/><rect class="b" width="5.385" height="1.101" transform="translate(160.829 868.169) rotate(-90.256)"/><path class="c" d="M508.7,201.613c-2.16,1.318-2.16,3.455,0,4.774a8.229,8.229,0,0,0,7.821,0c2.161-1.318,2.161-3.456,0-4.774A8.229,8.229,0,0,0,508.7,201.613Z" transform="translate(-346.806 653.236)"/><path class="b" d="M512.575,207.966a8.156,8.156,0,0,0,4.187-1.076,3.151,3.151,0,0,0,0-5.78,8.687,8.687,0,0,0-8.372,0h0a3.151,3.151,0,0,0,0,5.78A8.153,8.153,0,0,0,512.575,207.966Zm0-6.766a7.117,7.117,0,0,1,3.635.917,1.991,1.991,0,0,1,0,3.766,7.67,7.67,0,0,1-7.27,0,1.991,1.991,0,0,1,0-3.766A7.117,7.117,0,0,1,512.575,201.2Z" transform="translate(-346.774 653.236)"/><path class="c" d="M516.6,206.053c.088.054.086.055.167.111-.08.056-.078.169-.167.223a8.229,8.229,0,0,1-7.821,0c-.087-.054-.085-.167-.166-.223.08-.056.078-.057.166-.111A8.229,8.229,0,0,1,516.6,206.053Z" transform="translate(-346.888 653.237)"/><path class="b" d="M512.579,207.966a8.156,8.156,0,0,0,4.187-1.076.752.752,0,0,0,.271-.294l.62-.428-.7-.489a2.286,2.286,0,0,0-.2-.13,8.685,8.685,0,0,0-8.371,0,1.662,1.662,0,0,0-.157.1l-.681.488.558.44a.781.781,0,0,0,.281.31A8.156,8.156,0,0,0,512.579,207.966Zm2.983-1.746a7.962,7.962,0,0,1-5.965,0A7.962,7.962,0,0,1,515.561,206.22Z" transform="translate(-346.777 653.237)"/><rect class="b" width="1.102" height="4.206" transform="translate(167.279 854.096)"/><path class="c" d="M351.076,118.672l2.246-.009,1.847-1.987-.01-1.109,0,0,2.692-.453,3.99,2.309,2.875-.662a.061.061,0,0,1,.073.061l.01,3.187a.216.216,0,0,1,0,.027v.014l1.349-.218,0,0,.012,3.23a.7.7,0,0,1-.033.189l-.393.905a1.185,1.185,0,0,1-1.244.444l-.778-.124a4.793,4.793,0,0,1-.829.641,6.2,6.2,0,0,1-.8.406l0,.7v.041c.034.29-.272.524-.749.6l-1.479.248a1.181,1.181,0,0,1-1.247-.434l-.211-.475a9.157,9.157,0,0,1-2.567-.4l-.564.348a1.52,1.52,0,0,1-1.438.005l-1.086-.657c-.2-.119-.292-.225-.3-.382l0-.055h0l-.007-2.379-.6-.1c-.489-.078-.8-.36-.748-.657l-.018-3.254Z" transform="translate(-77.726 679.66)"/><path class="b" d="M359.338,127.256a1.929,1.929,0,0,0,.327-.027l1.479-.248c.683-.115,1.087-.507,1.029-1v-.458a5.819,5.819,0,0,0,.636-.336,5.184,5.184,0,0,0,.765-.573l.623.1a1.475,1.475,0,0,0,1.6-.647l.393-.9a1.018,1.018,0,0,0,.063-.321l-.013-3.411-.237-.214-1.116.181-.009-2.987-.147-.155a.373.373,0,0,0-.332-.082l-2.752.633-3.981-2.3-2.887.485-.13.1-.074.153.009,1.048-1.651,1.777-2.441.009,0,.357.018,3.232a.785.785,0,0,0,.138.531,1.318,1.318,0,0,0,.9.5l.315.051.012,2.161a.809.809,0,0,0,.462.659l1.086.657a1.841,1.841,0,0,0,1.774-.007l.44-.271a9.417,9.417,0,0,0,2.307.37l.124.278A1.362,1.362,0,0,0,359.338,127.256Zm4.022-3.391-.118.115a4.433,4.433,0,0,1-.77.6,5.777,5.777,0,0,1-.76.385l-.21.09.006,1.019c-.012.035-.144.156-.47.211l-1.479.248a.932.932,0,0,1-.891-.234l-.3-.676-.208,0a8.888,8.888,0,0,1-2.477-.389l-.14-.044-.689.425a1.2,1.2,0,0,1-1.1,0l-1.085-.657a.449.449,0,0,1-.133-.1v-.06l-.006-2.654-.884-.141a.7.7,0,0,1-.452-.215l0-.03-.015-.063-.017-2.9,2.053-.009,2.042-2.2-.008-.954,2.3-.386,4,2.314,2.664-.613.01,3.238.385-.02.966-.156.011,2.822a.567.567,0,0,1-.009.058l-.387.887a.936.936,0,0,1-.889.242Z" transform="translate(-77.479 679.897)"/><path class="a" d="M352.763,116.918l.778.124a4.793,4.793,0,0,1,.828-.641,6.455,6.455,0,0,1,1.044-.512l-.21-.474c-.147-.33.174-.672.716-.763l1.479-.248a1.184,1.184,0,0,1,1.247.434l.211.476a9.153,9.153,0,0,1,2.567.4l.565-.348a1.513,1.513,0,0,1,1.438-.006l1.086.657a.473.473,0,0,1,0,.878l-.565.348a2.649,2.649,0,0,1,.686,1.562l.782.125c.543.086.866.425.722.757l-.393.905a1.183,1.183,0,0,1-1.244.444l-.779-.124a4.767,4.767,0,0,1-.828.641,6.467,6.467,0,0,1-1.043.511l.21.474c.147.33-.174.672-.716.763l-1.479.248a1.183,1.183,0,0,1-1.247-.434l-.211-.475a9.18,9.18,0,0,1-2.567-.4l-.564.347a1.513,1.513,0,0,1-1.438.005l-1.086-.657a.472.472,0,0,1,0-.877l.564-.347a2.65,2.65,0,0,1-.686-1.563l-.781-.125c-.543-.086-.866-.425-.722-.757l.393-.9A1.185,1.185,0,0,1,352.763,116.918Z" transform="translate(-77.746 679.946)"/><path class="b" d="M359.346,123.7a2,2,0,0,0,.327-.027l1.479-.248a1.251,1.251,0,0,0,.951-.6.757.757,0,0,0,.016-.659l-.058-.133a6.431,6.431,0,0,0,.756-.4,5.177,5.177,0,0,0,.766-.573l.623.1a1.472,1.472,0,0,0,1.6-.647l.393-.9a.762.762,0,0,0-.021-.66,1.248,1.248,0,0,0-.956-.6l-.532-.085a2.985,2.985,0,0,0-.478-1.154l.227-.14a.83.83,0,0,0-.005-1.491l-1.086-.657a1.839,1.839,0,0,0-1.773.007l-.441.271a9.4,9.4,0,0,0-2.307-.37l-.123-.278a1.479,1.479,0,0,0-1.6-.633l-1.479.248a1.251,1.251,0,0,0-.95.6.758.758,0,0,0-.017.66l.059.133a6.448,6.448,0,0,0-.758.4,5.2,5.2,0,0,0-.765.572l-.623-.1a1.473,1.473,0,0,0-1.6.647l-.393.9a.76.76,0,0,0,.022.66,1.25,1.25,0,0,0,.955.6l.531.085a3,3,0,0,0,.478,1.155l-.226.139a.83.83,0,0,0,.006,1.491l1.086.657a1.839,1.839,0,0,0,1.773-.007l.44-.271a9.4,9.4,0,0,0,2.306.37l.124.277A1.364,1.364,0,0,0,359.346,123.7Zm4.023-3.391-.119.114a4.452,4.452,0,0,1-.771.6,6.181,6.181,0,0,1-.99.485l-.342.134.365.823c-.032.087-.167.213-.466.263l-1.479.248a.933.933,0,0,1-.892-.234l-.3-.675-.208,0a8.9,8.9,0,0,1-2.477-.389l-.139-.044-.69.425a1.2,1.2,0,0,1-1.1,0l-1.086-.657c-.108-.065-.131-.121-.131-.132s.023-.066.13-.132l.924-.57-.282-.324a2.277,2.277,0,0,1-.6-1.349l-.019-.283-1.046-.166a.642.642,0,0,1-.465-.232l.391-.932a.936.936,0,0,1,.89-.242l.937.15.119-.115a4.42,4.42,0,0,1,.77-.6,6.175,6.175,0,0,1,.991-.486l.341-.134-.364-.823c.032-.086.167-.213.465-.263l1.479-.248a.935.935,0,0,1,.892.234l.3.675.208,0a8.911,8.911,0,0,1,2.476.389l.139.044.691-.426a1.2,1.2,0,0,1,1.1,0l1.086.657c.108.065.131.121.131.132s-.023.067-.13.133l-.926.57.282.324a2.279,2.279,0,0,1,.6,1.348l.02.282,1.046.167a.643.643,0,0,1,.466.232l-.392.932a.929.929,0,0,1-.889.242Z" transform="translate(-77.499 680.174)"/><rect class="b" width="3.277" height="0.67" transform="translate(285.712 804.076) rotate(-90.216)"/><rect class="b" width="3.277" height="0.67" transform="translate(284.016 806.104) rotate(-90.216)"/><rect class="b" width="3.277" height="0.67" transform="matrix(-0.004, -1, 1, -0.004, 280.375, 806.134)"/><rect class="b" width="3.277" height="0.67" transform="translate(277.866 805.577) rotate(-90.216)"/><path class="c" d="M359.321,119.163a1.563,1.563,0,0,0,0,2.9,5,5,0,0,0,4.759,0,1.563,1.563,0,0,0,0-2.9A5.007,5.007,0,0,0,359.321,119.163Z" transform="translate(-80.808 678.309)"/><path class="b" d="M361.453,122.8a4.966,4.966,0,0,0,2.547-.654,1.918,1.918,0,0,0,0-3.518,5.289,5.289,0,0,0-5.094,0,1.919,1.919,0,0,0,0,3.518A4.967,4.967,0,0,0,361.453,122.8Zm0-4.117a4.327,4.327,0,0,1,2.212.559,1.211,1.211,0,0,1,0,2.291,4.656,4.656,0,0,1-4.424,0,1.211,1.211,0,0,1,0-2.291h0A4.323,4.323,0,0,1,361.453,118.68Z" transform="translate(-80.56 678.54)"/><path class="c" d="M364.732,123.6a1.2,1.2,0,0,1,.1.068c-.049.034-.048.1-.1.135a5,5,0,0,1-4.759,0c-.054-.032-.052-.1-.1-.135.05-.035.048-.035.1-.068A5.008,5.008,0,0,1,364.732,123.6Z" transform="translate(-81.46 676.571)"/><path class="b" d="M361.875,124.536a4.967,4.967,0,0,0,2.548-.654.475.475,0,0,0,.167-.181l.375-.264-.426-.294c-.055-.039-.067-.047-.117-.077h0a5.289,5.289,0,0,0-5.094,0c-.053.032-.062.039-.1.062l-.418.3.344.271a.467.467,0,0,0,.17.188A4.962,4.962,0,0,0,361.875,124.536Zm1.815-1.062a4.84,4.84,0,0,1-3.629,0A4.84,4.84,0,0,1,363.69,123.474Z" transform="translate(-80.982 676.802)"/><rect class="b" width="0.671" height="2.559" transform="translate(281.792 797.014)"/><path class="a" d="M354.733,230.161h.386v-1.09h-.386Zm0-2.18h.386v-1.089h-.386Zm0-2.18h.386v-1.089h-.386Zm0-2.179h.386v-1.09h-.386Zm0-2.18h.386v-1.09h-.386Zm0-2.18h.386v-1.09h-.386Zm0-2.18h.386v-1.089h-.386Zm0-2.18h.386v-1.089h-.386Zm0-2.179h.386v-1.09h-.386Z" transform="translate(-68.787 641.874)"/><path class="a" d="M355.413,246.707a5.148,5.148,0,0,0,1.74-.469l-.267-.61a4.526,4.526,0,0,1-1.53.411Zm-1.778-.1.124-.659a3.887,3.887,0,0,1-1.227-.467c-.075-.046-.145-.094-.211-.143l-.367.548a3.091,3.091,0,0,0,.262.176A4.461,4.461,0,0,0,353.635,246.612Zm4.9-1.74a1.712,1.712,0,0,0,.111-.6,1.92,1.92,0,0,0-.637-1.38l-.43.495a1.251,1.251,0,0,1,.431.885,1.019,1.019,0,0,1-.065.352Zm-6.853-.708a1.6,1.6,0,0,1,.854-1.1,3.347,3.347,0,0,1,.534-.263l-.22-.63a4.034,4.034,0,0,0-.632.312,2.238,2.238,0,0,0-1.166,1.607Zm4.533-1.5.163-.649a5.785,5.785,0,0,0-1.535-.205l-.236,0,.022.671.214,0A5.183,5.183,0,0,1,356.211,242.663Z" transform="translate(-6.719 656.237)"/><path class="a" d="M310.658,265.842h.635v-1.791h-.635Zm0-3.582h.635v-1.791h-.635Zm0-3.582h.635v-1.791h-.635Zm0-3.582h.635V253.3h-.635Zm0-3.582h.635v-1.791h-.635Zm0-3.582h.635v-1.791h-.635Zm0-3.582h.635v-1.791h-.635Zm0-3.582h.635v-1.791h-.635Zm0-3.582h.635V235.4h-.635Zm0-3.582h.635v-1.791h-.635Zm0-3.582h.635v-1.791h-.635Z" transform="translate(69.835 632.237)"/><path class="a" d="M311.339,270.875a5.079,5.079,0,0,0,1.74-.471l-.269-.608a4.491,4.491,0,0,1-1.528.411Zm-1.777-.1.123-.659a3.887,3.887,0,0,1-1.227-.467c-.076-.046-.146-.094-.211-.143l-.367.548c.081.061.168.121.261.177A4.487,4.487,0,0,0,309.562,270.78Zm4.9-1.742a1.666,1.666,0,0,0,.11-.6,1.921,1.921,0,0,0-.638-1.38l-.429.495a1.256,1.256,0,0,1,.432.886,1.006,1.006,0,0,1-.065.352Zm-6.853-.706a1.6,1.6,0,0,1,.854-1.105,3.331,3.331,0,0,1,.533-.262l-.22-.63a4.1,4.1,0,0,0-.63.311,2.242,2.242,0,0,0-1.167,1.607Zm4.532-1.5.162-.649a5.694,5.694,0,0,0-1.533-.2l-.236,0,.021.672.216-.005A5.2,5.2,0,0,1,312.136,266.83Z" transform="translate(79.047 656.237)"/><path class="a" d="M410.673,287.447h.635v-1.791h-.635Zm0-3.582h.635v-1.791h-.635Zm0-3.582h.635v-1.791h-.635Zm0-3.582h.635V274.91h-.635Zm0-3.582h.635v-1.791h-.635Zm0-3.582h.635v-1.791h-.635Z" transform="translate(-115.785 656.237)"/><path class="a" d="M411.351,293.365a5.051,5.051,0,0,0,1.74-.471l-.269-.609a4.446,4.446,0,0,1-1.529.412Zm-1.776-.1.124-.659a3.918,3.918,0,0,1-1.228-.468c-.073-.046-.145-.094-.211-.143l-.367.548c.081.061.167.12.259.176A4.5,4.5,0,0,0,409.575,293.27Zm4.9-1.739a1.711,1.711,0,0,0,.111-.6,1.918,1.918,0,0,0-.637-1.38l-.43.495a1.249,1.249,0,0,1,.431.885,1.011,1.011,0,0,1-.065.351Zm-6.853-.709a1.6,1.6,0,0,1,.854-1.1,3.493,3.493,0,0,1,.535-.263l-.221-.63a4.02,4.02,0,0,0-.631.311,2.235,2.235,0,0,0-1.167,1.608Zm4.533-1.5.164-.649a5.632,5.632,0,0,0-1.527-.2h-.01l-.235.005.022.671.214,0A6.154,6.154,0,0,1,412.15,289.32Z" transform="translate(-115.572 656.237)"/><path class="a" d="M491.273,247.71h.636V247.5h-.636Zm0-2h.636v-1.791h-.636Zm0-3.582h.636v-1.791h-.636Zm0-3.582h.636v-1.791h-.636Zm0-3.582h.636v-1.791h-.636Zm0-3.582h.636v-1.791h-.636Zm0-3.582h.636v-1.791h-.636Zm0-3.582h.636v-1.791h-.636Zm0-3.582h.636v-1.791h-.636Zm0-3.582h.636v-1.791h-.636Zm0-3.582h.636v-1.791h-.636Zm0-3.582h.636V208.1h-.636Zm0-3.582h.636v-1.791h-.636Zm0-3.582h.636v-1.791h-.636Zm0-3.582h.636v-1.791h-.636Zm0-3.582h.636v-1.791h-.636Z" transform="translate(-272.627 656.237)"/><path class="a" d="M491.953,252.048a5.074,5.074,0,0,0,1.739-.471l-.268-.609a4.48,4.48,0,0,1-1.529.412Zm-1.778-.1.126-.658a3.929,3.929,0,0,1-1.226-.469c-.075-.046-.147-.094-.213-.144l-.367.548c.081.06.167.119.26.176A4.5,4.5,0,0,0,490.175,251.953Zm4.9-1.739a1.7,1.7,0,0,0,.111-.6,1.917,1.917,0,0,0-.636-1.379l-.43.495a1.252,1.252,0,0,1,.431.884,1,1,0,0,1-.066.352Zm-6.855-.71a1.609,1.609,0,0,1,.857-1.1,3.548,3.548,0,0,1,.537-.263l-.222-.63a4.263,4.263,0,0,0-.631.309,2.249,2.249,0,0,0-1.171,1.608Zm4.538-1.5.164-.649a5.666,5.666,0,0,0-1.538-.206l-.234.005.021.671.213,0A5.141,5.141,0,0,1,492.756,248Z" transform="translate(-272.416 656.237)"/><path class="b" d="M358.655,106.087a.1.1,0,0,0-.037-.127l-3.991-2.581c-.181-.17-.485-.138-.8.141l-1.483,1.317c-.074.065-7.279,6.362-15.234,4.818a1.747,1.747,0,0,0-.51-.023,4.122,4.122,0,0,0-2.461,1.51h0a7.374,7.374,0,0,0-.528.675c-7.643,10.982-14.926,13.639-15.233,13.747l-1.474.5a1.778,1.778,0,0,0-.962,1.549l.027,1.827c.352,23.6,6.571,32.795,11.732,36.352h0l4.834,3.124.327-1.011a7.589,7.589,0,0,0,1.735.086h.014a2.519,2.519,0,0,0,1.512-.923l.014-.016c.667-.75,14.934-17.167,18.049-50.411l2.154-4.981Z" transform="translate(-50.002 684.294)"/><path class="b" d="M332.844,168.067a7.554,7.554,0,0,0,1.554.049,2.834,2.834,0,0,0,1.736-1.047c.611-.686,14.991-17.192,18.131-50.558l2.134-4.932L358.715,106h0a.468.468,0,0,0-.169-.563l-3.969-2.567a.9.9,0,0,0-1.206.158l-1.481,1.316c-.293.255-7.266,6.239-14.964,4.743a2.054,2.054,0,0,0-.6-.027,4.4,4.4,0,0,0-2.67,1.619,7.758,7.758,0,0,0-.553.707c-7.58,10.891-14.769,13.516-15.068,13.622l-1.475.5a2.128,2.128,0,0,0-1.192,1.887l.027,1.827c.355,23.758,6.657,33.038,11.89,36.645l5.187,3.352Zm3.963-58.294c7.994,1.552,15.2-4.627,15.507-4.894l1.483-1.317c.184-.163.329-.185.366-.148l3.864,2.505-2.23,5.372-2.155,4.981-.028.111c-3.108,33.169-17.356,49.526-17.975,50.222a2.215,2.215,0,0,1-1.315.815,7.221,7.221,0,0,1-1.66-.083l-.271-.041-.281.872-4.474-2.892c-5.091-3.508-11.233-12.612-11.582-36.064l-.027-1.826a1.443,1.443,0,0,1,.733-1.211l1.478-.5c.31-.109,7.692-2.8,15.395-13.871a6.874,6.874,0,0,1,.5-.644,3.828,3.828,0,0,1,2.25-1.4c.049,0,.1-.007.148-.007A1.438,1.438,0,0,1,336.807,109.773Z" transform="translate(-49.759 684.519)"/><path class="a" d="M354.362,103.379c-.181-.17-.485-.138-.8.141l-1.483,1.317c-.074.065-7.279,6.362-15.234,4.818a1.747,1.747,0,0,0-.51-.023,4.122,4.122,0,0,0-2.461,1.51h0a7.374,7.374,0,0,0-.528.675c-7.643,10.982-14.926,13.639-15.233,13.747l-1.474.5a1.44,1.44,0,0,0-.7.654l12,7.194,25.277-11.252q.412-2.912.707-6.02l2.154-4.98,2.316-5.576a.1.1,0,0,0-.037-.127Z" transform="translate(-49.737 684.294)"/><path class="b" d="M353.4,122.685l.027-.195c.279-1.964.515-3.976.7-5.979l2.134-4.932L358.582,106a.468.468,0,0,0-.169-.563l-3.969-2.567a.9.9,0,0,0-1.207.158l-1.481,1.316c-.293.255-7.266,6.239-14.964,4.743a2.054,2.054,0,0,0-.6-.027,4.4,4.4,0,0,0-2.67,1.619,7.758,7.758,0,0,0-.553.707c-7.58,10.891-14.769,13.516-15.068,13.622l-1.475.5a1.762,1.762,0,0,0-.877.8l-.181.309,12.436,7.458Zm-36.774,3.491,1.478-.5c.31-.109,7.692-2.8,15.395-13.871a6.874,6.874,0,0,1,.5-.644,3.828,3.828,0,0,1,2.25-1.4,1.458,1.458,0,0,1,.419.018c7.994,1.552,15.2-4.627,15.507-4.894l1.483-1.317c.184-.163.329-.185.366-.148l3.864,2.505-2.231,5.372-2.155,4.981-.028.111c-.182,1.945-.41,3.9-.677,5.808L327.847,133.3l-11.522-6.909A.8.8,0,0,1,316.628,126.176Z" transform="translate(-49.625 684.519)"/><path class="c" d="M335.734,171.412c.736-.828,18.038-20.738,18.631-61.292l.028-1.873c.01-.633-.466-.815-.967-.369l-1.483,1.317c-.074.065-7.279,6.362-15.234,4.818a1.748,1.748,0,0,0-.51-.023h0a4.122,4.122,0,0,0-2.461,1.51h0a7.371,7.371,0,0,0-.528.675c-7.643,10.982-14.926,13.639-15.233,13.747l-1.474.5a1.777,1.777,0,0,0-.962,1.549l.027,1.827c.594,39.829,17.892,38.622,18.629,38.551l.014,0a2.515,2.515,0,0,0,1.512-.923Zm-15.356-37.837c3.24-1.9,8.5-5.808,13.976-13.241a1.553,1.553,0,0,1,1.257-.775c5.57.671,10.756-1.784,13.954-3.8.416-.262.748-.039.726.481-1.158,27.386-10.215,43.375-14.222,49.17-.659.954-1.871,2.188-2.527,2.031-3.98-.952-12.738-6.669-13.9-32.489A1.7,1.7,0,0,1,320.378,133.575Z" transform="translate(-45.5 682.588)"/><path class="b" d="M333.995,172.474a2.815,2.815,0,0,0,1.723-1.031l.014-.016c.74-.832,18.125-20.838,18.721-61.526l.027-1.872a.925.925,0,0,0-.447-.9.953.953,0,0,0-1.064.253l-1.482,1.316c-.292.255-7.268,6.235-14.964,4.743a2.067,2.067,0,0,0-.6-.027,4.4,4.4,0,0,0-2.671,1.619,7.772,7.772,0,0,0-.553.707c-7.579,10.89-14.768,13.516-15.068,13.622l-1.475.5a2.127,2.127,0,0,0-1.192,1.887l.028,1.827c.321,21.476,5.578,30.915,9.932,35.051a12.666,12.666,0,0,0,8.571,3.862C333.746,172.494,333.918,172.481,333.995,172.474Zm2.41-58.343c7.993,1.551,15.2-4.627,15.507-4.894l1.483-1.317c.177-.157.31-.179.354-.156s.072.1.069.253l-.027,1.873c-.592,40.42-17.809,60.234-18.542,61.059l-.013.016a2.217,2.217,0,0,1-1.314.814c-.176.016-4.314.364-8.555-3.666-4.257-4.044-9.4-13.319-9.713-34.542l-.027-1.827a1.442,1.442,0,0,1,.733-1.21l1.477-.5c.311-.11,7.693-2.8,15.4-13.872a7,7,0,0,1,.5-.643,3.828,3.828,0,0,1,2.25-1.4c.049,0,.1-.007.148-.007A1.438,1.438,0,0,1,336.4,114.13Zm-.311,51.262c3.907-5.651,13.119-21.773,14.286-49.361a.92.92,0,0,0-.366-.854.79.79,0,0,0-.861.057c-3.287,2.071-8.335,4.407-13.747,3.751a1.845,1.845,0,0,0-1.555.907c-5.369,7.285-10.51,11.172-13.876,13.151a2.054,2.054,0,0,0-.908,1.7h0c1.244,27.6,11.153,32.094,14.16,32.813a.815.815,0,0,0,.189.022C334.332,167.58,335.547,166.183,336.093,165.393Zm-16.365-30.68a1.357,1.357,0,0,1,.568-1.057c3.42-2.011,8.639-5.955,14.077-13.333.353-.48.726-.675.958-.642,5.587.674,10.786-1.72,14.161-3.845.111-.071.172-.063.182-.058s.051.082.045.223c-1.159,27.4-10.288,43.38-14.159,48.98-.738,1.067-1.8,1.986-2.187,1.9-2.891-.691-12.422-5.055-13.644-32.164Z" transform="translate(-45.256 682.814)"/><path class="a" d="M352.587,120.919c-3.2,2.015-8.384,4.47-13.954,3.8a1.553,1.553,0,0,0-1.257.775c-5.479,7.434-10.737,11.338-13.976,13.241a1.7,1.7,0,0,0-.737,1.38c1.164,25.82,9.922,31.537,13.9,32.489.656.157,1.868-1.077,2.527-2.031,4.007-5.8,13.064-21.784,14.222-49.17C353.335,120.88,353,120.657,352.587,120.919Z" transform="translate(-48.521 677.43)"/><path class="b" d="M340.588,120.919c-.587.369-1.241.753-1.952,1.131-1.363,26.668-10.213,42.29-14.161,48a6.873,6.873,0,0,1-1.814,1.831,8.776,8.776,0,0,0,1.9.719c.656.157,1.868-1.077,2.527-2.031,4.007-5.8,13.064-21.784,14.222-49.17C341.336,120.88,341,120.657,340.588,120.919Z" transform="translate(-36.523 677.43)"/><path class="c" d="M327.5,170.552c3.907-5.65,13.119-21.771,14.286-49.361a.92.92,0,0,0-.366-.854.79.79,0,0,0-.861.057h0c-.626.395-1.276.771-1.931,1.119l-.171.091-.011.2c-1.366,26.726-10.314,42.341-14.1,47.814a6.652,6.652,0,0,1-1.709,1.733l-.555.329.574.291a9.005,9.005,0,0,0,1.974.744.818.818,0,0,0,.189.022C325.741,172.74,326.956,171.343,327.5,170.552Zm-2.617-.519c3.809-5.51,12.8-21.2,14.215-47.987.61-.33,1.216-.683,1.8-1.051.111-.071.172-.063.182-.058s.051.081.045.223c-1.159,27.4-10.288,43.381-14.159,48.98-.737,1.067-1.8,1.989-2.187,1.9a7.861,7.861,0,0,1-1.3-.442A8.348,8.348,0,0,0,324.884,170.033Z" transform="translate(-36.665 677.654)"/><path class="b" d="M.016.69,4.9.808,4.885.118,0,0Z" transform="translate(270.231 813.833) rotate(-150.433)"/><path class="b" d="M.016.69,4.9.808,4.885.118,0,0Z" transform="matrix(-0.87, -0.493, 0.493, -0.87, 272.781, 812.576)"/><path class="b" d="M.016.69,4.9.808,4.885.118,0,0Z" transform="translate(290 796.914) rotate(-150.435)"/><path class="b" d="M.016.69,4.9.808,4.885.118,0,0Z" transform="translate(286.572 800.563) rotate(-150.436)"/><path class="b" d="M.017.689,5.247.819,5.231.129,0,0Z" transform="translate(306.66 792.049) rotate(-149.257)"/><path class="c" d="M386.693,156.548l-3.28-2.089-.03-.832,3.3,2.105Z" transform="translate(-116.852 664.582)"/><path class="c" d="M377.739,195.851l-3.28-2.089-.586-1.2,3.3,2.105Z" transform="translate(-102.425 649.339)"/><path class="b" d="M341.831,116.623l-4.3-2.511.32-.612,5.253,3.071Z" transform="translate(-46.878 680.291)"/><path class="c" d="M.017.689l2.54.064L2.54.064,0,0Z" transform="matrix(-0.85, -0.527, 0.527, -0.85, 290.355, 848.194)"/><path class="c" d="M.017.689,3.123.767,3.106.079,0,0Z" transform="matrix(-0.848, -0.53, 0.53, -0.848, 304.304, 804.203)"/><path class="c" d="M.017.689,3.122.767,3.105.079,0,0Z" transform="matrix(-0.848, -0.531, 0.531, -0.848, 303.928, 808.102)"/><path class="b" d="M339.115,170.552c3.907-5.65,13.119-21.771,14.286-49.361a.92.92,0,0,0-.366-.854.79.79,0,0,0-.861.057h0c-3.287,2.071-8.335,4.407-13.747,3.751a1.846,1.846,0,0,0-1.555.907c-5.37,7.286-10.51,11.173-13.876,13.151a2.054,2.054,0,0,0-.908,1.7c1.244,27.6,11.152,32.094,14.16,32.813a.818.818,0,0,0,.189.022C337.354,172.74,338.569,171.343,339.115,170.552Zm-.763-45.712c5.587.674,10.786-1.72,14.161-3.845.111-.071.172-.063.182-.058s.051.081.045.223c-1.159,27.4-10.288,43.381-14.159,48.98-.737,1.067-1.8,1.989-2.187,1.9-2.891-.691-12.422-5.055-13.644-32.164a1.358,1.358,0,0,1,.568-1.057c3.42-2.01,8.638-5.954,14.077-13.333a1.35,1.35,0,0,1,.916-.645A.321.321,0,0,1,338.352,124.84Z" transform="translate(-48.278 677.654)"/><g transform="translate(281.22 815.408)"><path class="a" d="M339.115,156.907a2.049,2.049,0,0,1,.795-1.607l9.163-5.592a.516.516,0,0,1,.454-.075,4.709,4.709,0,0,1,3.355,2.141l-3.013,5.78v.533a7.012,7.012,0,0,1-2.723,5.5l-.619.379-2.7,5.182a8.134,8.134,0,0,1-3.853-2.231,1.169,1.169,0,0,1-.21-.2l-.138-.153a3.236,3.236,0,0,1-.508-1.917Z" transform="translate(-338.779 -149.253)"/><path class="b" d="M343.676,169.3,346.442,164l.539-.329a7.306,7.306,0,0,0,2.891-5.807v-.442l3.062-5.873-.092-.172a5.015,5.015,0,0,0-3.57-2.314.825.825,0,0,0-.7.114l-9.163,5.592a2.41,2.41,0,0,0-.964,1.914v7.743a3.6,3.6,0,0,0,.579,2.135l.161.181h0a1.488,1.488,0,0,0,.264.245,8.241,8.241,0,0,0,4,2.288Zm8.484-17.741-2.958,5.673v.624a6.628,6.628,0,0,1-2.556,5.194l-.7.428-2.632,5.048a8.3,8.3,0,0,1-3.45-2.1,1.108,1.108,0,0,1-.178-.162l-.152-.169a2.909,2.909,0,0,1-.416-1.673v-7.743a1.709,1.709,0,0,1,.628-1.3l9.162-5.593a.231.231,0,0,1,.175-.047l.06.015A4.469,4.469,0,0,1,352.16,151.561Z" transform="translate(-338.448 -149.025)"/></g><path class="b" d="M351.6,170.775a1.168,1.168,0,0,1-.21-.2l-.138-.153a3.238,3.238,0,0,1-.508-1.918v-7.743a3.74,3.74,0,0,1,.462-1.322l3.836,2.517s1.392,3.528,2.806,6.453l-2.395,4.592A8.133,8.133,0,0,1,351.6,170.775Z" transform="translate(-69.221 662.306)"/><g transform="translate(284.377 817.392)"><g transform="translate(0)"><path class="c" d="M346.895,166.846l-5.307,3.239c-1.5.918-2.723-.056-2.723-2.176v-7.743a2.049,2.049,0,0,1,.795-1.607l9.163-5.592c.439-.268.8.016.8.636v7.743A7.012,7.012,0,0,1,346.895,166.846Z" transform="translate(-338.529 -152.512)"/><path class="b" d="M340.258,170.558a2.419,2.419,0,0,0,1.251-.394l5.307-3.239a7.307,7.307,0,0,0,2.891-5.807v-7.743a1.109,1.109,0,0,0-.443-.987.8.8,0,0,0-.856.044l-9.163,5.592a2.41,2.41,0,0,0-.963,1.913v7.744a2.964,2.964,0,0,0,1.109,2.635A1.637,1.637,0,0,0,340.258,170.558Zm8.632-17.566a.075.075,0,0,1,.039.009c.052.032.107.162.107.373v7.743a6.629,6.629,0,0,1-2.556,5.194l-5.307,3.239a1.353,1.353,0,0,1-1.447.152,2.3,2.3,0,0,1-.774-2.021v-7.744a1.712,1.712,0,0,1,.627-1.3l9.163-5.592A.311.311,0,0,1,348.89,152.993Z" transform="translate(-338.282 -152.285)"/></g></g><g transform="translate(287.955 823.806)"><g transform="translate(0)"><g transform="translate(1.18 2.514)"><path class="a" d="M347.22,170.967v-4.012h.662v2.8l.528-.322.331.606Z" transform="translate(-347.22 -166.955)"/></g><path class="a" d="M348.339,166.531a3.14,3.14,0,0,0,1.346-2.464,1.23,1.23,0,0,0-.511-1.111,1.089,1.089,0,0,0-1.166.088,3.141,3.141,0,0,0-1.346,2.464,1.231,1.231,0,0,0,.511,1.111.9.9,0,0,0,.472.131A1.345,1.345,0,0,0,348.339,166.531Zm.5-2.97a.584.584,0,0,1,.18.505,2.44,2.44,0,0,1-1.015,1.858.509.509,0,0,1-.5.088.584.584,0,0,1-.18-.505,2.442,2.442,0,0,1,1.015-1.858.727.727,0,0,1,.361-.124A.275.275,0,0,1,348.842,163.561Z" transform="translate(-346.662 -162.824)"/><path class="d" d="M348.623,164.356a2.791,2.791,0,0,1-1.181,2.161c-.652.4-1.18.075-1.18-.72a2.793,2.793,0,0,1,1.18-2.161C348.094,163.237,348.623,163.56,348.623,164.356Z" transform="translate(-345.37 -163.075)"/><path class="b" d="M347.364,166.594a3.141,3.141,0,0,0,1.346-2.464,1.228,1.228,0,0,0-.511-1.111,1.09,1.09,0,0,0-1.166.087,3.142,3.142,0,0,0-1.346,2.465,1.23,1.23,0,0,0,.512,1.111.892.892,0,0,0,.472.131A1.347,1.347,0,0,0,347.364,166.594Zm.5-2.969a.582.582,0,0,1,.18.505,2.443,2.443,0,0,1-1.015,1.858.511.511,0,0,1-.5.087.581.581,0,0,1-.18-.5,2.441,2.441,0,0,1,1.015-1.858.723.723,0,0,1,.36-.124A.272.272,0,0,1,347.868,163.625Z" transform="translate(-345.126 -162.849)"/></g><g transform="translate(1.741 3.009)"><path class="b" d="M346.246,171.325v-3.132l.662-.424v2.344l.528-.322.331.606Z" transform="translate(-346.246 -167.769)"/></g></g><path class="c" d="M.013.537,3.178.616,3.164.079,0,0Z" transform="matrix(-0.854, -0.519, 0.519, -0.854, 284.258, 827.352)"/><path class="c" d="M.013.537,3.178.616,3.165.079,0,0Z" transform="matrix(-0.854, -0.519, 0.519, -0.854, 284.258, 833.055)"/><g transform="translate(284.415 810.401)"><path class="b" d="M345.012,152.478h0a.957.957,0,0,0,.93-.982v-4.247a4.229,4.229,0,0,1,1.781-3.261l1.7-1.036c.322-.2.562-.225.659-.166s.193.293.193.686v4.247a.957.957,0,0,0,.93.982h0a.957.957,0,0,0,.929-.982v-4.247a2.678,2.678,0,0,0-1.122-2.387,2.375,2.375,0,0,0-2.517.166l-1.7,1.036a6.437,6.437,0,0,0-2.71,4.963V151.5A.957.957,0,0,0,345.012,152.478Z" transform="translate(-344.083 -140.796)"/></g><g transform="translate(287.657 811.203)"><path class="c" d="M349.116,145.051h.387v-1.383a1.556,1.556,0,0,0-.729-1.341,1.385,1.385,0,0,0-1.463-.01l-1.78,1.066.191.355,1.779-1.066a1.018,1.018,0,0,1,1.078.007,1.147,1.147,0,0,1,.538.988Z" transform="translate(-345.531 -142.114)"/></g><g transform="translate(285.043 814.42)"><path class="c" d="M355.557,150.251a6.352,6.352,0,0,1,.651-2.644l-.334-.206a6.664,6.664,0,0,0-.7,2.842Z" transform="translate(-355.17 -147.401)"/></g><path class="b" d="M511.245,138.137a.24.24,0,0,0-.091-.3l-9.1-5.408c-.341-.234-1.072-.637-1.072-.637h0c-3.786-1.867-8.982-1-14.613,3.183-8.7,6.473-15.657,19.37-16.471,30.506-.416,5.685.737,10.06,2.963,12.846v0L484.4,191.949c.1.123,8.114,4.8,9.226,5.446a.089.089,0,0,0,.132-.081l.591-22.96c6.875-6.978,11.978-17.609,12.7-27.144l.386-.551Z" transform="translate(-322.692 622.237)"/><path class="b" d="M493.632,198.079a.686.686,0,0,0,.358-.1.771.771,0,0,0,.366-.64l.584-22.692c6.965-7.168,11.923-17.788,12.689-27.19l.342-.509,3.814-8.523a.935.935,0,0,0-.356-1.177l-9.095-5.408c-.326-.226-1.057-.63-1.089-.647-4.247-2.094-9.663-.943-15.273,3.23-8.868,6.6-15.907,19.636-16.739,31-.4,5.418.574,9.875,2.808,12.934l-.013.023.326.39L483.889,192.4c.105.123.173.2,9.24,5.5l.153.089A.7.7,0,0,0,493.632,198.079Zm13.217-51.766-.457.652-.015.192c-.7,9.224-5.606,19.709-12.506,26.712l-.187.191-.573,22.289c-6.644-3.88-8.056-4.737-8.329-4.911l-11.466-13.549c-2.229-2.789-3.2-7.064-2.815-12.36.8-11,7.619-23.623,16.2-30.008,5.143-3.826,10.232-4.964,13.967-3.13.114.063.726.406,1.006.6l8.793,5.23Z" transform="translate(-322.656 622.237)"/><path class="a" d="M496.21,159.753l.511-1.228h0a36.162,36.162,0,0,0,2.886-16.033c-.033-.4-.078-.79-.13-1.172l3.562-3.569a.228.228,0,0,0-.04-.352l-8.377-5.083c-.209-.138-.662-.4-.662-.4-2.79-1.507-6.4-1.454-10.4.45-4.757,2.268-9.194,6.586-12.694,11.816Z" transform="translate(-315.522 622.237)"/><path class="b" d="M496.753,160.711l1.04-2.5-.01-.005a36.226,36.226,0,0,0,2.7-15.77c-.024-.294-.054-.581-.089-.865l3.326-3.331a.931.931,0,0,0,.258-.755.9.9,0,0,0-.42-.668l-8.376-5.082c-.2-.132-.672-.408-.672-.408-3.051-1.648-6.938-1.493-10.965.427-4.634,2.209-9.233,6.485-12.951,12.04l-.4.6Zm-.438-2.283-.152.366-24.121-14.822c3.512-5.071,7.765-8.962,12.03-11,3.72-1.775,7.125-1.935,9.846-.464h0s.42.243.614.372l7.9,4.795-3.385,3.392.047.344c.05.369.095.745.126,1.132a35.218,35.218,0,0,1-2.838,15.712Z" transform="translate(-315.769 622.237)"/><path class="c" d="M467.341,183.845v0c-2.226-2.785-3.379-7.16-2.963-12.845.814-11.136,7.77-24.033,16.471-30.506,11.248-8.367,20.764-3.462,20.764,9.964,0,12.58-8.354,27.877-18.66,34.167-.294.18-.586.348-.878.509v0a25.142,25.142,0,0,0-.648,9.631c.173,1.664-1.732,3.675-2.554,2.705Z" transform="translate(-307.814 622.237)"/><path class="b" d="M479.372,198.394a1.677,1.677,0,0,0,.709-.169,3.845,3.845,0,0,0,1.941-3.533,24.4,24.4,0,0,1,.547-9.1c.221-.126.444-.256.668-.392,10.464-6.388,18.977-21.975,18.977-34.749,0-6.571-2.187-11.39-6.156-13.568-4.207-2.31-9.9-1.2-15.609,3.055-8.868,6.6-15.907,19.635-16.739,31-.4,5.417.574,9.876,2.808,12.935l-.013.023.326.39,11.534,13.624A1.293,1.293,0,0,0,479.372,198.394Zm11.9-61.344a8.632,8.632,0,0,1,4.2,1.03c3.527,1.936,5.47,6.331,5.47,12.376,0,12.346-8.228,27.413-18.341,33.586-.288.176-.572.338-.856.495l-.182.1-.13.293a25.428,25.428,0,0,0-.673,9.908,2.51,2.51,0,0,1-1.2,2.16c-.2.093-.237.042-.252.024l-11.52-13.613c-2.229-2.788-3.2-7.063-2.815-12.36.8-11,7.619-23.622,16.2-30.007C484.72,138.408,488.215,137.05,491.269,137.05Z" transform="translate(-307.777 622.237)"/><path class="c" d="M0,1.541l9,.215L8.968.43l-9-.215Z" transform="translate(155.313 795.236) rotate(-151.096)"/><path class="d" d="M481.605,132.16l9.576,5.686Z" transform="translate(-313.754 622.237)"/><path class="b" d="M0,1.594l11.133.268L11.1.536-.031.268Z" transform="translate(176.957 760.886) rotate(-150.679)"/><path class="c" d="M0,1.524l8.207.2L8.176.4-.031.2Z" transform="translate(156.767 803.715) rotate(-150.699)"/><g transform="translate(171.539 778.075)"><path class="a" d="M482.185,170.2l.974-1.466c-.127-.095-3.1-2.406-2.882-7.7a3.969,3.969,0,0,1,1.863-3.2c.459-.249.631-.211.631-.211a3.753,3.753,0,0,1,.289,1.29,6.855,6.855,0,0,0,.137.86c.472,1.828,1.23,4.763,4.063,4.763h.068l-.026-1.791c-1.5.044-1.938-1.383-2.452-3.374a4.855,4.855,0,0,1-.108-.68c-.107-.9-.253-2.133-1.187-2.655a2.21,2.21,0,0,0-2.19.206,5.808,5.808,0,0,0-2.781,4.729C478.323,167.274,482.027,170.085,482.185,170.2Z" transform="translate(-478.571 -155.838)"/></g><g transform="translate(173.752 781.81)"><path class="a" d="M484.515,166.258l.762-1.6-.381.8.4-.791c-.07-.041-1.711-1.061-1.751-5.094l-1.694.019C481.9,164.806,484.408,166.2,484.515,166.258Z" transform="translate(-481.848 -159.573)"/></g><g transform="translate(168.226 775.126)"><path class="a" d="M480.042,173.592a7.455,7.455,0,0,0,2.072-5.992,18.239,18.239,0,0,1-.021-7.833,7.766,7.766,0,0,1,2.05-3.5,4.231,4.231,0,0,1,3.408-1.546c1.488.306,1.408,2.729,1.408,2.753l1.692.085c.063-1.379-.434-4.115-2.778-4.6-1.514-.312-3.3.416-4.893,2a9.553,9.553,0,0,0-2.516,4.313,19.778,19.778,0,0,0-.006,8.7,5.623,5.623,0,0,1-1.611,4.346Z" transform="translate(-478.848 -152.889)"/></g><g transform="translate(178.367 780.635)"><path class="a" d="M477.859,161.527a5.159,5.159,0,0,0,2.44-.721l-.845-1.553a2.812,2.812,0,0,1-2.156.377,1.669,1.669,0,0,1-.82-1.232l-1.636.464a3.319,3.319,0,0,0,1.811,2.424A2.971,2.971,0,0,0,477.859,161.527Z" transform="translate(-474.842 -158.398)"/></g><g transform="translate(166.761 792.586)"><path class="a" d="M487.858,178.34a16.164,16.164,0,0,0,4.69-7.593l-1.652-.4a14.673,14.673,0,0,1-4.172,6.659Z" transform="translate(-486.725 -170.35)"/></g><g transform="translate(177.084 772.046)"><path class="a" d="M481.111,158.28l.315-1.76a.468.468,0,0,1,.211.085s-.414-.38-.7-2.217a5.49,5.49,0,0,0-2.125-3.762,3.879,3.879,0,0,0-2.939-.761l.347,1.753a2.357,2.357,0,0,1,1.636.487,3.8,3.8,0,0,1,1.409,2.579C479.72,157.583,480.618,158.182,481.111,158.28Z" transform="translate(-475.869 -149.81)"/></g><g transform="translate(183.971 778.919)"><path class="a" d="M471.883,160.236a6.109,6.109,0,0,0,2.61-2.871l-1.566-.682a4.391,4.391,0,0,1-1.829,1.966Z" transform="translate(-471.097 -156.683)"/></g><g transform="translate(177.034 786.31)"><path class="a" d="M476.072,167.584h.046a9.916,9.916,0,0,0,4.979-1.674l.466-.285-.847-1.551-.466.285a8.466,8.466,0,0,1-4.144,1.434,2.8,2.8,0,0,1-1.605-.392l-.907,1.513A4.377,4.377,0,0,0,476.072,167.584Z" transform="translate(-473.595 -164.074)"/></g><g transform="translate(172.55 792.974)"><path class="a" d="M483.926,173.937a10.416,10.416,0,0,0,2.419-.285l-.409-1.739c-.04.011-3.967,1-5.528-1.176l-1.35,1.081A5.75,5.75,0,0,0,483.926,173.937Z" transform="translate(-479.058 -170.737)"/></g><g transform="translate(168.558 795.716)"><path class="a" d="M484.256,178.967a9.643,9.643,0,0,0,2.818-3.115,7.38,7.38,0,0,0,3.266,1.313l.226-1.775c-.885-.127-2.445-.625-2.859-1.415l-.257-.491-.588,0a1.022,1.022,0,0,0-.871.685,7.6,7.6,0,0,1-2.68,3.316Z" transform="translate(-483.311 -173.479)"/></g><g transform="translate(176.173 790.322)"><path class="a" d="M477.524,170.909a14.826,14.826,0,0,0,5.028-1.162l-.632-1.662c-1,.424-3.931,1.4-5.485.887l-.51,1.708A5.1,5.1,0,0,0,477.524,170.909Z" transform="translate(-475.924 -168.085)"/></g><g transform="translate(181.211 783.854)"><path class="a" d="M474.207,164.446a8.714,8.714,0,0,0,3.2-1.3l-.889-1.524a7.188,7.188,0,0,1-2.479,1.045Z" transform="translate(-474.043 -161.618)"/></g><g transform="translate(165.079 795.612)"><path class="a" d="M491.43,176.686a6.616,6.616,0,0,0,3.035-2.137l-1.282-1.173a4.992,4.992,0,0,1-2.1,1.556Z" transform="translate(-491.088 -173.376)"/></g><g transform="translate(183.181 775.88)"><path class="a" d="M471.526,157.985a5.237,5.237,0,0,0,3.756-4.048l-1.67-.294a3.484,3.484,0,0,1-2.526,2.612Z" transform="translate(-471.086 -153.643)"/></g><g transform="translate(178.754 768.391)"><path class="a" d="M479.843,154.4c.067-2.753-1.13-8.019-6.155-8.248l-.073,1.789c4.634.212,4.54,6.159,4.534,6.412Z" transform="translate(-473.615 -146.154)"/></g><g transform="translate(164.132 772.322)"><path class="a" d="M483.584,175.011c3.468-1.143,4.542-4.411,4.391-7.088-.018-.323-.043-.654-.07-.994a17.888,17.888,0,0,1,1.157-8.778,12.576,12.576,0,0,1,5.918-6.419l-.665-1.647a14.122,14.122,0,0,0-6.826,7.4,19.735,19.735,0,0,0-1.272,9.585c.026.328.05.645.067.956.055.97-.014,4.22-3.2,5.27Z" transform="translate(-483.079 -150.085)"/></g><g transform="translate(164.856 778.109)"><path class="a" d="M491.042,171.519l1.694-.035-.092-4.991a29.012,29.012,0,0,1,2.037-9.9l-1.55-.721a30.4,30.4,0,0,0-2.18,10.655Z" transform="translate(-490.947 -155.873)"/></g><g transform="translate(169.382 769.645)"><path class="a" d="M484.387,153.675a16.458,16.458,0,0,1,5.342-4.63l-.688-1.637a17.832,17.832,0,0,0-5.974,5.146Z" transform="translate(-483.067 -147.408)"/></g><g transform="translate(184.443 771.151)"><path class="a" d="M472.41,152.688l1.625-.51a12.1,12.1,0,0,0-1.379-3.264l-1.3,1.143A10.809,10.809,0,0,1,472.41,152.688Z" transform="translate(-471.352 -148.914)"/></g><g transform="translate(162.896 787.852)"><path class="a" d="M495.172,172.4l1.69-.111a52.451,52.451,0,0,1-.066-6.52l-1.688-.158A52.844,52.844,0,0,0,495.172,172.4Z" transform="translate(-495.036 -165.616)"/></g><g transform="translate(184.335 782.271)"><path class="a" d="M472.6,162.659a4.833,4.833,0,0,0,1.562-1.763l-1.486-.861a3.194,3.194,0,0,1-.953,1.092Z" transform="translate(-471.724 -160.035)"/></g><g transform="translate(171.185 798.942)"><rect class="a" width="1.694" height="1.307" transform="translate(0)"/></g><g transform="translate(176.363 768.626)"><path class="a" d="M0,1.235l1.782.028L1.763.055-.02.028Z" transform="matrix(-0.3, -0.954, 0.954, -0.3, 0.476, 2.079)"/></g><g transform="translate(171.221 790.145)"><path class="a" d="M0,1.247l1.7.027L1.684.053-.018.027Z" transform="translate(1.598 1.708) rotate(-163.334)"/></g><g transform="translate(183.507 769.578)"><path class="a" d="M0,1.765l.984.027L.936.054-.048.027Z" transform="translate(0.589 1.933) rotate(-132.227)"/></g><g transform="translate(167.715 775.629)"><path class="a" d="M0,1.716l1.726.045L1.683.091-.043.045Z" transform="matrix(-0.822, -0.57, 0.57, -0.822, 1.332, 2.431)"/></g><g transform="translate(163.381 784.052)"><path class="a" d="M0,1.673l1.7.021L1.679.043-.02.021Z" transform="translate(1.625 2.035) rotate(-166.913)"/></g><g transform="translate(172.994 779.004)"><path class="b" d="M480.839,170.563l.632-.954c-.132-.1-3.233-2.488-3.006-7.966a4.283,4.283,0,0,1,2.024-3.462c.411-.224.739-.3.9-.213.291.163.388.986.453,1.531a6.615,6.615,0,0,0,.129.817c.48,1.864,1.173,4.6,3.839,4.532l-.016-1.164c-1.7.055-2.212-1.546-2.743-3.605a5.25,5.25,0,0,1-.116-.723c-.1-.879-.233-1.972-1.031-2.417a1.934,1.934,0,0,0-1.915.207,5.473,5.473,0,0,0-2.62,4.457C477.111,167.735,480.687,170.45,480.839,170.563Z" transform="translate(-477.352 -156.767)"/></g><g transform="translate(175.207 782.43)"><path class="b" d="M483.279,166.6l.495-1.04-.248.52.254-.516c-.077-.043-1.863-1.11-1.9-5.365l-1.1.012C480.823,165.231,483.178,166.542,483.279,166.6Z" transform="translate(-480.774 -160.194)"/></g><g transform="translate(169.595 776.057)"><path class="b" d="M478.712,173.987a7.112,7.112,0,0,0,1.988-5.717,18.54,18.54,0,0,1-.013-7.972,8.077,8.077,0,0,1,2.13-3.645c1.239-1.234,2.6-1.843,3.668-1.625,1.742.358,1.652,2.963,1.648,3.074l1.1.056c.06-1.285-.394-3.832-2.538-4.273-1.424-.289-3.115.407-4.634,1.922a9.242,9.242,0,0,0-2.434,4.171,19.424,19.424,0,0,0,0,8.536,5.921,5.921,0,0,1-1.687,4.647Z" transform="translate(-477.937 -153.821)"/></g><g transform="translate(179.811 781.333)"><path class="b" d="M476.493,161.829a4.976,4.976,0,0,0,2.3-.677l-.55-1.009a3.091,3.091,0,0,1-2.417.394,1.944,1.944,0,0,1-.992-1.44l-1.064.3a3.044,3.044,0,0,0,1.638,2.216A2.676,2.676,0,0,0,476.493,161.829Z" transform="translate(-473.774 -159.097)"/></g><g transform="translate(168.118 793.276)"><path class="b" d="M486.542,178.725a15.817,15.817,0,0,0,4.6-7.43l-1.074-.256a14.964,14.964,0,0,1-4.261,6.82Z" transform="translate(-485.806 -171.039)"/></g><g transform="translate(178.304 772.976)"><path class="b" d="M480.063,158.589l.205-1.143a.293.293,0,0,1,.094.031s-.5-.339-.825-2.419a5.177,5.177,0,0,0-2-3.556,3.583,3.583,0,0,0-2.711-.713l.226,1.14a2.606,2.606,0,0,1,1.863.534,4.1,4.1,0,0,1,1.534,2.786C478.9,158.062,479.727,158.522,480.063,158.589Z" transform="translate(-474.827 -150.739)"/></g><g transform="translate(185.266 779.659)"><path class="b" d="M470.673,160.575a5.785,5.785,0,0,0,2.474-2.71l-1.019-.443a4.7,4.7,0,0,1-1.966,2.122Z" transform="translate(-470.162 -157.422)"/></g><g transform="translate(178.351 787.199)"><path class="b" d="M474.846,167.889h.044a9.653,9.653,0,0,0,4.834-1.632l.465-.285-.551-1.008-.466.285a8.751,8.751,0,0,1-4.29,1.476,3.333,3.333,0,0,1-1.767-.441l-.589.984A4.107,4.107,0,0,0,474.846,167.889Z" transform="translate(-472.527 -164.963)"/></g><g transform="translate(173.944 793.779)"><path class="b" d="M482.533,174.244a10.086,10.086,0,0,0,2.355-.279l-.265-1.13c-.043.01-4.155,1.054-5.836-1.292l-.877.7A5.463,5.463,0,0,0,482.533,174.244Z" transform="translate(-477.91 -171.543)"/></g><g transform="translate(169.881 796.646)"><path class="b" d="M482.742,179.324a9.276,9.276,0,0,0,2.9-3.336,6.67,6.67,0,0,0,3.388,1.484l.147-1.154c-.678-.1-2.553-.568-3.079-1.573l-.167-.32-.4-.015a.727.727,0,0,0-.614.492,7.909,7.909,0,0,1-2.788,3.456Z" transform="translate(-482.128 -174.41)"/></g><g transform="translate(177.421 791.23)"><path class="b" d="M476.311,171.211a14.909,14.909,0,0,0,4.933-1.137l-.411-1.08c-.037.016-3.706,1.553-5.686.894l-.33,1.11A4.756,4.756,0,0,0,476.311,171.211Z" transform="translate(-474.817 -168.994)"/></g><g transform="translate(182.398 784.739)"><path class="b" d="M473.089,164.752a8.645,8.645,0,0,0,3.078-1.259l-.58-.991a7.686,7.686,0,0,1-2.6,1.091Z" transform="translate(-472.983 -162.502)"/></g><g transform="translate(166.296 796.437)"><path class="b" d="M490.325,177a6.443,6.443,0,0,0,2.87-2.035l-.832-.762a5.292,5.292,0,0,1-2.261,1.656Z" transform="translate(-490.102 -174.2)"/></g><g transform="translate(184.416 776.552)"><path class="b" d="M470.457,158.3A4.915,4.915,0,0,0,474,154.5l-1.087-.186.543.093-.542-.1a3.781,3.781,0,0,1-2.74,2.861Z" transform="translate(-470.171 -154.315)"/></g><g transform="translate(179.925 769.32)"><path class="b" d="M478.623,155.011c.066-2.646-1.076-7.708-5.869-7.927l-.048,1.163c4.923.225,4.824,6.468,4.818,6.734Z" transform="translate(-472.705 -147.084)"/></g><g transform="translate(165.379 773.227)"><path class="b" d="M482.306,175.328c3.3-1.089,4.328-4.211,4.183-6.769-.018-.321-.043-.648-.068-.986a18.187,18.187,0,0,1,1.176-8.921,12.825,12.825,0,0,1,6.077-6.589l-.431-1.072a13.807,13.807,0,0,0-6.668,7.231,19.477,19.477,0,0,0-1.251,9.445c.025.33.05.649.068.961.058,1.028-.017,4.47-3.413,5.589Z" transform="translate(-481.978 -150.991)"/></g><g transform="translate(166.311 778.854)"><path class="b" d="M490.1,172.13l1.1-.023-.092-4.991a29.3,29.3,0,0,1,2.062-10.03l-1.007-.469a30.029,30.029,0,0,0-2.156,10.522Z" transform="translate(-490.009 -156.617)"/></g><g transform="translate(170.77 770.548)"><path class="b" d="M482.829,154.1a16.731,16.731,0,0,1,5.452-4.72l-.446-1.064a17.492,17.492,0,0,0-5.866,5.055Z" transform="translate(-481.97 -148.312)"/></g><g transform="translate(185.828 771.969)"><path class="b" d="M471.543,153.217l1.056-.332a12.1,12.1,0,0,0-1.322-3.153l-.848.742A11,11,0,0,1,471.543,153.217Z" transform="translate(-470.429 -149.732)"/></g><g transform="translate(164.35 788.498)"><path class="b" d="M494.261,173l1.1-.072a52.594,52.594,0,0,1-.065-6.567l-1.1-.1A52.267,52.267,0,0,0,494.261,173Z" transform="translate(-494.125 -166.262)"/></g><g transform="translate(185.649 783.039)"><path class="b" d="M471.343,163.008a4.6,4.6,0,0,0,1.454-1.645l-.967-.56a3.474,3.474,0,0,1-1.057,1.208Z" transform="translate(-470.774 -160.803)"/></g><g transform="translate(172.639 799.559)"><rect class="b" width="1.102" height="1.307" transform="translate(0)"/></g><g transform="translate(177.61 769.543)"><path class="b" d="M0,1.225l1.158.018L1.139.036-.02.018Z" transform="translate(0.307 1.477) rotate(-107.419)"/></g><g transform="translate(172.663 790.852)"><path class="b" d="M0,1.238l1.107.017L1.089.035-.018.017Z" transform="translate(1.033 1.52) rotate(-163.337)"/></g><g transform="translate(184.885 770.406)"><path class="b" d="M0,1.157l.985.027L.954.054-.031.027Z" transform="translate(0.601 1.525) rotate(-132.233)"/></g><g transform="translate(169.117 776.425)"><path class="b" d="M0,1.7l1.121.029L1.078.059-.043.029Z" transform="translate(0.853 2.061) rotate(-145.273)"/></g><g transform="translate(164.828 784.741)"><path class="b" d="M0,1.666l1.1.014L1.084.028-.02.014Z" transform="translate(1.05 1.886) rotate(-166.913)"/></g><g transform="translate(360.669 839.893)"><g transform="translate(0)"><g transform="translate(0)"><g transform="translate(0)"><g transform="translate(15.145 25.758)"><path class="b" d="M312.783,244.825l-4.637-3.166a.09.09,0,0,1-.019-.128l5.888-7.555a.081.081,0,0,1,.144.037l.938,4.6,0,.011.224,3.155a.088.088,0,0,1-.02.063l-2.415,2.97A.077.077,0,0,1,312.783,244.825Z" transform="translate(-307.599 -233.415)"/><path class="b" d="M312.807,245.369a.57.57,0,0,0,.446-.218l2.545-3.131.007-.28-.225-3.158-1.017-5.008-.368-.143a.568.568,0,0,0-.586.207l-6.03,7.739.014.3a.625.625,0,0,0,.262.427l4.635,3.166A.562.562,0,0,0,312.807,245.369Zm1.985-3.737-2.064,2.537-3.932-2.686,5.037-6.462.755,3.7Z" transform="translate(-307.579 -233.415)"/></g><g transform="translate(0)"><path class="a" d="M302.067,222,324.2,208.491a1.543,1.543,0,0,1,1.444-.215h0l4.328,2.741a.131.131,0,0,1,.027.2l-5.171,5.78a.134.134,0,0,0-.033.087v9.55a5.383,5.383,0,0,1-2.266,4.15l-3.3,2.014-.232.345a12.993,12.993,0,0,1-5.13,8.151c-.159.114-.265-.052-.16-.262.533-1.07,1.536-3.4,1.229-5.226l-.364-.166-6.827,4.167a.125.125,0,0,0-.052.065l-2.849,8.04a.118.118,0,0,1-.171.066l-4.282-2.725h0a1.716,1.716,0,0,1-.587-1.464V226.148A5.382,5.382,0,0,1,302.067,222Z" transform="translate(-299.299 -207.656)"/><path class="b" d="M304.588,248.559l.325-.078a.64.64,0,0,0,.37-.388l2.8-7.9,6.37-3.887a10.348,10.348,0,0,1-1.222,4.48.775.775,0,0,0,.109.917.6.6,0,0,0,.778.028,13.454,13.454,0,0,0,5.32-8.378l.1-.154,3.2-1.956a5.873,5.873,0,0,0,2.518-4.609v-9.389l5.066-5.664a.677.677,0,0,0,.163-.548.654.654,0,0,0-.306-.473l-4.318-2.735a2.017,2.017,0,0,0-1.953.211l-22.129,13.507a5.874,5.874,0,0,0-2.517,4.609v17.637a2.245,2.245,0,0,0,.808,1.9Zm9.92-13.515-7.2,4.392-.116.241-2.69,7.59-3.885-2.473a1.239,1.239,0,0,1-.344-1.009V226.148a4.848,4.848,0,0,1,2.016-3.691l22.128-13.507a1.109,1.109,0,0,1,1-.186l3.86,2.45-4.981,5.568-.032.3v9.55a4.85,4.85,0,0,1-2.016,3.691l-3.457,2.165-.317.563a12.616,12.616,0,0,1-3.734,6.829,8.407,8.407,0,0,0,.661-4.168l-.046-.282Z" transform="translate(-299.271 -207.656)"/></g><g transform="translate(4.403 2.782)"><path class="c" d="M301.185,224.832l22.188-13.543c1.219-.744,2.207-.141,2.207,1.347v17.71a5.22,5.22,0,0,1-2.207,4.041l-3.414,2.084a.421.421,0,0,0-.171.277,12.983,12.983,0,0,1-5.135,8.185c-.159.115-.265-.051-.16-.262.551-1.107,1.606-3.56,1.192-5.416-.02-.088-.1-.115-.183-.063l-14.317,8.738c-1.219.744-2.207.141-2.207-1.347v-17.71A5.22,5.22,0,0,1,301.185,224.832Z" transform="translate(-298.476 -210.438)"/><path class="b" d="M300.169,248.782a2.4,2.4,0,0,0,1.238-.393l13.836-8.444a10.306,10.306,0,0,1-1.224,4.478.777.777,0,0,0,.111.92.6.6,0,0,0,.778.027,13.626,13.626,0,0,0,5.338-8.479l3.349-2.044a5.734,5.734,0,0,0,2.458-4.5V212.637a2.18,2.18,0,0,0-.9-1.97,1.932,1.932,0,0,0-2.063.163l-22.187,13.543a5.735,5.735,0,0,0-2.458,4.5v17.71a2.182,2.182,0,0,0,.9,1.97A1.571,1.571,0,0,0,300.169,248.782Zm15.386-10.146a.639.639,0,0,0-.334.1l-14.316,8.738a1.058,1.058,0,0,1-1.059.163,1.2,1.2,0,0,1-.4-1.051v-17.71a4.707,4.707,0,0,1,1.957-3.582L323.6,211.748a1.059,1.059,0,0,1,1.059-.162,1.2,1.2,0,0,1,.4,1.051v17.709a4.709,4.709,0,0,1-1.957,3.583l-3.413,2.083a.936.936,0,0,0-.415.648,12.546,12.546,0,0,1-3.739,6.862,8.083,8.083,0,0,0,.62-4.389l-.059-.259-.29-.187A.574.574,0,0,0,315.556,238.636Z" transform="translate(-298.447 -210.438)"/></g><g transform="translate(1.982 14.501)"><path class="b" d="M328.972,225.548l.944-.563-4.289-2.828-.521.908Z" transform="translate(-325.106 -222.157)"/></g><g transform="translate(22.676 1.951)"><path class="b" d="M0,1.161l4.593.115L4.568.23-.025.115Z" transform="translate(3.785 3.475) rotate(-148.73)"/></g><g transform="translate(0.375 18.949)"><path class="b" d="M0,1.176l5.125.13L5.1.261-.026.13Z" transform="translate(4.169 3.844) rotate(-147.676)"/></g></g></g><g transform="translate(0.501 21.846)"><path class="b" d="M327.1,229.5l4.4,2.82v15.355l-4.262-2.469-.142-1.1Z" transform="translate(-327.101 -229.502)"/></g></g></g><path class="a" d="M305.727,223.674l.166,1.733-1.524.41-.134,1.34,1.39-.728-.911,2.036.926.04.638-1.951.56,1.209.963-1.183-.9-.929,1.38-.974-.16-1.149-1.492,1.43.169-1.938Z" transform="translate(78.924 632.237)"/><path class="a" d="M312.391,227.521l.167,1.733-1.524.411L310.9,231l1.39-.727-.911,2.035.926.04.638-1.951.56,1.209.964-1.183-.9-.929,1.38-.973-.16-1.149-1.491,1.43.168-1.938Z" transform="translate(65.956 632.237)"/><path class="a" d="M319.056,231.37l.166,1.733-1.523.41-.135,1.34,1.39-.728-.911,2.036.926.039.638-1.95.56,1.208.964-1.182-.9-.929,1.381-.974-.161-1.149-1.491,1.43.168-1.938Z" transform="translate(52.986 632.237)"/><g transform="translate(274.875 895.569)"><g transform="translate(0)"><g transform="translate(0)"><g transform="translate(0)"><g transform="translate(15.145 25.759)"><path class="b" d="M413,276.5l-4.636-3.167a.089.089,0,0,1-.019-.128l5.888-7.555a.081.081,0,0,1,.144.037l.938,4.6,0,.012.224,3.154a.088.088,0,0,1-.02.063l-2.415,2.97A.08.08,0,0,1,413,276.5Z" transform="translate(-407.813 -265.091)"/><path class="b" d="M413.021,277.046a.572.572,0,0,0,.447-.219l2.545-3.131.006-.279-.224-3.159-1.017-5.007-.368-.144a.567.567,0,0,0-.586.208l-6.03,7.738.014.3a.623.623,0,0,0,.262.427l4.635,3.166A.555.555,0,0,0,413.021,277.046Zm1.985-3.737-2.063,2.537-3.932-2.686,5.037-6.463.755,3.7Z" transform="translate(-407.794 -265.091)"/></g><g transform="translate(0)"><path class="a" d="M402.282,253.674l22.129-13.507a1.546,1.546,0,0,1,1.444-.215h0l4.328,2.741a.13.13,0,0,1,.027.2l-5.17,5.781a.129.129,0,0,0-.033.086v9.55a5.382,5.382,0,0,1-2.266,4.15l-3.3,2.014-.232.345a12.99,12.99,0,0,1-5.13,8.151c-.159.115-.265-.051-.16-.262.533-1.069,1.535-3.4,1.229-5.226l-.364-.166-6.827,4.167a.133.133,0,0,0-.052.065l-2.849,8.041a.118.118,0,0,1-.171.065l-4.282-2.725h0a1.716,1.716,0,0,1-.587-1.464V257.825A5.384,5.384,0,0,1,402.282,253.674Z" transform="translate(-399.514 -239.332)"/><path class="b" d="M404.8,280.236l.325-.078a.642.642,0,0,0,.37-.389l2.8-7.9,6.37-3.887a10.357,10.357,0,0,1-1.222,4.48.773.773,0,0,0,.109.917.6.6,0,0,0,.778.028,13.453,13.453,0,0,0,5.32-8.377l.1-.155,3.2-1.955a5.873,5.873,0,0,0,2.518-4.61v-9.389l5.066-5.663a.678.678,0,0,0,.163-.548.658.658,0,0,0-.306-.474l-4.318-2.735a2.015,2.015,0,0,0-1.953.212L402,253.215a5.874,5.874,0,0,0-2.517,4.609v17.637a2.243,2.243,0,0,0,.808,1.9Zm9.92-13.516-7.2,4.393-.116.24-2.69,7.59-3.885-2.472a1.243,1.243,0,0,1-.344-1.01V257.824a4.849,4.849,0,0,1,2.016-3.691l22.128-13.506a1.107,1.107,0,0,1,1-.187l3.86,2.45-4.981,5.568-.033.3v9.549A4.849,4.849,0,0,1,422.46,262L419,264.162l-.317.563a12.616,12.616,0,0,1-3.734,6.829,8.417,8.417,0,0,0,.661-4.168l-.047-.282Z" transform="translate(-399.485 -239.332)"/></g><g transform="translate(4.403 2.783)"><path class="c" d="M401.4,256.508l22.188-13.542c1.219-.745,2.207-.141,2.207,1.347v17.709a5.222,5.222,0,0,1-2.207,4.042l-3.414,2.083a.421.421,0,0,0-.171.277,12.987,12.987,0,0,1-5.135,8.186c-.159.114-.265-.052-.16-.262.551-1.107,1.606-3.561,1.192-5.417-.02-.088-.1-.115-.183-.063L401.4,279.606c-1.219.745-2.207.141-2.207-1.347V260.55A5.222,5.222,0,0,1,401.4,256.508Z" transform="translate(-398.69 -242.115)"/><path class="b" d="M400.384,280.458a2.4,2.4,0,0,0,1.238-.392l13.836-8.444a10.315,10.315,0,0,1-1.224,4.478.776.776,0,0,0,.111.919.6.6,0,0,0,.778.028,13.631,13.631,0,0,0,5.338-8.479l3.349-2.045a5.735,5.735,0,0,0,2.458-4.5V244.313a2.18,2.18,0,0,0-.9-1.97,1.932,1.932,0,0,0-2.063.164l-22.187,13.542a5.737,5.737,0,0,0-2.458,4.5v17.709a2.182,2.182,0,0,0,.9,1.97A1.562,1.562,0,0,0,400.384,280.458Zm15.386-10.146a.636.636,0,0,0-.334.1l-14.316,8.738a1.055,1.055,0,0,1-1.059.163,1.2,1.2,0,0,1-.4-1.051V260.55a4.707,4.707,0,0,1,1.957-3.583l22.187-13.542a1.06,1.06,0,0,1,1.059-.163,1.2,1.2,0,0,1,.4,1.051v17.709a4.707,4.707,0,0,1-1.957,3.583l-3.413,2.083a.94.94,0,0,0-.416.649,12.531,12.531,0,0,1-3.739,6.861,8.065,8.065,0,0,0,.62-4.389l-.058-.259-.29-.186A.56.56,0,0,0,415.77,270.312Z" transform="translate(-398.661 -242.115)"/></g><g transform="translate(1.982 14.501)"><path class="b" d="M429.186,257.224l.945-.563-4.289-2.828-.521.908Z" transform="translate(-425.32 -253.833)"/></g><g transform="translate(22.676 1.951)"><path class="b" d="M0,1.161l4.593.115L4.568.23-.025.115Z" transform="translate(3.785 3.475) rotate(-148.73)"/></g><g transform="translate(0.375 18.949)"><path class="b" d="M0,1.176l5.125.13L5.1.261-.026.13Z" transform="translate(4.169 3.844) rotate(-147.676)"/></g></g></g><g transform="translate(0.501 21.846)"><path class="b" d="M427.315,261.178l4.4,2.82v15.355l-4.262-2.469-.142-1.1Z" transform="translate(-427.315 -261.178)"/></g></g></g><path class="a" d="M415.434,267.894a3.223,3.223,0,0,0,1.66-.53,8.054,8.054,0,0,0,3.452-6.32,2.885,2.885,0,0,0-1.161-2.605,2.553,2.553,0,0,0-2.714.241,8.052,8.052,0,0,0-3.453,6.32,2.885,2.885,0,0,0,1.161,2.605A2,2,0,0,0,415.434,267.894Zm2.894-8.848a1.2,1.2,0,0,1,.634.169,2.035,2.035,0,0,1,.737,1.829,7.179,7.179,0,0,1-3.027,5.546,1.8,1.8,0,0,1-1.868.239,2.038,2.038,0,0,1-.737-1.829,7.178,7.178,0,0,1,3.028-5.546A2.44,2.44,0,0,1,418.328,259.046Z" transform="translate(-127.432 656.237)"/><path class="a" d="M405.965,261.432l6.627-4.044V258.8h.847v-2.96l-7.9,4.82Z" transform="translate(-113.063 656.237)"/><rect class="a" width="0.847" height="2.185" transform="translate(297.939 913.819)"/><rect class="a" width="0.847" height="2.185" transform="translate(296.411 914.752)"/></g></svg>