<svg xmlns="http://www.w3.org/2000/svg" width="322.53" height="254.652" viewBox="0 0 322.53 254.652"><defs><style>.a{fill:#2268dd;}.b{fill:#150035;}.c{fill:#fff;}.d{fill:#39a1ff;}</style></defs><g transform="translate(-204 -245)"><g transform="translate(306.299 473.436)"><g transform="translate(0.463 0.487)"><path class="a" d="M465.527,272.381l-17.047-1.428-.006,0-2.494,1.72,0,0a25.233,25.233,0,0,0-10.157,2.874,15.154,15.154,0,0,0-2.612,1.845l-.008,0-3.061-.558a.008.008,0,0,0-.011.009l-.01,6.565.009,0c0,2.782,1.8,5.564,5.409,7.692,7.234,4.266,18.972,4.284,26.217.04a15.018,15.018,0,0,0,2.2-1.566l0-.007.009-6.556a.009.009,0,0,0-.007-.01l-8.1-1.478a.009.009,0,0,1,0-.018l9.661-2.563a.01.01,0,0,0,.007-.009l.01-6.553A.009.009,0,0,0,465.527,272.381Z" transform="translate(-430.117 -270.953)"/></g><g transform="translate(0.319 2.684)"><path class="b" d="M454.141,276.743a.009.009,0,0,1,.01-.009l3.062.558.007,0a15.128,15.128,0,0,1,2.613-1.845,22.594,22.594,0,0,1,6.27-2.3v20.345A22.694,22.694,0,0,1,459.548,291c-3.607-2.128-5.4-4.91-5.41-7.691l-.008,0Z" transform="translate(-454.131 -273.15)"/></g><path class="b" d="M429.637,283.413l.008.289.007,0c.125,2.971,2.115,5.736,5.634,7.812,7.35,4.334,19.318,4.352,26.68.041a15.531,15.531,0,0,0,2.313-1.655l.126-.143.011-7.143-6.46-1.178,7.7-2.045.312-.121.01-6.864.009-.427-17.473-1.5-.177-.019-2.537,1.751a25.482,25.482,0,0,0-10.225,2.921,15.748,15.748,0,0,0-2.523,1.758l-2.828-.515-.218-.049-.361.281Zm35.417-10.6-.009,5.771-9.33,2.475-.358.109.033.76,8.1,1.469-.006,5.958a14.975,14.975,0,0,1-1.978,1.385c-7.106,4.161-18.659,4.144-25.754-.04-3.334-1.967-5.173-4.554-5.178-7.285V277.4l2.491.454.245.061.186-.163a14.752,14.752,0,0,1,2.532-1.788,24.751,24.751,0,0,1,10.028-2.825l2.53-1.7Z" transform="translate(-429.637 -270.466)"/></g><g transform="translate(306.307 468.484)"><g transform="translate(0.464 0.481)"><path class="c" d="M448.689,276.85l16.829-4.465a.009.009,0,0,0,0-.015,14.155,14.155,0,0,0-5.362-4.045c-7.192-3.338-17.733-3.063-24.336.658-7.5,4.229-7.6,11.241-.284,15.558,7.234,4.267,18.972,4.285,26.217.041a15.168,15.168,0,0,0,2.2-1.559.01.01,0,0,0,0-.016l-15.264-6.139A.01.01,0,0,1,448.689,276.85Z" transform="translate(-430.124 -265.995)"/></g><path class="b" d="M429.611,276.772c-.029,3.107,1.976,6.011,5.649,8.177,7.35,4.334,19.317,4.354,26.68.042a15.713,15.713,0,0,0,2.267-1.611l.207-.188-.108-.529L450.1,276.95l15.525-4.121.236-.092.118-.474-.141-.184A14.607,14.607,0,0,0,460.3,267.9c-7.363-3.418-18-3.129-24.752.673a13.076,13.076,0,0,0-4.673,4.147A7.552,7.552,0,0,0,429.611,276.772Zm18.912-.378-.332.091-.035.7L463,283.151a15.032,15.032,0,0,1-1.523,1.023c-7.107,4.162-18.66,4.144-25.754-.041-3.371-1.988-5.214-4.6-5.188-7.351.027-2.794,1.967-5.417,5.463-7.386,6.515-3.671,16.8-3.947,23.92-.642a14.332,14.332,0,0,1,4.736,3.36Z" transform="translate(-429.611 -265.514)"/></g><g transform="translate(324.81 479.26)"><g transform="translate(0.555 0.574)"><path class="c" d="M446.988,282.993l-15.236-6.129a.008.008,0,0,0-.01.011l5.245,10.438h0a23.478,23.478,0,0,0,7.843-2.731A15.107,15.107,0,0,0,447,283.047.032.032,0,0,0,446.988,282.993Z" transform="translate(-431.741 -276.864)"/></g><g transform="translate(0)"><path class="b" d="M436.777,287.836l.335-.058a24.054,24.054,0,0,0,8-2.787,15.707,15.707,0,0,0,2.238-1.586l.207-.2-.1-.547L432,276.438l-.321-.148-.44.513Zm7.87-3.662a22.932,22.932,0,0,1-7.357,2.615l-4.54-9.034,13.42,5.4A15.1,15.1,0,0,1,444.648,284.174Z" transform="translate(-431.234 -276.29)"/></g></g><g transform="translate(324.862 479.313)"><g transform="translate(0)"><g transform="translate(0.464 0.553)"><path class="a" d="M441.983,276.9c0-.007-.022-.005-.022,0l-.016,10.85h0a30.691,30.691,0,0,0,5.266-.447Z" transform="translate(-441.946 -276.896)"/></g><path class="b" d="M441.234,288.224h.463a31.129,31.129,0,0,0,5.344-.453l.623-.108-5.516-10.977-.168-.343-.728.191Zm.927-.946.012-8.471,4.087,8.136A30.289,30.289,0,0,1,442.161,287.278Z" transform="translate(-441.234 -276.343)"/></g></g><g transform="translate(320.963 479.377)"><g transform="translate(0.632 0.527)"><path class="a" d="M451,287.772l.016-10.831c0-.008-.02-.009-.022,0l-3.741,10.6a31.317,31.317,0,0,0,3.746.235Z" transform="translate(-447.256 -276.934)"/></g><path class="b" d="M446.785,287.935l.577.071a31.6,31.6,0,0,0,3.8.237h.463l.017-11.3,0-.406-.785-.132Zm1.266-.8,2.66-7.54-.011,7.7C449.825,287.282,448.938,287.228,448.051,287.135Z" transform="translate(-446.785 -276.407)"/></g><g transform="translate(330.131 490.275)"><g transform="translate(0)"><g transform="translate(0)"><rect class="b" width="0.926" height="6.576" transform="translate(0.926 6.577) rotate(-179.897)"/></g></g></g><g transform="translate(311.638 487.972)"><g transform="translate(0)"><rect class="a" width="0.926" height="5.667" transform="translate(0.926 5.668) rotate(-179.903)"/></g></g><g transform="translate(309.174 486.292)"><g transform="translate(0)"><rect class="a" width="0.926" height="5.667" transform="translate(0.926 5.668) rotate(-179.903)"/></g></g><g transform="translate(337.775 476.565)"><g transform="translate(0)"><rect class="b" width="0.926" height="6.576" transform="translate(0.926 6.577) rotate(-179.903)"/></g></g><g transform="translate(334.691 490.041)"><g transform="translate(0)"><path class="b" d="M428.157,294.8a17.247,17.247,0,0,0,7.366-3.544,2.859,2.859,0,0,0,1.031-1.992l.171-2.188.923.075-.171,2.188a3.8,3.8,0,0,1-1.378,2.655,18.183,18.183,0,0,1-7.773,3.732Z" transform="translate(-428.157 -287.071)"/></g></g><g transform="translate(329.107 498.226)"><g transform="translate(0)"><path class="b" d="M0,3.5l.941,0L.931.005-.01,0Z" transform="matrix(-0.138, -0.99, 0.99, -0.138, 0.123, 1.417)"/></g></g><g transform="translate(325.135 465.78)"><g transform="translate(0)"><path class="b" d="M439.967,262.876a19.6,19.6,0,0,1,7.4.858l-.3.893a19,19,0,0,0-7.022-.812Z" transform="translate(-439.967 -262.81)"/></g></g><g transform="translate(333.489 467.176)"><g transform="translate(0)"><path class="b" d="M-.006.023,2.877.041l.006.94L0,.963Z" transform="translate(2.662 1.971) rotate(-158.532)"/></g></g><path class="a" d="M386.334,270.237l18.8.029a.391.391,0,0,1,.387.394l-.007,5.906h-.006a2.271,2.271,0,0,1-1.284,1.667l-5.658,3.326a5.793,5.793,0,0,1-5.293.223l-6.418-3.772a1.563,1.563,0,0,1-.9-1.444h0v-5.935A.391.391,0,0,1,386.334,270.237Z" transform="translate(-19.719 202.97)"/><path class="b" d="M395.568,282.912a6.618,6.618,0,0,0,3.28-.843l5.658-3.326a3.177,3.177,0,0,0,1.455-1.586h.118l.006-.59.007-5.906a.976.976,0,0,0-.966-.985l-18.8-.029h0a.951.951,0,0,0-.682.286.987.987,0,0,0-.285.7v6.526h.069a2.343,2.343,0,0,0,1.131,1.364l6.418,3.772A5.2,5.2,0,0,0,395.568,282.912Zm9.358-6.436,0,.047a1.751,1.751,0,0,1-1,1.2l-5.658,3.326a5.256,5.256,0,0,1-4.713.222l-6.418-3.771a1.035,1.035,0,0,1-.615-.89l.045-.634h-.048v-5.147l18.414.028Z" transform="translate(-19.71 202.97)"/><path class="b" d="M397.058,270.255l8.653.013V282.3a4.241,4.241,0,0,1-1.713-.5l-6.418-3.773a1.561,1.561,0,0,1-.9-1.444h0v-5.935A.39.39,0,0,1,397.058,270.255Z" transform="translate(-30.467 202.97)"/><path class="c" d="M386.863,271.71l6.418,3.773a5.791,5.791,0,0,0,5.293-.224l5.658-3.325c1.567-.921,1.737-2.314.38-3.111l-6.418-3.773a5.791,5.791,0,0,0-5.293.224l-5.658,3.325C385.677,269.52,385.507,270.913,386.863,271.71Z" transform="translate(-19.727 202.97)"/><path class="b" d="M395.575,276.613a6.628,6.628,0,0,0,3.28-.842l5.658-3.326a2.786,2.786,0,0,0,1.586-2.271,2.174,2.174,0,0,0-1.205-1.862l-6.418-3.772a6.319,6.319,0,0,0-5.873.223l-5.659,3.325a2.787,2.787,0,0,0-1.585,2.272,2.172,2.172,0,0,0,1.206,1.861l6.418,3.773A5.2,5.2,0,0,0,395.575,276.613Zm.316-11.509a4.039,4.039,0,0,1,2,.458l6.418,3.771a1.083,1.083,0,0,1,.627.841c0,.412-.376.878-1.007,1.249l-5.658,3.326a5.253,5.253,0,0,1-4.713.222l-6.418-3.772a1.078,1.078,0,0,1-.626-.839c0-.412.376-.879,1.006-1.25l5.658-3.325A5.514,5.514,0,0,1,395.891,265.1Z" transform="translate(-19.717 202.97)"/><rect class="b" width="1.16" height="6.269" transform="translate(377.668 478.536)"/><rect class="a" width="0.892" height="3.078" transform="translate(367.948 476.946)"/><path class="c" d="M356.036,288.224l2.317-1.362-.446-.786-2.317,1.362Zm-2.764-.975.446-.786L351.4,285.1l-.446.785Zm7.4-1.749,2.318-1.363-.447-.785-2.317,1.362Zm-12.035-.976.446-.786-2.317-1.362-.446.786Zm14.909-1.749.446-.786-2.318-1.362-.446.786Zm-15.778-.2,2.317-1.362-.446-.786-2.317,1.362Zm11.142-2.522.446-.786-2.318-1.362-.446.785Zm-6.507-.2,2.317-1.362-.446-.786-2.317,1.363Z" transform="translate(60.912 202.97)"/><path class="c" d="M270.746,226.425l-.439-.792-.028.017Zm2.316-1.42,2.294-1.4-.46-.779-2.294,1.4Zm4.586-2.81,2.294-1.405-.461-.778-2.293,1.4Zm4.586-2.81,2.293-1.4-.46-.779-2.293,1.4Zm4.586-2.81,2.293-1.4-.46-.779-2.294,1.4Z" transform="translate(210.923 202.97)"/><path class="c" d="M540.837,216.642l.444-.787-2.321-1.356-.444.787Zm-4.642-2.713.445-.787-2.322-1.356-.444.787Zm-4.642-2.713.444-.787-2.32-1.356-.445.787ZM526.91,208.5l.444-.787-2.322-1.357-.444.787Zm-4.643-2.713.445-.787-2.321-1.356-.444.787Zm-4.641-2.713.444-.787-2.321-1.356-.444.787Zm-3.317-4.019h.892v-2.725h-.892Zm0-5.449h.892v-2.725h-.892Zm0-5.449h.892v-2.725h-.892Zm0-5.449h.892v-2.725h-.892Z" transform="translate(-282.275 202.97)"/><g transform="translate(461.95 314.514)"><path class="b" d="M308.667,129.6a15.173,15.173,0,0,0-7.348-10.472l-13.586-7.585-.472.88,13.588,7.586a14.412,14.412,0,0,1,6.842,9.734Z" transform="translate(-287.26 -111.544)"/></g><g transform="translate(482.6 334.959)"><rect class="b" width="3.373" height="0.984" transform="translate(0.056 3.389) rotate(-90.944)"/></g><g transform="translate(432.885 332.7)"><path class="b" d="M337.537,139.167l.655-.748c-3.138-2.851-2.868-8.576-2.865-8.634l-.985-.055C334.328,129.984,334.041,135.992,337.537,139.167Z" transform="translate(-334.331 -129.73)"/></g><g transform="translate(204.007 397.872)"><path class="a" d="M550.165,195.493l18.8.029a.391.391,0,0,1,.387.394l-.007,39.511h-.006a2.273,2.273,0,0,1-1.283,1.667l-5.659,3.325a5.791,5.791,0,0,1-5.293.224l-6.419-3.773a1.561,1.561,0,0,1-.9-1.443h0v-39.54A.391.391,0,0,1,550.165,195.493Z" transform="translate(-549.198 -194.902)"/><path class="b" d="M559.4,241.773a6.6,6.6,0,0,0,3.279-.843l5.658-3.325a3.175,3.175,0,0,0,1.455-1.588h.118l.006-.59.007-39.51a.98.98,0,0,0-.964-.986l-18.8-.029a.979.979,0,0,0-.969.985v40.13h.069a2.338,2.338,0,0,0,1.131,1.364l6.417,3.772A5.193,5.193,0,0,0,559.4,241.773Zm9.356-6.435,0,.046a1.754,1.754,0,0,1-.994,1.2l-5.659,3.325a5.24,5.24,0,0,1-4.713.223l-6.418-3.771a1.035,1.035,0,0,1-.615-.891l.045-.633h-.048V196.083l18.414.029Z" transform="translate(-549.188 -194.902)"/></g><g transform="translate(204.588 398.481)"><path class="b" d="M560.889,195.511l8.653.013v45.639a4.225,4.225,0,0,1-1.713-.5l-6.419-3.772a1.561,1.561,0,0,1-.9-1.444h0V195.9A.391.391,0,0,1,560.889,195.511Z" transform="translate(-560.502 -195.511)"/></g><g transform="translate(204 392.146)"><path class="c" d="M550.694,196.967l6.419,3.772a5.793,5.793,0,0,0,5.293-.223l5.659-3.326c1.566-.921,1.736-2.314.379-3.111l-6.418-3.772a5.787,5.787,0,0,0-5.293.223l-5.658,3.326C549.508,194.776,549.338,196.169,550.694,196.967Z" transform="translate(-549.198 -189.176)"/><path class="b" d="M559.408,201.869a6.607,6.607,0,0,0,3.278-.842l5.658-3.326a2.785,2.785,0,0,0,1.586-2.27,2.174,2.174,0,0,0-1.205-1.863l-6.418-3.772a6.325,6.325,0,0,0-5.873.223l-5.659,3.326a2.785,2.785,0,0,0-1.585,2.27,2.176,2.176,0,0,0,1.206,1.863l6.418,3.771A5.194,5.194,0,0,0,559.408,201.869Zm.315-11.509a4.036,4.036,0,0,1,2,.459l6.417,3.771a1.08,1.08,0,0,1,.627.841c0,.411-.376.878-1.006,1.248l-5.659,3.326a5.243,5.243,0,0,1-4.713.222l-6.419-3.771a1.081,1.081,0,0,1-.626-.841c0-.411.376-.878,1.006-1.249l5.658-3.325A5.526,5.526,0,0,1,559.723,190.36Z" transform="translate(-549.188 -189.176)"/></g><g transform="translate(216.022 403.792)"><rect class="b" width="1.161" height="39.874" transform="translate(0)"/></g><g transform="translate(206.342 402.203)"><rect class="a" width="0.892" height="36.682" transform="translate(0)"/></g><g transform="translate(217.158 431.951)"><path class="a" d="M536.779,229.571l18.8.029a.391.391,0,0,1,.386.394l-.007,19.529h0a2.275,2.275,0,0,1-1.284,1.668l-5.658,3.325a5.791,5.791,0,0,1-5.293.224l-6.418-3.773a1.559,1.559,0,0,1-.9-1.444h0V229.965A.39.39,0,0,1,536.779,229.571Z" transform="translate(-535.811 -228.981)"/><path class="b" d="M546.012,255.87a6.607,6.607,0,0,0,3.28-.843l5.658-3.326a3.174,3.174,0,0,0,1.455-1.587h.118l.006-.59.007-19.529a.977.977,0,0,0-.967-.985l-18.8-.029h0a.953.953,0,0,0-.682.286.987.987,0,0,0-.285.7v20.149h.069a2.344,2.344,0,0,0,1.13,1.365l6.418,3.772A5.2,5.2,0,0,0,546.012,255.87Zm9.357-6.435,0,.046a1.75,1.75,0,0,1-1,1.2l-5.658,3.326a5.256,5.256,0,0,1-4.713.224l-6.418-3.772a1.035,1.035,0,0,1-.615-.891l.045-.633h-.049V230.162l18.415.029Z" transform="translate(-535.801 -228.981)"/></g><g transform="translate(217.738 432.559)"><path class="b" d="M547.5,229.589l8.653.013V255.26a4.221,4.221,0,0,1-1.713-.5l-6.419-3.772a1.559,1.559,0,0,1-.9-1.444h-.005V229.983A.389.389,0,0,1,547.5,229.589Z" transform="translate(-547.115 -229.589)"/></g><g transform="translate(217.151 426.223)"><path class="c" d="M537.307,231.045l6.419,3.772a5.793,5.793,0,0,0,5.293-.223l5.658-3.326c1.567-.921,1.737-2.314.38-3.111l-6.419-3.772a5.787,5.787,0,0,0-5.293.223l-5.658,3.326C536.121,228.854,535.951,230.247,537.307,231.045Z" transform="translate(-535.811 -223.253)"/><path class="b" d="M546.019,235.947a6.617,6.617,0,0,0,3.28-.842l5.658-3.326a2.786,2.786,0,0,0,1.585-2.271,2.174,2.174,0,0,0-1.205-1.862l-6.418-3.772a6.322,6.322,0,0,0-5.874.224l-5.658,3.325a2.784,2.784,0,0,0-1.585,2.271,2.171,2.171,0,0,0,1.205,1.861l6.419,3.773A5.2,5.2,0,0,0,546.019,235.947Zm.316-11.509a4.028,4.028,0,0,1,2,.459l6.419,3.771a1.08,1.08,0,0,1,.627.84c0,.412-.377.879-1.007,1.249l-5.658,3.326a5.256,5.256,0,0,1-4.713.223l-6.419-3.772a1.083,1.083,0,0,1-.627-.84c0-.412.377-.879,1.007-1.25l5.658-3.325A5.525,5.525,0,0,1,546.335,224.438Z" transform="translate(-535.801 -223.253)"/></g><g transform="translate(229.172 437.87)"><rect class="b" width="1.16" height="19.893" transform="translate(0)"/></g><g transform="translate(219.492 436.281)"><rect class="a" width="0.892" height="16.701" transform="translate(0)"/></g><g transform="translate(493.149 395.615)"><path class="a" d="M257.161,193.236l18.8.029a.39.39,0,0,1,.387.394l-.007,16.8h-.006a2.27,2.27,0,0,1-1.283,1.667l-5.659,3.326a5.787,5.787,0,0,1-5.293.223l-6.418-3.772a1.561,1.561,0,0,1-.9-1.444h0V193.629A.39.39,0,0,1,257.161,193.236Z" transform="translate(-256.194 -192.645)"/><path class="b" d="M266.4,216.809a6.627,6.627,0,0,0,3.279-.842l5.658-3.326a3.174,3.174,0,0,0,1.455-1.587h.118l.006-.591.007-16.8a.977.977,0,0,0-.966-.985l-18.8-.029a.977.977,0,0,0-.968.984v17.425h.069a2.342,2.342,0,0,0,1.13,1.364l6.419,3.772A5.194,5.194,0,0,0,266.4,216.809Zm9.357-6.44,0,.052a1.75,1.75,0,0,1-.994,1.2l-5.659,3.326a5.253,5.253,0,0,1-4.713.223l-6.418-3.772a1.032,1.032,0,0,1-.616-.889l.046-.634h-.05V193.826l18.416.029Z" transform="translate(-256.184 -192.645)"/></g><g transform="translate(493.729 396.223)"><path class="b" d="M267.885,193.253l8.653.013V216.2a4.226,4.226,0,0,1-1.713-.5l-6.418-3.772a1.563,1.563,0,0,1-.9-1.444h0V193.647A.391.391,0,0,1,267.885,193.253Z" transform="translate(-267.498 -193.253)"/></g><g transform="translate(493.142 389.889)"><path class="c" d="M257.69,194.709l6.418,3.772a5.787,5.787,0,0,0,5.293-.223l5.659-3.326c1.566-.92,1.737-2.313.379-3.111l-6.418-3.772a5.8,5.8,0,0,0-5.294.223L258.07,191.6C256.5,192.519,256.333,193.912,257.69,194.709Z" transform="translate(-256.195 -186.919)"/><path class="b" d="M266.4,199.611a6.616,6.616,0,0,0,3.279-.842l5.658-3.326a2.781,2.781,0,0,0,1.585-2.27,2.177,2.177,0,0,0-1.205-1.863l-6.418-3.772a6.332,6.332,0,0,0-5.873.224l-5.658,3.325a2.784,2.784,0,0,0-1.585,2.271,2.172,2.172,0,0,0,1.205,1.862l6.419,3.772A5.194,5.194,0,0,0,266.4,199.611Zm.317-11.509a4.043,4.043,0,0,1,2,.458l6.417,3.772a1.08,1.08,0,0,1,.627.841c0,.411-.376.878-1.007,1.248l-5.658,3.326a5.253,5.253,0,0,1-4.713.224l-6.418-3.773a1.084,1.084,0,0,1-.626-.84c0-.412.376-.878,1.006-1.249l5.659-3.326A5.537,5.537,0,0,1,266.719,188.1Z" transform="translate(-256.184 -186.919)"/></g><g transform="translate(505.163 401.534)"><rect class="b" width="1.16" height="17.168" transform="translate(0)"/></g><g transform="translate(495.483 399.945)"><rect class="a" width="0.892" height="13.976" transform="translate(0)"/></g><g transform="translate(505.797 412.272)"><path class="a" d="M244.286,209.893l18.8.029a.391.391,0,0,1,.387.394l-.007,5.906h-.006a2.27,2.27,0,0,1-1.283,1.667l-5.659,3.326a5.787,5.787,0,0,1-5.293.223l-6.418-3.772a1.561,1.561,0,0,1-.9-1.444h0v-5.935A.391.391,0,0,1,244.286,209.893Z" transform="translate(-243.319 -209.302)"/><path class="b" d="M253.521,222.569a6.613,6.613,0,0,0,3.278-.843l5.658-3.326a3.174,3.174,0,0,0,1.455-1.587h.118l.006-.59.007-5.906a.976.976,0,0,0-.966-.985l-18.8-.03a.977.977,0,0,0-.967.985v6.526h.069a2.342,2.342,0,0,0,1.13,1.364l6.419,3.772A5.186,5.186,0,0,0,253.521,222.569Zm9.356-6.442,0,.052a1.754,1.754,0,0,1-1,1.2l-5.658,3.325a5.253,5.253,0,0,1-4.713.223l-6.418-3.772a1.034,1.034,0,0,1-.616-.89l.046-.634h-.05v-5.147l18.415.028Z" transform="translate(-243.309 -209.302)"/></g><g transform="translate(506.376 412.881)"><path class="b" d="M255.01,209.911l8.653.013v12.035a4.226,4.226,0,0,1-1.713-.5l-6.418-3.772a1.563,1.563,0,0,1-.9-1.444h0V210.3A.391.391,0,0,1,255.01,209.911Z" transform="translate(-254.623 -209.911)"/></g><g transform="translate(505.79 406.547)"><path class="c" d="M244.815,211.367l6.418,3.772a5.793,5.793,0,0,0,5.293-.223l5.659-3.326c1.566-.921,1.737-2.313.379-3.111l-6.418-3.772a5.789,5.789,0,0,0-5.294.223l-5.658,3.326C243.628,209.176,243.458,210.569,244.815,211.367Z" transform="translate(-243.32 -203.577)"/><path class="b" d="M253.527,216.269a6.617,6.617,0,0,0,3.279-.843l5.658-3.325a2.784,2.784,0,0,0,1.585-2.271,2.171,2.171,0,0,0-1.206-1.861l-6.418-3.773a6.334,6.334,0,0,0-5.873.223l-5.658,3.326a2.783,2.783,0,0,0-1.585,2.27,2.175,2.175,0,0,0,1.205,1.863l6.419,3.772A5.194,5.194,0,0,0,253.527,216.269Zm.317-11.509a4.053,4.053,0,0,1,2,.457l6.417,3.773a1.083,1.083,0,0,1,.627.84c0,.412-.376.878-1.007,1.249l-5.658,3.326a5.256,5.256,0,0,1-4.713.223l-6.417-3.772a1.08,1.08,0,0,1-.627-.841c0-.411.376-.877,1.006-1.248l5.659-3.326A5.526,5.526,0,0,1,253.844,204.76Z" transform="translate(-243.309 -203.577)"/></g><g transform="translate(517.81 418.192)"><rect class="b" width="1.16" height="6.27" transform="translate(0)"/></g><g transform="translate(508.131 416.602)"><rect class="a" width="0.892" height="3.078" transform="translate(0)"/></g><path class="a" d="M254.247,163.254l18.8.029a.39.39,0,0,1,.386.394l-.007,5.9h-.006a2.273,2.273,0,0,1-1.283,1.668l-5.658,3.325a5.793,5.793,0,0,1-5.294.224l-6.419-3.773a1.558,1.558,0,0,1-.9-1.444h-.006v-5.934A.39.39,0,0,1,254.247,163.254Z" transform="translate(242.733 202.97)"/><path class="b" d="M263.48,175.929a6.617,6.617,0,0,0,3.279-.843l5.658-3.326a3.162,3.162,0,0,0,1.455-1.587h.118l.006-.59.007-5.9a.993.993,0,0,0-.282-.7.96.96,0,0,0-.683-.289l-18.8-.028h0a.869.869,0,0,0-.685.287.985.985,0,0,0-.284.7v6.525h.069a2.342,2.342,0,0,0,1.13,1.364l6.418,3.773A5.194,5.194,0,0,0,263.48,175.929Zm9.357-6.442,0,.053a1.752,1.752,0,0,1-.994,1.2l-5.659,3.326a5.256,5.256,0,0,1-4.713.223l-6.418-3.773a1.03,1.03,0,0,1-.615-.889l.045-.634h-.05v-5.148l18.415.029Z" transform="translate(242.744 202.97)"/><path class="b" d="M264.971,163.271l8.652.014v12.034a4.226,4.226,0,0,1-1.713-.5l-6.418-3.772a1.558,1.558,0,0,1-.9-1.444h-.006v-5.935A.391.391,0,0,1,264.971,163.271Z" transform="translate(232.009 202.97)"/><path class="c" d="M254.775,164.727l6.418,3.772a5.789,5.789,0,0,0,5.294-.223l5.658-3.326c1.566-.92,1.737-2.313.38-3.11l-6.418-3.773a5.793,5.793,0,0,0-5.294.224l-5.658,3.325C253.588,162.537,253.418,163.93,254.775,164.727Z" transform="translate(242.726 202.97)"/><path class="b" d="M263.487,169.629a6.616,6.616,0,0,0,3.279-.842l5.658-3.325a2.785,2.785,0,0,0,1.585-2.271,2.175,2.175,0,0,0-1.206-1.863l-6.418-3.772a6.328,6.328,0,0,0-5.873.223l-5.658,3.326a2.784,2.784,0,0,0-1.585,2.271,2.173,2.173,0,0,0,1.206,1.862h0l6.418,3.772A5.2,5.2,0,0,0,263.487,169.629Zm.316-11.509a4.044,4.044,0,0,1,2,.459l6.418,3.772a1.08,1.08,0,0,1,.627.84c0,.411-.376.878-1.006,1.248l-5.659,3.326a5.256,5.256,0,0,1-4.713.223l-6.418-3.772a1.081,1.081,0,0,1-.626-.84c0-.412.376-.878,1.007-1.249l5.657-3.325A5.519,5.519,0,0,1,263.8,158.12Z" transform="translate(242.737 202.97)"/><rect class="b" width="1.16" height="6.27" transform="translate(508.026 371.552)"/><rect class="a" width="0.892" height="3.078" transform="translate(498.347 369.962)"/><g transform="translate(402.232 250.201)"><g transform="translate(0)"><path class="b" d="M-.009.064,6.165.112l.009,1.106L0,1.17Z" transform="translate(5.228 4.229) rotate(-149.022)"/></g></g><g transform="translate(398.821 252.152)"><g transform="translate(0)"><path class="b" d="M-.009.064,6.165.112l.009,1.106L0,1.17Z" transform="translate(5.228 4.23) rotate(-149.016)"/></g></g><g transform="translate(404.75 373.325)"><g transform="translate(39.642 3.699)"><path class="c" d="M303.378,199.7l-.561-25.021a.011.011,0,0,1,.011-.012,65.372,65.372,0,0,1,23.082,3.419.011.011,0,0,1,0,.02l-22.517,21.6A.011.011,0,0,1,303.378,199.7Z" transform="translate(-302.237 -174.054)"/><path class="b" d="M303.466,200.41l.286-.281,22.736-21.813-.116-.659-.318-.123a65.509,65.509,0,0,0-23.295-3.454l-.565.014-.012.588.561,25.415Zm21.306-22.069-20.9,20.048-.519-23.146A65.062,65.062,0,0,1,324.771,178.341Z" transform="translate(-302.182 -174.054)"/></g><g transform="translate(11.504 14.196)"><path class="a" d="M354.446,210.189,325.763,192.7v-.02c7.7-4.754,17.845-7.264,28.127-7.534a.011.011,0,0,1,.012.011l.561,25.026A.011.011,0,0,1,354.446,210.189Z" transform="translate(-325.182 -184.551)"/><path class="b" d="M354.418,210.874l.608-.337.007-.358-.575-25.616-.579-.012c-10.838.286-20.928,2.992-28.427,7.62l-.28.172v.667l.283.193Zm-1.093-25.125.525,23.4L326.87,192.69C333.975,188.544,343.3,186.093,353.324,185.749Z" transform="translate(-325.172 -184.551)"/></g><g transform="translate(11.497 21.663)"><path class="b" d="M354.469,210.186l-.03,19.962a.011.011,0,0,1-.017.01l-28.653-16.363a.011.011,0,0,1-.006-.01V192.7a.011.011,0,0,1,.017-.009l28.684,17.485A.011.011,0,0,1,354.469,210.186Z" transform="translate(-325.182 -192.018)"/><path class="b" d="M354.419,230.839,355,230.5l.007-.348.03-20.327-.326-.173-28.92-17.63-.615.308-.007.375v21.484l.371.158Zm-.54-20.326-.028,18.647-27.517-15.715V193.719Z" transform="translate(-325.172 -192.018)"/></g><g transform="translate(0 49.855)"><path class="a" d="M325.824,240.194V220.823a.011.011,0,0,1,.012-.011l40.069.753a.012.012,0,0,1,.011.012l.052,24.971-.092,0-8.662,22.73-.013.008a53.556,53.556,0,0,1-19.259-6.4c-7.706-4.53-11.7-10.087-12.056-16.02l-.033-.31S325.795,240.705,325.824,240.194Z" transform="translate(-325.236 -220.21)"/><path class="b" d="M357.286,269.893l.362-.184.093-.22,8.513-22.339.283.011-.056-26.175-41.238-.776-.011.613v19.356c-.029.621.022,5.782.027,6.376l.037.368c.372,6.236,4.641,11.94,12.342,16.466a54.238,54.238,0,0,0,19.469,6.478Zm8.09-23.7-.054.139-8.5,22.3a52.835,52.835,0,0,1-18.605-6.265c-7.348-4.319-11.417-9.694-11.767-15.545l-.035-.337c-.02-2.283-.046-5.9-.026-6.256l0-.035V221.413l38.932.733Z" transform="translate(-325.224 -220.21)"/></g><g transform="translate(0.021 49.855)"><path class="b" d="M334.717,246.858l-.033-.31s-.057-5.843-.028-6.354V220.823a.011.011,0,0,1,.012-.011l8.584.161.006,0c6.623,5.146,20.423,16.022,20.489,16.074l0,0,2.3,7.346v0l.057,24.721-.057.151a.018.018,0,0,1-.018.006,53.556,53.556,0,0,1-19.254-6.4C339.067,258.348,335.072,252.791,334.717,246.858Z" transform="translate(-334.068 -220.21)"/><path class="b" d="M366.387,269.932l.285-.809-.085-24.9-2.261-7.232.034-.348-.346-.118c-1.148-.906-14.066-11.084-20.416-16.017l-.155-.121-.2,0-9.163-.172-.012.613v19.371c-.029.48.022,5.76.027,6.361l.035.351c.38,6.26,4.648,11.959,12.344,16.483a54.23,54.23,0,0,0,19.464,6.477Zm-.932-25.439.056,24.116a52.7,52.7,0,0,1-18.459-6.242c-7.348-4.319-11.417-9.694-11.767-15.545l-.035-.337c-.02-2.283-.046-5.9-.025-6.256V221.413l7.824.147c6.372,4.96,18.74,14.7,20.189,15.845Z" transform="translate(-334.057 -220.21)"/></g><g transform="translate(0.03 32.984)"><path class="c" d="M365.938,221.57l-8.7,22.832a.011.011,0,0,1-.013.007,53.537,53.537,0,0,1-19.259-6.4c-15.91-9.351-16.147-24.417-.737-33.947h.012l28.693,17.5Z" transform="translate(-325.269 -203.339)"/><path class="b" d="M357.54,245.059l.182-.438,8.785-23.055-.135-.391-.194-.125-28.632-17.462-.246-.249-.385.191c-7.631,4.716-11.771,10.9-11.7,17.446.073,6.651,4.477,12.88,12.4,17.539a54.231,54.231,0,0,0,19.469,6.479Zm7.63-23.247-8.363,21.946a52.82,52.82,0,0,1-18.605-6.265c-7.558-4.442-11.758-10.313-11.826-16.531-.065-6.025,3.77-11.775,10.809-16.218Z" transform="translate(-325.215 -203.339)"/></g><g transform="translate(31.404 47.988)"><g transform="translate(0.019 9.66)"><path class="a" d="M282.365,259.829l7-8.836,0,0,1.691-4.437,0,0,27.38-16.093.018-1.063h1.789l0,0,1.356-.8h.012c.444.261.87.528,1.29.8l10.819,6.681a.014.014,0,0,1,0,.01v9.643c.029,6.247-4.01,12.5-12.12,17.266-10.642,6.255-25.635,8.389-39.251,6.408-.008,0-.012-.005-.011-.009l.011-.027v-9.528Z" transform="translate(-281.728 -228.003)"/><path class="b" d="M292.509,270.715c10.936,0,21.449-2.522,29.427-7.212,8.033-4.721,12.44-11.035,12.41-17.779v-9.983l-.3-.18-10.806-6.674c-.417-.268-.85-.54-1.3-.8l-.135-.079H321.5l-.145.079-1.222.719h-2.208l-.021,1.31-27.248,16.014-.082.164-1.687,4.417-7.066,8.878,0,.252v9.418l-.054.143.228.506.266.071A71.494,71.494,0,0,0,292.509,270.715Zm40.678-34.307v9.318c.028,6.306-4.173,12.255-11.83,16.755-9.967,5.857-24.631,8.3-38.38,6.406v-8.846l7-8.937,1.581-4.148,27.49-16.157.014-.817h1.395l.151-.1,1.036-.609c.338.2.666.409.989.618Z" transform="translate(-281.762 -228.003)"/></g><g transform="translate(3.221 28.865)"><path class="b" d="M331.073,268.581a69.727,69.727,0,0,1-20.519.829V256.4l4.521-5.709,0,0,1.1-2.888h14.895Z" transform="translate(-309.973 -247.208)"/><path class="b" d="M318.029,270.4a69.289,69.289,0,0,0,13.142-1.239l.471-.091V247.208H315.77l-1.215,3.191-4.591,5.792v13.75l.519.056A70.722,70.722,0,0,0,318.029,270.4Zm12.454-2.309a69.306,69.306,0,0,1-19.359.787v-12.27l4.522-5.709v-.1l.918-2.41h13.918Z" transform="translate(-309.964 -247.208)"/></g><g transform="translate(29.203 27.544)"><path class="b" d="M304.858,264.221a49.675,49.675,0,0,1-7.472,2.944V246.477h7.472Z" transform="translate(-296.805 -245.887)"/><path class="b" d="M296.795,267.961l.748-.23a50.526,50.526,0,0,0,7.558-2.978l.327-.162v-18.7h-8.633Zm7.473-4.11a49.436,49.436,0,0,1-6.311,2.515v-19.3h6.311Z" transform="translate(-296.795 -245.887)"/></g><path class="c" d="M282.351,259.816l8.7-22.831,0-.006L321.6,219.025h.012c16.157,9.5,16.155,24.9-.006,34.4-10.641,6.254-25.635,8.389-39.25,6.408A.011.011,0,0,1,282.351,259.816Z" transform="translate(-281.705 -218.343)"/><path class="b" d="M292.522,261.147c10.933,0,21.45-2.522,29.43-7.213,8-4.7,12.412-10.993,12.413-17.71s-4.406-13.006-12.407-17.71l-.288-.171-.3.169-30.7,18.045-.082.164-8.828,23.089.243.53.286.069A71.366,71.366,0,0,0,292.522,261.147Zm29.14-41.443c7.447,4.463,11.544,10.321,11.543,16.52,0,6.277-4.2,12.2-11.832,16.689-9.917,5.826-24.479,8.27-38.168,6.434l8.368-21.959Z" transform="translate(-281.759 -218.343)"/></g><g transform="translate(40.045)"><path class="d" d="M317.19,171.074a45.927,45.927,0,0,1,7.984,3.661c.009.005.009.014,0,.02l-30.456,17.9a.012.012,0,0,1-.014-.019l22.475-21.561A.01.01,0,0,1,317.19,171.074Z" transform="translate(-293.929 -170.355)"/><path class="b" d="M294.735,193.438l.465-.28L325.928,175.1l.014-.693-.3-.182a46.526,46.526,0,0,0-8.045-3.693l-.34-.174-.307.3-22.84,21.912ZM324.2,174.753l-25.365,14.908L317.5,171.747A45.871,45.871,0,0,1,324.2,174.753Z" transform="translate(-294.107 -170.355)"/></g><g transform="translate(40.173 3.711)"><path class="a" d="M325.244,174.759v44.262a.011.011,0,0,1-.006.01l-30.522,17.938a.011.011,0,0,1-.017-.009l.058-44.307a.012.012,0,0,1,0-.01l30.465-17.894A.011.011,0,0,1,325.244,174.759Z" transform="translate(-294.119 -174.066)"/><path class="b" d="M294.688,237.649l.3-.164,30.819-18.114.006-.35v-44.6l-.589-.351-.3.174L294.174,192.3l-.006.351L294.11,237.3Zm29.968-18.961-29.384,17.268.056-42.97,29.328-17.225Z" transform="translate(-294.11 -174.066)"/></g></g><g transform="translate(420.076 397.352)"><path class="a" d="M350.6,208.632l-3.175-2V195.423l3.175,1.935Z" transform="translate(-346.846 -194.382)"/><path class="b" d="M351.171,209.693V197.024l-4.335-2.642v12.576Zm-1.16-12v9.878L348,206.3v-9.834Z" transform="translate(-346.836 -194.382)"/></g><g transform="translate(407.325 434.838)"><rect class="a" width="1.16" height="20.718" transform="translate(0)"/></g><g transform="translate(425.976 402.485)"><rect class="a" width="1.16" height="9.645" transform="translate(0)"/></g><g transform="translate(472.83 379.463)"><rect class="b" width="1.16" height="44.273" transform="translate(0)"/></g><g transform="translate(454.666 389.993)"><rect class="b" width="1.16" height="44.273" transform="translate(0)"/></g><g transform="translate(439.454 437.827)"><rect class="b" width="1.16" height="15.546" transform="translate(0)"/></g><g transform="translate(432.223 447.379)"><rect class="a" width="1.161" height="22.757" transform="translate(0)"/></g><path class="b" d="M278.585,264.763a21.563,21.563,0,0,0,10.161-12.931,14.346,14.346,0,0,0,.55-3.983V240.9h-1.159v6.952a13.144,13.144,0,0,1-.5,3.649,20.391,20.391,0,0,1-9.605,12.229Z" transform="translate(203.129 202.97)"/><rect class="b" width="1.16" height="5.208" transform="translate(491.264 436.308)"/><g transform="translate(271.507 245.537)"><g transform="translate(0 10.934)"><g transform="translate(18.919 30.97)"><path class="b" d="M478.857,98.007,473.068,94.2a.1.1,0,0,1-.024-.154l7.352-9.083a.1.1,0,0,1,.179.045l1.172,5.526,0,.014.28,3.793a.1.1,0,0,1-.024.076l-3.016,3.571A.1.1,0,0,1,478.857,98.007Z" transform="translate(-472.573 -84.471)"/><path class="b" d="M478.9,98.477a.545.545,0,0,0,.419-.2l3.131-3.708.014-.261-.281-3.8-1.183-5.6a.551.551,0,0,0-.407-.425.541.541,0,0,0-.552.186l-7.479,9.241.008.283a.562.562,0,0,0,.246.385l5.792,3.81A.538.538,0,0,0,478.9,98.477Zm2.663-4.246-2.727,3.229-5.213-3.428,6.654-8.222,1.024,4.82Z" transform="translate(-472.567 -84.471)"/></g><g transform="translate(0)"><path class="c" d="M465.862,70.563,493.49,54.324a1.99,1.99,0,0,1,1.8-.258h0l5.4,3.295a.152.152,0,0,1,.034.235l-6.456,6.95a.15.15,0,0,0-.04.1V76.132a6.414,6.414,0,0,1-2.83,4.989l-4.12,2.422-.289.414a15.509,15.509,0,0,1-6.4,9.8c-.2.138-.331-.062-.2-.315.665-1.286,1.918-4.083,1.535-6.283l-.455-.2-8.524,5.01a.148.148,0,0,0-.065.078l-3.558,9.667a.148.148,0,0,1-.213.078l-5.347-3.275h0a2.031,2.031,0,0,1-.733-1.76v-21.2A6.412,6.412,0,0,1,465.862,70.563Z" transform="translate(-462.585 -53.501)"/><path class="b" d="M469.181,102.266a.592.592,0,0,0,.555-.392l3.521-9.566,8.237-4.841.021.009c.237,2.068-.974,4.693-1.524,5.754a.722.722,0,0,0,.1.881.586.586,0,0,0,.75.021,15.889,15.889,0,0,0,6.575-10l.176-.251,4.034-2.371a6.9,6.9,0,0,0,3.052-5.384V64.771l6.375-6.862a.616.616,0,0,0,.156-.506.6.6,0,0,0-.293-.436l-5.4-3.291a2.421,2.421,0,0,0-2.255.255L465.632,70.169a6.9,6.9,0,0,0-3.054,5.384v21.2a2.476,2.476,0,0,0,.93,2.137l5.366,3.287A.6.6,0,0,0,469.181,102.266Zm12.254-15.814-8.717,5.124a.6.6,0,0,0-.262.32l-3.429,9.318-5.038-3.086a1.622,1.622,0,0,1-.518-1.371v-21.2a5.988,5.988,0,0,1,2.608-4.6l27.628-16.238a1.59,1.59,0,0,1,1.406-.235l5.033,3.075-6.2,6.676a.615.615,0,0,0-.163.416V76.131a5.986,5.986,0,0,1-2.606,4.6l-4.259,2.551-.366.6a15.165,15.165,0,0,1-5.309,8.82,10.47,10.47,0,0,0,1.118-5.62l-.041-.241Z" transform="translate(-462.578 -53.501)"/></g><g transform="translate(5.498 3.348)"><path class="a" d="M464.8,73.97l27.7-16.282c1.523-.894,2.756-.169,2.756,1.62V80.6a6.222,6.222,0,0,1-2.756,4.859l-4.261,2.5a.5.5,0,0,0-.214.333,15.5,15.5,0,0,1-6.412,9.841c-.2.138-.331-.062-.2-.315.688-1.331,2-4.281,1.487-6.512-.025-.106-.122-.138-.228-.076L464.8,101.74c-1.522.9-2.755.169-2.755-1.62V78.829A6.225,6.225,0,0,1,464.8,73.97Z" transform="translate(-461.595 -56.849)"/><path class="b" d="M463.56,102.579a2.9,2.9,0,0,0,1.454-.446l17.52-10.3c.247,2.067-.962,4.692-1.522,5.775a.721.721,0,0,0,.1.88.586.586,0,0,0,.75.021,16.066,16.066,0,0,0,6.6-10.141l4.258-2.519A6.64,6.64,0,0,0,495.7,80.6V59.308a2.413,2.413,0,0,0-1.03-2.21,2.319,2.319,0,0,0-2.394.2l-27.7,16.282a6.639,6.639,0,0,0-2.979,5.252v21.292a2.412,2.412,0,0,0,1.031,2.209A1.836,1.836,0,0,0,463.56,102.579Zm19.209-11.83a.638.638,0,0,0-.325.091l-17.876,10.507a1.5,1.5,0,0,1-1.5.2,1.56,1.56,0,0,1-.584-1.422V78.829a5.818,5.818,0,0,1,2.532-4.466l27.7-16.281a1.5,1.5,0,0,1,1.5-.2,1.562,1.562,0,0,1,.584,1.423V80.6a5.815,5.815,0,0,1-2.532,4.466l-4.262,2.5a.96.96,0,0,0-.43.652,15.1,15.1,0,0,1-5.316,8.859c.738-1.636,1.51-3.965,1.067-5.875A.582.582,0,0,0,483,90.8.575.575,0,0,0,482.77,90.749Z" transform="translate(-461.589 -56.849)"/></g><g transform="translate(2.39 17.404)"><path class="b" d="M-.007.059,5.669.1l.007.9L0,.963Z" transform="translate(4.79 3.817) rotate(-148.695)"/></g><g transform="translate(28.226 2.315)"><path class="b" d="M-.007.059,5.669.1l.007.9L0,.963Z" transform="matrix(-0.854, -0.52, 0.52, -0.854, 4.79, 3.816)"/></g><g transform="translate(0.386 22.748)"><path class="b" d="M-.007.067,6.321.118l.007.9L0,.97Z" transform="translate(5.276 4.257) rotate(-147.647)"/></g><g transform="translate(0.447 26.084)"><path class="b" d="M495.854,79.584l5.5,3.39v18.461l-5.321-2.968-.177-1.323Z" transform="translate(-495.854 -79.584)"/></g></g><g transform="translate(29.622)"><g transform="translate(0)"><path class="b" d="M0,.9l6.165.01,0-.89L0,.01Z" transform="translate(0.485 6.219) rotate(-94.707)"/></g><g transform="translate(4.556 0.022)"><path class="b" d="M-.046.008.849.014.895,7.1,0,7.09Z" transform="translate(0.772 6.862) rotate(-156.323)"/></g><g transform="translate(8.277 5.561)"><path class="b" d="M-.045.009l.9.007L.9,5.854,0,5.847Z" transform="matrix(-0.492, -0.871, 0.871, -0.492, 0.409, 3.674)"/></g></g></g><g transform="translate(287.989 274.636)"><g transform="translate(0)"><path class="c" d="M479.331,89.963a2.358,2.358,0,0,0,1.154-.391,4.332,4.332,0,0,0,1.52-1.464,3.718,3.718,0,0,0,.554-1.973c0-.76-.209-1.253-.621-1.463s-.954-.1-1.676.321a4.153,4.153,0,0,0-1.507,1.471,3.791,3.791,0,0,0-.529,1.955c0,.756.217,1.241.645,1.444A1.062,1.062,0,0,0,479.331,89.963Zm2.155-4.939a.55.55,0,0,1,.251.054c.249.127.375.482.375,1.057a3.265,3.265,0,0,1-.486,1.732,3.874,3.874,0,0,1-1.364,1.311c-.526.31-.932.4-1.2.273s-.387-.468-.387-1.032a3.349,3.349,0,0,1,.466-1.722,3.73,3.73,0,0,1,1.348-1.311A2.162,2.162,0,0,1,481.487,85.024Zm-2.628-.409,3.3-1.94V81.6a2.932,2.932,0,0,0-.415-1.724,2.1,2.1,0,0,0-1.469-.752,2.228,2.228,0,0,1-.98-.325.769.769,0,0,1-.242-.653,1.354,1.354,0,0,1,.307-.8,2.861,2.861,0,0,1,.855-.75,5.774,5.774,0,0,1,3.162-.729l.164.006,1.444-4.167-.289-.024a8.4,8.4,0,0,0-4.965,1.319,10.068,10.068,0,0,0-3.328,3.053,6.686,6.686,0,0,0-1.219,3.74,3.369,3.369,0,0,0,.575,2.124,2.8,2.8,0,0,0,1.817.926,2.869,2.869,0,0,1,1.119.322.612.612,0,0,1,.162.492Zm2.855-2.2L479.3,83.829v-.164a1.031,1.031,0,0,0-.331-.848,2.942,2.942,0,0,0-1.323-.415,2.377,2.377,0,0,1-1.543-.763,2.942,2.942,0,0,1-.475-1.838,6.229,6.229,0,0,1,1.142-3.485,9.617,9.617,0,0,1,3.182-2.915,8.172,8.172,0,0,1,4.415-1.277l-1.14,3.292a6.206,6.206,0,0,0-3.237.794,3.331,3.331,0,0,0-.987.868,1.8,1.8,0,0,0-.4,1.072,1.2,1.2,0,0,0,.418,1.015,2.583,2.583,0,0,0,1.185.412,1.691,1.691,0,0,1,1.173.571,2.548,2.548,0,0,1,.329,1.456Z" transform="translate(-475.186 -71.666)"/></g></g><g transform="translate(289.813 273.37)"><g transform="translate(0)"><path class="b" d="M480.4,81.052v-.941a2.747,2.747,0,0,0-.371-1.59,1.886,1.886,0,0,0-1.32-.661,2.425,2.425,0,0,1-1.083-.369.985.985,0,0,1-.33-.833,1.571,1.571,0,0,1,.354-.935,3.057,3.057,0,0,1,.92-.809,5.933,5.933,0,0,1,3.282-.759l1.293-3.733a8.166,8.166,0,0,0-4.835,1.29,9.786,9.786,0,0,0-3.254,2.984,6.424,6.424,0,0,0-1.182,3.612,3.14,3.14,0,0,0,.526,1.981,2.571,2.571,0,0,0,1.679.844,3.2,3.2,0,0,1,1.223.369.817.817,0,0,1,.246.67v.557Zm.4,3.59q0-1-.5-1.26t-1.465.315a3.923,3.923,0,0,0-1.427,1.39,3.564,3.564,0,0,0-.5,1.839q0,1,.516,1.238a1.559,1.559,0,0,0,1.409-.281,4.086,4.086,0,0,0,1.441-1.388A3.469,3.469,0,0,0,480.8,84.642Z" transform="translate(-473.875 -70.4)"/></g></g><g transform="translate(222.114 375)"><path class="a" d="M531.732,172.621l18.8.029a.39.39,0,0,1,.387.394l-.007,5.9h-.006a2.273,2.273,0,0,1-1.283,1.668l-5.659,3.325a5.79,5.79,0,0,1-5.293.224l-6.419-3.773a1.561,1.561,0,0,1-.9-1.444h0v-5.935A.39.39,0,0,1,531.732,172.621Z" transform="translate(-530.764 -172.03)"/><path class="b" d="M540.967,185.3a6.617,6.617,0,0,0,3.279-.843l5.658-3.325a3.175,3.175,0,0,0,1.455-1.588h.118l.006-.59.007-5.9a.977.977,0,0,0-.967-.986l-18.8-.029a1.05,1.05,0,0,0-.685.287.981.981,0,0,0-.286.7v6.526h.07a2.342,2.342,0,0,0,1.13,1.364l6.419,3.772A5.2,5.2,0,0,0,540.967,185.3Zm9.357-6.436,0,.047a1.761,1.761,0,0,1-1,1.2l-5.659,3.325a5.256,5.256,0,0,1-4.713.224l-6.418-3.773a1.031,1.031,0,0,1-.616-.89l.046-.633h-.049v-5.148l18.414.029Z" transform="translate(-530.755 -172.03)"/></g><g transform="translate(222.695 375.608)"><path class="b" d="M542.456,172.638l8.653.014v12.034a4.226,4.226,0,0,1-1.713-.5l-6.418-3.772a1.562,1.562,0,0,1-.9-1.444h0v-5.935A.391.391,0,0,1,542.456,172.638Z" transform="translate(-542.069 -172.638)"/></g><g transform="translate(222.107 369.274)"><path class="c" d="M532.261,174.094l6.419,3.772a5.787,5.787,0,0,0,5.293-.223l5.659-3.326c1.566-.92,1.737-2.313.379-3.111l-6.418-3.772a5.793,5.793,0,0,0-5.293.223l-5.658,3.326C531.074,171.9,530.9,173.3,532.261,174.094Z" transform="translate(-530.765 -166.304)"/><path class="b" d="M540.974,179a6.607,6.607,0,0,0,3.279-.843l5.657-3.326a2.782,2.782,0,0,0,1.586-2.27,2.175,2.175,0,0,0-1.205-1.863l-6.419-3.772a6.327,6.327,0,0,0-5.872.224l-5.658,3.326a2.783,2.783,0,0,0-1.586,2.27,2.176,2.176,0,0,0,1.206,1.862l6.419,3.773A5.205,5.205,0,0,0,540.974,179Zm.317-11.51a4.036,4.036,0,0,1,2,.458l6.418,3.772a1.08,1.08,0,0,1,.627.841c0,.411-.376.878-1.007,1.248l-5.658,3.326a5.25,5.25,0,0,1-4.713.224l-6.418-3.773a1.083,1.083,0,0,1-.627-.84c0-.411.376-.878,1.006-1.249l5.659-3.326A5.537,5.537,0,0,1,541.291,167.487Z" transform="translate(-530.755 -166.304)"/></g><g transform="translate(234.129 380.919)"><rect class="b" width="1.16" height="6.269" transform="translate(0)"/></g><g transform="translate(224.45 379.33)"><rect class="a" width="0.892" height="3.078" transform="translate(0)"/></g><g transform="translate(221.005 343.074)"><path class="a" d="M534.255,147.435l-2.345-2.577a.017.017,0,0,1,0-.026l4.72-2.611.261-.085,11.539-1.429c1.544-.191,3.543,1.953,3.545,3.8l.02,14.579a1.378,1.378,0,0,1-.6,1.262L546.719,163A.016.016,0,0,1,546.7,163L544.469,159a.019.019,0,0,1,.008-.024l2.575-1.25a.017.017,0,0,0,.006-.026l-9.779-11.123a.015.015,0,0,0-.017-.005l-2.989.865A.015.015,0,0,1,534.255,147.435Z" transform="translate(-531.287 -140.104)"/><path class="b" d="M546.506,163.8l.524-.278,4.679-2.652a1.974,1.974,0,0,0,.9-1.779l-.019-14.579a4.849,4.849,0,0,0-1.689-3.4,3.252,3.252,0,0,0-2.508-.987L536.387,141.7l-4.967,2.748-.1.573.191.227,2.59,2.854.363-.1,2.649-.767,9.042,10.285-2.115,1.027-.17.485.118.24Zm2.153-22.511a2.406,2.406,0,0,1,1.474.706,3.744,3.744,0,0,1,1.3,2.519l.02,14.579a.817.817,0,0,1-.322.756l-4.173,2.365-1.652-2.964,2.29-1.111.124-.58-.185-.233L537.5,145.911l-.365.1-2.657.769L532.857,145l4.193-2.284,11.483-1.422A1.037,1.037,0,0,1,548.659,141.286Z" transform="translate(-531.316 -140.104)"/></g><g transform="translate(220.359 345.65)"><path class="b" d="M552.768,161.667l-.019-14.58c0-1.85-2-3.994-3.545-3.8l-11.542,1.43c-1.462.181-1.459,2.346,0,4.011l11.561,13.15C550.775,163.634,552.771,163.517,552.768,161.667Z" transform="translate(-535.987 -142.681)"/><path class="b" d="M551.468,163.719a2,2,0,0,0,.72-.13,1.912,1.912,0,0,0,1.149-1.923l-.019-14.579a4.856,4.856,0,0,0-1.688-3.4,3.248,3.248,0,0,0-2.508-.987l-11.542,1.43a1.74,1.74,0,0,0-1.459,1.16,4.089,4.089,0,0,0,1.1,3.831l11.561,13.149A3.793,3.793,0,0,0,551.468,163.719Zm.709-2.051c0,.438-.135.713-.4.818-.459.178-1.337-.109-2.125-1l-11.561-13.15a2.964,2.964,0,0,1-.88-2.627.575.575,0,0,1,.513-.4l11.541-1.43a2.234,2.234,0,0,1,1.6.7,3.746,3.746,0,0,1,1.3,2.518Z" transform="translate(-535.976 -142.681)"/></g><g transform="translate(236.416 359.164)"><path class="b" d="M-.044.012,1.131.021l.044,5.773L0,5.784Z" transform="translate(0.533 3.856) rotate(-119.168)"/></g><g transform="translate(236.416 346.612)"><path class="b" d="M-.044.012,1.131.021l.044,5.772L0,5.784Z" transform="matrix(-0.487, -0.873, 0.873, -0.487, 0.533, 3.855)"/></g><g transform="translate(233.785 343.303)"><path class="b" d="M-.044.012,1.131.021l.044,5.773L0,5.785Z" transform="translate(0.533 3.856) rotate(-119.164)"/></g><path class="c" d="M523.567,116.193l2.318-1.362-.446-.787-2.318,1.363Zm-2.763-.975.446-.786-2.317-1.362-.446.786Zm7.4-1.749,2.318-1.363-.446-.786-2.319,1.362Zm-12.035-.975.446-.787-2.317-1.362-.446.786Zm14.908-1.75.446-.787L529.2,108.6l-.446.787Zm-15.779-.2,2.317-1.363-.446-.786-2.317,1.362Zm11.143-2.524.446-.787-2.318-1.362-.447.786Zm-6.508-.2,2.317-1.363-.446-.786-2.317,1.362Z" transform="translate(-272.068 202.97)"/><g transform="translate(437.566 309.532)"><g transform="translate(0.492 0.508)"><path class="a" d="M290.959,111.8a.156.156,0,0,1,0-.265l6.119-3.805a5.212,5.212,0,0,1,.523-.325l.243-.092c.982-.461,2.039-.256,3.477.557L326.509,122.1a12.9,12.9,0,0,1,5.861,9.941l.251,15.118a4.373,4.373,0,0,1-1.2,3.443,5.15,5.15,0,0,1-.713.453l-6.022,3.8a.145.145,0,0,1-.212-.056c-.141-.284-.469-.942-.789-1.6a.156.156,0,0,0-.2-.067c-.375.137-6.364,4.821-6.81,4.156l.761-11.887a2.18,2.18,0,0,0-.707-.687l-14.858-8.4a12.9,12.9,0,0,1-5.861-9.941l-.192-11.58a.154.154,0,0,0-.075-.13Z" transform="translate(-290.884 -107.069)"/></g><g transform="translate(0.559 0.508)"><path class="c" d="M297.147,111.533l6.119-3.805a5.219,5.219,0,0,1,.523-.325l.243-.092c.982-.461,2.039-.255,3.476.557l25.157,14.213a2.614,2.614,0,0,0-.517.172l-.242.092a5.4,5.4,0,0,0-.524.325l-6.119,3.806a.156.156,0,0,0,0,.264l4.781,2.876a.156.156,0,0,1,.075.13l.193,11.581c.02,1.18-2.97,4.171-6.928,7.745l.235-3.665a2.187,2.187,0,0,0-.706-.687l-14.858-8.4a12.9,12.9,0,0,1-5.861-9.941L302,114.8a.153.153,0,0,0-.074-.13l-4.782-2.876A.156.156,0,0,1,297.147,111.533Z" transform="translate(-297.074 -107.069)"/></g><path class="b" d="M317.1,157.817c.786-.2,2.249-1.131,5.344-3.363.352-.254.712-.513.953-.681.262.534.506,1.023.622,1.258a.636.636,0,0,0,.913.257l6.021-3.806a4.941,4.941,0,0,0,.747-.475,4.831,4.831,0,0,0,1.4-3.856l-.251-15.118a13.424,13.424,0,0,0-6.113-10.37l-25.192-14.234c-1.635-.924-2.8-1.1-3.922-.573l-.208.077a5.387,5.387,0,0,0-.653.4l-6.074,3.773a.661.661,0,0,0,.009,1.123l4.617,2.777.189,11.386a13.426,13.426,0,0,0,6.114,10.372l14.858,8.394a1.567,1.567,0,0,1,.442.4l-.759,11.877.094.143a.647.647,0,0,0,.421.27A1.033,1.033,0,0,0,317.1,157.817Zm6.271-5.172a.589.589,0,0,0-.069.02,10.067,10.067,0,0,0-1.428.971,44.979,44.979,0,0,1-4.69,3.1l.735-11.47-.1-.142a2.66,2.66,0,0,0-.874-.843l-14.858-8.4a12.308,12.308,0,0,1-5.606-9.511l-.193-11.58a.665.665,0,0,0-.317-.554l-4.291-2.581,5.635-3.5a4.892,4.892,0,0,1,.5-.312l.181-.063c.826-.385,1.735-.227,3.066.525l25.193,14.233a12.316,12.316,0,0,1,5.606,9.511l.251,15.118a3.934,3.934,0,0,1-1.032,3.057,4.574,4.574,0,0,1-.583.37l-5.771,3.641c-.164-.332-.392-.793-.616-1.254A.638.638,0,0,0,323.376,152.645Z" transform="translate(-290.383 -106.562)"/></g><g transform="translate(435.618 313.708)"><g transform="translate(0.493 0.506)"><path class="b" d="M303.139,111.982l25.267,14.276a12.679,12.679,0,0,1,5.782,9.809l.253,15.207c.06,3.647-2.43,5.169-5.563,3.4l-2.118-1.2c-.614-.347-1.1-.049-1.089.665l.038,2.348c.019,1.09-1.058,1.077-1.8-.021l-4.663-6.947a2.187,2.187,0,0,0-.706-.687L303.61,140.4a12.679,12.679,0,0,1-5.782-9.808l-.252-15.207C297.515,111.734,300.005,110.212,303.139,111.982Z" transform="translate(-297.575 -111.244)"/></g><g transform="translate(0)"><path class="b" d="M325.364,157.769c.023-.006.047-.013.07-.021a1.2,1.2,0,0,0,.761-1.267l-.039-2.348c0-.2.051-.28.072-.292s.113-.025.285.073l2.12,1.2c1.675.946,3.263,1.06,4.472.324s1.856-2.219,1.822-4.169l-.253-15.207a13.252,13.252,0,0,0-6.035-10.239l-25.268-14.277c-1.674-.946-3.261-1.064-4.471-.323s-1.856,2.219-1.823,4.169l.252,15.207a13.253,13.253,0,0,0,6.037,10.239l14.933,8.438a1.7,1.7,0,0,1,.539.531l4.662,6.947A1.879,1.879,0,0,0,325.364,157.769Zm.639-4.906a1,1,0,0,0-.283.118,1.285,1.285,0,0,0-.548,1.169l.038,2.348c0,.186-.041.284-.075.295-.127.043-.483-.1-.821-.608l-4.663-6.947a2.664,2.664,0,0,0-.874-.842l-14.934-8.438a12.141,12.141,0,0,1-5.529-9.379l-.253-15.207a3.583,3.583,0,0,1,1.345-3.292,3.434,3.434,0,0,1,3.486.341L328.16,126.7a12.144,12.144,0,0,1,5.529,9.378l.253,15.207a3.582,3.582,0,0,1-1.346,3.293,3.438,3.438,0,0,1-3.486-.341l-2.119-1.2A1.346,1.346,0,0,0,326,152.863Z" transform="translate(-297.074 -110.738)"/></g></g><g transform="translate(441.886 320.657)"><g transform="translate(0)"><path class="a" d="M328.26,149.159a.622.622,0,0,0,.261-.139.822.822,0,0,0,.16-.928c-3-7.8-5.98-9.7-8.863-11.538a14.741,14.741,0,0,1-6.094-6.367,46.144,46.144,0,0,0-9.1-12.287.662.662,0,0,0-1.148.511l.274,16.489a1.1,1.1,0,0,0,.523.907l23.5,13.275A.681.681,0,0,0,328.26,149.159Zm-23.79-30.033a46.43,46.43,0,0,1,8.385,11.534,15.765,15.765,0,0,0,6.44,6.744c2.663,1.7,5.415,3.449,8.2,10.381L304.747,134.93Z" transform="translate(-303.472 -117.687)"/></g></g><g transform="translate(472.716 334.573)"><g transform="translate(0)"><path class="b" d="M-.061.01l1,.008L1,7.727,0,7.719Z" transform="matrix(-0.515, -0.857, 0.857, -0.515, 0.467, 4.846)"/></g></g><g transform="translate(466.74 324.458)"><g transform="translate(0)"><path class="b" d="M-.061.01l1,.008L1,7.727,0,7.719Z" transform="translate(0.467 4.846) rotate(-121.026)"/></g></g><g transform="translate(441.516 310.586)"><g transform="translate(0)"><path class="b" d="M-.061.01l1,.008L1,7.726,0,7.718Z" transform="matrix(-0.515, -0.857, 0.857, -0.515, 0.467, 4.846)"/></g></g><g transform="translate(472.96 349.277)"><g transform="translate(0)"><path class="b" d="M-.061.01l1,.008L1,7.727,0,7.719Z" transform="translate(0.467 4.846) rotate(-121.026)"/></g></g><path class="c" d="M333.6,165.609l2.317-1.362-.446-.787-2.317,1.363Zm-2.764-.975.446-.787-2.317-1.362-.446.786Zm7.4-1.749,2.317-1.362-.446-.787-2.317,1.362Zm-12.035-.976.446-.786-2.317-1.363-.446.787Zm14.909-1.749.446-.786-2.318-1.363-.446.787Zm-15.779-.2,2.318-1.363-.446-.786-2.318,1.362Zm11.143-2.523.446-.787-2.318-1.362-.446.787Zm-6.508-.2,2.318-1.362-.446-.786-2.318,1.361Z" transform="translate(105.481 202.97)"/><path class="c" d="M415.165,244.886l.446-.787-2.319-1.36-.446.788Zm-4.639-2.719.447-.787-2.319-1.36-.446.788Zm-4.639-2.719.446-.788-2.319-1.359-.446.787Zm-4.639-2.719.446-.788-2.319-1.359-.446.787Zm-4.639-2.719.446-.788-2.319-1.36-.446.788Zm-4.638-2.72.445-.787-2.32-1.36-.445.788Zm-4.639-2.719.446-.788-2.319-1.359-.446.787Zm-4.639-2.72.446-.788-2.319-1.359-.446.787Zm-4.639-2.719.446-.788-2.319-1.359-.446.787Zm-4.638-2.719.444-.788-2.319-1.36-.445.788Zm-4.639-2.72.446-.787-2.319-1.36-.446.788Zm-4.639-2.719.446-.787-2.319-1.36-.446.787Zm-4.638-2.719.446-.788-2.319-1.359-.446.787Zm-4.64-2.719.446-.788-2.319-1.359-.446.787Z" transform="translate(3.068 202.97)"/><g transform="translate(421.832 267.61)"><g transform="translate(0)"><rect class="b" width="1.092" height="71.292"/></g></g><g transform="translate(421.832 342.867)"><g transform="translate(0)"><rect class="b" width="1.092" height="10.112"/></g></g><g transform="translate(250.952 328.602)"><g transform="translate(0)"><path class="b" d="M514.2,173.07h-1.091V140.318c-.007-.056-.76-10.348,8.783-14.686l.445,1.014c-8.822,4.011-8.171,13.234-8.138,13.625Z" transform="translate(-513.096 -125.632)"/></g></g><g transform="translate(250.948 380.063)"><g transform="translate(0)"><rect class="b" width="1.092" height="11.037"/></g></g><g transform="translate(284.355 387.758)"><g transform="translate(0.003 4.814)"><g transform="translate(0.547 0.556)"><path class="b" d="M485.983,204.194l-5.957.125a.55.55,0,0,1-.3-.078l-22.806-13.4a5.17,5.17,0,0,0-4.726-.2l-51.727,30.4a.658.658,0,0,1-.1.048l-17.172,5.873a.583.583,0,0,0-.391.554l0,4.393c-.147.618.234,1.31,1.122,1.831l28.5,16.753a5.17,5.17,0,0,0,4.726.2l68.608-40.325a1.41,1.41,0,0,0,.8-1.219v-4.371A.579.579,0,0,0,485.983,204.194Z" transform="translate(-382.774 -190.158)"/></g><path class="b" d="M417.422,251.173,486.03,210.85a1.952,1.952,0,0,0,1.077-1.7v-4.371a1.14,1.14,0,0,0-.336-.814.953.953,0,0,0-.807-.325l-5.971.122-22.806-13.4a5.683,5.683,0,0,0-5.272-.2l-51.732,30.4-17.172,5.873a1.139,1.139,0,0,0-.763,1.082l0,4.333a2.338,2.338,0,0,0,1.395,2.371l28.5,16.753a5.925,5.925,0,0,0,2.941.756A4.657,4.657,0,0,0,417.422,251.173Zm39.22-59.854,22.8,13.4a.859.859,0,0,0,.584.154l5.958-.126-.012-.555.04,4.961a.914.914,0,0,1-.531.733l-68.608,40.323a4.653,4.653,0,0,1-4.18-.2l-28.5-16.752c-.625-.368-.956-.835-.864-1.221l.031-4.551,17.174-5.874a1.217,1.217,0,0,0,.2-.092l51.727-30.4a3.573,3.573,0,0,1,1.773-.406A4.909,4.909,0,0,1,456.642,191.319Z" transform="translate(-382.219 -189.602)"/></g><g transform="translate(0.545 0.556)"><path class="c" d="M485.756,205.555l-68.608,40.324a5.167,5.167,0,0,1-4.726-.2l-28.5-16.752c-1.4-.822-1.551-2.066-.339-2.778l68.608-40.324a5.17,5.17,0,0,1,4.726.2l28.5,16.753C486.816,203.6,486.967,204.843,485.756,205.555Z" transform="translate(-382.76 -185.344)"/></g><path class="b" d="M417.409,246.359l68.608-40.323a1.97,1.97,0,0,0,1.091-1.688,2.514,2.514,0,0,0-1.431-2.052l-28.5-16.754a5.691,5.691,0,0,0-5.272-.2l-68.608,40.324a1.969,1.969,0,0,0-1.09,1.687,2.515,2.515,0,0,0,1.429,2.052l28.5,16.753a5.928,5.928,0,0,0,2.941.756A4.668,4.668,0,0,0,417.409,246.359Zm39.22-59.854,28.5,16.753c.554.325.884.733.884,1.09a.938.938,0,0,1-.545.726L416.863,245.4a4.659,4.659,0,0,1-4.18-.2l-28.5-16.753c-.554-.326-.885-.734-.885-1.091a.939.939,0,0,1,.545-.725L452.449,186.3a3.583,3.583,0,0,1,1.773-.4A4.906,4.906,0,0,1,456.63,186.505Z" transform="translate(-382.204 -184.788)"/><g transform="translate(32.445 61.904)"><g transform="translate(0)"><rect class="a" width="0.84" height="4.139"/></g></g><g transform="translate(3.249 45.407)"><g transform="translate(0)"><rect class="d" width="0.839" height="4.139"/></g></g><g transform="translate(100.857 22.234)"><g transform="translate(0)"><rect class="a" width="0.839" height="4.14"/></g></g></g><g transform="translate(254.869 245)"><g transform="translate(0.546 0.557)"><path class="c" d="M515.453,45.853a.157.157,0,0,0-.048-.227l-5.088-2.875a.907.907,0,0,0-1.07.019L355.458,133.157a3.685,3.685,0,0,0-1.5,2.924v119.8a1.453,1.453,0,0,0,.441,1.184l5.363,3.026,5.342-6.55L363,252.6l146.247-85.955a3.684,3.684,0,0,0,1.5-2.924V52.345Z" transform="translate(-353.954 -42.587)"/></g><path class="b" d="M365.973,253.324l-1.776-.791,145.312-85.406a4.24,4.24,0,0,0,1.777-3.4V52.528l4.594-6.343a.72.72,0,0,0,.123-.573.713.713,0,0,0-.344-.472l-5.018-2.828a1.431,1.431,0,0,0-1.678-.023L355.175,132.676a4.242,4.242,0,0,0-1.777,3.406V255.876a1.98,1.98,0,0,0,.722,1.67l5.759,3.251ZM510.042,43.236l4.7,2.654-4.544,6.273V163.722a3.124,3.124,0,0,1-1.23,2.443L361.781,252.67l2.425,1.08-4.589,5.629-4.9-2.762a.96.96,0,0,1-.224-.741V136.082a3.121,3.121,0,0,1,1.231-2.443L509.509,43.251a.606.606,0,0,1,.3-.1A.39.39,0,0,1,510.042,43.236Z" transform="translate(-353.398 -42.03)"/></g><g transform="translate(260.276 248.036)"><g transform="translate(0)"><g transform="translate(0.546 0.557)"><path class="b" d="M508.591,169.683,354.8,260.071c-.83.488-1.5-.03-1.5-1.157V139.119a3.684,3.684,0,0,1,1.5-2.924L508.591,45.807c.83-.488,1.5.03,1.5,1.157v119.8A3.685,3.685,0,0,1,508.591,169.683Z" transform="translate(-353.3 -45.623)"/></g><path class="b" d="M355.067,260.551l153.788-90.387a4.242,4.242,0,0,0,1.776-3.4V46.964a1.9,1.9,0,0,0-.793-1.719,1.465,1.465,0,0,0-1.528.081L354.522,135.713a4.242,4.242,0,0,0-1.777,3.406V258.914a1.9,1.9,0,0,0,.793,1.718,1.281,1.281,0,0,0,.658.179A1.713,1.713,0,0,0,355.067,260.551ZM509.293,46.207c.114.067.247.305.247.757v119.8a3.13,3.13,0,0,1-1.229,2.444L354.522,259.59c-.087.051-.306.163-.438.08-.114-.067-.247-.305-.247-.756V139.119a3.124,3.124,0,0,1,1.23-2.443L508.856,46.288a.724.724,0,0,1,.323-.109A.219.219,0,0,1,509.293,46.207Z" transform="translate(-352.745 -45.066)"/></g><g transform="translate(1.286 1.874)"><g transform="translate(0.546 0.556)"><path class="a" d="M508.39,167.447,355.05,257.572c-.244.143-.441-.009-.441-.34v-118.7a1.082,1.082,0,0,1,.441-.859L508.39,47.551c.245-.144.442.008.442.339v118.7A1.08,1.08,0,0,1,508.39,167.447Z" transform="translate(-354.609 -47.497)"/></g><path class="b" d="M355.314,258.053l153.341-90.125h0a1.626,1.626,0,0,0,.713-1.34V47.89a.939.939,0,0,0-.425-.845.806.806,0,0,0-.834.025l-153.34,90.124a1.621,1.621,0,0,0-.715,1.34v118.7a.938.938,0,0,0,.424.845.762.762,0,0,0,.387.106A.886.886,0,0,0,355.314,258.053Zm152.963-91.465a.57.57,0,0,1-.168.378l-152.964,89.9V138.534a.565.565,0,0,1,.169-.378l152.963-89.9Z" transform="translate(-354.054 -46.94)"/></g><g transform="translate(0 114.02)"><g transform="translate(0.546 0.962)"><path class="b" d="M510.1,166.9v-6.853L353.3,252.2v6.852c0,1.049.723,1.474,1.615.95l153.564-90.256A3.649,3.649,0,0,0,510.1,166.9Z" transform="translate(-353.3 -160.048)"/></g><path class="b" d="M355.179,260.485,508.743,170.23a4.21,4.21,0,0,0,1.889-3.329v-7.815L353.017,251.722l-.273.16v7.174a1.71,1.71,0,0,0,.747,1.545,1.35,1.35,0,0,0,.691.182A1.978,1.978,0,0,0,355.179,260.485Zm154.36-99.474v5.89a3.087,3.087,0,0,1-1.343,2.368L354.633,259.524a.656.656,0,0,1-.6.115.682.682,0,0,1-.2-.583v-6.533Z" transform="translate(-352.744 -159.086)"/></g><g transform="translate(68.808 159.202)"><path class="a" d="M-.179.009l.85.007L.85,23.046,0,23.039Z" transform="translate(0.323 12.291) rotate(-120.021)"/></g></g><g transform="translate(254.716 336.813)"><g transform="translate(0)"><path class="b" d="M-.009.064,6.166.112l.009,1.106L0,1.169Z" transform="translate(5.228 4.23) rotate(-149.021)"/></g></g><g transform="translate(254.716 450.319)"><g transform="translate(0)"><path class="b" d="M-.009.064,6.166.112l.009,1.106L0,1.17Z" transform="matrix(-0.857, -0.515, 0.515, -0.857, 5.228, 4.23)"/></g></g><g transform="translate(297.187 440.648)"><g transform="translate(0)"><path class="a" d="M472.433,240.39l-.421-.74,3.331-1.973.421.739Z" transform="translate(-472.012 -237.678)"/></g></g><g transform="translate(309.398 411.088)"><path class="b" d="M401.711,243.8a3.068,3.068,0,0,1-1.633-.471l-5.969-3.746.573-.946,5.969,3.745a1.986,1.986,0,0,0,2.065.035l59.079-34.3.541.964-59.079,34.3A3.064,3.064,0,0,1,401.711,243.8Z" transform="translate(-394.11 -208.118)"/></g><g transform="translate(377.256 402.345)"><g transform="translate(0)"><path class="b" d="M389.4,208.085l-.531-.97,4.378-2.485a.383.383,0,0,0,.007-.66l-6.1-3.637.551-.958,6.1,3.636a1.505,1.505,0,0,1-.027,2.59Z" transform="translate(-387.161 -199.375)"/></g></g><g transform="translate(254.425 446.194)"><g transform="translate(0)"><path class="b" d="M-.009.064,6.165.112l.009,1.107L0,1.17Z" transform="translate(5.228 4.23) rotate(-149.02)"/></g></g><g transform="translate(254.442 342.516)"><g transform="translate(0)"><path class="b" d="M-.009.064,6.165.112l.009,1.106L0,1.169Z" transform="translate(5.228 4.229) rotate(-149.021)"/></g></g><g transform="translate(288.263 306.74)"><path class="a" d="M387.039,177.385c0-14.89,10.306-33.06,22.972-40.5,5.913-3.475,11.309-4.255,15.594-1.99l.827.486,8.433,5.284,8.582-15.463.061-.11c4.338-7.64,10.1-13.832,16.232-17.434,6.65-3.909,12.409-4.247,16.608-1.388l.239.153,6.125,3.623-.356,6.6,0,0a27.646,27.646,0,0,1,.36,4.52c0,14.888-10.3,33.058-22.972,40.5-6.136,3.607-11.9,4.189-16.243,1.639l-.059-.035-8.574-5.373-8.936,16.1-.168.293c-4.278,7.25-9.871,13.146-15.75,16.6a21.127,21.127,0,0,1-9.521,3.158l-1.078,1.78-4.76-2.854a7.432,7.432,0,0,1-1.515-.876l-.321-.224h0C389.226,189.213,387.039,184.238,387.039,177.385Zm63.672-26.794c2.414,1.413,5.619,1.089,9.029-.915,7.046-4.141,12.778-14.248,12.778-22.53s-5.732-11.652-12.778-7.511a26.237,26.237,0,0,0-9.025,9.692l-8.756,15.779Zm-40.7,28.313a26.027,26.027,0,0,0,8.713-9.157l9.047-16.3-9-5.64c-2.379-1.239-5.488-.865-8.761,1.059-7.046,4.141-12.778,14.249-12.778,22.531S402.964,183.045,410.011,178.9Z" transform="translate(-386.458 -103.77)"/><path class="b" d="M399.577,196.626l1.218-2.011a21.906,21.906,0,0,0,9.476-3.218c5.963-3.505,11.629-9.475,15.956-16.808l.172-.3,8.644-15.578,8.06,5.052c4.6,2.7,10.573,2.122,16.9-1.6,12.827-7.538,23.262-25.938,23.262-41.015a28.18,28.18,0,0,0-.356-4.531l.374-6.91-6.652-3.947c-4.5-3.066-10.458-2.593-17.208,1.375-6.217,3.654-12.057,9.923-16.443,17.651l-.065.115-8.286,14.929-8.76-5.457c-4.414-2.334-10-1.64-16.175,1.99-12.827,7.539-23.262,25.938-23.262,41.016,0,6.779,2.139,12.093,6.019,14.962l.331.232a7.882,7.882,0,0,0,1.6.927Zm35.048-39.561-9.4,16.922c-4.224,7.159-9.743,12.982-15.538,16.388a20.524,20.524,0,0,1-9.26,3.079l-.3.015-.939,1.552-4.27-2.56a7.208,7.208,0,0,1-1.469-.846l-.334-.232c-3.559-2.632-5.525-7.607-5.525-14,0-14.7,10.175-32.643,22.682-39.993,5.817-3.42,11.017-4.1,15.036-1.978l.8.473,8.932,5.6,8.94-16.107c4.284-7.546,9.973-13.661,16.016-17.213,6.343-3.728,11.873-4.214,16-1.409l.25.162,5.837,3.453-.3,5.486-.19-.058.152.936a27.2,27.2,0,0,1,.352,4.42c0,14.7-10.175,32.642-22.682,39.993-5.949,3.5-11.513,4.079-15.663,1.639Zm-30.341,24.206a11.994,11.994,0,0,0,5.987-1.857h0a26.6,26.6,0,0,0,8.919-9.363l9.33-16.812-9.474-5.938c-2.6-1.356-5.91-.975-9.356,1.05-7.205,4.235-13.068,14.572-13.068,23.043,0,4.225,1.434,7.4,4.037,8.925A7.048,7.048,0,0,0,404.285,181.271Zm22.677-27.623-8.773,15.808a25.4,25.4,0,0,1-8.5,8.936h0c-3.222,1.894-6.221,2.214-8.452.9s-3.456-4.116-3.456-7.9c0-8.1,5.6-17.973,12.488-22.02,3.093-1.819,6.01-2.189,8.206-1.044Zm27.041-1.6a12.021,12.021,0,0,0,6-1.861c7.206-4.236,13.069-14.572,13.069-23.041,0-4.226-1.434-7.4-4.038-8.926s-6.017-1.209-9.61.9a26.831,26.831,0,0,0-9.237,9.908l-9.034,16.279,9.244,5.792A7.047,7.047,0,0,0,454,152.048Zm11.4-33.6a5.933,5.933,0,0,1,3.048.793c2.23,1.311,3.457,4.118,3.457,7.9,0,8.094-5.6,17.971-12.487,22.019-3.219,1.891-6.215,2.217-8.442.918l-8.27-5.182,8.482-15.284A25.65,25.65,0,0,1,460,120.146,10.882,10.882,0,0,1,465.4,118.449Z" transform="translate(-386.429 -103.77)"/></g><g transform="translate(294.615 310.584)"><path class="c" d="M403.584,140.627c5.913-3.476,11.531-4.142,15.817-1.877l.152.088,8.885,5.569,8.582-15.464.061-.109c4.338-7.641,10.1-13.833,16.232-17.435,12.667-7.445,22.972-1.388,22.972,13.5s-10.3,33.059-22.972,40.5c-6.136,3.606-11.9,4.188-16.243,1.638l-.059-.035-8.574-5.373-8.936,16.1-.168.293c-4.278,7.251-9.871,13.146-15.75,16.6-12.666,7.445-22.972,1.388-22.972-13.5S390.918,148.071,403.584,140.627Zm40.7,13.71c2.414,1.414,5.619,1.089,9.029-.915,7.046-4.141,12.778-14.248,12.778-22.53s-5.732-11.652-12.778-7.511a26.236,26.236,0,0,0-9.025,9.692l-8.756,15.779Zm-40.7,28.313a26.01,26.01,0,0,0,8.713-9.157l9.047-16.3-9-5.639c-2.379-1.24-5.488-.866-8.761,1.058-7.046,4.141-12.778,14.249-12.778,22.531S396.537,186.791,403.584,182.65Z" transform="translate(-380.033 -107.614)"/><path class="b" d="M393.332,198.417a21.12,21.12,0,0,0,10.53-3.274c5.963-3.5,11.63-9.474,15.957-16.808l.172-.3,8.644-15.577,8.06,5.051c4.6,2.7,10.574,2.123,16.9-1.594,12.826-7.539,23.261-25.938,23.261-41.015,0-7.422-2.5-12.975-7.027-15.638s-10.5-2.086-16.815,1.624c-6.216,3.654-12.057,9.922-16.444,17.651l-.065.116-8.285,14.929-8.542-5.346c-4.487-2.373-10.3-1.7-16.393,1.878-12.826,7.539-23.261,25.938-23.261,41.016,0,7.421,2.5,12.975,7.026,15.637A12.235,12.235,0,0,0,393.332,198.417Zm34.884-37.606-9.4,16.922c-4.224,7.161-9.744,12.982-15.538,16.389-5.94,3.49-11.5,4.069-15.656,1.623s-6.445-7.632-6.445-14.614c0-14.7,10.174-32.643,22.681-39.993h0c5.736-3.371,11.155-4.033,15.259-1.864l.134.078,9.381,5.878,8.938-16.106c4.285-7.547,9.974-13.662,16.018-17.214,5.94-3.492,11.5-4.067,15.655-1.625s6.445,7.634,6.445,14.616c0,14.7-10.174,32.642-22.681,39.992-5.948,3.5-11.512,4.077-15.663,1.639Zm-30.341,24.207a12,12,0,0,0,5.986-1.857,26.609,26.609,0,0,0,8.919-9.363l9.331-16.813-9.474-5.937c-2.6-1.357-5.909-.976-9.356,1.05-7.206,4.235-13.069,14.572-13.069,23.042,0,4.225,1.434,7.4,4.037,8.925A7.052,7.052,0,0,0,397.876,185.018Zm5.407-2.878c-3.222,1.892-6.224,2.213-8.451.9s-3.458-4.116-3.458-7.9c0-8.094,5.6-17.972,12.488-22.02,3.093-1.818,6.007-2.189,8.208-1.044l8.482,5.318L411.779,173.2a25.421,25.421,0,0,1-8.5,8.938Zm44.312-26.346a12.027,12.027,0,0,0,6-1.861c7.205-4.235,13.068-14.571,13.068-23.041,0-4.226-1.434-7.4-4.037-8.926s-6.018-1.208-9.611.9a26.831,26.831,0,0,0-9.237,9.908l-9.034,16.278,9.244,5.793A7.056,7.056,0,0,0,447.594,155.794Zm11.4-33.6a5.934,5.934,0,0,1,3.049.793c2.229,1.31,3.457,4.117,3.457,7.9,0,8.094-5.6,17.972-12.488,22.019-3.219,1.891-6.215,2.218-8.442.919l-8.269-5.183,8.482-15.284a25.634,25.634,0,0,1,8.809-9.471A10.871,10.871,0,0,1,458.994,122.2Z" transform="translate(-380.021 -107.614)"/></g><g transform="translate(371.171 324.591)"><path class="b" d="M397.254,143.1l-6.266-3.835,1.005-2.051,1.345-3.61.783-3.755.231-3.349-.231-2.5-.909-2.383,2.292.251,1.98.987,1.687,1.87.969,2.209.481,2.737.045,2.687-.564,3.28-.668,2.4-1.12,2.817Z" transform="translate(-390.989 -121.621)"/></g><g transform="translate(336.747 328.057)"><path class="b" d="M435.478,128.943l-6.252-3.856-8.643,15.573,6.313,3.746Z" transform="translate(-420.583 -125.087)"/></g><g transform="translate(320.536 356.414)"><path class="b" d="M442.854,173.493l-6.313-3.746,9.048-16.3,6.313,3.746Z" transform="translate(-436.541 -153.444)"/></g><g transform="translate(288.712 363.217)"><path class="b" d="M482.5,163.881l-6.374-3.634-1.714,4.613-1.273,4.825-.833,5.159.072,4.617.618,4.082,1.059,3.132,1.029,1.928,2.076,2.493,1.245,1,5.817,3.39-2.32-2.1-1.309-2.475-.9-2.25-.79-3.468-.279-4.518.437-5.077,1.027-4.828,1.478-4.587Z" transform="translate(-472.303 -160.247)"/></g><g transform="translate(346.772 324.799)"><path class="b" d="M-.009.077,7.327.136l.009,1.175L0,1.252Z" transform="translate(6.147 5.001) rotate(-148.073)"/></g><g transform="translate(367.34 307.387)"><path class="b" d="M-.009.077,7.327.136,7.336,1.31,0,1.251Z" transform="matrix(-0.849, -0.529, 0.529, -0.849, 6.145, 5.002)"/></g><g transform="translate(369.113 344.517)"><path class="b" d="M-.009.077,7.327.136l.009,1.175L0,1.252Z" transform="matrix(-0.849, -0.529, 0.529, -0.849, 6.147, 5)"/></g><g transform="translate(318.261 375.036)"><path class="b" d="M-.009.077,7.327.136l.009,1.175L0,1.252Z" transform="matrix(-0.849, -0.529, 0.529, -0.849, 6.147, 5)"/></g><g transform="translate(318.261 336.501)"><path class="b" d="M-.009.077,7.327.136l.009,1.175L0,1.252Z" transform="matrix(-0.849, -0.529, 0.529, -0.849, 6.147, 5)"/></g><g transform="translate(294.737 357.666)"><path class="b" d="M-.009.077,7.327.136l.009,1.175L0,1.252Z" transform="matrix(-0.849, -0.529, 0.529, -0.849, 6.147, 5)"/></g><g transform="translate(342.121 334.011)"><path class="a" d="M-.007.066,6.38.116l.007.9L0,.97Z" transform="matrix(-0.859, -0.512, 0.512, -0.859, 5.422, 4.151)"/></g><g transform="translate(327.325 360.668)"><path class="a" d="M-.007.066,6.38.116l.007.9L0,.97Z" transform="translate(5.422 4.152) rotate(-149.222)"/></g><g transform="translate(372.668 338.888)"><path class="a" d="M-.007.066,6.38.116l.007.9L0,.97Z" transform="matrix(-0.859, -0.512, 0.512, -0.859, 5.422, 4.151)"/></g><g transform="translate(290.451 369.578)"><path class="a" d="M-.007.066,6.38.116l.007.9L0,.97Z" transform="translate(5.423 4.151) rotate(-149.231)"/></g><g transform="translate(349.895 351.307)"><path class="b" d="M-.009.108,10.32.19l.009,1.175L0,1.283Z" transform="matrix(-0.852, -0.524, 0.524, -0.852, 8.689, 6.589)"/></g><g transform="translate(344.793 351.308)"><path class="b" d="M-.009.108,10.32.19l.009,1.175L0,1.283Z" transform="matrix(-0.852, -0.524, 0.524, -0.852, 8.689, 6.589)"/></g><g transform="translate(331.252 353.68)"><path class="b" d="M-.009.108,10.319.19l.009,1.175L0,1.283Z" transform="matrix(-0.852, -0.524, 0.524, -0.852, 8.688, 6.588)"/></g><g transform="translate(376.953 351.596)"><path class="b" d="M384.594,162.866a39.961,39.961,0,0,0,10.192-13.789l-1.072-.451a39.535,39.535,0,0,1-9.869,13.339Z" transform="translate(-383.844 -148.626)"/></g><g transform="translate(300.838 334.768)"><path class="b" d="M460,141.716c6.031-6.878,11.854-8.772,11.911-8.79l-.34-1.128c-.25.077-6.174,1.99-12.437,9.131Z" transform="translate(-459.135 -131.798)"/></g><g transform="translate(387.892 344.885)"><path class="b" d="M381.524,147.38a27.25,27.25,0,0,0,2.291-5.185l-1.128-.28a26.613,26.613,0,0,1-2.169,4.877Z" transform="translate(-380.518 -141.915)"/></g><g transform="translate(297.677 345.63)"><path class="b" d="M473.351,145.867c.618-.877,1.918-2.423,1.93-2.439l-.88-.768c-.054.065-1.347,1.6-1.993,2.519Z" transform="translate(-472.408 -142.66)"/></g><g transform="translate(367.333 346.76)"><path class="b" d="M-.009.033,3.107.058l.009,1.174L0,1.207Z" transform="matrix(-0.849, -0.529, 0.529, -0.849, 2.606, 2.698)"/></g><g transform="translate(348.555 322.404)"><path class="b" d="M-.009.033,3.108.058l.009,1.175L0,1.208Z" transform="translate(2.607 2.699) rotate(-148.076)"/></g><g transform="translate(367.784 310.488)"><path class="b" d="M-.009.033,3.108.058l.009,1.175L0,1.208Z" transform="matrix(-0.849, -0.529, 0.529, -0.849, 2.608, 2.699)"/></g><g transform="translate(316.935 377.006)"><path class="b" d="M-.009.033,3.107.058l.009,1.175L0,1.208Z" transform="matrix(-0.849, -0.529, 0.529, -0.849, 2.607, 2.698)"/></g><g transform="translate(299.631 357.264)"><path class="b" d="M-.009.033,3.108.058l.009,1.175L0,1.208Z" transform="translate(2.608 2.699) rotate(-148.08)"/></g><g transform="translate(315.613 337.635)"><path class="b" d="M-.009.033,3.108.058l.009,1.175L0,1.207Z" transform="matrix(-0.849, -0.529, 0.529, -0.849, 2.607, 2.699)"/></g><path class="c" d="M379.436,93.341a2.446,2.446,0,0,0,1.574-.7,4.712,4.712,0,0,0,1.566-3.3V75.808a1.669,1.669,0,0,0-1-1.73c-.81-.28-1.849.214-2.645,1.264l-9.28,12.221a3.959,3.959,0,0,0-.819,3.544,1.382,1.382,0,0,0,1.111.906l9.28,1.313A1.52,1.52,0,0,0,379.436,93.341ZM381.1,74.908a.578.578,0,0,1,.188.03c.345.12.4.6.4.87V89.342a3.807,3.807,0,0,1-1.259,2.615,1.5,1.5,0,0,1-1.081.47l-9.28-1.313a.489.489,0,0,1-.407-.35,3.1,3.1,0,0,1,.7-2.646l9.28-12.221A2.11,2.11,0,0,1,381.1,74.908Z" transform="translate(20.276 202.97)"/><path class="c" d="M369.932,103.32a1.752,1.752,0,0,0,.883-.264,3.774,3.774,0,0,0,1.694-2.987,1.509,1.509,0,0,0-.653-1.362,1.453,1.453,0,0,0-1.487.1,3.776,3.776,0,0,0-1.694,2.987,1.509,1.509,0,0,0,.654,1.363A1.178,1.178,0,0,0,369.932,103.32Zm1.317-3.865a.318.318,0,0,1,.161.038.666.666,0,0,1,.207.576,2.864,2.864,0,0,1-1.249,2.2.632.632,0,0,1-.593.105.661.661,0,0,1-.208-.576,2.867,2.867,0,0,1,1.248-2.2A.905.905,0,0,1,371.25,99.455Z" transform="translate(30.359 202.97)"/><path class="c" d="M369.932,109.129a1.752,1.752,0,0,0,.883-.264,3.774,3.774,0,0,0,1.694-2.987,1.51,1.51,0,0,0-.653-1.362,1.455,1.455,0,0,0-1.487.105,3.773,3.773,0,0,0-1.694,2.987,1.508,1.508,0,0,0,.654,1.362A1.178,1.178,0,0,0,369.932,109.129Zm1.317-3.865a.318.318,0,0,1,.161.038.666.666,0,0,1,.207.576,2.868,2.868,0,0,1-1.249,2.2.638.638,0,0,1-.593.1.664.664,0,0,1-.208-.576,2.869,2.869,0,0,1,1.248-2.2A.905.905,0,0,1,371.25,105.264Z" transform="translate(30.359 202.97)"/><path class="c" d="M369.932,114.938a1.752,1.752,0,0,0,.883-.264,3.774,3.774,0,0,0,1.694-2.987,1.51,1.51,0,0,0-.653-1.362,1.453,1.453,0,0,0-1.487.105,3.773,3.773,0,0,0-1.694,2.987,1.508,1.508,0,0,0,.654,1.362A1.178,1.178,0,0,0,369.932,114.938Zm1.317-3.865a.329.329,0,0,1,.161.038.666.666,0,0,1,.207.576,2.868,2.868,0,0,1-1.249,2.2.635.635,0,0,1-.593.1.663.663,0,0,1-.208-.576,2.868,2.868,0,0,1,1.248-2.2A.905.905,0,0,1,371.25,111.073Z" transform="translate(30.359 202.97)"/><path class="c" d="M369.932,120.747a1.76,1.76,0,0,0,.883-.263,3.777,3.777,0,0,0,1.694-2.988,1.51,1.51,0,0,0-.653-1.362,1.453,1.453,0,0,0-1.487.1,3.773,3.773,0,0,0-1.694,2.986,1.511,1.511,0,0,0,.654,1.364A1.177,1.177,0,0,0,369.932,120.747Zm1.317-3.865a.329.329,0,0,1,.161.038.666.666,0,0,1,.207.576,2.864,2.864,0,0,1-1.249,2.2.635.635,0,0,1-.593.105.663.663,0,0,1-.208-.577,2.864,2.864,0,0,1,1.248-2.2A.9.9,0,0,1,371.25,116.882Z" transform="translate(30.359 202.97)"/><path class="c" d="M369.932,126.557a1.761,1.761,0,0,0,.883-.264,3.777,3.777,0,0,0,1.694-2.987,1.51,1.51,0,0,0-.653-1.363,1.455,1.455,0,0,0-1.487.1,3.773,3.773,0,0,0-1.694,2.987,1.51,1.51,0,0,0,.654,1.363A1.178,1.178,0,0,0,369.932,126.557Zm1.317-3.866a.318.318,0,0,1,.161.039.664.664,0,0,1,.207.576,2.864,2.864,0,0,1-1.249,2.2.635.635,0,0,1-.593.105.663.663,0,0,1-.208-.576,2.866,2.866,0,0,1,1.248-2.2A.9.9,0,0,1,371.25,122.691Z" transform="translate(30.359 202.97)"/><path class="c" d="M369.932,132.433a1.762,1.762,0,0,0,.883-.264,3.774,3.774,0,0,0,1.694-2.987,1.51,1.51,0,0,0-.654-1.363,1.454,1.454,0,0,0-1.486.105,3.776,3.776,0,0,0-1.694,2.987,1.509,1.509,0,0,0,.654,1.363A1.178,1.178,0,0,0,369.932,132.433Zm1.317-3.865a.312.312,0,0,1,.16.038.663.663,0,0,1,.208.576,2.868,2.868,0,0,1-1.249,2.2.637.637,0,0,1-.593.1.663.663,0,0,1-.208-.576,2.867,2.867,0,0,1,1.248-2.2A.9.9,0,0,1,371.25,128.568Z" transform="translate(30.359 202.97)"/><path class="c" d="M369.932,149.86a1.751,1.751,0,0,0,.883-.264,3.772,3.772,0,0,0,1.694-2.986,1.509,1.509,0,0,0-.654-1.363,1.454,1.454,0,0,0-1.486.1,3.776,3.776,0,0,0-1.694,2.987,1.509,1.509,0,0,0,.654,1.363A1.178,1.178,0,0,0,369.932,149.86Zm1.317-3.865a.312.312,0,0,1,.16.038.665.665,0,0,1,.208.577,2.862,2.862,0,0,1-1.249,2.2.632.632,0,0,1-.593.1.661.661,0,0,1-.208-.576,2.867,2.867,0,0,1,1.248-2.2A.905.905,0,0,1,371.25,145.995Z" transform="translate(30.359 202.97)"/><path class="c" d="M491.18,229.038l3.772-2.217v-1.964a14.593,14.593,0,0,0,2.865-3.612l1.456.133,1.775-4.659-1.509-.139a9.83,9.83,0,0,0,.191-1.832,6.858,6.858,0,0,0-.238-1.8l1.483-1.879L499,208.206l-1.541,1.952a3.9,3.9,0,0,0-2.509-.275v-2.116l-3.772,2.218v1.964a14.613,14.613,0,0,0-2.866,3.611l-1.454-.132-1.775,4.659,1.509.138a9.885,9.885,0,0,0-.192,1.833,6.846,6.846,0,0,0,.239,1.8l-1.484,1.879,1.974,2.858,1.54-1.952a3.893,3.893,0,0,0,2.509.275Zm2.88-2.742-1.988,1.169V225.73l-.575.178a3.128,3.128,0,0,1-2.7-.226l-.338-.221-1.285,1.629-.907-1.312,1.356-1.718-.068-.228a6.1,6.1,0,0,1-.265-1.774,9.9,9.9,0,0,1,.274-2.14l.111-.506-1.335-.121,1.105-2.9,1.359.124.141-.258a13.7,13.7,0,0,1,2.967-3.757l.156-.136V210.51l1.988-1.169v1.734l.576-.177a3.141,3.141,0,0,1,2.7.226l.338.221,1.286-1.629.906,1.312-1.356,1.717.068.229a6.071,6.071,0,0,1,.265,1.774,9.973,9.973,0,0,1-.273,2.14l-.111.506,1.335.121-1.105,2.9-1.361-.125-.14.259a13.7,13.7,0,0,1-2.966,3.756l-.157.137Zm-2.15-4.054a2.228,2.228,0,0,0,.645-.1h0a5.79,5.79,0,0,0,3.435-6.058,1.942,1.942,0,0,0-.881-1.285,1.89,1.89,0,0,0-1.532-.135,5.79,5.79,0,0,0-3.436,6.059,1.937,1.937,0,0,0,.88,1.282A1.724,1.724,0,0,0,491.91,222.242Zm.39-.971a1.023,1.023,0,0,1-.832-.051,1.06,1.06,0,0,1-.459-.706,5,5,0,0,1,2.824-4.979,1.016,1.016,0,0,1,.831.051,1.063,1.063,0,0,1,.459.707,4.993,4.993,0,0,1-2.823,4.978Z" transform="translate(-213.045 202.97)"/><path class="c" d="M498.543,160.623a1.751,1.751,0,0,0,.882-.264,3.771,3.771,0,0,0,1.694-2.987,1.51,1.51,0,0,0-.653-1.362,1.453,1.453,0,0,0-1.487.105,3.772,3.772,0,0,0-1.694,2.986,1.511,1.511,0,0,0,.654,1.364A1.19,1.19,0,0,0,498.543,160.623Zm1.317-3.865a.322.322,0,0,1,.16.038.666.666,0,0,1,.207.576,2.866,2.866,0,0,1-1.249,2.2.638.638,0,0,1-.593.1.663.663,0,0,1-.208-.577,2.867,2.867,0,0,1,1.248-2.2A.905.905,0,0,1,499.861,156.758Z" transform="translate(-225.112 202.97)"/><path class="c" d="M498.543,178.05a1.761,1.761,0,0,0,.882-.264,3.769,3.769,0,0,0,1.694-2.986,1.505,1.505,0,0,0-.653-1.362,1.459,1.459,0,0,0-1.487.1,3.781,3.781,0,0,0-1.694,2.988,1.506,1.506,0,0,0,.654,1.362A1.172,1.172,0,0,0,498.543,178.05Zm1.316-3.865a.323.323,0,0,1,.161.038.667.667,0,0,1,.207.577,2.86,2.86,0,0,1-1.249,2.2.636.636,0,0,1-.593.106.663.663,0,0,1-.208-.576,2.871,2.871,0,0,1,1.248-2.2A.905.905,0,0,1,499.86,174.185Z" transform="translate(-225.112 202.97)"/><path class="c" d="M498.543,183.859a1.751,1.751,0,0,0,.882-.264,3.768,3.768,0,0,0,1.694-2.986,1.505,1.505,0,0,0-.653-1.362,1.457,1.457,0,0,0-1.487.1,3.781,3.781,0,0,0-1.694,2.988,1.509,1.509,0,0,0,.654,1.363A1.181,1.181,0,0,0,498.543,183.859Zm1.316-3.865a.323.323,0,0,1,.161.038.669.669,0,0,1,.207.577,2.86,2.86,0,0,1-1.249,2.2.636.636,0,0,1-.593.106.663.663,0,0,1-.208-.576,2.871,2.871,0,0,1,1.248-2.2A.905.905,0,0,1,499.86,179.994Z" transform="translate(-225.112 202.97)"/><path class="c" d="M498.543,189.736a1.761,1.761,0,0,0,.882-.264,3.77,3.77,0,0,0,1.694-2.987,1.508,1.508,0,0,0-.653-1.362,1.455,1.455,0,0,0-1.487.1,3.774,3.774,0,0,0-1.694,2.987,1.508,1.508,0,0,0,.654,1.363A1.172,1.172,0,0,0,498.543,189.736Zm1.317-3.865a.312.312,0,0,1,.16.038.666.666,0,0,1,.207.576,2.861,2.861,0,0,1-1.249,2.2.636.636,0,0,1-.593.106.665.665,0,0,1-.208-.577,2.864,2.864,0,0,1,1.248-2.2A.905.905,0,0,1,499.861,185.871Z" transform="translate(-225.112 202.97)"/><path class="c" d="M498.543,195.545a1.761,1.761,0,0,0,.882-.264,3.769,3.769,0,0,0,1.694-2.986,1.508,1.508,0,0,0-.653-1.363,1.457,1.457,0,0,0-1.487.1,3.776,3.776,0,0,0-1.694,2.987,1.508,1.508,0,0,0,.654,1.363A1.172,1.172,0,0,0,498.543,195.545Zm1.317-3.865a.312.312,0,0,1,.16.038.667.667,0,0,1,.207.577,2.861,2.861,0,0,1-1.249,2.2.636.636,0,0,1-.593.106.665.665,0,0,1-.208-.577,2.866,2.866,0,0,1,1.248-2.2A.905.905,0,0,1,499.861,191.68Z" transform="translate(-225.112 202.97)"/><path class="c" d="M498.543,201.354a1.761,1.761,0,0,0,.882-.264,3.769,3.769,0,0,0,1.694-2.986,1.508,1.508,0,0,0-.653-1.363,1.46,1.46,0,0,0-1.487.1,3.776,3.776,0,0,0-1.694,2.987,1.507,1.507,0,0,0,.654,1.363A1.172,1.172,0,0,0,498.543,201.354Zm1.317-3.865a.322.322,0,0,1,.16.038.667.667,0,0,1,.207.577,2.86,2.86,0,0,1-1.249,2.2.639.639,0,0,1-.593.106.665.665,0,0,1-.208-.577,2.866,2.866,0,0,1,1.248-2.2A.905.905,0,0,1,499.861,197.489Z" transform="translate(-225.112 202.97)"/><path class="c" d="M498.543,207.163a1.751,1.751,0,0,0,.882-.264,3.769,3.769,0,0,0,1.694-2.986,1.505,1.505,0,0,0-.653-1.362,1.457,1.457,0,0,0-1.487.1,3.776,3.776,0,0,0-1.694,2.987,1.51,1.51,0,0,0,.654,1.364A1.181,1.181,0,0,0,498.543,207.163Zm1.317-3.865a.322.322,0,0,1,.16.038.669.669,0,0,1,.207.577,2.861,2.861,0,0,1-1.249,2.2.633.633,0,0,1-.593.106.663.663,0,0,1-.208-.577,2.866,2.866,0,0,1,1.248-2.2A.905.905,0,0,1,499.861,203.3Z" transform="translate(-225.112 202.97)"/><path class="c" d="M483.491,271.3l2.317-1.362-.446-.786-2.317,1.362Zm-2.764-.974.446-.785-2.317-1.363-.446.786Zm7.4-1.749,2.317-1.363-.446-.786-2.317,1.363Zm-12.035-.975.446-.786-2.318-1.362-.446.786ZM491,265.848l.446-.786-2.317-1.362-.446.786Zm-15.778-.2,2.318-1.363-.446-.786-2.318,1.364Zm11.142-2.525.446-.785-2.317-1.363-.446.786Zm-6.507-.2,2.317-1.362-.446-.786-2.317,1.362Z" transform="translate(-192.284 202.97)"/></g></svg>