<svg xmlns="http://www.w3.org/2000/svg" width="273.94" height="260.396" viewBox="0 0 273.94 260.396"><defs><style>.a{fill:#2268dd;}.b{fill:#150035;}.c{fill:#fff;}.d{fill:#39a1ff;}</style></defs><g transform="translate(-545 -477)"><path class="a" d="M528.724,176.838l-19.279.031a.411.411,0,0,0-.4.423l.008,42.416h.006a2.43,2.43,0,0,0,1.316,1.789l5.8,3.571a5.705,5.705,0,0,0,5.428.239l6.582-4.049a1.687,1.687,0,0,0,.926-1.55h.006V177.261A.41.41,0,0,0,528.724,176.838Z" transform="translate(271.453 439.353)"/><path class="b" d="M519.2,226.521a6.538,6.538,0,0,1-3.362-.9l-5.8-3.57a3.359,3.359,0,0,1-1.492-1.705h-.12l-.007-.634-.008-42.415a1.028,1.028,0,0,1,.991-1.057l19.28-.031a1.027,1.027,0,0,1,.992,1.057v43.08h-.071a2.49,2.49,0,0,1-1.158,1.465l-6.582,4.05A5.142,5.142,0,0,1,519.2,226.521Zm-9.594-6.909,0,.05a1.873,1.873,0,0,0,1.02,1.287l5.8,3.57a5.173,5.173,0,0,0,4.833.24l6.582-4.05a1.109,1.109,0,0,0,.631-.956l-.045-.68h.049v-41.6L509.6,177.5Z" transform="translate(271.492 439.353)"/><path class="b" d="M529.434,176.857l-8.873.014v48.995a4.2,4.2,0,0,0,1.757-.54l6.582-4.049a1.687,1.687,0,0,0,.926-1.55h.006V177.28A.41.41,0,0,0,529.434,176.857Z" transform="translate(270.743 439.353)"/><path class="c" d="M528.189,178.42l-6.582,4.05a5.706,5.706,0,0,1-5.428-.24l-5.8-3.57c-1.606-.989-1.78-2.484-.389-3.34l6.582-4.05a5.7,5.7,0,0,1,5.427.24l5.8,3.57C529.406,176.069,529.581,177.564,528.189,178.42Z" transform="translate(271.453 439.353)"/><path class="b" d="M519.2,183.683a6.538,6.538,0,0,1-3.362-.9l-5.8-3.57a3,3,0,0,1-1.626-2.438,2.346,2.346,0,0,1,1.237-2l6.582-4.05a6.233,6.233,0,0,1,6.023.24l5.8,3.57a2.991,2.991,0,0,1,1.627,2.437,2.345,2.345,0,0,1-1.237,2l-6.582,4.05A5.132,5.132,0,0,1,519.2,183.683Zm-.325-12.356a3.991,3.991,0,0,0-2.053.492l-6.582,4.05a1.157,1.157,0,0,0-.642.9,1.832,1.832,0,0,0,1.031,1.341l5.8,3.57a5.17,5.17,0,0,0,4.833.24l6.582-4.05a1.156,1.156,0,0,0,.643-.9,1.83,1.83,0,0,0-1.033-1.339l-5.8-3.571A5.459,5.459,0,0,0,518.88,171.327Z" transform="translate(271.492 439.353)"/><rect class="b" width="1.19" height="42.806" transform="translate(787.66 621.911)"/><rect class="a" width="0.915" height="39.38" transform="translate(797.86 620.205)"/><path class="a" d="M514.353,213.422l-19.279.031a.411.411,0,0,0-.4.423l.008,20.965h.006a2.431,2.431,0,0,0,1.316,1.79l5.8,3.57a5.706,5.706,0,0,0,5.428.24l6.582-4.05a1.686,1.686,0,0,0,.926-1.55h.006v-21A.41.41,0,0,0,514.353,213.422Z" transform="translate(272.339 439.353)"/><path class="b" d="M504.834,241.654a6.537,6.537,0,0,1-3.362-.9l-5.8-3.571a3.357,3.357,0,0,1-1.492-1.7h-.12l-.007-.634-.008-20.965a1.027,1.027,0,0,1,.991-1.057l19.28-.032a1.028,1.028,0,0,1,.992,1.057v21.631h-.07a2.49,2.49,0,0,1-1.159,1.464l-6.582,4.051A5.141,5.141,0,0,1,504.834,241.654Zm-9.594-6.908,0,.049a1.875,1.875,0,0,0,1.02,1.288l5.8,3.57a5.178,5.178,0,0,0,4.832.24l6.582-4.05a1.109,1.109,0,0,0,.631-.956l-.046-.68h.05V214.056l-18.882.03Z" transform="translate(272.378 439.353)"/><path class="b" d="M515.063,213.441l-8.873.014V241a4.2,4.2,0,0,0,1.757-.54l6.582-4.05a1.686,1.686,0,0,0,.926-1.55h.006v-21A.41.41,0,0,0,515.063,213.441Z" transform="translate(271.629 439.353)"/><path class="c" d="M513.818,215l-6.582,4.049a5.705,5.705,0,0,1-5.428-.239l-5.8-3.571c-1.606-.988-1.781-2.483-.39-3.339l6.582-4.05a5.7,5.7,0,0,1,5.427.24l5.8,3.57C515.035,212.652,515.21,214.148,513.818,215Z" transform="translate(272.339 439.353)"/><path class="b" d="M504.834,220.266a6.547,6.547,0,0,1-3.362-.9l-5.8-3.57a3,3,0,0,1-1.626-2.438,2.347,2.347,0,0,1,1.237-2l6.582-4.05a6.236,6.236,0,0,1,6.023.24l5.8,3.57a3,3,0,0,1,1.627,2.438,2.343,2.343,0,0,1-1.237,2l-6.582,4.05A5.141,5.141,0,0,1,504.834,220.266Zm-.325-12.355a4,4,0,0,0-2.053.491l-6.582,4.05a1.157,1.157,0,0,0-.642.9,1.831,1.831,0,0,0,1.031,1.341l5.8,3.57a5.175,5.175,0,0,0,4.832.24l6.582-4.049a1.156,1.156,0,0,0,.643-.9,1.83,1.83,0,0,0-1.033-1.34l-5.8-3.571A5.459,5.459,0,0,0,504.509,207.911Z" transform="translate(272.378 439.353)"/><rect class="b" width="1.19" height="21.357" transform="translate(774.175 658.494)"/><rect class="a" width="0.915" height="17.93" transform="translate(784.375 656.788)"/><path class="a" d="M541.883,234.389l-19.279.031a.41.41,0,0,0-.4.423l.007,6.34h.006a2.435,2.435,0,0,0,1.317,1.79l5.8,3.57a5.706,5.706,0,0,0,5.428.24l6.581-4.05a1.687,1.687,0,0,0,.927-1.55h0v-6.371A.41.41,0,0,0,541.883,234.389Z" transform="translate(270.642 439.353)"/><path class="b" d="M532.363,248a6.541,6.541,0,0,1-3.361-.9l-5.8-3.571a3.365,3.365,0,0,1-1.492-1.7h-.12l-.007-.633-.007-6.34a1.028,1.028,0,0,1,.991-1.058l19.28-.031a1.027,1.027,0,0,1,.992,1.056v7.006h-.07a2.491,2.491,0,0,1-1.159,1.464l-6.581,4.05A5.139,5.139,0,0,1,532.363,248Zm-9.594-6.909,0,.05a1.873,1.873,0,0,0,1.02,1.287l5.8,3.571a5.174,5.174,0,0,0,4.833.238l6.582-4.049a1.106,1.106,0,0,0,.631-.955l-.046-.68h.05v-5.526l-18.882.03Z" transform="translate(270.681 439.353)"/><path class="b" d="M542.593,234.408l-8.873.014v12.919a4.19,4.19,0,0,0,1.757-.54l6.582-4.049a1.687,1.687,0,0,0,.927-1.55h0v-6.371A.409.409,0,0,0,542.593,234.408Z" transform="translate(269.932 439.353)"/><path class="c" d="M541.348,235.97l-6.582,4.05a5.705,5.705,0,0,1-5.428-.239l-5.8-3.571c-1.607-.988-1.781-2.483-.39-3.339l6.582-4.05a5.7,5.7,0,0,1,5.427.24l5.8,3.57C542.565,233.619,542.74,235.114,541.348,235.97Z" transform="translate(270.642 439.353)"/><path class="b" d="M532.365,241.233a6.548,6.548,0,0,1-3.363-.9l-5.8-3.571a2.994,2.994,0,0,1-1.626-2.437,2.345,2.345,0,0,1,1.237-2l6.582-4.051a6.238,6.238,0,0,1,6.023.24l5.8,3.571a2.993,2.993,0,0,1,1.626,2.437,2.346,2.346,0,0,1-1.237,2l-6.582,4.05A5.143,5.143,0,0,1,532.365,241.233Zm-.326-12.355a4,4,0,0,0-2.053.492l-6.581,4.049a1.157,1.157,0,0,0-.642.9,1.832,1.832,0,0,0,1.031,1.341l5.8,3.57a5.177,5.177,0,0,0,4.833.239l6.582-4.049a1.156,1.156,0,0,0,.643-.9,1.829,1.829,0,0,0-1.032-1.34l-5.8-3.571A5.471,5.471,0,0,0,532.039,228.878Z" transform="translate(270.681 439.353)"/><rect class="b" width="1.19" height="6.731" transform="translate(800.007 679.461)"/><rect class="a" width="0.915" height="3.305" transform="translate(810.208 677.755)"/><path class="a" d="M366.737,263.138l17.481-1.532h.006l2.558,1.847,0,0a25.025,25.025,0,0,1,10.416,3.085,15.6,15.6,0,0,1,2.68,1.982h.008l3.139-.6a.009.009,0,0,1,.011.009l.009,7.048-.008.006c-.006,2.985-1.848,5.972-5.547,8.256-7.417,4.58-19.454,4.6-26.884.044a15.569,15.569,0,0,1-2.26-1.682l0-.007-.01-7.039a.01.01,0,0,1,.007-.01l8.31-1.587a.01.01,0,0,0,0-.019l-9.908-2.752a.009.009,0,0,1-.007-.009l-.01-7.035A.01.01,0,0,1,366.737,263.138Z" transform="translate(280.228 439.353)"/><path class="b" d="M403.492,274.982l-.008.31-.007,0c-.129,3.19-2.169,6.158-5.777,8.386-7.537,4.653-19.81,4.672-27.359.044a15.972,15.972,0,0,1-2.372-1.776l-.129-.154-.012-7.668,6.625-1.264-7.9-2.2-.321-.13-.009-7.369-.009-.458,17.918-1.608.181-.02,2.6,1.88A25.241,25.241,0,0,1,397.4,266.1a16.181,16.181,0,0,1,2.588,1.888l2.9-.553.223-.054.371.3Zm-36.319-11.377.009,6.194,9.567,2.657.367.117-.035.816-8.3,1.578.006,6.4a15.289,15.289,0,0,0,2.029,1.486c7.287,4.468,19.135,4.449,26.41-.042,3.419-2.112,5.3-4.89,5.31-7.821v-6.459l-2.555.487-.251.066-.19-.176a15.076,15.076,0,0,0-2.6-1.919,24.522,24.522,0,0,0-10.282-3.033l-2.594-1.828Z" transform="translate(280.26 439.353)"/><path class="c" d="M384,267.936l-17.259-4.793a.01.01,0,0,1,0-.016,14.612,14.612,0,0,1,5.5-4.343c7.375-3.583,18.184-3.288,24.956.706,7.7,4.541,7.8,12.069.291,16.7-7.418,4.58-19.455,4.6-26.884.044a15.523,15.523,0,0,1-2.251-1.674.01.01,0,0,1,0-.017L384,267.955A.011.011,0,0,0,384,267.936Z" transform="translate(280.228 439.353)"/><path class="b" d="M403.48,267.852c.03,3.336-2.027,6.454-5.793,8.778-7.536,4.654-19.809,4.674-27.358.045A16.037,16.037,0,0,1,368,274.946l-.212-.2.11-.568,14.568-6.134-15.921-4.424-.241-.1-.121-.509.145-.2a15.083,15.083,0,0,1,5.675-4.491c7.551-3.669,18.463-3.358,25.381.723a13.647,13.647,0,0,1,4.793,4.452A8.391,8.391,0,0,1,403.48,267.852Zm-19.393-.4.341.1.036.747L369.24,274.7a15.278,15.278,0,0,0,1.562,1.1c7.287,4.468,19.135,4.449,26.409-.043,3.458-2.135,5.347-4.937,5.319-7.892-.028-3-2.017-5.815-5.6-7.929-6.681-3.941-17.226-4.238-24.529-.689a14.718,14.718,0,0,0-4.855,3.607Z" transform="translate(280.262 439.353)"/><path class="c" d="M368.494,274.531l15.624-6.579a.008.008,0,0,1,.009.011l-5.378,11.2h0a23.381,23.381,0,0,1-8.043-2.932,15.543,15.543,0,0,1-2.222-1.648A.035.035,0,0,1,368.494,274.531Z" transform="translate(280.121 439.353)"/><path class="b" d="M378.98,279.73l-.343-.063a23.925,23.925,0,0,1-8.2-2.992,16.014,16.014,0,0,1-2.3-1.7l-.212-.216.1-.586,15.85-6.677.329-.159.451.55Zm-8.07-3.932a22.813,22.813,0,0,0,7.542,2.807l4.656-9.7L369.347,274.7A15.352,15.352,0,0,0,370.91,275.8Z" transform="translate(280.154 439.353)"/><g transform="translate(658.873 707.337)"><path class="b" d="M384.79,267.99c0-.008.022-.006.022,0l.016,11.648h0a30.191,30.191,0,0,1-5.4-.48Z" transform="translate(-379.428 -267.985)"/></g><g transform="translate(648.372 713.912)"><path class="b" d="M371.964,277v6.947a15.226,15.226,0,0,1-3.727-2.481l.191-6.906Z" transform="translate(-368.237 -274.56)"/></g><g transform="translate(658.156 706.745)"><path class="b" d="M385.257,280.146h-.475a30.58,30.58,0,0,1-5.48-.487l-.638-.115,5.655-11.785.173-.368.747.2Zm-.951-1.015-.013-9.094-4.192,8.734A29.659,29.659,0,0,0,384.306,279.131Z" transform="translate(-378.664 -267.392)"/></g><path class="a" d="M385.145,279.662l-.016-11.628c0-.009.019-.01.022,0l3.836,11.378a30.7,30.7,0,0,1-3.841.252Z" transform="translate(279.094 439.353)"/><path class="b" d="M389.6,279.836l-.591.076a30.884,30.884,0,0,1-3.9.255h-.474l-.017-12.13,0-.436.805-.141Zm-1.3-.858-2.729-8.1.011,8.268C386.486,279.135,387.4,279.077,388.305,278.978Z" transform="translate(279.125 439.353)"/><rect class="b" width="0.95" height="7.059" transform="translate(658.397 718.515) rotate(-0.102)"/><rect class="b" width="0.95" height="7.059" transform="matrix(1, -0.002, 0.002, 1, 678.937, 714.239)"/><rect class="b" width="0.95" height="7.059" transform="matrix(1, -0.002, 0.002, 1, 676.805, 715.902)"/><rect class="b" width="0.95" height="7.059" transform="translate(650.591 703.796) rotate(-0.102)"/><path class="b" d="M374.359,287.2a17.406,17.406,0,0,1-7.555-3.8,3.117,3.117,0,0,1-1.057-2.139l-.175-2.349-.947.081.175,2.349a4.144,4.144,0,0,0,1.413,2.85,18.338,18.338,0,0,0,7.97,4.007Z" transform="translate(280.358 439.353)"/><path class="b" d="M.036.01,1.047,0,1.015,3.6,0,3.6Z" transform="matrix(0.138, -0.99, 0.99, 0.138, 656.709, 728.085)"/><path class="b" d="M384.9,252.935a19.28,19.28,0,0,0-7.591.92l.306.959a18.687,18.687,0,0,1,7.2-.871Z" transform="translate(279.576 439.353)"/><path class="b" d="M.024.074,3,.009l-.021,1L0,1.078Z" transform="translate(652.791 694.808) rotate(-21.467)"/><path class="b" d="M351.659,254.356a9.105,9.105,0,0,0,4.653-1.283l-.545-1.041a8.027,8.027,0,0,1-8.361-.087l-24.327-15.113-.563,1.03,24.327,15.113A9.118,9.118,0,0,0,351.659,254.356Z" transform="translate(282.954 439.353)"/><path class="b" d="M360.383,252.005a4.713,4.713,0,0,0,.877-5.881l-.943.642a3.5,3.5,0,0,1-.667,4.338Z" transform="translate(280.665 439.353)"/><path class="b" d="M318.851,210.516h0v-5.168l-1.2.246a19.311,19.311,0,0,0-7.6-7.886c-6.063-3.73-13.337-10.035-21.281-9.917-7.457.111-15.591,6.416-21.282,9.917a19.308,19.308,0,0,0-7.606,7.893l-1.2-.253-.008,5.452v0h0c0,4.738,2.939,9.477,8.815,13.092,11.754,7.232,30.81,7.232,42.562,0C316.041,220.207,318.971,215.35,318.851,210.516Zm-14.292,10c-4.361,2.684-10.431-.771-16.146-.771s-11.079,3.455-15.441.771c-8.722-5.366-8.722-14.068,0-19.435s22.864-5.366,31.586,0S313.281,215.152,304.559,220.519Z" transform="translate(286.891 439.353)"/><path class="b" d="M267.167,224.412c-5.864-3.609-9.094-8.441-9.1-13.613l.011-6.177,1.456.307a20.359,20.359,0,0,1,7.628-7.737c.985-.607,2.045-1.3,3.162-2.027,5.38-3.509,12.077-7.876,18.391-7.97h.229c6.405,0,12.3,3.976,17.511,7.489,1.34.9,2.6,1.755,3.828,2.509a20.337,20.337,0,0,1,7.626,7.733l1.462-.3v6.012c.072,5.233-3.15,10.121-9.087,13.773s-13.752,5.486-21.56,5.486S273.111,228.07,267.167,224.412Zm51.089-18.343-.952.194-.19-.4a18.894,18.894,0,0,0-7.384-7.638c-1.243-.765-2.518-1.623-3.866-2.534-5.081-3.426-10.832-7.3-16.915-7.3-.07,0-.142,0-.212,0-6.006.089-12.558,4.361-17.822,7.795-1.126.734-2.194,1.43-3.188,2.041a18.891,18.891,0,0,0-7.387,7.645l-.191.4-.949-.2-.007,4.73c0,4.723,3.031,9.189,8.534,12.576,11.581,7.125,30.422,7.124,42,0h0c5.617-3.456,8.644-8.019,8.525-12.847l-.009-.479.011,0Zm-23.617,15.194a30.087,30.087,0,0,0-6.263-.918,27.286,27.286,0,0,0-6.122.936c-3.437.8-6.683,1.55-9.6-.246-4.4-2.706-6.822-6.341-6.822-10.233s2.423-7.527,6.822-10.234c8.865-5.454,23.286-5.453,32.147,0,4.4,2.707,6.822,6.341,6.822,10.234s-2.423,7.527-6.822,10.233a7.94,7.94,0,0,1-4.286,1.106A28.562,28.562,0,0,1,294.639,221.263Zm.224-1.168c3.5.764,6.813,1.486,9.378-.091,4.039-2.486,6.262-5.754,6.262-9.2s-2.224-6.716-6.262-9.2c-8.552-5.262-22.472-5.262-31.026,0-4.039,2.486-6.262,5.754-6.262,9.2s2.224,6.716,6.262,9.2c2.539,1.562,5.44.89,8.8.111a28.1,28.1,0,0,1,6.359-.964A30.855,30.855,0,0,1,294.863,220.1Z" transform="translate(286.928 439.353)"/><path class="a" d="M310.046,191.937c-11.753-7.232-30.809-7.232-42.562,0s-11.753,18.956,0,26.188,30.81,7.231,42.562,0S321.8,199.168,310.046,191.937Zm-5.487,22.811c-8.723,5.367-22.865,5.367-31.586,0s-8.723-14.068,0-19.435,22.864-5.367,31.586,0S313.281,209.381,304.559,214.748Z" transform="translate(286.891 439.353)"/><path class="b" d="M267.167,218.641c-5.865-3.608-9.094-8.442-9.094-13.61s3.23-10,9.094-13.61c11.89-7.316,31.234-7.317,43.121,0,5.866,3.607,9.1,8.441,9.1,13.61s-3.23,10-9.1,13.61h0c-5.944,3.658-13.75,5.487-21.56,5.486S273.111,222.3,267.167,218.641Zm.559-26.189c-5.5,3.387-8.534,7.855-8.534,12.579s3.031,9.191,8.534,12.578c11.581,7.124,30.424,7.126,42,0h0c5.5-3.388,8.535-7.854,8.535-12.578s-3.031-9.191-8.535-12.579c-5.79-3.561-13.4-5.342-21-5.342S273.517,188.891,267.727,192.452Zm4.928,22.812c-4.4-2.706-6.822-6.341-6.822-10.233s2.423-7.527,6.822-10.234c8.865-5.454,23.284-5.453,32.147,0h0c4.4,2.707,6.822,6.341,6.822,10.234s-2.423,7.527-6.822,10.233a33.621,33.621,0,0,1-32.147,0Zm31.586-19.435c-8.551-5.262-22.471-5.262-31.026,0-4.039,2.485-6.262,5.754-6.262,9.2s2.224,6.716,6.262,9.2c8.554,5.263,22.472,5.263,31.026,0,4.039-2.485,6.262-5.753,6.262-9.2s-2.224-6.717-6.262-9.2Z" transform="translate(286.928 439.353)"/><rect class="a" width="0.861" height="5.682" transform="translate(587.487 661.345)"/><rect class="a" width="0.861" height="5.681" transform="translate(550.552 655.212)"/><rect class="a" width="0.861" height="5.681" transform="translate(557.879 659.479)"/><rect class="a" width="0.861" height="5.682" transform="translate(587.487 632.914)"/><rect class="a" width="0.861" height="5.682" transform="translate(563.997 632.431)"/><path class="c" d="M294.507,197.916c-5.346-3.289-14.012-3.289-19.358,0s-5.346,8.622,0,11.911,14.012,3.289,19.358,0S299.852,201.205,294.507,197.916Z" transform="translate(286.122 439.353)"/><path class="c" d="M354.372,241.964a.383.383,0,0,0-.128-.508l-39.477-24.071a.571.571,0,0,0-.363.034l-3.441,2.117a1.531,1.531,0,0,0-.588,1.2v4.011a.637.637,0,0,0,.14.435l39.475,24.064a.335.335,0,0,0,.472-.135Z" transform="translate(283.703 439.353)"/><path class="b" d="M349.676,249.761,310.2,225.7l-.128-.107a1.229,1.229,0,0,1-.295-.846v-4.011a2.133,2.133,0,0,1,.868-1.713l3.443-2.118a1.074,1.074,0,0,1,.761-.1l.084.02,39.552,24.116a.957.957,0,0,1,.425.589,1.017,1.017,0,0,1-.092.736l-3.911,7.147a.9.9,0,0,1-.785.478A.849.849,0,0,1,349.676,249.761Zm-35.1-31.782-3.371,2.073a.955.955,0,0,0-.308.681l-.015,4.006,39.165,23.875,3.7-6.754Z" transform="translate(283.74 439.353)"/><path class="a" d="M356.8,247.356l-3.442,2.117c-.324.2-.587-.012-.587-.473v-4.011a1.534,1.534,0,0,1,.587-1.2l3.442-2.117c.325-.2.587.012.587.473v4.011A1.531,1.531,0,0,1,356.8,247.356Z" transform="translate(281.089 439.353)"/><path class="b" d="M352.656,250.022a1.151,1.151,0,0,1-.483-1.023v-4.01a2.137,2.137,0,0,1,.868-1.713l3.441-2.118a.875.875,0,0,1,.944-.033,1.152,1.152,0,0,1,.483,1.023v4.011a2.134,2.134,0,0,1-.867,1.713L353.6,249.99a.984.984,0,0,1-.513.155A.814.814,0,0,1,352.656,250.022Zm3.826-3.182a.955.955,0,0,0,.308-.681l-.008-3.808-3.182,1.958a.959.959,0,0,0-.308.68l.008,3.809,3.182-1.958Z" transform="translate(281.126 439.353)"/><path class="b" d="M310.375,222.026v2.718L350.156,249v-2.664Z" transform="translate(283.703 439.353)"/><path class="b" d="M.755.03l.9-.024L.988,24.03l-.9.024Z" transform="translate(596.95 661.808) rotate(-60.221)"/><path class="b" d="M.25.028,1.153,0,.931,7.964l-.9.024Z" transform="translate(621.623 676.38) rotate(-60.226)"/><path class="c" d="M290.877,215.839c11.008,0,16.315-6.329,16.374-6.4l-.648-.6c-.066.079-6.752,8.013-20.812,5.648l-.135.907A31.62,31.62,0,0,0,290.877,215.839Z" transform="translate(285.227 439.353)"/><path class="c" d="M300.467,212.15c5.673-2.462,6.979-6.8,7.031-6.985l-.822-.27c-.011.041-1.261,4.117-6.534,6.406Z" transform="translate(284.334 439.353)"/><path class="a" d="M270.247,208.384a12.208,12.208,0,0,1,4.338-4.714l-.45-.783a13.1,13.1,0,0,0-4.646,5.063Z" transform="translate(286.224 439.353)"/><rect class="a" width="0.861" height="1.712" transform="translate(593.648 662.901)"/><path class="b" d="M286.632,205.338c-.819.711-.141,1.713-.012,1.888.007.009-.008.018-.023.013a5.256,5.256,0,0,0-3.064.006c-.017.007-.035,0-.023-.014.818-.711.128-1.718,0-1.893-.007-.009.008-.018.023-.014a5.286,5.286,0,0,0,3.079,0C286.625,205.317,286.643,205.328,286.632,205.338Z" transform="translate(285.36 439.353)"/><path class="b" d="M281.9,202.608c-.819.711-.141,1.713-.012,1.887.007.009-.008.018-.022.014a5.262,5.262,0,0,0-3.064.005c-.017.008-.035,0-.023-.014.818-.71.128-1.717,0-1.892-.007-.009.008-.018.022-.014a5.3,5.3,0,0,0,3.08,0C281.895,202.587,281.914,202.6,281.9,202.608Z" transform="translate(285.651 439.353)"/><path class="b" d="M291.38,202.6c-.818.71-.14,1.713-.011,1.887.007.009-.008.018-.023.014a5.256,5.256,0,0,0-3.065.005c-.016.007-.034,0-.022-.014.818-.711.127-1.718,0-1.893-.007-.009.008-.018.022-.014a5.3,5.3,0,0,0,3.08,0C291.373,202.575,291.392,202.587,291.38,202.6Z" transform="translate(285.067 439.353)"/><path class="b" d="M286.651,199.866c-.818.711-.14,1.713-.011,1.888.007.008-.008.018-.023.013a5.259,5.259,0,0,0-3.065.006c-.016.007-.034,0-.023-.015.818-.71.127-1.717,0-1.892-.007-.009.008-.018.023-.014a5.29,5.29,0,0,0,3.08,0C286.644,199.845,286.663,199.856,286.651,199.866Z" transform="translate(285.359 439.353)"/><g transform="translate(789.766 569.769)"><g transform="translate(0)"><g transform="translate(7.874 23.664)"><path class="b" d="M530.115,164.565l4.225-2.91a.083.083,0,0,0,.017-.117l-5.366-6.941a.073.073,0,0,0-.13.034L528,158.854l0,.011-.2,2.9a.09.09,0,0,0,.018.058l2.2,2.729A.073.073,0,0,0,530.115,164.565Z" transform="translate(-527.343 -154.081)"/><path class="b" d="M530.043,165.065a.513.513,0,0,1-.4-.188l-2.335-2.894v-.264l.2-2.891.926-4.6.334-.132a.516.516,0,0,1,.536.188l5.5,7.111-.015.279a.572.572,0,0,1-.238.39l-4.223,2.908A.513.513,0,0,1,530.043,165.065Zm-1.806-3.433,1.879,2.33,3.585-2.468-4.59-5.937-.689,3.4Z" transform="translate(-527.313 -154.081)"/></g><g transform="translate(0.709)"><path class="c" d="M545.648,143.592l-20.168-12.409a1.4,1.4,0,0,0-1.317-.2h0L520.22,133.5a.121.121,0,0,0-.025.18l4.713,5.311a.122.122,0,0,1,.029.08v8.774A4.955,4.955,0,0,0,527,151.661l3.006,1.85c.074.111.138.206.211.317a11.959,11.959,0,0,0,4.676,7.489c.144.1.241-.048.145-.241-.485-.983-1.4-3.12-1.12-4.8l.332-.153,6.222,3.828a.116.116,0,0,1,.047.06l2.6,7.387a.106.106,0,0,0,.156.06l3.9-2.5h0a1.581,1.581,0,0,0,.536-1.345V147.4A4.956,4.956,0,0,0,545.648,143.592Z" transform="translate(-519.708 -130.416)"/><path class="b" d="M543.19,167.96a.535.535,0,0,1-.192-.037l-.2-.078-.136-.28-2.553-7.259-5.806-3.573a9.558,9.558,0,0,0,1.114,4.116.715.715,0,0,1-.1.843.542.542,0,0,1-.709.028,12.394,12.394,0,0,1-4.849-7.7l-.094-.141-2.92-1.8a5.409,5.409,0,0,1-2.294-4.236v-8.626l-4.618-5.2a.621.621,0,0,1-.148-.5.6.6,0,0,1,.278-.435l3.937-2.514a1.83,1.83,0,0,1,1.78.194l20.168,12.409a5.407,5.407,0,0,1,2.294,4.235v16.2a2.062,2.062,0,0,1-.738,1.75l-3.92,2.516A.567.567,0,0,1,543.19,167.96Zm-8.936-12.382,6.569,4.042.1.233,2.445,6.955,3.541-2.272a1.14,1.14,0,0,0,.313-.927V147.4a4.463,4.463,0,0,0-1.837-3.391L525.223,131.6a1.008,1.008,0,0,0-.91-.171l-3.517,2.251,4.54,5.115.03.274v8.773a4.463,4.463,0,0,0,1.836,3.391l3.152,1.992.289.515a11.61,11.61,0,0,0,3.4,6.275,7.786,7.786,0,0,1-.6-3.831l.043-.258Z" transform="translate(-519.678 -130.416)"/></g><g transform="translate(0 2.555)"><path class="a" d="M541.643,146.2l-20.222-12.442c-1.111-.684-2.012-.13-2.012,1.237v16.271a4.809,4.809,0,0,0,2.012,3.713l3.111,1.914a.388.388,0,0,1,.157.255,11.95,11.95,0,0,0,4.68,7.52c.145.1.241-.047.146-.241-.5-1.017-1.464-3.271-1.087-4.976.018-.081.09-.106.167-.058l13.049,8.028c1.111.684,2.011.13,2.011-1.237V149.909A4.808,4.808,0,0,0,541.643,146.2Z" transform="translate(-518.952 -132.971)"/><path class="b" d="M542.512,168.2a2.174,2.174,0,0,1-1.128-.361l-12.61-7.759a9.546,9.546,0,0,0,1.115,4.117.717.717,0,0,1-.1.842.542.542,0,0,1-.709.029,12.528,12.528,0,0,1-4.865-7.792l-3.053-1.879a5.281,5.281,0,0,1-2.24-4.135V134.991a2.008,2.008,0,0,1,.818-1.81,1.746,1.746,0,0,1,1.879.15l20.222,12.443a5.281,5.281,0,0,1,2.241,4.135v16.27a2.011,2.011,0,0,1-.817,1.81A1.42,1.42,0,0,1,542.512,168.2Zm-14.023-9.323a.58.58,0,0,1,.305.091l13.047,8.027a.957.957,0,0,0,.966.15,1.107,1.107,0,0,0,.36-.966v-16.27a4.334,4.334,0,0,0-1.783-3.291l-20.222-12.442a.954.954,0,0,0-.965-.151,1.108,1.108,0,0,0-.36.966v16.271a4.336,4.336,0,0,0,1.782,3.291l3.112,1.914a.873.873,0,0,1,.379.6,11.54,11.54,0,0,0,3.407,6.307,7.484,7.484,0,0,1-.564-4.034l.052-.24.268-.171A.523.523,0,0,1,528.489,158.877Z" transform="translate(-518.922 -132.971)"/></g><g transform="translate(23.368 13.307)"><path class="b" d="M.03.136l4.2-.12L4.2.974,0,1.094Z" transform="translate(-0.096 2.198) rotate(-31.298)"/></g><g transform="translate(4.507 1.776)"><path class="b" d="M.03.136l4.2-.12L4.2.974,0,1.094Z" transform="translate(-0.096 2.198) rotate(-31.298)"/></g><g transform="translate(24.458 17.391)"><path class="b" d="M.031.154,4.713.017,4.686.975,0,1.112Z" transform="translate(-0.109 2.525) rotate(-32.36)"/></g></g></g><g transform="translate(814.468 589.839)"><path class="b" d="M549.261,150.486l-4.014,2.591v14.108l3.884-2.268.13-1.011Z" transform="translate(-545.247 -150.486)"/></g><path class="b" d="M.006.027,4.715,0l0,.915L0,.941Z" transform="translate(796.016 566.239) rotate(-85.291)"/><path class="b" d="M.138.025,1.063,0,.94,5.377.015,5.4Z" transform="translate(790.96 561.938) rotate(-23.682)"/><path class="b" d="M.135.029,1.095,0,.975,4.313l-.96.026Z" transform="matrix(0.492, -0.871, 0.871, 0.492, 786.973, 566.635)"/><path class="c" d="M533.576,158.487a1.726,1.726,0,0,1-.875-.308,3.287,3.287,0,0,1-1.133-1.142,3.007,3.007,0,0,1-.414-1.545c0-.61.164-1.007.488-1.181s.74-.089,1.286.247a3.172,3.172,0,0,1,1.123,1.149,3.079,3.079,0,0,1,.4,1.531c0,.608-.172,1-.51,1.167A.8.8,0,0,1,533.576,158.487ZM532,154.713a.332.332,0,0,0-.155.034c-.2.105-.237.463-.237.745a2.5,2.5,0,0,0,.345,1.286,2.826,2.826,0,0,0,.972.979c.358.221.642.295.819.205.16-.079.242-.323.242-.724a2.572,2.572,0,0,0-.33-1.28,2.717,2.717,0,0,0-.959-.978A1.5,1.5,0,0,0,532,154.713Zm1.985-.26-2.542-1.564v-.859a2.385,2.385,0,0,1,.315-1.359,1.571,1.571,0,0,1,1.116-.6,1.48,1.48,0,0,0,.686-.235c.037-.03.15-.121.15-.443a1,1,0,0,0-.211-.567,2.033,2.033,0,0,0-.6-.553,4.023,4.023,0,0,0-2.274-.549l-.168.006-1.1-3.319.3-.026a6.027,6.027,0,0,1,3.663,1.018,7.571,7.571,0,0,1,2.45,2.354,5.351,5.351,0,0,1,.9,2.9,2.73,2.73,0,0,1-.435,1.669,2.083,2.083,0,0,1-1.366.732,1.97,1.97,0,0,0-.786.232.415.415,0,0,0-.093.32Zm-2.085-1.846,1.627,1v0a.875.875,0,0,1,.266-.7,2.117,2.117,0,0,1,1-.332,1.641,1.641,0,0,0,1.085-.558,2.251,2.251,0,0,0,.333-1.361,4.852,4.852,0,0,0-.822-2.623,7.1,7.1,0,0,0-2.3-2.206,5.694,5.694,0,0,0-3.1-.969l.786,2.378a4.111,4.111,0,0,1,2.35.616,2.5,2.5,0,0,1,.739.683,1.482,1.482,0,0,1,.3.86,1.009,1.009,0,0,1-.332.832,1.9,1.9,0,0,1-.894.328,1.155,1.155,0,0,0-.814.408,1.956,1.956,0,0,0-.228,1.072Z" transform="translate(270.201 439.353)"/><path class="b" d="M530.453,151.607v-.718a2.171,2.171,0,0,1,.272-1.215,1.356,1.356,0,0,1,.964-.506,1.722,1.722,0,0,0,.791-.281.773.773,0,0,0,.24-.637,1.233,1.233,0,0,0-.258-.715,2.259,2.259,0,0,0-.672-.618,4.182,4.182,0,0,0-2.4-.58l-.944-2.852a5.765,5.765,0,0,1,3.53.985,7.307,7.307,0,0,1,2.376,2.28,5.076,5.076,0,0,1,.861,2.761,2.485,2.485,0,0,1-.383,1.514,1.858,1.858,0,0,1-1.226.645,2.246,2.246,0,0,0-.892.282.637.637,0,0,0-.18.511v.427Zm-.292,2.744q0-.768.363-.962t1.07.24a2.917,2.917,0,0,1,1.042,1.063,2.814,2.814,0,0,1,.363,1.4q0,.761-.377.946t-1.027-.215a3.043,3.043,0,0,1-1.053-1.061A2.747,2.747,0,0,1,530.162,154.351Z" transform="translate(270.257 439.353)"/><rect class="b" width="1.12" height="76.534" transform="translate(597.39 501.272)"/><rect class="b" width="1.12" height="10.856" transform="translate(597.39 582.063)"/><path class="b" d="M499.11,178.322h1.119v-35.16c.007-.06.78-11.109-9.007-15.766l-.455,1.09c9.047,4.305,8.378,14.206,8.346,14.626Z" transform="translate(272.58 439.353)"/><rect class="b" width="1.12" height="11.849" transform="translate(771.71 621.994)"/><path class="b" d="M351.464,211.735l6.109.135a.566.566,0,0,0,.307-.084L381.264,197.4a5.09,5.09,0,0,1,4.847-.214l53.044,32.637a.535.535,0,0,0,.107.052l17.608,6.305a.626.626,0,0,1,.4.6l0,4.716a1.937,1.937,0,0,1-1.15,1.966l-29.229,17.984a5.09,5.09,0,0,1-4.847.214l-70.356-43.289a1.518,1.518,0,0,1-.824-1.309v-4.692A.608.608,0,0,1,351.464,211.735Z" transform="translate(281.207 439.353)"/><path class="b" d="M421.725,262.168,351.37,218.88a2.108,2.108,0,0,1-1.1-1.825v-4.693a1.259,1.259,0,0,1,.344-.874.958.958,0,0,1,.828-.349l6.124.131,23.385-14.389a5.6,5.6,0,0,1,5.408-.214l53.049,32.64,17.609,6.3a1.22,1.22,0,0,1,.783,1.161l0,4.651a2.536,2.536,0,0,1-1.431,2.546l-29.229,17.984a5.865,5.865,0,0,1-3.017.812A4.611,4.611,0,0,1,421.725,262.168Zm-40.218-64.255L358.123,212.3a.852.852,0,0,1-.6.165l-6.11-.135.012-.6-.041,5.326a.978.978,0,0,0,.545.786l70.355,43.289a4.583,4.583,0,0,0,4.286-.214l29.23-17.984c.64-.4.98-.9.887-1.311l-.033-4.885-17.612-6.306a1.188,1.188,0,0,1-.205-.1L385.794,197.7a3.544,3.544,0,0,0-1.819-.435A4.861,4.861,0,0,0,381.507,197.913Z" transform="translate(281.243 439.353)"/><path class="c" d="M351.686,213.2l70.356,43.289a5.1,5.1,0,0,0,4.847-.214l29.229-17.985c1.435-.882,1.59-2.218.348-2.982L386.11,192.015a5.1,5.1,0,0,0-4.847.214l-29.229,17.985C350.6,211.1,350.444,212.432,351.686,213.2Z" transform="translate(281.207 439.353)"/><path class="b" d="M421.724,257l-70.355-43.289a2.122,2.122,0,0,1-1.118-1.812,2.7,2.7,0,0,1,1.467-2.2l29.228-17.986a5.6,5.6,0,0,1,5.408-.213l70.355,43.289a2.123,2.123,0,0,1,1.118,1.811,2.7,2.7,0,0,1-1.467,2.2l-29.229,17.985a5.876,5.876,0,0,1-3.017.811A4.621,4.621,0,0,1,421.724,257Zm-40.218-64.256-29.229,17.986a1.6,1.6,0,0,0-.906,1.169,1,1,0,0,0,.559.78l70.355,43.289a4.591,4.591,0,0,0,4.286-.214L455.8,237.77a1.609,1.609,0,0,0,.906-1.171,1,1,0,0,0-.559-.779l-70.355-43.289a3.544,3.544,0,0,0-1.819-.435A4.859,4.859,0,0,0,381.506,192.745Z" transform="translate(281.244 439.353)"/><rect class="a" width="0.861" height="4.444" transform="translate(704.939 696.711)"/><rect class="d" width="0.861" height="4.444" transform="translate(734.878 679)"/><rect class="a" width="0.861" height="4.444" transform="translate(634.785 654.123)"/><path class="c" d="M319.953,41.752a.173.173,0,0,1,.05-.244l5.217-3.087a.9.9,0,0,1,1.1.021l157.7,97.033a4.015,4.015,0,0,1,1.542,3.139v128.6a1.6,1.6,0,0,1-.451,1.271l-5.5,3.249-5.478-7.032,2.154-1L326.318,171.426a4.014,4.014,0,0,1-1.542-3.139V48.721Z" transform="translate(283.114 439.353)"/><path class="b" d="M473.192,264.478l1.821-.85L326,171.943a4.616,4.616,0,0,1-1.821-3.656V48.918l-4.712-6.81a.8.8,0,0,1-.125-.615.759.759,0,0,1,.352-.507l5.146-3.036a1.416,1.416,0,0,1,1.721-.025l157.7,97.034a4.616,4.616,0,0,1,1.821,3.655v128.6a2.169,2.169,0,0,1-.74,1.793l-5.906,3.489ZM325.455,38.943l-4.816,2.849,4.66,6.733V168.287a3.4,3.4,0,0,0,1.262,2.623l150.929,92.865L475,264.934l4.707,6.043,5.028-2.964a1.064,1.064,0,0,0,.23-.8v-128.6a3.406,3.406,0,0,0-1.262-2.622L326,38.958a.6.6,0,0,0-.306-.1A.384.384,0,0,0,325.455,38.943Z" transform="translate(283.151 439.353)"/><path class="b" d="M320.763,174.686l157.7,97.034c.851.524,1.542-.032,1.542-1.242v-128.6a4.014,4.014,0,0,0-1.542-3.139L320.763,41.7c-.851-.524-1.542.032-1.542,1.241v128.6A4.012,4.012,0,0,0,320.763,174.686Z" transform="translate(283.157 439.353)"/><path class="b" d="M478.151,272.236,320.446,175.2a4.616,4.616,0,0,1-1.821-3.655V42.945a2.078,2.078,0,0,1,.814-1.846,1.444,1.444,0,0,1,1.567.087l157.7,97.033a4.616,4.616,0,0,1,1.822,3.656v128.6a2.076,2.076,0,0,1-.814,1.845,1.276,1.276,0,0,1-.675.192A1.709,1.709,0,0,1,478.151,272.236ZM320,42.132c-.116.072-.252.328-.252.813v128.6a3.412,3.412,0,0,0,1.26,2.623L478.71,271.2c.089.054.314.175.449.086.116-.072.252-.327.252-.812v-128.6a3.406,3.406,0,0,0-1.261-2.623l-157.7-97.033a.718.718,0,0,0-.331-.117A.215.215,0,0,0,320,42.132Z" transform="translate(283.194 439.353)"/><path class="a" d="M321.079,172.286l157.245,96.751c.251.154.453-.009.453-.364V141.247a1.178,1.178,0,0,0-.453-.922L321.079,43.574c-.25-.154-.452.01-.452.365V171.364A1.179,1.179,0,0,0,321.079,172.286Z" transform="translate(283.071 439.353)"/><path class="b" d="M478.007,269.554,320.762,172.8h0a1.769,1.769,0,0,1-.731-1.438V43.939a1.022,1.022,0,0,1,.437-.907.794.794,0,0,1,.855.026l157.245,96.75a1.766,1.766,0,0,1,.734,1.439V268.672a1.024,1.024,0,0,1-.435.907.758.758,0,0,1-.4.114A.884.884,0,0,1,478.007,269.554Zm-156.858-98.19a.621.621,0,0,0,.173.406l156.859,96.513V141.247a.616.616,0,0,0-.174-.4L321.149,44.329Z" transform="translate(283.108 439.353)"/><path class="b" d="M319.221,171.7v-7.357l160.788,98.931v7.356c0,1.126-.741,1.582-1.656,1.019L320.878,174.757A3.958,3.958,0,0,1,319.221,171.7Z" transform="translate(283.157 439.353)"/><path class="b" d="M478.035,272.165,320.561,175.274a4.57,4.57,0,0,1-1.937-3.574v-8.389l161.628,99.446.281.173v7.7a1.868,1.868,0,0,1-.766,1.659,1.344,1.344,0,0,1-.708.195A1.968,1.968,0,0,1,478.035,272.165ZM319.744,165.376V171.7a3.354,3.354,0,0,0,1.377,2.542L478.6,271.133c.254.157.484.2.612.124a.751.751,0,0,0,.2-.626v-7.013Z" transform="translate(283.194 439.353)"/><path class="a" d="M.754.03l.9-.024L.988,23.9l-.9.024Z" transform="translate(671.975 652.625) rotate(-59.978)"/><path class="b" d="M.037.206,6.448.023,6.416,1.2,0,1.379Z" transform="matrix(0.857, -0.515, 0.515, 0.857, 762.85, 578.871)"/><path class="b" d="M.037.206,6.448.023,6.415,1.2,0,1.379Z" transform="translate(612.424 485.89) rotate(-30.979)"/><path class="b" d="M.037.206,6.448.023,6.416,1.2,0,1.38Z" transform="translate(762.849 700.722) rotate(-30.976)"/><path class="a" d="M450.076,250.592l.432-.794-3.415-2.118-.432.794Z" transform="translate(275.3 439.353)"/><path class="b" d="M425.2,254.257a3.049,3.049,0,0,0,1.674-.506l6.121-4.021-.586-1.016-6.121,4.021a1.961,1.961,0,0,1-2.118.036l-60.583-36.824-.555,1.036,60.583,36.824A3.038,3.038,0,0,0,425.2,254.257Z" transform="translate(280.456 439.353)"/><path class="b" d="M360.832,215.912l.544-1.041-4.49-2.668a.421.421,0,0,1-.007-.708l6.252-3.9-.565-1.028-6.252,3.9a1.654,1.654,0,0,0,.027,2.78Z" transform="translate(280.916 439.353)"/><path class="b" d="M.037.206,6.448.023,6.415,1.2,0,1.38Z" transform="translate(763.149 696.293) rotate(-30.98)"/><path class="b" d="M.037.206,6.448.023,6.415,1.2,0,1.379Z" transform="translate(615.906 487.984) rotate(-30.983)"/><path class="b" d="M.037.206,6.448.023,6.415,1.2,0,1.379Z" transform="matrix(0.857, -0.515, 0.515, 0.857, 763.131, 584.993)"/><path class="c" d="M370.806,115.363l-.4-.4.065-.3,6.28-21.852.534.527a53.385,53.385,0,0,1,10.95,16.183l.23.52Zm6.386-20.772L371.585,114.1l15.585-4.683A52.7,52.7,0,0,0,377.193,94.591Z" transform="translate(280.002 439.353)"/><path class="c" d="M357.934,111.329V85.393a.019.019,0,0,0-.008-.014c-12.1-7.442-21.823-.866-21.031,14.726.67,13.192,9.042,28.758,19.419,36.1,7.019,4.964,13.373,5.282,17.565,1.9a.015.015,0,0,0,0-.014Z" transform="translate(282.07 439.353)"/><path class="b" d="M367.318,140.994c-3.467,0-7.367-1.43-11.372-4.263-10.54-7.455-19-23.186-19.685-36.591-.4-7.8,1.857-13.892,6.18-16.722,4.2-2.75,9.792-2.248,15.743,1.412l.3.183.008.38v25.752l16.162,27.128-.483.358A10.667,10.667,0,0,1,367.318,140.994ZM348.476,82.938a9.709,9.709,0,0,0-5.412,1.56c-3.94,2.578-5.986,8.255-5.614,15.573.662,13.043,8.9,28.349,19.154,35.6,6.3,4.455,12.249,5.263,16.436,2.258L357.3,111.513V85.752A17.56,17.56,0,0,0,348.476,82.938Z" transform="translate(282.11 439.353)"/><path class="b" d="M369.054,88.133a34.594,34.594,0,0,0-6.068-4.829v25.882c0,.01.012.02.015.012Z" transform="translate(280.459 439.353)"/><path class="a" d="M365.412,113.181l16.9-5.078a52.614,52.614,0,0,0-10.846-16.032L365.4,113.164C365.4,113.171,365.407,113.183,365.412,113.181Z" transform="translate(280.31 439.353)"/><path class="b" d="M365.174,113.9l-.5-.59.134-.38,6.322-22.008.7.684a53.561,53.561,0,0,1,10.98,16.229l.3.677Zm6.53-20.665-5.468,19.027,15.185-4.563A52.59,52.59,0,0,0,371.7,93.234Z" transform="translate(280.355 439.353)"/><path class="c" d="M373.009,181.177l-6.679-4.109V152.412l6.679,4.109Z" transform="translate(280.253 439.353)"/><path class="b" d="M373.565,182.274l-7.869-4.841V151.314l7.869,4.841Zm-6.679-5.572,5.489,3.377V156.887l-5.489-3.377Z" transform="translate(280.292 439.353)"/><path class="c" d="M383.317,187.128l-6.679-4.109V149.97l6.679,4.109Z" transform="translate(279.617 439.353)"/><path class="b" d="M383.873,188.226,376,183.385V148.873l7.869,4.84Zm-6.679-5.572,5.489,3.377V154.446l-5.489-3.378Z" transform="translate(279.656 439.353)"/><path class="c" d="M476.035,240.659l-6.679-4.109V220.025l6.679,4.109Z" transform="translate(273.9 439.353)"/><path class="b" d="M476.591,241.757l-7.87-4.841V218.927l7.87,4.842Zm-6.679-5.573,5.488,3.377V224.5l-5.488-3.377Z" transform="translate(273.94 439.353)"/><path class="c" d="M393.625,193.08l-6.679-4.109V145.5l6.679,4.109Z" transform="translate(278.982 439.353)"/><path class="b" d="M394.181,194.178l-7.869-4.842V144.4l7.869,4.841ZM387.5,188.6l5.488,3.377V149.975L387.5,146.6Z" transform="translate(279.021 439.353)"/><path class="c" d="M403.934,199.031l-6.679-4.109V161.873l6.679,4.109Z" transform="translate(278.346 439.353)"/><path class="b" d="M404.49,200.129l-7.869-4.841V160.775l7.869,4.842Zm-6.679-5.572,5.489,3.377V166.348l-5.489-3.377Z" transform="translate(278.385 439.353)"/><path class="c" d="M455.339,228.71,448.66,224.6V181.129l6.679,4.109Z" transform="translate(275.176 439.353)"/><path class="b" d="M455.895,229.808l-7.869-4.841V180.031l7.869,4.842Zm-6.679-5.572,5.489,3.377V185.6l-5.489-3.377Z" transform="translate(275.216 439.353)"/><path class="c" d="M465.647,234.661l-6.679-4.109V197.5l6.679,4.109Z" transform="translate(274.541 439.353)"/><path class="b" d="M466.2,235.76l-7.869-4.843V196.406l7.869,4.841Zm-6.679-5.574,5.489,3.378V201.978l-5.489-3.377Z" transform="translate(274.58 439.353)"/><path class="c" d="M362.621,175.18l-6.679-4.109V158.352l6.679,4.109Z" transform="translate(280.893 439.353)"/><path class="b" d="M363.177,176.277l-7.869-4.841V157.254l7.869,4.841Zm-6.679-5.572,5.489,3.377V162.827l-5.489-3.378Z" transform="translate(280.932 439.353)"/><path class="c" d="M414.242,204.983l-6.679-4.109V149.294l6.679,4.109Z" transform="translate(277.71 439.353)"/><path class="b" d="M414.8,206.081l-7.869-4.842V148.2l7.869,4.841Zm-6.679-5.573,5.489,3.377V153.77l-5.489-3.378Z" transform="translate(277.75 439.353)"/><path class="c" d="M424.4,210.757l-6.679-4.109V159.693L424.4,163.8Z" transform="translate(277.084 439.353)"/><path class="b" d="M424.955,211.855l-7.869-4.841V158.6l7.869,4.841Zm-6.679-5.572,5.489,3.377V164.168l-5.489-3.377Z" transform="translate(277.123 439.353)"/><path class="c" d="M434.707,216.709l-6.679-4.109V175.456l6.679,4.109Z" transform="translate(276.449 439.353)"/><path class="b" d="M435.263,217.807l-7.868-4.842V174.359l7.868,4.841Zm-6.678-5.574,5.488,3.378v-35.68l-5.488-3.377Z" transform="translate(276.488 439.353)"/><path class="c" d="M445.016,222.66l-6.679-4.109V188.192l6.679,4.109Z" transform="translate(275.813 439.353)"/><path class="b" d="M445.571,223.757l-7.868-4.841V187.1l7.868,4.841Zm-6.678-5.572,5.488,3.377V192.668l-5.488-3.377Z" transform="translate(275.852 439.353)"/><path class="b" d="M464.95,167.9a5.522,5.522,0,0,0,1.391,2.581c.009.01.009.027,0,.025-.187-.029-1.238-.146-1.391.866,0,.014-.019,0-.021-.013a5.519,5.519,0,0,0-1.4-2.584c-.01-.01-.01-.027,0-.025.189.029,1.248.149,1.4-.863C464.931,167.877,464.948,167.887,464.95,167.9Z" transform="translate(274.26 439.353)"/><path class="b" d="M460.644,165.418A5.511,5.511,0,0,0,462.036,168c.009.01.009.027,0,.025-.188-.029-1.239-.146-1.392.866,0,.014-.019,0-.021-.013a5.518,5.518,0,0,0-1.4-2.584c-.009-.01-.009-.027,0-.025.189.029,1.248.149,1.4-.863C460.625,165.391,460.642,165.4,460.644,165.418Z" transform="translate(274.526 439.353)"/><path class="b" d="M456.339,162.932a5.513,5.513,0,0,0,1.391,2.581c.009.01.009.027,0,.025-.188-.029-1.238-.146-1.391.866,0,.014-.019,0-.022-.013a5.507,5.507,0,0,0-1.4-2.584c-.009-.01-.009-.027,0-.025.19.029,1.249.149,1.4-.862C456.32,162.9,456.336,162.916,456.339,162.932Z" transform="translate(274.791 439.353)"/><path class="b" d="M452.033,160.447a5.522,5.522,0,0,0,1.391,2.58c.01.011.009.027,0,.025-.187-.029-1.238-.145-1.391.866,0,.014-.019,0-.021-.013a5.524,5.524,0,0,0-1.4-2.584c-.01-.01-.01-.027,0-.025.189.029,1.248.149,1.4-.862C452.014,160.419,452.031,160.43,452.033,160.447Z" transform="translate(275.057 439.353)"/><path class="b" d="M447.727,157.961a5.5,5.5,0,0,0,1.392,2.58c.009.011.009.027,0,.026-.188-.029-1.239-.146-1.392.865,0,.014-.019,0-.021-.013a5.524,5.524,0,0,0-1.4-2.584c-.009-.01-.009-.026,0-.025.189.03,1.248.149,1.4-.862C447.708,157.934,447.725,157.944,447.727,157.961Z" transform="translate(275.322 439.353)"/><path class="b" d="M443.422,155.475a5.511,5.511,0,0,0,1.391,2.58c.009.011.009.027,0,.026-.188-.029-1.238-.146-1.391.865,0,.014-.019,0-.022-.013a5.5,5.5,0,0,0-1.4-2.583c-.009-.011-.009-.027,0-.026.19.03,1.249.149,1.4-.862C443.4,155.448,443.419,155.458,443.422,155.475Z" transform="translate(275.588 439.353)"/><path class="b" d="M439.116,152.989a5.522,5.522,0,0,0,1.391,2.581c.01.01.01.026,0,.025-.187-.029-1.238-.146-1.391.865,0,.015-.019,0-.021-.013a5.519,5.519,0,0,0-1.4-2.583c-.01-.011-.01-.027,0-.026.189.03,1.248.149,1.4-.862C439.1,152.962,439.114,152.972,439.116,152.989Z" transform="translate(275.853 439.353)"/><path class="b" d="M434.81,150.5a5.52,5.52,0,0,0,1.392,2.581c.009.01.009.027,0,.025-.188-.029-1.238-.146-1.392.865,0,.015-.019.005-.021-.012a5.51,5.51,0,0,0-1.4-2.584c-.009-.01-.009-.027,0-.026.189.03,1.249.149,1.4-.862C434.791,150.476,434.808,150.486,434.81,150.5Z" transform="translate(276.119 439.353)"/><path class="b" d="M430.5,148.017A5.521,5.521,0,0,0,431.9,150.6c.009.01.009.027,0,.025-.187-.029-1.238-.146-1.391.866,0,.014-.019,0-.022-.013a5.5,5.5,0,0,0-1.4-2.584c-.009-.01-.009-.027,0-.025.19.029,1.249.149,1.4-.863C430.486,147.99,430.5,148,430.5,148.017Z" transform="translate(276.384 439.353)"/><path class="b" d="M426.2,145.531a5.521,5.521,0,0,0,1.391,2.581c.01.01.01.027,0,.025-.187-.029-1.238-.146-1.391.866,0,.014-.019,0-.021-.013a5.518,5.518,0,0,0-1.4-2.584c-.009-.01-.009-.027,0-.025.189.029,1.248.149,1.4-.862C426.18,145.5,426.2,145.515,426.2,145.531Z" transform="translate(276.65 439.353)"/><path class="b" d="M477.867,175.362a5.511,5.511,0,0,0,1.391,2.58c.009.011.009.027,0,.026-.187-.029-1.238-.146-1.391.865,0,.014-.019,0-.021-.013a5.514,5.514,0,0,0-1.4-2.583c-.01-.011-.01-.027,0-.026.189.03,1.248.149,1.4-.862C477.848,175.335,477.865,175.345,477.867,175.362Z" transform="translate(273.464 439.353)"/><path class="b" d="M473.561,172.876a5.511,5.511,0,0,0,1.391,2.58c.01.011.01.027,0,.026-.187-.029-1.238-.146-1.391.865,0,.015-.019,0-.021-.013a5.519,5.519,0,0,0-1.4-2.583c-.009-.011-.009-.027,0-.026.189.03,1.248.149,1.4-.862C473.542,172.849,473.559,172.859,473.561,172.876Z" transform="translate(273.729 439.353)"/><path class="b" d="M469.256,170.39a5.513,5.513,0,0,0,1.391,2.581c.009.01.009.026,0,.025-.188-.029-1.238-.146-1.391.865,0,.015-.019,0-.022-.012a5.5,5.5,0,0,0-1.4-2.584c-.009-.011-.009-.027,0-.026.19.03,1.249.149,1.4-.862C469.237,170.363,469.253,170.373,469.256,170.39Z" transform="translate(273.995 439.353)"/><path class="b" d="M464.95,162.912a5.511,5.511,0,0,0,1.391,2.58c.009.011.009.027,0,.026-.187-.029-1.238-.146-1.391.865,0,.014-.019,0-.021-.013a5.514,5.514,0,0,0-1.4-2.583c-.01-.011-.01-.027,0-.026.189.03,1.248.149,1.4-.862C464.931,162.885,464.948,162.9,464.95,162.912Z" transform="translate(274.26 439.353)"/><path class="b" d="M460.644,160.426a5.5,5.5,0,0,0,1.392,2.58c.009.011.009.027,0,.026-.188-.029-1.239-.146-1.392.865,0,.015-.019,0-.021-.013a5.519,5.519,0,0,0-1.4-2.583c-.009-.011-.009-.027,0-.026.189.03,1.248.149,1.4-.862C460.625,160.4,460.642,160.409,460.644,160.426Z" transform="translate(274.526 439.353)"/><path class="b" d="M456.339,157.94a5.513,5.513,0,0,0,1.391,2.581c.009.01.009.026,0,.025-.188-.029-1.238-.146-1.391.865,0,.015-.019,0-.022-.012a5.5,5.5,0,0,0-1.4-2.584c-.009-.011-.009-.027,0-.026.19.03,1.249.149,1.4-.862C456.32,157.913,456.336,157.923,456.339,157.94Z" transform="translate(274.791 439.353)"/><path class="b" d="M452.033,155.454a5.521,5.521,0,0,0,1.391,2.581c.01.01.009.027,0,.025-.187-.029-1.238-.146-1.391.866,0,.014-.019,0-.021-.013a5.518,5.518,0,0,0-1.4-2.584c-.01-.01-.01-.027,0-.025.189.029,1.248.149,1.4-.863C452.014,155.427,452.031,155.437,452.033,155.454Z" transform="translate(275.057 439.353)"/><path class="b" d="M447.727,152.968a5.512,5.512,0,0,0,1.392,2.581c.009.01.009.027,0,.025-.188-.029-1.239-.146-1.392.866,0,.014-.019,0-.021-.013a5.518,5.518,0,0,0-1.4-2.584c-.009-.01-.009-.027,0-.025.189.029,1.248.149,1.4-.863C447.708,152.941,447.725,152.951,447.727,152.968Z" transform="translate(275.322 439.353)"/><path class="b" d="M443.422,150.483a5.522,5.522,0,0,0,1.391,2.58c.009.01.009.027,0,.025-.188-.029-1.238-.146-1.391.866,0,.014-.019,0-.022-.013a5.508,5.508,0,0,0-1.4-2.584c-.009-.01-.009-.027,0-.025.19.029,1.249.149,1.4-.862C443.4,150.455,443.419,150.466,443.422,150.483Z" transform="translate(275.588 439.353)"/><path class="b" d="M439.116,148a5.522,5.522,0,0,0,1.391,2.58c.01.011.01.027,0,.025-.187-.029-1.238-.145-1.391.866,0,.014-.019,0-.021-.013a5.524,5.524,0,0,0-1.4-2.584c-.01-.01-.01-.027,0-.025.189.029,1.248.149,1.4-.862C439.1,147.97,439.114,147.98,439.116,148Z" transform="translate(275.853 439.353)"/><path class="b" d="M434.81,145.511a5.51,5.51,0,0,0,1.392,2.58c.009.011.009.027,0,.026-.188-.029-1.238-.146-1.392.865,0,.014-.019,0-.021-.013a5.515,5.515,0,0,0-1.4-2.584c-.009-.01-.009-.026,0-.025.189.03,1.249.149,1.4-.862C434.791,145.484,434.808,145.494,434.81,145.511Z" transform="translate(276.119 439.353)"/><path class="b" d="M430.5,143.025a5.511,5.511,0,0,0,1.391,2.58c.009.011.009.027,0,.026-.187-.029-1.238-.146-1.391.865,0,.014-.019,0-.022-.013a5.5,5.5,0,0,0-1.4-2.583c-.009-.011-.009-.027,0-.026.19.03,1.249.149,1.4-.862C430.486,143,430.5,143.008,430.5,143.025Z" transform="translate(276.384 439.353)"/><path class="b" d="M426.2,140.539a5.521,5.521,0,0,0,1.391,2.581c.01.01.01.026,0,.025-.187-.029-1.238-.146-1.391.865,0,.015-.019,0-.021-.013a5.519,5.519,0,0,0-1.4-2.583c-.009-.011-.009-.027,0-.026.189.03,1.248.149,1.4-.862C426.18,140.512,426.2,140.522,426.2,140.539Z" transform="translate(276.65 439.353)"/><path class="b" d="M477.867,170.369a5.522,5.522,0,0,0,1.391,2.581c.009.01.009.027,0,.025-.187-.029-1.238-.146-1.391.866,0,.014-.019,0-.021-.013a5.519,5.519,0,0,0-1.4-2.584c-.01-.01-.01-.027,0-.025.189.029,1.248.149,1.4-.863C477.848,170.342,477.865,170.353,477.867,170.369Z" transform="translate(273.464 439.353)"/><path class="b" d="M473.561,167.883a5.521,5.521,0,0,0,1.391,2.581c.01.01.01.027,0,.025-.187-.029-1.238-.145-1.391.866,0,.014-.019,0-.021-.013a5.524,5.524,0,0,0-1.4-2.584c-.009-.01-.009-.027,0-.025.189.029,1.248.149,1.4-.862C473.542,167.856,473.559,167.867,473.561,167.883Z" transform="translate(273.729 439.353)"/><path class="b" d="M469.256,165.4a5.513,5.513,0,0,0,1.391,2.58c.009.01.009.027,0,.026-.188-.03-1.238-.146-1.391.865,0,.014-.019,0-.022-.013a5.507,5.507,0,0,0-1.4-2.584c-.009-.01-.009-.027,0-.025.19.029,1.249.149,1.4-.862C469.237,165.371,469.253,165.381,469.256,165.4Z" transform="translate(273.995 439.353)"/><path class="b" d="M464.95,157.919a5.522,5.522,0,0,0,1.391,2.581c.009.01.009.027,0,.025-.187-.029-1.238-.146-1.391.866,0,.014-.019,0-.021-.013a5.519,5.519,0,0,0-1.4-2.584c-.01-.01-.01-.027,0-.025.189.029,1.248.149,1.4-.862C464.931,157.892,464.948,157.9,464.95,157.919Z" transform="translate(274.26 439.353)"/><path class="b" d="M460.644,155.434a5.512,5.512,0,0,0,1.392,2.58c.009.01.009.027,0,.025-.188-.029-1.239-.145-1.392.866,0,.014-.019,0-.021-.013a5.524,5.524,0,0,0-1.4-2.584c-.009-.01-.009-.027,0-.025.189.029,1.248.149,1.4-.862C460.625,155.406,460.642,155.417,460.644,155.434Z" transform="translate(274.526 439.353)"/><path class="b" d="M456.339,152.948a5.508,5.508,0,0,0,1.391,2.58c.009.011.009.027,0,.026-.188-.03-1.238-.146-1.391.865,0,.014-.019,0-.022-.013a5.507,5.507,0,0,0-1.4-2.584c-.009-.01-.009-.027,0-.025.19.03,1.249.149,1.4-.862C456.32,152.921,456.336,152.931,456.339,152.948Z" transform="translate(274.791 439.353)"/><path class="b" d="M452.033,150.462a5.511,5.511,0,0,0,1.391,2.58c.01.011.009.027,0,.026-.187-.029-1.238-.146-1.391.865,0,.014-.019,0-.021-.013a5.513,5.513,0,0,0-1.4-2.583c-.01-.011-.01-.027,0-.026.189.03,1.248.149,1.4-.862C452.014,150.435,452.031,150.445,452.033,150.462Z" transform="translate(275.057 439.353)"/><path class="b" d="M447.727,147.976a5.5,5.5,0,0,0,1.392,2.58c.009.011.009.027,0,.026-.188-.029-1.239-.146-1.392.865,0,.015-.019,0-.021-.013a5.519,5.519,0,0,0-1.4-2.583c-.009-.011-.009-.027,0-.026.189.03,1.248.149,1.4-.862C447.708,147.949,447.725,147.959,447.727,147.976Z" transform="translate(275.322 439.353)"/><path class="b" d="M443.422,145.49a5.511,5.511,0,0,0,1.391,2.58c.009.011.009.027,0,.026-.188-.029-1.238-.146-1.391.865,0,.015-.019,0-.022-.012a5.5,5.5,0,0,0-1.4-2.584c-.009-.011-.009-.027,0-.026.19.03,1.249.149,1.4-.862C443.4,145.463,443.419,145.473,443.422,145.49Z" transform="translate(275.588 439.353)"/><path class="b" d="M439.116,143a5.522,5.522,0,0,0,1.391,2.581c.01.01.01.026,0,.025-.187-.029-1.238-.146-1.391.866,0,.014-.019,0-.021-.013a5.518,5.518,0,0,0-1.4-2.584c-.01-.01-.01-.027,0-.025.189.029,1.248.149,1.4-.863C439.1,142.977,439.114,142.987,439.116,143Z" transform="translate(275.853 439.353)"/><path class="b" d="M434.81,140.518A5.52,5.52,0,0,0,436.2,143.1c.009.01.009.027,0,.025-.188-.029-1.238-.146-1.392.866,0,.014-.019,0-.021-.013a5.51,5.51,0,0,0-1.4-2.584c-.009-.01-.009-.027,0-.025.189.029,1.249.149,1.4-.863C434.791,140.491,434.808,140.5,434.81,140.518Z" transform="translate(276.119 439.353)"/><path class="b" d="M430.5,138.032a5.521,5.521,0,0,0,1.391,2.581c.009.01.009.027,0,.025-.187-.029-1.238-.146-1.391.866,0,.014-.019,0-.022-.013a5.507,5.507,0,0,0-1.4-2.584c-.009-.01-.009-.027,0-.025.19.029,1.249.149,1.4-.862C430.486,138.005,430.5,138.016,430.5,138.032Z" transform="translate(276.384 439.353)"/><path class="b" d="M426.2,135.547a5.522,5.522,0,0,0,1.391,2.58c.01.01.01.027,0,.026-.187-.03-1.238-.146-1.391.865,0,.014-.019,0-.021-.013a5.524,5.524,0,0,0-1.4-2.584c-.009-.01-.009-.027,0-.025.189.029,1.248.149,1.4-.862C426.18,135.52,426.2,135.53,426.2,135.547Z" transform="translate(276.65 439.353)"/><path class="b" d="M477.867,165.377a5.522,5.522,0,0,0,1.391,2.581c.009.01.009.026,0,.025-.187-.029-1.238-.146-1.391.865,0,.015-.019,0-.021-.013a5.52,5.52,0,0,0-1.4-2.583c-.01-.011-.01-.027,0-.026.189.03,1.248.149,1.4-.862C477.848,165.35,477.865,165.36,477.867,165.377Z" transform="translate(273.464 439.353)"/><path class="b" d="M473.561,162.891a5.521,5.521,0,0,0,1.391,2.581c.01.01.01.027,0,.025-.187-.029-1.238-.146-1.391.865,0,.015-.019.005-.021-.012a5.519,5.519,0,0,0-1.4-2.584c-.009-.011-.009-.027,0-.026.189.03,1.248.149,1.4-.862C473.542,162.864,473.559,162.874,473.561,162.891Z" transform="translate(273.729 439.353)"/><path class="b" d="M469.256,160.4a5.513,5.513,0,0,0,1.391,2.581c.009.01.009.027,0,.025-.188-.029-1.238-.146-1.391.866,0,.014-.019,0-.022-.013a5.5,5.5,0,0,0-1.4-2.584c-.009-.01-.009-.027,0-.025.19.029,1.249.149,1.4-.863C469.237,160.378,469.253,160.388,469.256,160.4Z" transform="translate(273.995 439.353)"/><path class="b" d="M464.95,152.927a5.522,5.522,0,0,0,1.391,2.581c.009.01.009.026,0,.025-.187-.029-1.238-.146-1.391.865,0,.015-.019,0-.021-.013a5.52,5.52,0,0,0-1.4-2.583c-.01-.011-.01-.027,0-.026.189.03,1.248.149,1.4-.862C464.931,152.9,464.948,152.91,464.95,152.927Z" transform="translate(274.26 439.353)"/><path class="b" d="M460.644,150.441a5.511,5.511,0,0,0,1.392,2.581c.009.01.009.026,0,.025-.188-.029-1.239-.146-1.392.865,0,.015-.019.005-.021-.012a5.518,5.518,0,0,0-1.4-2.584c-.009-.011-.009-.027,0-.026.189.03,1.248.149,1.4-.862C460.625,150.414,460.642,150.424,460.644,150.441Z" transform="translate(274.526 439.353)"/><path class="b" d="M456.339,147.955a5.513,5.513,0,0,0,1.391,2.581c.009.01.009.027,0,.025-.188-.029-1.238-.146-1.391.866,0,.014-.019,0-.022-.013a5.5,5.5,0,0,0-1.4-2.584c-.009-.01-.009-.027,0-.025.19.029,1.249.149,1.4-.863C456.32,147.928,456.336,147.938,456.339,147.955Z" transform="translate(274.791 439.353)"/><path class="b" d="M452.033,145.469a5.521,5.521,0,0,0,1.391,2.581c.01.01.009.027,0,.025-.187-.029-1.238-.146-1.391.866,0,.014-.019,0-.021-.013a5.518,5.518,0,0,0-1.4-2.584c-.01-.01-.01-.027,0-.025.189.029,1.248.149,1.4-.862C452.014,145.442,452.031,145.453,452.033,145.469Z" transform="translate(275.057 439.353)"/><path class="b" d="M447.727,142.984a5.512,5.512,0,0,0,1.392,2.58c.009.01.009.027,0,.025-.188-.029-1.239-.145-1.392.866,0,.014-.019,0-.021-.013a5.524,5.524,0,0,0-1.4-2.584c-.009-.01-.009-.027,0-.025.189.029,1.248.149,1.4-.862C447.708,142.956,447.725,142.967,447.727,142.984Z" transform="translate(275.322 439.353)"/><path class="b" d="M443.422,140.5a5.516,5.516,0,0,0,1.391,2.58c.009.01.009.027,0,.026-.188-.03-1.238-.146-1.391.865,0,.014-.019,0-.022-.013a5.508,5.508,0,0,0-1.4-2.584c-.009-.01-.009-.027,0-.025.19.03,1.249.149,1.4-.862C443.4,140.471,443.419,140.481,443.422,140.5Z" transform="translate(275.588 439.353)"/><path class="b" d="M439.116,138.012a5.511,5.511,0,0,0,1.391,2.58c.01.011.01.027,0,.026-.187-.029-1.238-.146-1.391.865,0,.014-.019,0-.021-.013a5.514,5.514,0,0,0-1.4-2.583c-.01-.011-.01-.027,0-.026.189.03,1.248.149,1.4-.862C439.1,137.985,439.114,137.995,439.116,138.012Z" transform="translate(275.853 439.353)"/><path class="b" d="M434.81,135.526a5.51,5.51,0,0,0,1.392,2.58c.009.011.009.027,0,.026-.188-.029-1.238-.146-1.392.865,0,.015-.019,0-.021-.013a5.5,5.5,0,0,0-1.4-2.583c-.009-.011-.009-.027,0-.026.189.03,1.249.149,1.4-.862C434.791,135.5,434.808,135.509,434.81,135.526Z" transform="translate(276.119 439.353)"/><path class="b" d="M430.5,133.04a5.521,5.521,0,0,0,1.391,2.581c.009.01.009.026,0,.025-.187-.029-1.238-.146-1.391.865,0,.015-.019,0-.022-.012a5.5,5.5,0,0,0-1.4-2.584c-.009-.011-.009-.027,0-.026.19.03,1.249.149,1.4-.862C430.486,133.013,430.5,133.023,430.5,133.04Z" transform="translate(276.384 439.353)"/><path class="b" d="M426.2,130.554a5.521,5.521,0,0,0,1.391,2.581c.01.01.01.027,0,.025-.187-.029-1.238-.146-1.391.866,0,.014-.019,0-.021-.013a5.518,5.518,0,0,0-1.4-2.584c-.009-.01-.009-.027,0-.026.189.03,1.248.149,1.4-.862C426.18,130.527,426.2,130.537,426.2,130.554Z" transform="translate(276.65 439.353)"/><path class="b" d="M477.867,160.385a5.522,5.522,0,0,0,1.391,2.58c.009.01.009.027,0,.025-.187-.029-1.238-.145-1.391.866,0,.014-.019,0-.021-.013a5.525,5.525,0,0,0-1.4-2.584c-.01-.01-.01-.027,0-.025.189.029,1.248.149,1.4-.862C477.848,160.357,477.865,160.368,477.867,160.385Z" transform="translate(273.464 439.353)"/><path class="b" d="M473.561,157.9a5.511,5.511,0,0,0,1.391,2.58c.01.011.01.027,0,.026-.187-.029-1.238-.146-1.391.865,0,.014-.019,0-.021-.013a5.524,5.524,0,0,0-1.4-2.584c-.009-.01-.009-.026,0-.025.189.03,1.248.149,1.4-.862C473.542,157.872,473.559,157.882,473.561,157.9Z" transform="translate(273.729 439.353)"/><path class="b" d="M469.256,155.413a5.5,5.5,0,0,0,1.391,2.58c.009.011.009.027,0,.026-.188-.029-1.238-.146-1.391.865,0,.014-.019,0-.022-.013a5.5,5.5,0,0,0-1.4-2.583c-.009-.011-.009-.027,0-.026.19.03,1.249.149,1.4-.862C469.237,155.386,469.253,155.4,469.256,155.413Z" transform="translate(273.995 439.353)"/><path class="b" d="M464.95,147.935a5.522,5.522,0,0,0,1.391,2.58c.009.01.009.027,0,.025-.187-.029-1.238-.145-1.391.866,0,.014-.019,0-.021-.013a5.524,5.524,0,0,0-1.4-2.584c-.01-.01-.01-.027,0-.025.189.029,1.248.149,1.4-.862C464.931,147.907,464.948,147.918,464.95,147.935Z" transform="translate(274.26 439.353)"/><path class="b" d="M460.644,145.449a5.5,5.5,0,0,0,1.392,2.58c.009.011.009.027,0,.026-.188-.029-1.239-.146-1.392.865,0,.014-.019,0-.021-.013a5.524,5.524,0,0,0-1.4-2.584c-.009-.01-.009-.026,0-.025.189.03,1.248.149,1.4-.862C460.625,145.422,460.642,145.432,460.644,145.449Z" transform="translate(274.526 439.353)"/><path class="b" d="M456.339,142.963a5.5,5.5,0,0,0,1.391,2.58c.009.011.009.027,0,.026-.188-.029-1.238-.146-1.391.865,0,.014-.019,0-.022-.013a5.5,5.5,0,0,0-1.4-2.583c-.009-.011-.009-.027,0-.026.19.03,1.249.149,1.4-.862C456.32,142.936,456.336,142.946,456.339,142.963Z" transform="translate(274.791 439.353)"/><path class="b" d="M452.033,140.477a5.511,5.511,0,0,0,1.391,2.58c.01.011.009.027,0,.026-.187-.029-1.238-.146-1.391.865,0,.015-.019,0-.021-.013a5.519,5.519,0,0,0-1.4-2.583c-.01-.011-.01-.027,0-.026.189.03,1.248.149,1.4-.862C452.014,140.45,452.031,140.46,452.033,140.477Z" transform="translate(275.057 439.353)"/><path class="b" d="M447.727,137.991a5.512,5.512,0,0,0,1.392,2.581c.009.01.009.027,0,.025-.188-.029-1.239-.146-1.392.865,0,.015-.019,0-.021-.012a5.518,5.518,0,0,0-1.4-2.584c-.009-.011-.009-.027,0-.026.189.03,1.248.149,1.4-.862C447.708,137.964,447.725,137.974,447.727,137.991Z" transform="translate(275.322 439.353)"/><path class="b" d="M443.422,135.505a5.521,5.521,0,0,0,1.391,2.581c.009.01.009.027,0,.025-.188-.029-1.238-.146-1.391.866,0,.014-.019,0-.022-.013a5.5,5.5,0,0,0-1.4-2.584c-.009-.01-.009-.027,0-.025.19.029,1.249.148,1.4-.863C443.4,135.478,443.419,135.488,443.422,135.505Z" transform="translate(275.588 439.353)"/><path class="b" d="M439.116,133.019a5.522,5.522,0,0,0,1.391,2.581c.01.01.01.027,0,.025-.187-.029-1.238-.146-1.391.866,0,.014-.019,0-.021-.013a5.518,5.518,0,0,0-1.4-2.584c-.01-.01-.01-.027,0-.025.189.029,1.248.149,1.4-.862C439.1,132.992,439.114,133,439.116,133.019Z" transform="translate(275.853 439.353)"/><path class="b" d="M434.81,130.534a5.521,5.521,0,0,0,1.392,2.58c.009.01.009.027,0,.025-.188-.029-1.238-.145-1.392.866,0,.014-.019,0-.021-.013a5.515,5.515,0,0,0-1.4-2.584c-.009-.01-.009-.027,0-.025.189.029,1.249.149,1.4-.862C434.791,130.506,434.808,130.517,434.81,130.534Z" transform="translate(276.119 439.353)"/><path class="b" d="M430.5,128.048a5.517,5.517,0,0,0,1.391,2.58c.009.011.009.027,0,.026-.187-.03-1.238-.146-1.391.865,0,.014-.019,0-.022-.013a5.507,5.507,0,0,0-1.4-2.584c-.009-.01-.009-.027,0-.025.19.03,1.249.149,1.4-.862C430.486,128.021,430.5,128.031,430.5,128.048Z" transform="translate(276.384 439.353)"/><path class="b" d="M426.2,125.562a5.511,5.511,0,0,0,1.391,2.58c.01.011.01.027,0,.026-.187-.029-1.238-.146-1.391.865,0,.014-.019,0-.021-.013a5.524,5.524,0,0,0-1.4-2.584c-.009-.01-.009-.026,0-.025.189.03,1.248.149,1.4-.862C426.18,125.535,426.2,125.545,426.2,125.562Z" transform="translate(276.65 439.353)"/><path class="b" d="M477.867,155.392a5.522,5.522,0,0,0,1.391,2.581c.009.01.009.026,0,.025-.187-.029-1.238-.146-1.391.866,0,.014-.019,0-.021-.013a5.519,5.519,0,0,0-1.4-2.584c-.01-.01-.01-.027,0-.026.189.03,1.248.15,1.4-.862C477.848,155.365,477.865,155.375,477.867,155.392Z" transform="translate(273.464 439.353)"/><path class="b" d="M473.561,152.906a5.521,5.521,0,0,0,1.391,2.581c.01.01.01.027,0,.025-.187-.029-1.238-.146-1.391.866,0,.014-.019,0-.021-.013a5.519,5.519,0,0,0-1.4-2.584c-.009-.01-.009-.027,0-.025.189.029,1.248.149,1.4-.863C473.542,152.879,473.559,152.889,473.561,152.906Z" transform="translate(273.729 439.353)"/><path class="b" d="M469.256,150.42A5.513,5.513,0,0,0,470.647,153c.009.01.009.027,0,.025-.188-.029-1.238-.146-1.391.866,0,.014-.019,0-.022-.013a5.507,5.507,0,0,0-1.4-2.584c-.009-.01-.009-.027,0-.025.19.029,1.249.149,1.4-.862C469.237,150.393,469.253,150.4,469.256,150.42Z" transform="translate(273.995 439.353)"/><path class="b" d="M464.95,142.942a5.522,5.522,0,0,0,1.391,2.581c.009.01.009.027,0,.025-.187-.029-1.238-.146-1.391.866,0,.014-.019,0-.021-.013a5.519,5.519,0,0,0-1.4-2.584c-.01-.01-.01-.027,0-.026.189.03,1.248.149,1.4-.862C464.931,142.915,464.948,142.925,464.95,142.942Z" transform="translate(274.26 439.353)"/><path class="b" d="M460.644,140.456a5.511,5.511,0,0,0,1.392,2.581c.009.01.009.027,0,.025-.188-.029-1.239-.146-1.392.866,0,.014-.019,0-.021-.013a5.518,5.518,0,0,0-1.4-2.584c-.009-.01-.009-.027,0-.025.189.029,1.248.149,1.4-.863C460.625,140.429,460.642,140.439,460.644,140.456Z" transform="translate(274.526 439.353)"/><path class="b" d="M456.339,137.97a5.513,5.513,0,0,0,1.391,2.581c.009.01.009.027,0,.025-.188-.029-1.238-.146-1.391.866,0,.014-.019,0-.022-.013a5.5,5.5,0,0,0-1.4-2.584c-.009-.01-.009-.027,0-.025.19.029,1.249.149,1.4-.862C456.32,137.943,456.336,137.954,456.339,137.97Z" transform="translate(274.791 439.353)"/><path class="b" d="M452.033,135.485a5.522,5.522,0,0,0,1.391,2.58c.01.01.009.027,0,.025-.187-.029-1.238-.145-1.391.866,0,.014-.019,0-.021-.013a5.524,5.524,0,0,0-1.4-2.584c-.01-.01-.01-.027,0-.025.189.029,1.248.149,1.4-.862C452.014,135.457,452.031,135.468,452.033,135.485Z" transform="translate(275.057 439.353)"/><path class="b" d="M447.727,133a5.5,5.5,0,0,0,1.392,2.58c.009.011.009.027,0,.026-.188-.03-1.239-.146-1.392.865,0,.014-.019,0-.021-.013a5.524,5.524,0,0,0-1.4-2.584c-.009-.01-.009-.027,0-.025.189.03,1.248.149,1.4-.862C447.708,132.972,447.725,132.982,447.727,133Z" transform="translate(275.322 439.353)"/><path class="b" d="M443.422,130.513a5.511,5.511,0,0,0,1.391,2.58c.009.011.009.027,0,.026-.188-.029-1.238-.146-1.391.865,0,.014-.019,0-.022-.013a5.508,5.508,0,0,0-1.4-2.584c-.009-.01-.009-.026,0-.025.19.03,1.249.149,1.4-.862C443.4,130.486,443.419,130.5,443.422,130.513Z" transform="translate(275.588 439.353)"/><path class="b" d="M439.116,128.027a5.511,5.511,0,0,0,1.391,2.58c.01.011.01.027,0,.026-.187-.029-1.238-.146-1.391.865,0,.014-.019,0-.021-.013a5.514,5.514,0,0,0-1.4-2.583c-.01-.011-.01-.027,0-.026.189.03,1.248.149,1.4-.862C439.1,128,439.114,128.01,439.116,128.027Z" transform="translate(275.853 439.353)"/><path class="b" d="M434.81,125.541a5.52,5.52,0,0,0,1.392,2.581c.009.01.009.027,0,.025-.188-.029-1.238-.146-1.392.865,0,.015-.019,0-.021-.013a5.51,5.51,0,0,0-1.4-2.583c-.009-.011-.009-.027,0-.026.189.03,1.249.149,1.4-.862C434.791,125.514,434.808,125.524,434.81,125.541Z" transform="translate(276.119 439.353)"/><path class="b" d="M430.5,123.055a5.521,5.521,0,0,0,1.391,2.581c.009.01.009.027,0,.025-.187-.029-1.238-.146-1.391.865,0,.015-.019,0-.022-.012a5.5,5.5,0,0,0-1.4-2.584c-.009-.011-.009-.027,0-.025.19.029,1.249.148,1.4-.863C430.486,123.028,430.5,123.038,430.5,123.055Z" transform="translate(276.384 439.353)"/><path class="b" d="M426.2,120.569a5.521,5.521,0,0,0,1.391,2.581c.01.01.01.027,0,.025-.187-.029-1.238-.146-1.391.866,0,.014-.019,0-.021-.013a5.519,5.519,0,0,0-1.4-2.584c-.009-.01-.009-.027,0-.025.189.029,1.248.149,1.4-.862C426.18,120.542,426.2,120.552,426.2,120.569Z" transform="translate(276.65 439.353)"/><path class="b" d="M477.867,150.4a5.511,5.511,0,0,0,1.391,2.58c.009.011.009.027,0,.026-.187-.029-1.238-.146-1.391.865,0,.014-.019,0-.021-.013a5.525,5.525,0,0,0-1.4-2.584c-.01-.01-.01-.026,0-.025.189.03,1.248.149,1.4-.862C477.848,150.373,477.865,150.383,477.867,150.4Z" transform="translate(273.464 439.353)"/><path class="b" d="M473.561,147.914a5.511,5.511,0,0,0,1.391,2.58c.01.011.01.027,0,.026-.187-.029-1.238-.146-1.391.865,0,.014-.019,0-.021-.013a5.514,5.514,0,0,0-1.4-2.583c-.009-.011-.009-.027,0-.026.189.03,1.248.149,1.4-.862C473.542,147.887,473.559,147.9,473.561,147.914Z" transform="translate(273.729 439.353)"/><path class="b" d="M469.256,145.428a5.5,5.5,0,0,0,1.391,2.58c.009.011.009.027,0,.026-.188-.029-1.238-.146-1.391.865,0,.015-.019,0-.022-.012a5.5,5.5,0,0,0-1.4-2.584c-.009-.011-.009-.027,0-.026.19.03,1.249.149,1.4-.862C469.237,145.4,469.253,145.411,469.256,145.428Z" transform="translate(273.995 439.353)"/><path class="b" d="M464.95,137.95a5.511,5.511,0,0,0,1.391,2.58c.009.011.009.027,0,.026-.187-.03-1.238-.146-1.391.865,0,.014-.019,0-.021-.013a5.524,5.524,0,0,0-1.4-2.584c-.01-.01-.01-.026,0-.025.189.03,1.248.149,1.4-.862C464.931,137.923,464.948,137.933,464.95,137.95Z" transform="translate(274.26 439.353)"/><path class="b" d="M460.644,135.464a5.5,5.5,0,0,0,1.392,2.58c.009.011.009.027,0,.026-.188-.029-1.239-.146-1.392.865,0,.014-.019,0-.021-.013a5.513,5.513,0,0,0-1.4-2.583c-.009-.011-.009-.027,0-.026.189.03,1.248.149,1.4-.862C460.625,135.437,460.642,135.447,460.644,135.464Z" transform="translate(274.526 439.353)"/><path class="b" d="M456.339,132.978a5.513,5.513,0,0,0,1.391,2.581c.009.01.009.026,0,.025-.188-.029-1.238-.146-1.391.865,0,.015-.019,0-.022-.013a5.5,5.5,0,0,0-1.4-2.583c-.009-.011-.009-.027,0-.026.19.03,1.249.149,1.4-.862C456.32,132.951,456.336,132.961,456.339,132.978Z" transform="translate(274.791 439.353)"/><path class="b" d="M452.033,130.492a5.521,5.521,0,0,0,1.391,2.581c.01.01.009.027,0,.025-.187-.029-1.238-.146-1.391.865,0,.015-.019.005-.021-.012a5.518,5.518,0,0,0-1.4-2.584c-.01-.011-.01-.027,0-.026.189.03,1.248.149,1.4-.862C452.014,130.465,452.031,130.475,452.033,130.492Z" transform="translate(275.057 439.353)"/><path class="b" d="M447.727,128.006a5.512,5.512,0,0,0,1.392,2.581c.009.01.009.027,0,.025-.188-.029-1.239-.146-1.392.866,0,.014-.019,0-.021-.013a5.518,5.518,0,0,0-1.4-2.584c-.009-.01-.009-.027,0-.025.189.029,1.248.149,1.4-.863C447.708,127.979,447.725,127.989,447.727,128.006Z" transform="translate(275.322 439.353)"/><path class="b" d="M443.422,125.52a5.521,5.521,0,0,0,1.391,2.581c.009.01.009.027,0,.025-.188-.029-1.238-.146-1.391.866,0,.014-.019,0-.022-.013a5.5,5.5,0,0,0-1.4-2.584c-.009-.01-.009-.027,0-.025.19.029,1.249.149,1.4-.862C443.4,125.493,443.419,125.5,443.422,125.52Z" transform="translate(275.588 439.353)"/><path class="b" d="M439.116,123.035a5.522,5.522,0,0,0,1.391,2.58c.01.01.01.027,0,.025-.187-.029-1.238-.145-1.391.866,0,.014-.019,0-.021-.013a5.524,5.524,0,0,0-1.4-2.584c-.01-.01-.01-.027,0-.025.189.029,1.248.149,1.4-.862C439.1,123.007,439.114,123.018,439.116,123.035Z" transform="translate(275.853 439.353)"/><path class="b" d="M434.81,120.549a5.516,5.516,0,0,0,1.392,2.58c.009.011.009.027,0,.026-.188-.029-1.238-.146-1.392.865,0,.014-.019,0-.021-.013a5.515,5.515,0,0,0-1.4-2.584c-.009-.01-.009-.027,0-.025.189.029,1.249.149,1.4-.862C434.791,120.522,434.808,120.532,434.81,120.549Z" transform="translate(276.119 439.353)"/><path class="b" d="M430.5,118.063a5.511,5.511,0,0,0,1.391,2.58c.009.011.009.027,0,.026-.187-.029-1.238-.146-1.391.865,0,.014-.019,0-.022-.013a5.5,5.5,0,0,0-1.4-2.583c-.009-.011-.009-.027,0-.026.19.03,1.249.149,1.4-.862C430.486,118.036,430.5,118.046,430.5,118.063Z" transform="translate(276.384 439.353)"/><path class="b" d="M426.2,115.577a5.511,5.511,0,0,0,1.391,2.58c.01.011.01.027,0,.026-.187-.029-1.238-.146-1.391.865,0,.015-.019,0-.021-.013a5.519,5.519,0,0,0-1.4-2.583c-.009-.011-.009-.027,0-.026.189.03,1.248.149,1.4-.862C426.18,115.55,426.2,115.56,426.2,115.577Z" transform="translate(276.65 439.353)"/><path class="b" d="M421.893,143.046a5.521,5.521,0,0,0,1.392,2.58c.009.01.009.027,0,.025-.188-.029-1.238-.145-1.392.866,0,.014-.019,0-.021-.013a5.515,5.515,0,0,0-1.4-2.584c-.009-.01-.009-.027,0-.025.189.029,1.249.149,1.4-.862C421.874,143.018,421.891,143.029,421.893,143.046Z" transform="translate(276.915 439.353)"/><path class="b" d="M417.588,140.56a5.516,5.516,0,0,0,1.391,2.58c.009.011.009.027,0,.026-.187-.029-1.238-.146-1.391.865,0,.014-.019,0-.021-.013a5.524,5.524,0,0,0-1.4-2.584c-.01-.01-.01-.027,0-.025.189.03,1.248.149,1.4-.862C417.569,140.533,417.586,140.543,417.588,140.56Z" transform="translate(277.181 439.353)"/><path class="b" d="M413.282,138.074a5.511,5.511,0,0,0,1.391,2.58c.01.011.01.027,0,.026-.187-.029-1.238-.146-1.391.865,0,.014-.019,0-.021-.013a5.513,5.513,0,0,0-1.4-2.583c-.009-.011-.009-.027,0-.026.189.03,1.248.149,1.4-.862C413.263,138.047,413.28,138.057,413.282,138.074Z" transform="translate(277.446 439.353)"/><path class="b" d="M408.977,135.588a5.5,5.5,0,0,0,1.391,2.58c.009.011.009.027,0,.026-.188-.029-1.238-.146-1.391.865,0,.015-.019,0-.022-.013a5.5,5.5,0,0,0-1.4-2.583c-.009-.011-.009-.027,0-.026.189.03,1.249.149,1.4-.862C408.958,135.561,408.974,135.571,408.977,135.588Z" transform="translate(277.711 439.353)"/><path class="b" d="M421.893,138.053a5.52,5.52,0,0,0,1.392,2.581c.009.01.009.026,0,.025-.188-.029-1.238-.146-1.392.865,0,.015-.019.005-.021-.012a5.51,5.51,0,0,0-1.4-2.584c-.009-.01-.009-.027,0-.026.189.03,1.249.149,1.4-.862C421.874,138.026,421.891,138.036,421.893,138.053Z" transform="translate(276.915 439.353)"/><path class="b" d="M417.588,135.567a5.521,5.521,0,0,0,1.391,2.581c.009.01.009.027,0,.025-.187-.029-1.238-.146-1.391.866,0,.014-.019,0-.021-.013a5.518,5.518,0,0,0-1.4-2.584c-.01-.01-.01-.027,0-.025.189.029,1.248.149,1.4-.863C417.569,135.54,417.586,135.55,417.588,135.567Z" transform="translate(277.181 439.353)"/><path class="b" d="M413.282,133.081a5.521,5.521,0,0,0,1.391,2.581c.01.01.01.027,0,.025-.187-.029-1.238-.146-1.391.866,0,.014-.019,0-.021-.013a5.518,5.518,0,0,0-1.4-2.584c-.009-.01-.009-.027,0-.025.189.029,1.248.149,1.4-.862C413.263,133.054,413.28,133.065,413.282,133.081Z" transform="translate(277.446 439.353)"/><path class="b" d="M408.977,130.6a5.513,5.513,0,0,0,1.391,2.58c.009.01.009.027,0,.025-.188-.029-1.238-.145-1.391.866,0,.014-.019,0-.022-.013a5.507,5.507,0,0,0-1.4-2.584c-.009-.01-.009-.027,0-.025.189.029,1.249.149,1.4-.862C408.958,130.568,408.974,130.579,408.977,130.6Z" transform="translate(277.711 439.353)"/><path class="b" d="M421.893,133.061a5.51,5.51,0,0,0,1.392,2.58c.009.011.009.027,0,.026-.188-.03-1.238-.146-1.392.865,0,.014-.019,0-.021-.013a5.515,5.515,0,0,0-1.4-2.584c-.009-.01-.009-.026,0-.025.189.03,1.249.149,1.4-.862C421.874,133.034,421.891,133.044,421.893,133.061Z" transform="translate(276.915 439.353)"/><path class="b" d="M417.588,130.575a5.511,5.511,0,0,0,1.391,2.58c.009.011.009.027,0,.026-.187-.029-1.238-.146-1.391.865,0,.014-.019,0-.021-.013a5.514,5.514,0,0,0-1.4-2.583c-.01-.011-.01-.027,0-.026.189.03,1.248.149,1.4-.862C417.569,130.548,417.586,130.558,417.588,130.575Z" transform="translate(277.181 439.353)"/><path class="b" d="M413.282,128.089a5.511,5.511,0,0,0,1.391,2.58c.01.011.01.027,0,.026-.187-.029-1.238-.146-1.391.865,0,.015-.019,0-.021-.013a5.513,5.513,0,0,0-1.4-2.583c-.009-.011-.009-.027,0-.026.189.03,1.248.149,1.4-.862C413.263,128.062,413.28,128.072,413.282,128.089Z" transform="translate(277.446 439.353)"/><path class="b" d="M408.977,125.6a5.513,5.513,0,0,0,1.391,2.581c.009.01.009.027,0,.025-.188-.029-1.238-.146-1.391.865,0,.015-.019,0-.022-.012a5.5,5.5,0,0,0-1.4-2.584c-.009-.011-.009-.027,0-.026.189.03,1.249.149,1.4-.862C408.958,125.576,408.974,125.586,408.977,125.6Z" transform="translate(277.711 439.353)"/><path class="b" d="M421.893,128.068a5.52,5.52,0,0,0,1.392,2.581c.009.01.009.027,0,.025-.188-.029-1.238-.146-1.392.866,0,.014-.019,0-.021-.013a5.51,5.51,0,0,0-1.4-2.584c-.009-.01-.009-.027,0-.025.189.029,1.249.149,1.4-.863C421.874,128.041,421.891,128.051,421.893,128.068Z" transform="translate(276.915 439.353)"/><path class="b" d="M417.588,125.582a5.521,5.521,0,0,0,1.391,2.581c.009.01.009.027,0,.025-.187-.029-1.238-.146-1.391.866,0,.014-.019,0-.021-.013a5.524,5.524,0,0,0-1.4-2.584c-.01-.01-.01-.027,0-.025.189.029,1.248.149,1.4-.862C417.569,125.555,417.586,125.566,417.588,125.582Z" transform="translate(277.181 439.353)"/><path class="b" d="M413.282,123.1a5.522,5.522,0,0,0,1.391,2.58c.01.01.01.027,0,.025-.187-.029-1.238-.145-1.391.866,0,.014-.019,0-.021-.013a5.524,5.524,0,0,0-1.4-2.584c-.009-.01-.009-.027,0-.025.189.029,1.248.149,1.4-.862C413.263,123.069,413.28,123.08,413.282,123.1Z" transform="translate(277.446 439.353)"/><path class="b" d="M408.977,120.611a5.5,5.5,0,0,0,1.391,2.58c.009.011.009.027,0,.026-.188-.029-1.238-.146-1.391.865,0,.014-.019,0-.022-.013a5.507,5.507,0,0,0-1.4-2.584c-.009-.01-.009-.026,0-.025.189.03,1.249.149,1.4-.862C408.958,120.584,408.974,120.594,408.977,120.611Z" transform="translate(277.711 439.353)"/><path class="b" d="M421.893,123.076a5.51,5.51,0,0,0,1.392,2.58c.009.011.009.027,0,.026-.188-.029-1.238-.146-1.392.865,0,.014-.019,0-.021-.013a5.505,5.505,0,0,0-1.4-2.583c-.009-.011-.009-.027,0-.026.189.03,1.249.149,1.4-.862C421.874,123.049,421.891,123.059,421.893,123.076Z" transform="translate(276.915 439.353)"/><path class="b" d="M417.588,120.59a5.521,5.521,0,0,0,1.391,2.581c.009.01.009.026,0,.025-.187-.029-1.238-.146-1.391.865,0,.015-.019,0-.021-.013a5.519,5.519,0,0,0-1.4-2.583c-.01-.011-.01-.027,0-.026.189.03,1.248.149,1.4-.862C417.569,120.563,417.586,120.573,417.588,120.59Z" transform="translate(277.181 439.353)"/><path class="b" d="M413.282,118.1a5.521,5.521,0,0,0,1.391,2.581c.01.01.01.027,0,.025-.187-.029-1.238-.146-1.391.865,0,.015-.019,0-.021-.012a5.518,5.518,0,0,0-1.4-2.584c-.009-.011-.009-.027,0-.026.189.03,1.248.149,1.4-.862C413.263,118.077,413.28,118.087,413.282,118.1Z" transform="translate(277.446 439.353)"/><path class="b" d="M408.977,115.618a5.513,5.513,0,0,0,1.391,2.581c.009.01.009.027,0,.025-.188-.029-1.238-.146-1.391.866,0,.014-.019,0-.022-.013a5.5,5.5,0,0,0-1.4-2.584c-.009-.01-.009-.027,0-.025.189.029,1.249.149,1.4-.863C408.958,115.591,408.974,115.6,408.977,115.618Z" transform="translate(277.711 439.353)"/><path class="b" d="M421.893,118.084a5.521,5.521,0,0,0,1.392,2.58c.009.01.009.027,0,.025-.188-.029-1.238-.145-1.392.866,0,.014-.019,0-.021-.013a5.51,5.51,0,0,0-1.4-2.584c-.009-.01-.009-.027,0-.025.189.029,1.249.149,1.4-.862C421.874,118.056,421.891,118.067,421.893,118.084Z" transform="translate(276.915 439.353)"/><path class="b" d="M417.588,115.6a5.517,5.517,0,0,0,1.391,2.58c.009.011.009.027,0,.026-.187-.03-1.238-.146-1.391.865,0,.014-.019,0-.021-.013a5.524,5.524,0,0,0-1.4-2.584c-.01-.01-.01-.027,0-.025.189.03,1.248.149,1.4-.862C417.569,115.57,417.586,115.581,417.588,115.6Z" transform="translate(277.181 439.353)"/><path class="b" d="M413.282,113.112a5.516,5.516,0,0,0,1.391,2.58c.01.011.01.027,0,.026-.187-.029-1.238-.146-1.391.865,0,.014-.019,0-.021-.013a5.524,5.524,0,0,0-1.4-2.584c-.009-.01-.009-.027,0-.025.189.03,1.248.149,1.4-.862C413.263,113.085,413.28,113.1,413.282,113.112Z" transform="translate(277.446 439.353)"/><path class="b" d="M408.977,110.626a5.5,5.5,0,0,0,1.391,2.58c.009.011.009.027,0,.026-.188-.029-1.238-.146-1.391.865,0,.014-.019,0-.022-.013a5.5,5.5,0,0,0-1.4-2.583c-.009-.011-.009-.027,0-.026.189.03,1.249.149,1.4-.862C408.958,110.6,408.974,110.609,408.977,110.626Z" transform="translate(277.711 439.353)"/><path class="b" d="M421.893,113.091a5.52,5.52,0,0,0,1.392,2.581c.009.01.009.026,0,.025-.188-.029-1.238-.146-1.392.865,0,.015-.019,0-.021-.012a5.51,5.51,0,0,0-1.4-2.584c-.009-.011-.009-.027,0-.026.189.03,1.249.149,1.4-.862C421.874,113.064,421.891,113.074,421.893,113.091Z" transform="translate(276.915 439.353)"/><path class="b" d="M417.588,110.605a5.521,5.521,0,0,0,1.391,2.581c.009.01.009.027,0,.025-.187-.029-1.238-.146-1.391.866,0,.014-.019,0-.021-.013a5.518,5.518,0,0,0-1.4-2.584c-.01-.01-.01-.027,0-.026.189.03,1.248.15,1.4-.862C417.569,110.578,417.586,110.588,417.588,110.605Z" transform="translate(277.181 439.353)"/><path class="b" d="M413.282,108.119a5.521,5.521,0,0,0,1.391,2.581c.01.01.01.027,0,.025-.187-.029-1.238-.146-1.391.866,0,.014-.019,0-.021-.013a5.518,5.518,0,0,0-1.4-2.584c-.009-.01-.009-.027,0-.025.189.029,1.248.149,1.4-.863C413.263,108.092,413.28,108.1,413.282,108.119Z" transform="translate(277.446 439.353)"/><path class="b" d="M408.977,105.633a5.513,5.513,0,0,0,1.391,2.581c.009.01.009.027,0,.025-.188-.029-1.238-.146-1.391.866,0,.014-.019,0-.022-.013a5.507,5.507,0,0,0-1.4-2.584c-.009-.01-.009-.027,0-.025.189.029,1.249.149,1.4-.862C408.958,105.606,408.974,105.617,408.977,105.633Z" transform="translate(277.711 439.353)"/><path class="b" d="M477.867,145.407a5.522,5.522,0,0,0,1.391,2.581c.009.01.009.027,0,.025-.187-.029-1.238-.146-1.391.866,0,.014-.019,0-.021-.013a5.519,5.519,0,0,0-1.4-2.584c-.01-.01-.01-.027,0-.025.189.029,1.248.149,1.4-.862C477.848,145.38,477.865,145.39,477.867,145.407Z" transform="translate(273.464 439.353)"/><path class="b" d="M473.561,142.922a5.522,5.522,0,0,0,1.391,2.58c.01.01.01.027,0,.025-.187-.029-1.238-.145-1.391.866,0,.014-.019,0-.021-.013a5.524,5.524,0,0,0-1.4-2.584c-.009-.01-.009-.027,0-.025.189.029,1.248.149,1.4-.862C473.542,142.894,473.559,142.9,473.561,142.922Z" transform="translate(273.729 439.353)"/><path class="b" d="M469.256,140.436a5.508,5.508,0,0,0,1.391,2.58c.009.01.009.027,0,.026-.188-.03-1.238-.146-1.391.865,0,.014-.019,0-.022-.013a5.507,5.507,0,0,0-1.4-2.584c-.009-.01-.009-.027,0-.025.19.029,1.249.149,1.4-.862C469.237,140.409,469.253,140.419,469.256,140.436Z" transform="translate(273.995 439.353)"/><path class="b" d="M346.584,163.4a5.51,5.51,0,0,0,1.392,2.58c.009.011.009.027,0,.026-.188-.029-1.238-.146-1.392.865,0,.015-.019,0-.021-.013a5.51,5.51,0,0,0-1.4-2.583c-.009-.011-.009-.027,0-.026.189.03,1.249.149,1.4-.862C346.565,163.374,346.582,163.384,346.584,163.4Z" transform="translate(281.558 439.353)"/><path class="b" d="M346.584,158.409a5.521,5.521,0,0,0,1.392,2.58c.009.01.009.027,0,.025-.188-.029-1.238-.145-1.392.866,0,.014-.019,0-.021-.013a5.515,5.515,0,0,0-1.4-2.584c-.009-.01-.009-.027,0-.025.189.029,1.249.149,1.4-.862C346.565,158.381,346.582,158.392,346.584,158.409Z" transform="translate(281.558 439.353)"/><path class="b" d="M346.584,153.416A5.52,5.52,0,0,0,347.976,156c.009.01.009.027,0,.025-.188-.029-1.238-.146-1.392.865,0,.015-.019.005-.021-.012a5.51,5.51,0,0,0-1.4-2.584c-.009-.011-.009-.027,0-.026.189.03,1.249.149,1.4-.862C346.565,153.389,346.582,153.4,346.584,153.416Z" transform="translate(281.558 439.353)"/><path class="b" d="M346.584,148.424a5.515,5.515,0,0,0,1.392,2.58c.009.011.009.027,0,.026-.188-.029-1.238-.146-1.392.865,0,.014-.019,0-.021-.013a5.515,5.515,0,0,0-1.4-2.584c-.009-.01-.009-.027,0-.025.189.029,1.249.149,1.4-.862C346.565,148.4,346.582,148.407,346.584,148.424Z" transform="translate(281.558 439.353)"/><path class="b" d="M346.584,143.431a5.52,5.52,0,0,0,1.392,2.581c.009.01.009.027,0,.025-.188-.029-1.238-.146-1.392.866,0,.014-.019,0-.021-.013a5.51,5.51,0,0,0-1.4-2.584c-.009-.01-.009-.027,0-.025.189.029,1.249.149,1.4-.863C346.565,143.4,346.582,143.414,346.584,143.431Z" transform="translate(281.558 439.353)"/><path class="b" d="M342.279,160.915a5.521,5.521,0,0,0,1.391,2.581c.009.01.009.026,0,.025-.187-.029-1.238-.146-1.391.865,0,.015-.019,0-.022-.012a5.5,5.5,0,0,0-1.4-2.584c-.009-.011-.009-.027,0-.026.19.03,1.249.149,1.4-.862C342.26,160.888,342.276,160.9,342.279,160.915Z" transform="translate(281.824 439.353)"/><path class="b" d="M337.973,158.429a5.521,5.521,0,0,0,1.391,2.581c.01.01.01.027,0,.025-.187-.029-1.238-.146-1.391.866,0,.014-.019,0-.021-.013a5.518,5.518,0,0,0-1.4-2.584c-.009-.01-.009-.027,0-.025.189.029,1.248.148,1.4-.863C337.954,158.4,337.971,158.412,337.973,158.429Z" transform="translate(282.089 439.353)"/><path class="b" d="M333.667,155.943a5.521,5.521,0,0,0,1.392,2.581c.009.01.009.027,0,.025-.188-.029-1.238-.146-1.392.866,0,.014-.019,0-.021-.013a5.51,5.51,0,0,0-1.4-2.584c-.009-.01-.009-.027,0-.025.189.029,1.249.149,1.4-.863C333.648,155.916,333.665,155.926,333.667,155.943Z" transform="translate(282.355 439.353)"/><path class="b" d="M329.362,153.458a5.522,5.522,0,0,0,1.391,2.58c.009.01.009.027,0,.025-.187-.029-1.238-.146-1.391.866,0,.014-.019,0-.021-.013a5.524,5.524,0,0,0-1.4-2.584c-.01-.01-.01-.027,0-.025.189.029,1.248.149,1.4-.862C329.343,153.43,329.36,153.441,329.362,153.458Z" transform="translate(282.62 439.353)"/><path class="b" d="M342.279,155.923a5.517,5.517,0,0,0,1.391,2.58c.009.011.009.027,0,.026-.187-.03-1.238-.146-1.391.865,0,.014-.019,0-.022-.013a5.507,5.507,0,0,0-1.4-2.584c-.009-.01-.009-.027,0-.025.19.03,1.249.149,1.4-.862C342.26,155.9,342.276,155.906,342.279,155.923Z" transform="translate(281.824 439.353)"/><path class="b" d="M337.973,153.437a5.511,5.511,0,0,0,1.391,2.58c.01.011.01.027,0,.026-.187-.029-1.238-.146-1.391.865,0,.014-.019,0-.021-.013a5.524,5.524,0,0,0-1.4-2.584c-.009-.01-.009-.026,0-.025.189.03,1.248.149,1.4-.862C337.954,153.41,337.971,153.42,337.973,153.437Z" transform="translate(282.089 439.353)"/><path class="b" d="M333.667,150.951a5.51,5.51,0,0,0,1.392,2.58c.009.011.009.027,0,.026-.188-.029-1.238-.146-1.392.865,0,.014-.019,0-.021-.013a5.505,5.505,0,0,0-1.4-2.583c-.009-.011-.009-.027,0-.026.189.03,1.249.149,1.4-.862C333.648,150.924,333.665,150.934,333.667,150.951Z" transform="translate(282.355 439.353)"/><path class="b" d="M329.362,148.465a5.521,5.521,0,0,0,1.391,2.581c.009.01.009.026,0,.025-.187-.029-1.238-.146-1.391.865,0,.015-.019,0-.021-.013a5.519,5.519,0,0,0-1.4-2.583c-.01-.011-.01-.027,0-.026.189.03,1.248.149,1.4-.862C329.343,148.438,329.36,148.448,329.362,148.465Z" transform="translate(282.62 439.353)"/><path class="b" d="M342.279,150.93a5.521,5.521,0,0,0,1.391,2.581c.009.01.009.027,0,.025-.187-.029-1.238-.146-1.391.865,0,.015-.019.005-.022-.012a5.5,5.5,0,0,0-1.4-2.584c-.009-.01-.009-.027,0-.025.19.029,1.249.149,1.4-.863C342.26,150.9,342.276,150.913,342.279,150.93Z" transform="translate(281.824 439.353)"/><path class="b" d="M337.973,148.444a5.521,5.521,0,0,0,1.391,2.581c.01.01.01.027,0,.025-.187-.029-1.238-.146-1.391.866,0,.014-.019,0-.021-.013a5.518,5.518,0,0,0-1.4-2.584c-.009-.01-.009-.027,0-.025.189.029,1.248.149,1.4-.862C337.954,148.417,337.971,148.427,337.973,148.444Z" transform="translate(282.089 439.353)"/><path class="b" d="M333.667,145.959a5.521,5.521,0,0,0,1.392,2.58c.009.01.009.027,0,.025-.188-.029-1.238-.145-1.392.866,0,.014-.019,0-.021-.013a5.51,5.51,0,0,0-1.4-2.584c-.009-.01-.009-.027,0-.025.189.029,1.249.149,1.4-.862C333.648,145.931,333.665,145.942,333.667,145.959Z" transform="translate(282.355 439.353)"/><path class="b" d="M329.362,143.473a5.516,5.516,0,0,0,1.391,2.58c.009.011.009.027,0,.026-.187-.03-1.238-.146-1.391.865,0,.014-.019,0-.021-.013a5.524,5.524,0,0,0-1.4-2.584c-.01-.01-.01-.027,0-.025.189.03,1.248.149,1.4-.862C329.343,143.445,329.36,143.456,329.362,143.473Z" transform="translate(282.62 439.353)"/><path class="b" d="M342.279,145.938a5.511,5.511,0,0,0,1.391,2.58c.009.011.009.027,0,.026-.187-.029-1.238-.146-1.391.865,0,.014-.019,0-.022-.013a5.5,5.5,0,0,0-1.4-2.583c-.009-.011-.009-.027,0-.026.19.03,1.249.149,1.4-.862C342.26,145.911,342.276,145.921,342.279,145.938Z" transform="translate(281.824 439.353)"/><path class="b" d="M337.973,143.452a5.521,5.521,0,0,0,1.391,2.581c.01.01.01.026,0,.025-.187-.029-1.238-.146-1.391.865,0,.015-.019,0-.021-.013a5.519,5.519,0,0,0-1.4-2.583c-.009-.011-.009-.027,0-.026.189.03,1.248.149,1.4-.862C337.954,143.425,337.971,143.435,337.973,143.452Z" transform="translate(282.089 439.353)"/><path class="b" d="M333.667,140.966a5.521,5.521,0,0,0,1.392,2.581c.009.01.009.027,0,.025-.188-.029-1.238-.146-1.392.865,0,.015-.019,0-.021-.012a5.51,5.51,0,0,0-1.4-2.584c-.009-.011-.009-.027,0-.026.189.03,1.249.149,1.4-.862C333.648,140.939,333.665,140.949,333.667,140.966Z" transform="translate(282.355 439.353)"/><path class="b" d="M329.362,138.48a5.521,5.521,0,0,0,1.391,2.581c.009.01.009.027,0,.025-.187-.029-1.238-.146-1.391.866,0,.014-.019,0-.021-.013a5.519,5.519,0,0,0-1.4-2.584c-.01-.01-.01-.027,0-.026.189.03,1.248.15,1.4-.862C329.343,138.453,329.36,138.463,329.362,138.48Z" transform="translate(282.62 439.353)"/><path class="b" d="M342.279,140.945a5.521,5.521,0,0,0,1.391,2.581c.009.01.009.027,0,.025-.187-.029-1.238-.146-1.391.866,0,.014-.019,0-.022-.013a5.507,5.507,0,0,0-1.4-2.584c-.009-.01-.009-.027,0-.025.19.029,1.249.149,1.4-.863C342.26,140.918,342.276,140.929,342.279,140.945Z" transform="translate(281.824 439.353)"/><path class="b" d="M337.973,138.459a5.521,5.521,0,0,0,1.391,2.581c.01.01.01.027,0,.025-.187-.029-1.238-.146-1.391.866,0,.014-.019,0-.021-.013a5.524,5.524,0,0,0-1.4-2.584c-.009-.01-.009-.027,0-.025.189.029,1.248.149,1.4-.862C337.954,138.432,337.971,138.443,337.973,138.459Z" transform="translate(282.089 439.353)"/><path class="b" d="M333.667,135.974a5.521,5.521,0,0,0,1.392,2.58c.009.011.009.027,0,.026-.188-.029-1.238-.146-1.392.865,0,.014-.019,0-.021-.013a5.515,5.515,0,0,0-1.4-2.584c-.009-.01-.009-.027,0-.025.189.029,1.249.149,1.4-.862C333.648,135.947,333.665,135.957,333.667,135.974Z" transform="translate(282.355 439.353)"/><path class="b" d="M329.362,133.488a5.511,5.511,0,0,0,1.391,2.58c.009.011.009.027,0,.026-.187-.029-1.238-.146-1.391.865,0,.014-.019,0-.021-.013a5.514,5.514,0,0,0-1.4-2.583c-.01-.011-.01-.027,0-.026.189.03,1.248.149,1.4-.862C329.343,133.461,329.36,133.471,329.362,133.488Z" transform="translate(282.62 439.353)"/><path class="a" d="M299.9,131.686l-19.279.031a.411.411,0,0,0-.4.423l.007,30.716h.006a2.432,2.432,0,0,0,1.316,1.789l5.8,3.57a5.7,5.7,0,0,0,5.427.24l6.582-4.05a1.684,1.684,0,0,0,.927-1.549h.006V132.109A.411.411,0,0,0,299.9,131.686Z" transform="translate(285.562 439.353)"/><path class="b" d="M290.381,169.669a6.541,6.541,0,0,1-3.36-.9l-5.8-3.57a3.354,3.354,0,0,1-1.492-1.705h-.121l-.006-.633-.008-30.716a1.027,1.027,0,0,1,.991-1.056l19.278-.032h0a.972.972,0,0,1,.7.309,1.087,1.087,0,0,1,.29.748v31.38h-.07a2.486,2.486,0,0,1-1.159,1.465L293.043,169A5.13,5.13,0,0,1,290.381,169.669Zm-9.593-6.914,0,.055a1.868,1.868,0,0,0,1.02,1.287l5.8,3.57a5.174,5.174,0,0,0,4.833.239l6.581-4.049a1.108,1.108,0,0,0,.631-.955l-.046-.68h.051v-29.9l-18.884.031Z" transform="translate(285.601 439.353)"/><path class="b" d="M300.611,131.705l-8.873.014v37.3a4.2,4.2,0,0,0,1.757-.54l6.582-4.05a1.684,1.684,0,0,0,.927-1.55h.006V132.128A.411.411,0,0,0,300.611,131.705Z" transform="translate(284.852 439.353)"/><path class="c" d="M299.366,133.268l-6.582,4.05a5.7,5.7,0,0,1-5.427-.24l-5.8-3.57c-1.606-.989-1.781-2.484-.389-3.34l6.582-4.05a5.7,5.7,0,0,1,5.427.24l5.8,3.57C300.583,130.917,300.758,132.412,299.366,133.268Z" transform="translate(285.562 439.353)"/><path class="b" d="M290.383,138.531a6.542,6.542,0,0,1-3.362-.9l-5.8-3.571a3,3,0,0,1-1.626-2.437,2.346,2.346,0,0,1,1.237-2l6.582-4.05a6.239,6.239,0,0,1,6.022.24l5.8,3.57a3,3,0,0,1,1.626,2.439,2.345,2.345,0,0,1-1.237,2l-6.582,4.05A5.139,5.139,0,0,1,290.383,138.531Zm-.325-12.356a4,4,0,0,0-2.054.492l-6.581,4.05a1.153,1.153,0,0,0-.643.9,1.834,1.834,0,0,0,1.032,1.34l5.8,3.57a5.171,5.171,0,0,0,4.833.24l6.582-4.05a1.154,1.154,0,0,0,.642-.9,1.83,1.83,0,0,0-1.032-1.341l-5.8-3.57A5.456,5.456,0,0,0,290.058,126.175Z" transform="translate(285.601 439.353)"/><rect class="b" width="1.189" height="31.107" transform="translate(572.946 576.759)"/><rect class="a" width="0.915" height="27.679" transform="translate(583.147 575.053)"/><path class="a" d="M287.01,162.432l-19.28.031a.411.411,0,0,0-.4.423l.008,9.265h.006a2.431,2.431,0,0,0,1.316,1.79l5.8,3.57a5.706,5.706,0,0,0,5.428.24l6.582-4.05a1.686,1.686,0,0,0,.926-1.55h.006v-9.3A.411.411,0,0,0,287.01,162.432Z" transform="translate(286.357 439.353)"/><path class="b" d="M277.491,178.964a6.557,6.557,0,0,1-3.362-.9l-5.8-3.571a3.353,3.353,0,0,1-1.492-1.7h-.121l-.006-.633-.007-9.266a1.027,1.027,0,0,1,.989-1.056l19.28-.032h0a.954.954,0,0,1,.7.309,1.081,1.081,0,0,1,.292.748v9.93h-.071a2.488,2.488,0,0,1-1.158,1.464l-6.581,4.051A5.145,5.145,0,0,1,277.491,178.964Zm-9.595-6.909,0,.05a1.865,1.865,0,0,0,1.02,1.286l5.8,3.572a5.183,5.183,0,0,0,4.833.24l6.582-4.051a1.106,1.106,0,0,0,.631-.955l-.046-.68h.05v-8.451l-18.883.031Z" transform="translate(286.396 439.353)"/><path class="b" d="M287.72,162.451l-8.874.014V178.31a4.2,4.2,0,0,0,1.757-.54l6.582-4.05a1.686,1.686,0,0,0,.926-1.55h.006v-9.3A.41.41,0,0,0,287.72,162.451Z" transform="translate(285.647 439.353)"/><path class="c" d="M286.475,164.014l-6.582,4.05a5.708,5.708,0,0,1-5.428-.24l-5.8-3.571c-1.606-.988-1.781-2.483-.389-3.339l6.582-4.05a5.7,5.7,0,0,1,5.428.24l5.8,3.57C287.692,161.663,287.867,163.158,286.475,164.014Z" transform="translate(286.357 439.353)"/><path class="b" d="M277.491,169.276a6.537,6.537,0,0,1-3.362-.9l-5.8-3.57a2.993,2.993,0,0,1-1.625-2.438,2.345,2.345,0,0,1,1.236-2l6.582-4.05a6.238,6.238,0,0,1,6.023.24l5.8,3.57a3,3,0,0,1,1.626,2.438,2.346,2.346,0,0,1-1.237,2l-6.582,4.049A5.129,5.129,0,0,1,277.491,169.276Zm-.325-12.355a3.991,3.991,0,0,0-2.053.492l-6.582,4.05a1.152,1.152,0,0,0-.642.9,1.832,1.832,0,0,0,1.031,1.341l5.8,3.57a5.173,5.173,0,0,0,4.832.24l6.582-4.05a1.154,1.154,0,0,0,.642-.9,1.829,1.829,0,0,0-1.031-1.34l-5.8-3.57A5.462,5.462,0,0,0,277.166,156.921Z" transform="translate(286.396 439.353)"/><rect class="b" width="1.189" height="9.656" transform="translate(560.849 607.505)"/><rect class="a" width="0.915" height="6.23" transform="translate(571.05 605.798)"/><path class="a" d="M346.3,266.554l-19.279.031a.411.411,0,0,0-.4.423l.007,18.04h.006a2.431,2.431,0,0,0,1.316,1.79l5.8,3.57a5.7,5.7,0,0,0,5.427.24l6.582-4.05a1.684,1.684,0,0,0,.927-1.55h.006V266.977A.411.411,0,0,0,346.3,266.554Z" transform="translate(282.701 439.353)"/><path class="b" d="M336.782,291.861a6.537,6.537,0,0,1-3.362-.9l-5.8-3.571a3.349,3.349,0,0,1-1.492-1.7H326l-.006-.634-.008-18.039a1.027,1.027,0,0,1,.991-1.057l19.276-.032a1.027,1.027,0,0,1,1,1.057v18.705h-.071a2.491,2.491,0,0,1-1.159,1.465l-6.582,4.05A5.141,5.141,0,0,1,336.782,291.861Zm-9.594-6.908,0,.049a1.869,1.869,0,0,0,1.02,1.288l5.8,3.57a5.173,5.173,0,0,0,4.832.24l6.582-4.05a1.109,1.109,0,0,0,.631-.956l-.045-.68h.049V267.189l-18.883.03Z" transform="translate(282.74 439.353)"/><path class="b" d="M347.01,266.573l-8.873.014v24.62a4.2,4.2,0,0,0,1.757-.54l6.582-4.05a1.684,1.684,0,0,0,.927-1.55h.006V267A.411.411,0,0,0,347.01,266.573Z" transform="translate(281.991 439.353)"/><path class="c" d="M345.765,268.136l-6.582,4.05a5.7,5.7,0,0,1-5.427-.24l-5.8-3.57c-1.606-.989-1.781-2.484-.389-3.34l6.582-4.05a5.706,5.706,0,0,1,5.428.24l5.8,3.57C346.982,265.785,347.157,267.28,345.765,268.136Z" transform="translate(282.701 439.353)"/><path class="b" d="M336.782,273.4a6.547,6.547,0,0,1-3.362-.9l-5.8-3.571a2.994,2.994,0,0,1-1.626-2.437,2.348,2.348,0,0,1,1.237-2l6.582-4.049a6.236,6.236,0,0,1,6.023.24l5.8,3.569a2.994,2.994,0,0,1,1.626,2.439,2.346,2.346,0,0,1-1.237,2l-6.582,4.05A5.141,5.141,0,0,1,336.782,273.4Zm-.325-12.355a4,4,0,0,0-2.053.491l-6.582,4.049a1.158,1.158,0,0,0-.643.9,1.833,1.833,0,0,0,1.032,1.34l5.8,3.571a5.176,5.176,0,0,0,4.832.24l6.582-4.052a1.15,1.15,0,0,0,.643-.9,1.835,1.835,0,0,0-1.032-1.342l-5.8-3.569A5.461,5.461,0,0,0,336.457,261.044Z" transform="translate(282.74 439.353)"/><rect class="b" width="1.19" height="18.431" transform="translate(616.484 711.627)"/><rect class="a" width="0.915" height="15.004" transform="translate(626.685 709.921)"/><path class="a" d="M332.479,284.437l-19.28.031a.411.411,0,0,0-.4.423l.008,6.34h.006a2.433,2.433,0,0,0,1.316,1.79l5.8,3.57a5.708,5.708,0,0,0,5.428.24l6.582-4.05a1.686,1.686,0,0,0,.926-1.55h.006V284.86A.41.41,0,0,0,332.479,284.437Z" transform="translate(283.553 439.353)"/><path class="b" d="M322.96,298.044a6.536,6.536,0,0,1-3.362-.9l-5.8-3.57a3.361,3.361,0,0,1-1.492-1.7h-.12l-.007-.633-.008-6.34a1.028,1.028,0,0,1,.991-1.058l19.28-.031a1.028,1.028,0,0,1,.992,1.057v7.005h-.071a2.491,2.491,0,0,1-1.159,1.465l-6.582,4.049A5.134,5.134,0,0,1,322.96,298.044Zm-9.595-6.909,0,.05a1.873,1.873,0,0,0,1.02,1.287l5.8,3.57a5.17,5.17,0,0,0,4.832.24l6.582-4.049a1.108,1.108,0,0,0,.632-.956l-.046-.68h.05v-5.526l-18.882.03Z" transform="translate(283.592 439.353)"/><path class="b" d="M333.189,284.456l-8.874.014v12.919a4.189,4.189,0,0,0,1.757-.539l6.582-4.05a1.686,1.686,0,0,0,.926-1.55h.006v-6.371A.41.41,0,0,0,333.189,284.456Z" transform="translate(282.843 439.353)"/><path class="c" d="M331.944,286.019l-6.582,4.049a5.7,5.7,0,0,1-5.428-.24l-5.8-3.57c-1.606-.988-1.781-2.483-.389-3.339l6.582-4.05a5.7,5.7,0,0,1,5.428.24l5.8,3.57C333.161,283.667,333.336,285.163,331.944,286.019Z" transform="translate(283.553 439.353)"/><path class="b" d="M322.96,291.281a6.537,6.537,0,0,1-3.362-.9l-5.8-3.57a3,3,0,0,1-1.626-2.438,2.345,2.345,0,0,1,1.237-2l6.582-4.051a6.241,6.241,0,0,1,6.023.239l5.8,3.572a2.993,2.993,0,0,1,1.626,2.437,2.347,2.347,0,0,1-1.237,2l-6.582,4.049A5.141,5.141,0,0,1,322.96,291.281Zm-.326-12.355a4,4,0,0,0-2.052.491L314,283.468a1.154,1.154,0,0,0-.642.9,1.832,1.832,0,0,0,1.031,1.341l5.8,3.57a5.173,5.173,0,0,0,4.832.24l6.582-4.051a1.151,1.151,0,0,0,.643-.9,1.83,1.83,0,0,0-1.032-1.34l-5.8-3.571A5.472,5.472,0,0,0,322.634,278.926Z" transform="translate(283.592 439.353)"/><rect class="b" width="1.19" height="6.731" transform="translate(603.515 729.51)"/><rect class="a" width="0.915" height="3.305" transform="translate(613.716 727.803)"/><path class="a" d="M469.4,88.475l-19.28.031a.41.41,0,0,0-.4.423l.007,6.34h.006a2.43,2.43,0,0,0,1.316,1.789l5.8,3.57a5.7,5.7,0,0,0,5.428.24l6.582-4.049a1.687,1.687,0,0,0,.926-1.55h.006V88.9A.41.41,0,0,0,469.4,88.475Z" transform="translate(275.111 439.353)"/><path class="b" d="M459.884,102.082a6.548,6.548,0,0,1-3.362-.9l-5.8-3.57a3.352,3.352,0,0,1-1.493-1.705h-.121l-.006-.632-.008-6.34a1.028,1.028,0,0,1,.991-1.058l19.278-.031h0a.957.957,0,0,1,.7.308,1.092,1.092,0,0,1,.291.748v7h-.07a2.5,2.5,0,0,1-1.159,1.466l-6.582,4.049A5.133,5.133,0,0,1,459.884,102.082Zm-9.595-6.909,0,.05a1.864,1.864,0,0,0,1.021,1.286l5.8,3.571a5.166,5.166,0,0,0,4.833.239l6.582-4.049a1.112,1.112,0,0,0,.631-.956l-.047-.679h.051V89.109l-18.883.03Z" transform="translate(275.15 439.353)"/><path class="b" d="M470.113,88.493l-8.874.015v12.919a4.2,4.2,0,0,0,1.757-.54l6.582-4.049a1.687,1.687,0,0,0,.926-1.55h.006V88.916A.411.411,0,0,0,470.113,88.493Z" transform="translate(274.401 439.353)"/><path class="c" d="M468.868,90.056l-6.582,4.05a5.7,5.7,0,0,1-5.428-.24l-5.8-3.57c-1.606-.988-1.781-2.484-.389-3.34l6.582-4.049a5.705,5.705,0,0,1,5.428.239l5.8,3.571C470.085,87.705,470.26,89.2,468.868,90.056Z" transform="translate(275.111 439.353)"/><path class="b" d="M459.884,95.32a6.545,6.545,0,0,1-3.362-.9l-5.8-3.57a3,3,0,0,1-1.627-2.438,2.343,2.343,0,0,1,1.237-2l6.582-4.05a6.234,6.234,0,0,1,6.022.24l5.8,3.57a3,3,0,0,1,1.626,2.438,2.347,2.347,0,0,1-1.237,2l-6.582,4.05A5.143,5.143,0,0,1,459.884,95.32Zm-.325-12.356a3.985,3.985,0,0,0-2.052.492L450.925,87.5a1.153,1.153,0,0,0-.643.9,1.83,1.83,0,0,0,1.033,1.34l5.8,3.57a5.166,5.166,0,0,0,4.833.24l6.582-4.049a1.157,1.157,0,0,0,.642-.9,1.832,1.832,0,0,0-1.031-1.341l-5.8-3.57A5.468,5.468,0,0,0,459.559,82.964Z" transform="translate(275.15 439.353)"/><rect class="b" width="1.19" height="6.731" transform="translate(731.996 533.547)"/><rect class="a" width="0.915" height="3.304" transform="translate(742.196 531.841)"/><path class="a" d="M457.635,274.657l-19.279.032a.41.41,0,0,0-.4.423l.008,6.34h0a2.434,2.434,0,0,0,1.316,1.789l5.8,3.57a5.7,5.7,0,0,0,5.427.24L457.1,283a1.687,1.687,0,0,0,.926-1.55h.006V275.08A.411.411,0,0,0,457.635,274.657Z" transform="translate(275.836 439.353)"/><path class="b" d="M448.117,288.264a6.544,6.544,0,0,1-3.362-.9l-5.8-3.571a3.35,3.35,0,0,1-1.492-1.7h-.121l-.006-.633-.008-6.34a1.03,1.03,0,0,1,.988-1.059l19.279-.03h0a.955.955,0,0,1,.7.307,1.09,1.09,0,0,1,.292.75v7.005h-.07a2.494,2.494,0,0,1-1.159,1.464l-6.582,4.05A5.147,5.147,0,0,1,448.117,288.264Zm-9.595-6.908,0,.05a1.868,1.868,0,0,0,1.02,1.287l5.8,3.57a5.177,5.177,0,0,0,4.833.239l6.582-4.049a1.109,1.109,0,0,0,.631-.955l-.047-.68h.051v-5.526l-18.883.029Z" transform="translate(275.875 439.353)"/><path class="b" d="M458.345,274.676l-8.873.015V287.61a4.2,4.2,0,0,0,1.757-.54l6.582-4.049a1.688,1.688,0,0,0,.926-1.551h.006V275.1A.411.411,0,0,0,458.345,274.676Z" transform="translate(275.126 439.353)"/><path class="c" d="M457.1,276.239l-6.582,4.05a5.7,5.7,0,0,1-5.427-.24l-5.8-3.57c-1.606-.988-1.781-2.484-.389-3.34l6.582-4.049a5.705,5.705,0,0,1,5.428.239l5.8,3.571C458.317,273.888,458.492,275.383,457.1,276.239Z" transform="translate(275.836 439.353)"/><path class="b" d="M448.117,281.5a6.545,6.545,0,0,1-3.362-.9l-5.8-3.57a3,3,0,0,1-1.626-2.438,2.343,2.343,0,0,1,1.237-2l6.582-4.05a6.233,6.233,0,0,1,6.023.24l5.8,3.57a3,3,0,0,1,1.626,2.438,2.347,2.347,0,0,1-1.237,2l-6.582,4.05A5.147,5.147,0,0,1,448.117,281.5Zm-.324-12.355a3.99,3.99,0,0,0-2.054.492l-6.582,4.049a1.154,1.154,0,0,0-.643.9,1.832,1.832,0,0,0,1.032,1.341l5.8,3.57a5.177,5.177,0,0,0,4.833.239l6.582-4.049a1.157,1.157,0,0,0,.642-.9,1.832,1.832,0,0,0-1.031-1.341l-5.8-3.57A5.465,5.465,0,0,0,447.793,269.147Z" transform="translate(275.875 439.353)"/><rect class="b" width="1.19" height="6.73" transform="translate(720.954 719.73)"/><rect class="a" width="0.915" height="3.304" transform="translate(731.155 718.024)"/><g transform="translate(554.729 518.785)"><g transform="translate(0)"><g transform="translate(7.874 23.665)"><path class="b" d="M279.632,113.582l4.226-2.91a.083.083,0,0,0,.017-.117l-5.366-6.941a.074.074,0,0,0-.131.034l-.855,4.223,0,.011-.2,2.9a.09.09,0,0,0,.018.058l2.2,2.729A.072.072,0,0,0,279.632,113.582Z" transform="translate(-276.861 -103.097)"/><path class="b" d="M279.563,114.081a.519.519,0,0,1-.4-.2L276.831,111v-.263l.2-2.891.926-4.6.333-.133a.51.51,0,0,1,.538.19l5.5,7.109-.015.278a.573.573,0,0,1-.235.389l-4.226,2.909A.505.505,0,0,1,279.563,114.081Zm-1.808-3.433,1.88,2.331,3.585-2.468-4.591-5.937-.689,3.4Z" transform="translate(-276.831 -103.097)"/></g><g transform="translate(0.709)"><path class="c" d="M295.167,92.609,275,80.2a1.4,1.4,0,0,0-1.316-.2h0l-3.944,2.518a.121.121,0,0,0-.025.18l4.713,5.311a.122.122,0,0,1,.029.08v8.774a4.956,4.956,0,0,0,2.066,3.813l3.006,1.85c.074.11.138.206.211.317a11.959,11.959,0,0,0,4.676,7.489c.145.105.241-.048.145-.241-.485-.983-1.4-3.121-1.12-4.8l.332-.153,6.222,3.828a.116.116,0,0,1,.047.06l2.6,7.387a.106.106,0,0,0,.156.06l3.9-2.5h0a1.583,1.583,0,0,0,.536-1.345v-16.2A4.956,4.956,0,0,0,295.167,92.609Z" transform="translate(-269.226 -79.432)"/><path class="b" d="M292.814,117.011l-.3-.07a.581.581,0,0,1-.339-.357l-2.553-7.261-5.806-3.573a9.548,9.548,0,0,0,1.115,4.115.718.718,0,0,1-.1.844.541.541,0,0,1-.708.027,12.38,12.38,0,0,1-4.849-7.7l-.094-.141-2.921-1.8a5.41,5.41,0,0,1-2.294-4.235V88.238l-4.618-5.2a.624.624,0,0,1-.149-.5.6.6,0,0,1,.279-.436l3.937-2.513a1.826,1.826,0,0,1,1.78.194l20.168,12.409a5.41,5.41,0,0,1,2.294,4.235v16.2a2.064,2.064,0,0,1-.738,1.749ZM283.772,104.6l6.565,4.038.1.227,2.449,6.965,3.541-2.272a1.143,1.143,0,0,0,.313-.927v-16.2a4.464,4.464,0,0,0-1.837-3.391L274.74,80.622a1,1,0,0,0-.907-.171L270.313,82.7l4.54,5.115.03.273v8.775a4.461,4.461,0,0,0,1.837,3.39l3.15,1.991.29.516a11.609,11.609,0,0,0,3.4,6.275,7.785,7.785,0,0,1-.6-3.831l.042-.258Z" transform="translate(-269.195 -79.432)"/></g><g transform="translate(0 2.556)"><path class="a" d="M291.161,95.213,270.939,82.771c-1.111-.684-2.012-.13-2.012,1.237v16.271a4.808,4.808,0,0,0,2.012,3.713l3.111,1.914a.388.388,0,0,1,.157.255,11.945,11.945,0,0,0,4.68,7.52c.145.105.241-.048.145-.241-.5-1.017-1.465-3.271-1.087-4.976.018-.081.09-.106.167-.059l13.049,8.029c1.111.684,2.011.13,2.011-1.238V98.926A4.806,4.806,0,0,0,291.161,95.213Z" transform="translate(-268.47 -81.988)"/><path class="b" d="M292.03,117.216a2.169,2.169,0,0,1-1.128-.36L278.293,109.1a9.54,9.54,0,0,0,1.114,4.116.716.716,0,0,1-.1.843.543.543,0,0,1-.709.028,12.542,12.542,0,0,1-4.865-7.791l-3.053-1.879a5.282,5.282,0,0,1-2.24-4.135V84.008a2.011,2.011,0,0,1,.817-1.81,1.748,1.748,0,0,1,1.879.15l20.222,12.443a5.28,5.28,0,0,1,2.241,4.135V115.2a2.009,2.009,0,0,1-.818,1.81A1.407,1.407,0,0,1,292.03,117.216Zm-14.023-9.322a.582.582,0,0,1,.3.089l13.049,8.029a.956.956,0,0,0,.965.15,1.1,1.1,0,0,0,.361-.966V98.926a4.334,4.334,0,0,0-1.783-3.291L270.68,83.193a.954.954,0,0,0-.965-.151,1.1,1.1,0,0,0-.361.966v16.271a4.337,4.337,0,0,0,1.783,3.291l3.112,1.914a.869.869,0,0,1,.379.6,11.549,11.549,0,0,0,3.408,6.305,7.47,7.47,0,0,1-.565-4.033l.053-.238.265-.172A.528.528,0,0,1,278.007,107.894Z" transform="translate(-268.44 -81.988)"/></g><g transform="translate(23.368 13.308)"><path class="b" d="M.03.136l4.2-.12L4.2.974,0,1.094Z" transform="translate(-0.096 2.198) rotate(-31.298)"/></g><g transform="translate(4.507 1.777)"><path class="b" d="M.03.136l4.2-.12L4.2.974,0,1.094Z" transform="translate(-0.096 2.198) rotate(-31.298)"/></g><g transform="translate(24.458 17.393)"><path class="b" d="M.031.154,4.713.017,4.686.975,0,1.111Z" transform="translate(-0.108 2.521) rotate(-32.31)"/></g></g></g><g transform="translate(579.431 538.856)"><path class="b" d="M298.779,99.5l-4.013,2.591V116.2l3.884-2.268.129-1.011Z" transform="translate(-294.765 -99.503)"/></g><path class="b" d="M.006.027,4.716,0l0,.916L0,.942Z" transform="matrix(0.082, -0.997, 0.997, 0.082, 560.978, 515.256)"/><path class="b" d="M.138.025,1.063,0,.94,5.377.015,5.4Z" transform="translate(555.923 510.954) rotate(-23.674)"/><path class="b" d="M.135.029,1.095,0,.975,4.314l-.96.026Z" transform="translate(551.935 515.651) rotate(-60.523)"/><path class="c" d="M283.768,108.031l-2.563-1.577v-1.347a9.946,9.946,0,0,1-1.844-2.43l-.953.09-1.2-3.287,1-.094a6.97,6.97,0,0,1-.115-1.2,4.934,4.934,0,0,1,.149-1.218l-.974-1.293,1.348-2.045,1.023,1.355a2.452,2.452,0,0,1,1.567-.185V93.327l2.563,1.577v1.347a9.974,9.974,0,0,1,1.844,2.43l.954-.091,1.2,3.288-1,.094a6.969,6.969,0,0,1,.115,1.2,4.934,4.934,0,0,1-.15,1.218l.975,1.293-1.349,2.045-1.022-1.355a2.458,2.458,0,0,1-1.568.184Zm-1.877-2,1.191.732V105.6l.442.142a1.916,1.916,0,0,0,1.714-.147l.259-.177.824,1.091.527-.8-.875-1.162.053-.184a4.257,4.257,0,0,0,.171-1.194,7.024,7.024,0,0,0-.177-1.448l-.085-.407.86-.082-.68-1.868-.88.084-.109-.207a9.258,9.258,0,0,0-1.922-2.549l-.12-.109v-1.26l-1.191-.733v1.162l-.442-.143a1.91,1.91,0,0,0-1.713.148l-.26.178-.824-1.092-.527.8L279,96.807l-.052.185a4.225,4.225,0,0,0-.171,1.194,7.079,7.079,0,0,0,.176,1.448l.086.407-.86.081.68,1.869.882-.084.108.207a9.213,9.213,0,0,0,1.921,2.548l.12.11Zm1.349-2.677a1.425,1.425,0,0,1-.436-.072h0a4.046,4.046,0,0,1-2.275-4.2,1.382,1.382,0,0,1,.6-.911,1.226,1.226,0,0,1,1.04-.1,4.047,4.047,0,0,1,2.275,4.2,1.377,1.377,0,0,1-.6.912A1.139,1.139,0,0,1,283.241,103.355Zm-.239-.773a.585.585,0,0,0,.5-.03.672.672,0,0,0,.275-.446,3.372,3.372,0,0,0-1.8-3.331.6.6,0,0,0-.5.03.671.671,0,0,0-.274.447A3.369,3.369,0,0,0,283,102.582Z" transform="translate(285.748 439.353)"/><path class="b" d="M285.167,101.558a7.461,7.461,0,0,0-.186-1.528l.925-.087-.938-2.578-.917.087a9.628,9.628,0,0,0-2-2.648V93.5l-1.877-1.155v1.3a2.224,2.224,0,0,0-2,.189l-.916-1.214-.938,1.423.924,1.225a4.667,4.667,0,0,0-.186,1.3,7.529,7.529,0,0,0,.186,1.528l-.924.088.938,2.577.916-.087a9.583,9.583,0,0,0,2,2.648v1.3l1.877,1.155v-1.3a2.222,2.222,0,0,0,2-.189l.917,1.214.938-1.422-.925-1.226A4.631,4.631,0,0,0,285.167,101.558Zm-3.636-.239a3.71,3.71,0,0,1-2.039-3.765.893.893,0,0,1,1.207-.743,3.711,3.711,0,0,1,2.04,3.765A.894.894,0,0,1,281.531,101.319Z" transform="translate(285.802 439.353)"/></g></svg>